%TF.GenerationSoftware,KiCad,Pcbnew,(6.0.9-0)*%
%TF.CreationDate,2022-11-13T08:04:19-06:00*%
%TF.ProjectId,ProgramingAddOn,50726f67-7261-46d6-996e-674164644f6e,rev?*%
%TF.SameCoordinates,Original*%
%TF.FileFunction,Soldermask,Top*%
%TF.FilePolarity,Negative*%
%FSLAX46Y46*%
G04 Gerber Fmt 4.6, Leading zero omitted, Abs format (unit mm)*
G04 Created by KiCad (PCBNEW (6.0.9-0)) date 2022-11-13 08:04:19*
%MOMM*%
%LPD*%
G01*
G04 APERTURE LIST*
G04 Aperture macros list*
%AMRoundRect*
0 Rectangle with rounded corners*
0 $1 Rounding radius*
0 $2 $3 $4 $5 $6 $7 $8 $9 X,Y pos of 4 corners*
0 Add a 4 corners polygon primitive as box body*
4,1,4,$2,$3,$4,$5,$6,$7,$8,$9,$2,$3,0*
0 Add four circle primitives for the rounded corners*
1,1,$1+$1,$2,$3*
1,1,$1+$1,$4,$5*
1,1,$1+$1,$6,$7*
1,1,$1+$1,$8,$9*
0 Add four rect primitives between the rounded corners*
20,1,$1+$1,$2,$3,$4,$5,0*
20,1,$1+$1,$4,$5,$6,$7,0*
20,1,$1+$1,$6,$7,$8,$9,0*
20,1,$1+$1,$8,$9,$2,$3,0*%
G04 Aperture macros list end*
%ADD10C,2.000000*%
%ADD11RoundRect,0.225000X0.250000X-0.225000X0.250000X0.225000X-0.250000X0.225000X-0.250000X-0.225000X0*%
%ADD12RoundRect,0.243750X-0.456250X0.243750X-0.456250X-0.243750X0.456250X-0.243750X0.456250X0.243750X0*%
%ADD13RoundRect,0.200000X0.275000X-0.200000X0.275000X0.200000X-0.275000X0.200000X-0.275000X-0.200000X0*%
%ADD14R,0.700000X1.000000*%
%ADD15R,0.700000X0.600000*%
%ADD16R,1.600000X1.600000*%
%ADD17O,1.600000X1.600000*%
%ADD18R,1.350000X0.400000*%
%ADD19R,1.550000X1.200000*%
%ADD20O,1.550000X0.890000*%
%ADD21O,0.950000X1.250000*%
%ADD22R,1.550000X1.500000*%
%ADD23RoundRect,0.225000X-0.225000X-0.250000X0.225000X-0.250000X0.225000X0.250000X-0.225000X0.250000X0*%
%ADD24R,0.300000X0.300000*%
%ADD25R,0.900000X0.300000*%
%ADD26R,0.300000X0.900000*%
%ADD27R,1.800000X1.800000*%
%ADD28RoundRect,0.225000X0.225000X0.250000X-0.225000X0.250000X-0.225000X-0.250000X0.225000X-0.250000X0*%
%ADD29R,1.700000X1.700000*%
%ADD30O,1.700000X1.700000*%
G04 APERTURE END LIST*
D10*
%TO.C,SW2*%
X74050000Y-55880000D03*
X80550000Y-55880000D03*
X80550000Y-60380000D03*
X74050000Y-60380000D03*
%TD*%
D11*
%TO.C,C3*%
X79955557Y-87832003D03*
X79955557Y-86282003D03*
%TD*%
D12*
%TO.C,D2*%
X66040000Y-86312500D03*
X66040000Y-88187500D03*
%TD*%
D13*
%TO.C,R3*%
X63485603Y-92646873D03*
X63485603Y-90996873D03*
%TD*%
D14*
%TO.C,D1*%
X84820000Y-92190000D03*
D15*
X84820000Y-90490000D03*
X82820000Y-90490000D03*
X82820000Y-92390000D03*
%TD*%
D16*
%TO.C,SW7*%
X82560000Y-80010000D03*
D17*
X85100000Y-80010000D03*
X87640000Y-80010000D03*
X90180000Y-80010000D03*
X90180000Y-72390000D03*
X87640000Y-72390000D03*
X85100000Y-72390000D03*
X82560000Y-72390000D03*
%TD*%
D18*
%TO.C,J1*%
X93850000Y-91381298D03*
X93850000Y-90731298D03*
X93850000Y-90081298D03*
X93850000Y-89431298D03*
X93850000Y-88781298D03*
D19*
X96550000Y-87181298D03*
D20*
X96550000Y-86581298D03*
D21*
X93850000Y-92581298D03*
D22*
X96550000Y-89081298D03*
D19*
X96550000Y-92981298D03*
D21*
X93850000Y-87581298D03*
D22*
X96550000Y-91081298D03*
D20*
X96550000Y-93581298D03*
%TD*%
D16*
%TO.C,SW1*%
X86380000Y-64770000D03*
D17*
X88920000Y-64770000D03*
X88920000Y-57150000D03*
X86380000Y-57150000D03*
%TD*%
D13*
%TO.C,R5*%
X71120000Y-92710000D03*
X71120000Y-91060000D03*
%TD*%
%TO.C,R4*%
X68580000Y-92710000D03*
X68580000Y-91060000D03*
%TD*%
D11*
%TO.C,C1*%
X85090000Y-88405000D03*
X85090000Y-86855000D03*
%TD*%
D23*
%TO.C,C4*%
X81775000Y-88900000D03*
X83325000Y-88900000D03*
%TD*%
D10*
%TO.C,SW4*%
X70000000Y-64430000D03*
X63500000Y-64430000D03*
X63500000Y-68930000D03*
X70000000Y-68930000D03*
%TD*%
%TO.C,SW3*%
X70000000Y-55880000D03*
X63500000Y-55880000D03*
X63500000Y-60380000D03*
X70000000Y-60380000D03*
%TD*%
D12*
%TO.C,D5*%
X71120000Y-86312500D03*
X71120000Y-88187500D03*
%TD*%
D24*
%TO.C,U1*%
X79990000Y-92690000D03*
D25*
X80290000Y-92190000D03*
X80290000Y-91690000D03*
X80290000Y-91190000D03*
X80290000Y-90690000D03*
D24*
X79990000Y-90190000D03*
D26*
X79490000Y-89890000D03*
X78990000Y-89890000D03*
X78490000Y-89890000D03*
X77990000Y-89890000D03*
D24*
X77490000Y-90190000D03*
D25*
X77190000Y-90690000D03*
X77190000Y-91190000D03*
X77190000Y-91690000D03*
X77190000Y-92190000D03*
D24*
X77490000Y-92690000D03*
D26*
X77990000Y-92990000D03*
X78490000Y-92990000D03*
X78990000Y-92990000D03*
X79490000Y-92990000D03*
D27*
X78740000Y-91440000D03*
%TD*%
D13*
%TO.C,R2*%
X66040000Y-92710000D03*
X66040000Y-91060000D03*
%TD*%
D12*
%TO.C,D4*%
X68580000Y-86322768D03*
X68580000Y-88197768D03*
%TD*%
D13*
%TO.C,R1*%
X74930000Y-90995000D03*
X74930000Y-89345000D03*
%TD*%
D28*
%TO.C,C2*%
X78245000Y-87630000D03*
X76695000Y-87630000D03*
%TD*%
D10*
%TO.C,SW6*%
X74050000Y-64430000D03*
X80550000Y-64430000D03*
X80550000Y-68930000D03*
X74050000Y-68930000D03*
%TD*%
D16*
%TO.C,SW5*%
X72390000Y-72400000D03*
D17*
X69850000Y-72400000D03*
X67310000Y-72400000D03*
X64770000Y-72400000D03*
X64770000Y-80020000D03*
X67310000Y-80020000D03*
X69850000Y-80020000D03*
X72390000Y-80020000D03*
%TD*%
D29*
%TO.C,J4*%
X63495000Y-51365000D03*
D30*
X66035000Y-51365000D03*
X68575000Y-51365000D03*
X71115000Y-51365000D03*
X73655000Y-51365000D03*
X76195000Y-51365000D03*
X78735000Y-51365000D03*
X81275000Y-51365000D03*
X83815000Y-51365000D03*
X86355000Y-51365000D03*
X88895000Y-51365000D03*
X91435000Y-51365000D03*
%TD*%
D12*
%TO.C,D3*%
X63485603Y-86348507D03*
X63485603Y-88223507D03*
%TD*%
D29*
%TO.C,J5*%
X63500000Y-83830000D03*
D30*
X66040000Y-83830000D03*
X68580000Y-83830000D03*
X71120000Y-83830000D03*
X73660000Y-83830000D03*
X76200000Y-83830000D03*
X78740000Y-83830000D03*
X81280000Y-83830000D03*
X83820000Y-83830000D03*
X86360000Y-83830000D03*
X88900000Y-83830000D03*
X91440000Y-83830000D03*
%TD*%
M02*
