%TF.GenerationSoftware,KiCad,Pcbnew,(6.0.9-0)*%
%TF.CreationDate,2022-11-13T08:04:19-06:00*%
%TF.ProjectId,ProgramingAddOn,50726f67-7261-46d6-996e-674164644f6e,rev?*%
%TF.SameCoordinates,Original*%
%TF.FileFunction,Soldermask,Bot*%
%TF.FilePolarity,Negative*%
%FSLAX46Y46*%
G04 Gerber Fmt 4.6, Leading zero omitted, Abs format (unit mm)*
G04 Created by KiCad (PCBNEW (6.0.9-0)) date 2022-11-13 08:04:19*
%MOMM*%
%LPD*%
G01*
G04 APERTURE LIST*
%ADD10C,2.000000*%
%ADD11R,1.600000X1.600000*%
%ADD12O,1.600000X1.600000*%
%ADD13O,1.550000X0.890000*%
%ADD14O,0.950000X1.250000*%
%ADD15R,1.700000X1.700000*%
%ADD16O,1.700000X1.700000*%
G04 APERTURE END LIST*
D10*
%TO.C,SW2*%
X74050000Y-55880000D03*
X80550000Y-55880000D03*
X80550000Y-60380000D03*
X74050000Y-60380000D03*
%TD*%
D11*
%TO.C,SW7*%
X82560000Y-80010000D03*
D12*
X85100000Y-80010000D03*
X87640000Y-80010000D03*
X90180000Y-80010000D03*
X90180000Y-72390000D03*
X87640000Y-72390000D03*
X85100000Y-72390000D03*
X82560000Y-72390000D03*
%TD*%
D13*
%TO.C,J1*%
X96550000Y-86581298D03*
D14*
X93850000Y-92581298D03*
X93850000Y-87581298D03*
D13*
X96550000Y-93581298D03*
%TD*%
D11*
%TO.C,SW1*%
X86380000Y-64770000D03*
D12*
X88920000Y-64770000D03*
X88920000Y-57150000D03*
X86380000Y-57150000D03*
%TD*%
D10*
%TO.C,SW4*%
X70000000Y-64430000D03*
X63500000Y-64430000D03*
X63500000Y-68930000D03*
X70000000Y-68930000D03*
%TD*%
%TO.C,SW3*%
X70000000Y-55880000D03*
X63500000Y-55880000D03*
X63500000Y-60380000D03*
X70000000Y-60380000D03*
%TD*%
%TO.C,SW6*%
X74050000Y-64430000D03*
X80550000Y-64430000D03*
X80550000Y-68930000D03*
X74050000Y-68930000D03*
%TD*%
D11*
%TO.C,SW5*%
X72390000Y-72400000D03*
D12*
X69850000Y-72400000D03*
X67310000Y-72400000D03*
X64770000Y-72400000D03*
X64770000Y-80020000D03*
X67310000Y-80020000D03*
X69850000Y-80020000D03*
X72390000Y-80020000D03*
%TD*%
D15*
%TO.C,J4*%
X63495000Y-51365000D03*
D16*
X66035000Y-51365000D03*
X68575000Y-51365000D03*
X71115000Y-51365000D03*
X73655000Y-51365000D03*
X76195000Y-51365000D03*
X78735000Y-51365000D03*
X81275000Y-51365000D03*
X83815000Y-51365000D03*
X86355000Y-51365000D03*
X88895000Y-51365000D03*
X91435000Y-51365000D03*
%TD*%
D15*
%TO.C,J5*%
X63500000Y-83830000D03*
D16*
X66040000Y-83830000D03*
X68580000Y-83830000D03*
X71120000Y-83830000D03*
X73660000Y-83830000D03*
X76200000Y-83830000D03*
X78740000Y-83830000D03*
X81280000Y-83830000D03*
X83820000Y-83830000D03*
X86360000Y-83830000D03*
X88900000Y-83830000D03*
X91440000Y-83830000D03*
%TD*%
M02*
