%TF.GenerationSoftware,KiCad,Pcbnew,(6.0.9-0)*%
%TF.CreationDate,2022-11-13T08:04:19-06:00*%
%TF.ProjectId,ProgramingAddOn,50726f67-7261-46d6-996e-674164644f6e,rev?*%
%TF.SameCoordinates,Original*%
%TF.FileFunction,Paste,Top*%
%TF.FilePolarity,Positive*%
%FSLAX46Y46*%
G04 Gerber Fmt 4.6, Leading zero omitted, Abs format (unit mm)*
G04 Created by KiCad (PCBNEW (6.0.9-0)) date 2022-11-13 08:04:19*
%MOMM*%
%LPD*%
G01*
G04 APERTURE LIST*
G04 Aperture macros list*
%AMRoundRect*
0 Rectangle with rounded corners*
0 $1 Rounding radius*
0 $2 $3 $4 $5 $6 $7 $8 $9 X,Y pos of 4 corners*
0 Add a 4 corners polygon primitive as box body*
4,1,4,$2,$3,$4,$5,$6,$7,$8,$9,$2,$3,0*
0 Add four circle primitives for the rounded corners*
1,1,$1+$1,$2,$3*
1,1,$1+$1,$4,$5*
1,1,$1+$1,$6,$7*
1,1,$1+$1,$8,$9*
0 Add four rect primitives between the rounded corners*
20,1,$1+$1,$2,$3,$4,$5,0*
20,1,$1+$1,$4,$5,$6,$7,0*
20,1,$1+$1,$6,$7,$8,$9,0*
20,1,$1+$1,$8,$9,$2,$3,0*%
G04 Aperture macros list end*
%ADD10RoundRect,0.225000X0.250000X-0.225000X0.250000X0.225000X-0.250000X0.225000X-0.250000X-0.225000X0*%
%ADD11RoundRect,0.243750X-0.456250X0.243750X-0.456250X-0.243750X0.456250X-0.243750X0.456250X0.243750X0*%
%ADD12RoundRect,0.200000X0.275000X-0.200000X0.275000X0.200000X-0.275000X0.200000X-0.275000X-0.200000X0*%
%ADD13R,0.700000X1.000000*%
%ADD14R,0.700000X0.600000*%
%ADD15O,1.550000X0.890000*%
%ADD16O,0.950000X1.250000*%
%ADD17R,1.350000X0.400000*%
%ADD18R,1.550000X1.200000*%
%ADD19R,1.550000X1.500000*%
%ADD20RoundRect,0.225000X-0.225000X-0.250000X0.225000X-0.250000X0.225000X0.250000X-0.225000X0.250000X0*%
%ADD21R,0.540000X0.540000*%
%ADD22R,0.300000X0.300000*%
%ADD23R,0.900000X0.300000*%
%ADD24R,0.300000X0.900000*%
%ADD25RoundRect,0.225000X0.225000X0.250000X-0.225000X0.250000X-0.225000X-0.250000X0.225000X-0.250000X0*%
G04 APERTURE END LIST*
D10*
%TO.C,C3*%
X79955557Y-87832003D03*
X79955557Y-86282003D03*
%TD*%
D11*
%TO.C,D2*%
X66040000Y-86312500D03*
X66040000Y-88187500D03*
%TD*%
D12*
%TO.C,R3*%
X63485603Y-92646873D03*
X63485603Y-90996873D03*
%TD*%
D13*
%TO.C,D1*%
X84820000Y-92190000D03*
D14*
X84820000Y-90490000D03*
X82820000Y-90490000D03*
X82820000Y-92390000D03*
%TD*%
D15*
%TO.C,J1*%
X96550000Y-86581298D03*
X96550000Y-93581298D03*
D16*
X93850000Y-92581298D03*
X93850000Y-87581298D03*
D17*
X93850000Y-91381298D03*
X93850000Y-90731298D03*
X93850000Y-90081298D03*
X93850000Y-89431298D03*
X93850000Y-88781298D03*
D18*
X96550000Y-87181298D03*
D19*
X96550000Y-89081298D03*
D18*
X96550000Y-92981298D03*
D19*
X96550000Y-91081298D03*
%TD*%
D12*
%TO.C,R5*%
X71120000Y-92710000D03*
X71120000Y-91060000D03*
%TD*%
%TO.C,R4*%
X68580000Y-92710000D03*
X68580000Y-91060000D03*
%TD*%
D10*
%TO.C,C1*%
X85090000Y-88405000D03*
X85090000Y-86855000D03*
%TD*%
D20*
%TO.C,C4*%
X81775000Y-88900000D03*
X83325000Y-88900000D03*
%TD*%
D11*
%TO.C,D5*%
X71120000Y-86312500D03*
X71120000Y-88187500D03*
%TD*%
D21*
%TO.C,U1*%
X79190000Y-90990000D03*
X78290000Y-91890000D03*
X78290000Y-90990000D03*
X79190000Y-91890000D03*
D22*
X79990000Y-92690000D03*
D23*
X80290000Y-92190000D03*
X80290000Y-91690000D03*
X80290000Y-91190000D03*
X80290000Y-90690000D03*
D22*
X79990000Y-90190000D03*
D24*
X79490000Y-89890000D03*
X78990000Y-89890000D03*
X78490000Y-89890000D03*
X77990000Y-89890000D03*
D22*
X77490000Y-90190000D03*
D23*
X77190000Y-90690000D03*
X77190000Y-91190000D03*
X77190000Y-91690000D03*
X77190000Y-92190000D03*
D22*
X77490000Y-92690000D03*
D24*
X77990000Y-92990000D03*
X78490000Y-92990000D03*
X78990000Y-92990000D03*
X79490000Y-92990000D03*
%TD*%
D12*
%TO.C,R2*%
X66040000Y-92710000D03*
X66040000Y-91060000D03*
%TD*%
D11*
%TO.C,D4*%
X68580000Y-86322768D03*
X68580000Y-88197768D03*
%TD*%
D12*
%TO.C,R1*%
X74930000Y-90995000D03*
X74930000Y-89345000D03*
%TD*%
D25*
%TO.C,C2*%
X78245000Y-87630000D03*
X76695000Y-87630000D03*
%TD*%
D11*
%TO.C,D3*%
X63485603Y-86348507D03*
X63485603Y-88223507D03*
%TD*%
M02*
