M48
; DRILL file {KiCad (6.0.9-0)} date Sunday, November 13, 2022 at 08:04:28 AM
; FORMAT={-:-/ absolute / inch / decimal}
; #@! TF.CreationDate,2022-11-13T08:04:28-06:00
; #@! TF.GenerationSoftware,Kicad,Pcbnew,(6.0.9-0)
; #@! TF.FileFunction,Plated,1,6,PTH
FMAT,2
INCH
; #@! TA.AperFunction,Plated,PTH,ViaDrill
T1C0.0157
; #@! TA.AperFunction,Plated,PTH,ComponentDrill
T2C0.0197
; #@! TA.AperFunction,Plated,PTH,ComponentDrill
T3C0.0217
; #@! TA.AperFunction,Plated,PTH,ComponentDrill
T4C0.0315
; #@! TA.AperFunction,Plated,PTH,ComponentDrill
T5C0.0394
; #@! TA.AperFunction,Plated,PTH,ComponentDrill
T6C0.0433
%
G90
G05
T1
X2.55Y-2.275
X2.55Y-3.025
X2.65Y-2.325
X2.65Y-2.55
X2.85Y-3.65
X2.95Y-3.45
X2.95Y-3.625
X3.0Y-3.55
X3.025Y-3.7
X3.0433Y-2.55
X3.05Y-2.2
X3.05Y-2.75
X3.05Y-2.825
X3.05Y-3.15
X3.0996Y-3.7019
X3.1Y-3.4035
X3.1Y-3.6
X3.2Y-3.425
X3.2116Y-3.5429
X3.2164Y-3.6321
X3.25Y-2.95
X3.25Y-3.7
X3.275Y-3.45
X3.3Y-3.725
X3.35Y-2.15
X3.4Y-2.75
X3.4Y-3.425
X3.4Y-3.625
X3.45Y-2.375
X3.45Y-2.975
X3.45Y-3.525
X3.4715Y-3.625
X3.5Y-2.125
X3.55Y-2.75
X3.65Y-2.15
X3.65Y-2.275
X3.65Y-2.425
X3.65Y-2.575
T4
X2.55Y-2.8504
X2.55Y-3.1504
X2.65Y-2.8504
X2.65Y-3.1504
X2.75Y-2.8504
X2.75Y-3.1504
X2.85Y-2.8504
X2.85Y-3.1504
X3.2504Y-2.85
X3.2504Y-3.15
X3.3504Y-2.85
X3.3504Y-3.15
X3.4008Y-2.25
X3.4008Y-2.55
X3.4504Y-2.85
X3.4504Y-3.15
X3.5008Y-2.25
X3.5008Y-2.55
X3.5504Y-2.85
X3.5504Y-3.15
T5
X2.4998Y-2.0222
X2.5Y-3.3004
X2.5998Y-2.0222
X2.6Y-3.3004
X2.6998Y-2.0222
X2.7Y-3.3004
X2.7998Y-2.0222
X2.8Y-3.3004
X2.8998Y-2.0222
X2.9Y-3.3004
X2.9998Y-2.0222
X3.0Y-3.3004
X3.0998Y-2.0222
X3.1Y-3.3004
X3.1998Y-2.0222
X3.2Y-3.3004
X3.2998Y-2.0222
X3.3Y-3.3004
X3.3998Y-2.0222
X3.4Y-3.3004
X3.4998Y-2.0222
X3.5Y-3.3004
X3.5998Y-2.0222
X3.6Y-3.3004
T6
X2.5Y-2.2
X2.5Y-2.3772
X2.5Y-2.5366
X2.5Y-2.7138
X2.7559Y-2.2
X2.7559Y-2.3772
X2.7559Y-2.5366
X2.7559Y-2.7138
X2.9154Y-2.2
X2.9154Y-2.3772
X2.9154Y-2.5366
X2.9154Y-2.7138
X3.1713Y-2.2
X3.1713Y-2.3772
X3.1713Y-2.5366
X3.1713Y-2.7138
T2
G00X3.7884Y-3.4087
M15
G01X3.814Y-3.4087
M16
G05
G00X3.7884Y-3.6843
M15
G01X3.814Y-3.6843
M16
G05
T3
G00X3.6949Y-3.454
M15
G01X3.6949Y-3.4422
M16
G05
G00X3.6949Y-3.6508
M15
G01X3.6949Y-3.639
M16
G05
T0
M30
