%TF.GenerationSoftware,KiCad,Pcbnew,(6.0.9-0)*%
%TF.CreationDate,2022-11-13T08:04:19-06:00*%
%TF.ProjectId,ProgramingAddOn,50726f67-7261-46d6-996e-674164644f6e,rev?*%
%TF.SameCoordinates,Original*%
%TF.FileFunction,Copper,L1,Top*%
%TF.FilePolarity,Positive*%
%FSLAX46Y46*%
G04 Gerber Fmt 4.6, Leading zero omitted, Abs format (unit mm)*
G04 Created by KiCad (PCBNEW (6.0.9-0)) date 2022-11-13 08:04:19*
%MOMM*%
%LPD*%
G01*
G04 APERTURE LIST*
G04 Aperture macros list*
%AMRoundRect*
0 Rectangle with rounded corners*
0 $1 Rounding radius*
0 $2 $3 $4 $5 $6 $7 $8 $9 X,Y pos of 4 corners*
0 Add a 4 corners polygon primitive as box body*
4,1,4,$2,$3,$4,$5,$6,$7,$8,$9,$2,$3,0*
0 Add four circle primitives for the rounded corners*
1,1,$1+$1,$2,$3*
1,1,$1+$1,$4,$5*
1,1,$1+$1,$6,$7*
1,1,$1+$1,$8,$9*
0 Add four rect primitives between the rounded corners*
20,1,$1+$1,$2,$3,$4,$5,0*
20,1,$1+$1,$4,$5,$6,$7,0*
20,1,$1+$1,$6,$7,$8,$9,0*
20,1,$1+$1,$8,$9,$2,$3,0*%
G04 Aperture macros list end*
%TA.AperFunction,ComponentPad*%
%ADD10C,2.000000*%
%TD*%
%TA.AperFunction,SMDPad,CuDef*%
%ADD11RoundRect,0.225000X0.250000X-0.225000X0.250000X0.225000X-0.250000X0.225000X-0.250000X-0.225000X0*%
%TD*%
%TA.AperFunction,SMDPad,CuDef*%
%ADD12RoundRect,0.243750X-0.456250X0.243750X-0.456250X-0.243750X0.456250X-0.243750X0.456250X0.243750X0*%
%TD*%
%TA.AperFunction,SMDPad,CuDef*%
%ADD13RoundRect,0.200000X0.275000X-0.200000X0.275000X0.200000X-0.275000X0.200000X-0.275000X-0.200000X0*%
%TD*%
%TA.AperFunction,SMDPad,CuDef*%
%ADD14R,0.700000X1.000000*%
%TD*%
%TA.AperFunction,SMDPad,CuDef*%
%ADD15R,0.700000X0.600000*%
%TD*%
%TA.AperFunction,ComponentPad*%
%ADD16R,1.600000X1.600000*%
%TD*%
%TA.AperFunction,ComponentPad*%
%ADD17O,1.600000X1.600000*%
%TD*%
%TA.AperFunction,SMDPad,CuDef*%
%ADD18R,1.350000X0.400000*%
%TD*%
%TA.AperFunction,SMDPad,CuDef*%
%ADD19R,1.550000X1.200000*%
%TD*%
%TA.AperFunction,ComponentPad*%
%ADD20O,1.550000X0.890000*%
%TD*%
%TA.AperFunction,ComponentPad*%
%ADD21O,0.950000X1.250000*%
%TD*%
%TA.AperFunction,SMDPad,CuDef*%
%ADD22R,1.550000X1.500000*%
%TD*%
%TA.AperFunction,SMDPad,CuDef*%
%ADD23RoundRect,0.225000X-0.225000X-0.250000X0.225000X-0.250000X0.225000X0.250000X-0.225000X0.250000X0*%
%TD*%
%TA.AperFunction,SMDPad,CuDef*%
%ADD24R,0.300000X0.300000*%
%TD*%
%TA.AperFunction,SMDPad,CuDef*%
%ADD25R,0.900000X0.300000*%
%TD*%
%TA.AperFunction,SMDPad,CuDef*%
%ADD26R,0.300000X0.900000*%
%TD*%
%TA.AperFunction,SMDPad,CuDef*%
%ADD27R,1.800000X1.800000*%
%TD*%
%TA.AperFunction,SMDPad,CuDef*%
%ADD28RoundRect,0.225000X0.225000X0.250000X-0.225000X0.250000X-0.225000X-0.250000X0.225000X-0.250000X0*%
%TD*%
%TA.AperFunction,ComponentPad*%
%ADD29R,1.700000X1.700000*%
%TD*%
%TA.AperFunction,ComponentPad*%
%ADD30O,1.700000X1.700000*%
%TD*%
%TA.AperFunction,ViaPad*%
%ADD31C,0.800000*%
%TD*%
%TA.AperFunction,Conductor*%
%ADD32C,0.250000*%
%TD*%
%TA.AperFunction,Conductor*%
%ADD33C,0.200000*%
%TD*%
G04 APERTURE END LIST*
D10*
%TO.P,SW2,1,1*%
%TO.N,+3.3V*%
X74050000Y-55880000D03*
X80550000Y-55880000D03*
%TO.P,SW2,2,2*%
%TO.N,Net-(SW2-Pad2)*%
X80550000Y-60380000D03*
X74050000Y-60380000D03*
%TD*%
D11*
%TO.P,C3,1*%
%TO.N,+3.3V*%
X79955557Y-87832003D03*
%TO.P,C3,2*%
%TO.N,GND*%
X79955557Y-86282003D03*
%TD*%
D12*
%TO.P,D2,1,K*%
%TO.N,Net-(D2-Pad1)*%
X66040000Y-86312500D03*
%TO.P,D2,2,A*%
%TO.N,Net-(D2-Pad2)*%
X66040000Y-88187500D03*
%TD*%
D13*
%TO.P,R3,1*%
%TO.N,GND*%
X63485603Y-92646873D03*
%TO.P,R3,2*%
%TO.N,Net-(D3-Pad2)*%
X63485603Y-90996873D03*
%TD*%
D14*
%TO.P,D1,1,A*%
%TO.N,GND*%
X84820000Y-92190000D03*
D15*
%TO.P,D1,2,K*%
%TO.N,VBUS*%
X84820000Y-90490000D03*
%TO.P,D1,3,K*%
%TO.N,/D-*%
X82820000Y-90490000D03*
%TO.P,D1,4,K*%
%TO.N,/D+*%
X82820000Y-92390000D03*
%TD*%
D16*
%TO.P,SW7,1*%
%TO.N,Net-(SW4-Pad2)*%
X82560000Y-80010000D03*
D17*
%TO.P,SW7,2*%
%TO.N,Net-(SW2-Pad2)*%
X85100000Y-80010000D03*
%TO.P,SW7,3*%
%TO.N,Net-(SW6-Pad2)*%
X87640000Y-80010000D03*
%TO.P,SW7,4*%
%TO.N,Net-(SW3-Pad2)*%
X90180000Y-80010000D03*
%TO.P,SW7,5*%
%TO.N,/In-0*%
X90180000Y-72390000D03*
%TO.P,SW7,6*%
%TO.N,/In-1*%
X87640000Y-72390000D03*
%TO.P,SW7,7*%
%TO.N,/In-2 {slash} RX*%
X85100000Y-72390000D03*
%TO.P,SW7,8*%
%TO.N,/In-3 {slash} TX*%
X82560000Y-72390000D03*
%TD*%
D18*
%TO.P,J1,1,VBUS*%
%TO.N,VBUS*%
X93850000Y-91381298D03*
%TO.P,J1,2,D-*%
%TO.N,/D-*%
X93850000Y-90731298D03*
%TO.P,J1,3,D+*%
%TO.N,/D+*%
X93850000Y-90081298D03*
%TO.P,J1,4,ID*%
%TO.N,unconnected-(J1-Pad4)*%
X93850000Y-89431298D03*
%TO.P,J1,5,GND*%
%TO.N,GND*%
X93850000Y-88781298D03*
D19*
%TO.P,J1,6,Shield*%
X96550000Y-87181298D03*
D20*
X96550000Y-86581298D03*
D21*
X93850000Y-92581298D03*
D22*
X96550000Y-89081298D03*
D19*
X96550000Y-92981298D03*
D21*
X93850000Y-87581298D03*
D22*
X96550000Y-91081298D03*
D20*
X96550000Y-93581298D03*
%TD*%
D16*
%TO.P,SW1,1*%
%TO.N,/TXD*%
X86380000Y-64770000D03*
D17*
%TO.P,SW1,2*%
%TO.N,/RXD*%
X88920000Y-64770000D03*
%TO.P,SW1,3*%
%TO.N,/In-3 {slash} TX*%
X88920000Y-57150000D03*
%TO.P,SW1,4*%
%TO.N,/In-2 {slash} RX*%
X86380000Y-57150000D03*
%TD*%
D13*
%TO.P,R5,1*%
%TO.N,GND*%
X71120000Y-92710000D03*
%TO.P,R5,2*%
%TO.N,Net-(D5-Pad2)*%
X71120000Y-91060000D03*
%TD*%
%TO.P,R4,1*%
%TO.N,GND*%
X68580000Y-92710000D03*
%TO.P,R4,2*%
%TO.N,Net-(D4-Pad2)*%
X68580000Y-91060000D03*
%TD*%
D11*
%TO.P,C1,1*%
%TO.N,VBUS*%
X85090000Y-88405000D03*
%TO.P,C1,2*%
%TO.N,GND*%
X85090000Y-86855000D03*
%TD*%
D23*
%TO.P,C4,1*%
%TO.N,+3.3V*%
X81775000Y-88900000D03*
%TO.P,C4,2*%
%TO.N,GND*%
X83325000Y-88900000D03*
%TD*%
D10*
%TO.P,SW4,1,1*%
%TO.N,+3.3V*%
X70000000Y-64430000D03*
X63500000Y-64430000D03*
%TO.P,SW4,2,2*%
%TO.N,Net-(SW4-Pad2)*%
X63500000Y-68930000D03*
X70000000Y-68930000D03*
%TD*%
%TO.P,SW3,1,1*%
%TO.N,+3.3V*%
X70000000Y-55880000D03*
X63500000Y-55880000D03*
%TO.P,SW3,2,2*%
%TO.N,Net-(SW3-Pad2)*%
X63500000Y-60380000D03*
X70000000Y-60380000D03*
%TD*%
D12*
%TO.P,D5,1,K*%
%TO.N,Net-(D5-Pad1)*%
X71120000Y-86312500D03*
%TO.P,D5,2,A*%
%TO.N,Net-(D5-Pad2)*%
X71120000Y-88187500D03*
%TD*%
D24*
%TO.P,U1,1,RS485/GPIO.1*%
%TO.N,unconnected-(U1-Pad1)*%
X79990000Y-92690000D03*
D25*
%TO.P,U1,2,CLK/GPIO.0*%
%TO.N,unconnected-(U1-Pad2)*%
X80290000Y-92190000D03*
%TO.P,U1,3,GND*%
%TO.N,GND*%
X80290000Y-91690000D03*
%TO.P,U1,4,D+*%
%TO.N,/D+*%
X80290000Y-91190000D03*
%TO.P,U1,5,D-*%
%TO.N,/D-*%
X80290000Y-90690000D03*
D24*
%TO.P,U1,6,VDD*%
%TO.N,+3.3V*%
X79990000Y-90190000D03*
D26*
%TO.P,U1,7,VREGIN*%
%TO.N,VBUS*%
X79490000Y-89890000D03*
%TO.P,U1,8,VBUS*%
X78990000Y-89890000D03*
%TO.P,U1,9,~{RST}*%
%TO.N,Net-(R1-Pad2)*%
X78490000Y-89890000D03*
%TO.P,U1,10,NC*%
%TO.N,unconnected-(U1-Pad10)*%
X77990000Y-89890000D03*
D24*
%TO.P,U1,11,~{SUSPEND}*%
%TO.N,unconnected-(U1-Pad11)*%
X77490000Y-90190000D03*
D25*
%TO.P,U1,12,GND*%
%TO.N,GND*%
X77190000Y-90690000D03*
%TO.P,U1,13,~{WAKEUP}*%
%TO.N,unconnected-(U1-Pad13)*%
X77190000Y-91190000D03*
%TO.P,U1,14,SUSPEND*%
%TO.N,unconnected-(U1-Pad14)*%
X77190000Y-91690000D03*
%TO.P,U1,15,~{CTS}*%
%TO.N,unconnected-(U1-Pad15)*%
X77190000Y-92190000D03*
D24*
%TO.P,U1,16,~{RTS}*%
%TO.N,unconnected-(U1-Pad16)*%
X77490000Y-92690000D03*
D26*
%TO.P,U1,17,RXD*%
%TO.N,/RXD*%
X77990000Y-92990000D03*
%TO.P,U1,18,TXD*%
%TO.N,/TXD*%
X78490000Y-92990000D03*
%TO.P,U1,19,~{RXT}/GPIO.3*%
%TO.N,unconnected-(U1-Pad19)*%
X78990000Y-92990000D03*
%TO.P,U1,20,~{TXT}/GPIO.2*%
%TO.N,unconnected-(U1-Pad20)*%
X79490000Y-92990000D03*
D27*
%TO.P,U1,21,GND*%
%TO.N,GND*%
X78740000Y-91440000D03*
%TD*%
D13*
%TO.P,R2,1*%
%TO.N,GND*%
X66040000Y-92710000D03*
%TO.P,R2,2*%
%TO.N,Net-(D2-Pad2)*%
X66040000Y-91060000D03*
%TD*%
D12*
%TO.P,D4,1,K*%
%TO.N,Net-(D4-Pad1)*%
X68580000Y-86322768D03*
%TO.P,D4,2,A*%
%TO.N,Net-(D4-Pad2)*%
X68580000Y-88197768D03*
%TD*%
D13*
%TO.P,R1,1*%
%TO.N,+3.3V*%
X74930000Y-90995000D03*
%TO.P,R1,2*%
%TO.N,Net-(R1-Pad2)*%
X74930000Y-89345000D03*
%TD*%
D28*
%TO.P,C2,1*%
%TO.N,VBUS*%
X78245000Y-87630000D03*
%TO.P,C2,2*%
%TO.N,GND*%
X76695000Y-87630000D03*
%TD*%
D10*
%TO.P,SW6,1,1*%
%TO.N,+3.3V*%
X74050000Y-64430000D03*
X80550000Y-64430000D03*
%TO.P,SW6,2,2*%
%TO.N,Net-(SW6-Pad2)*%
X80550000Y-68930000D03*
X74050000Y-68930000D03*
%TD*%
D16*
%TO.P,SW5,1*%
%TO.N,Net-(D5-Pad1)*%
X72390000Y-72400000D03*
D17*
%TO.P,SW5,2*%
%TO.N,Net-(D4-Pad1)*%
X69850000Y-72400000D03*
%TO.P,SW5,3*%
%TO.N,Net-(D2-Pad1)*%
X67310000Y-72400000D03*
%TO.P,SW5,4*%
%TO.N,Net-(D3-Pad1)*%
X64770000Y-72400000D03*
%TO.P,SW5,5*%
%TO.N,/Out-0*%
X64770000Y-80020000D03*
%TO.P,SW5,6*%
%TO.N,/Out-1*%
X67310000Y-80020000D03*
%TO.P,SW5,7*%
%TO.N,/Out-2*%
X69850000Y-80020000D03*
%TO.P,SW5,8*%
%TO.N,/Out-3*%
X72390000Y-80020000D03*
%TD*%
D29*
%TO.P,J4,1,Pin_1*%
%TO.N,GND*%
X63495000Y-51365000D03*
D30*
%TO.P,J4,2,Pin_2*%
%TO.N,/In-3 {slash} TX*%
X66035000Y-51365000D03*
%TO.P,J4,3,Pin_3*%
%TO.N,/In-2 {slash} RX*%
X68575000Y-51365000D03*
%TO.P,J4,4,Pin_4*%
%TO.N,/In-1*%
X71115000Y-51365000D03*
%TO.P,J4,5,Pin_5*%
%TO.N,/In-0*%
X73655000Y-51365000D03*
%TO.P,J4,6,Pin_6*%
%TO.N,/Out-3*%
X76195000Y-51365000D03*
%TO.P,J4,7,Pin_7*%
%TO.N,/Out-2*%
X78735000Y-51365000D03*
%TO.P,J4,8,Pin_8*%
%TO.N,/Out-1*%
X81275000Y-51365000D03*
%TO.P,J4,9,Pin_9*%
%TO.N,/Out-0*%
X83815000Y-51365000D03*
%TO.P,J4,10,Pin_10*%
%TO.N,GND*%
X86355000Y-51365000D03*
%TO.P,J4,11,Pin_11*%
%TO.N,+3.3V*%
X88895000Y-51365000D03*
%TO.P,J4,12,Pin_12*%
%TO.N,/Reset*%
X91435000Y-51365000D03*
%TD*%
D12*
%TO.P,D3,1,K*%
%TO.N,Net-(D3-Pad1)*%
X63485603Y-86348507D03*
%TO.P,D3,2,A*%
%TO.N,Net-(D3-Pad2)*%
X63485603Y-88223507D03*
%TD*%
D29*
%TO.P,J5,1,Pin_1*%
%TO.N,GND*%
X63500000Y-83830000D03*
D30*
%TO.P,J5,2,Pin_2*%
%TO.N,/In-3 {slash} TX*%
X66040000Y-83830000D03*
%TO.P,J5,3,Pin_3*%
%TO.N,/In-2 {slash} RX*%
X68580000Y-83830000D03*
%TO.P,J5,4,Pin_4*%
%TO.N,/In-1*%
X71120000Y-83830000D03*
%TO.P,J5,5,Pin_5*%
%TO.N,/In-0*%
X73660000Y-83830000D03*
%TO.P,J5,6,Pin_6*%
%TO.N,/Out-3*%
X76200000Y-83830000D03*
%TO.P,J5,7,Pin_7*%
%TO.N,/Out-2*%
X78740000Y-83830000D03*
%TO.P,J5,8,Pin_8*%
%TO.N,/Out-1*%
X81280000Y-83830000D03*
%TO.P,J5,9,Pin_9*%
%TO.N,/Out-0*%
X83820000Y-83830000D03*
%TO.P,J5,10,Pin_10*%
%TO.N,GND*%
X86360000Y-83830000D03*
%TO.P,J5,11,Pin_11*%
%TO.N,+3.3V*%
X88900000Y-83830000D03*
%TO.P,J5,12,Pin_12*%
%TO.N,/Reset*%
X91440000Y-83830000D03*
%TD*%
D31*
%TO.N,VBUS*%
X87630000Y-89535000D03*
X78740000Y-86449500D03*
X88175000Y-92075000D03*
%TO.N,GND*%
X83820000Y-94615000D03*
X72390000Y-92710000D03*
X87630000Y-60325000D03*
X88900000Y-53975000D03*
X64770000Y-57785000D03*
X67310000Y-64770000D03*
X83185000Y-87630000D03*
X92710000Y-54610000D03*
X82550000Y-74930000D03*
X85090000Y-54610000D03*
X86360000Y-92075000D03*
X76200000Y-90170000D03*
X76835000Y-93980000D03*
X87630000Y-75565000D03*
X64770000Y-76835000D03*
X77470000Y-69850000D03*
X81280000Y-86995000D03*
X86360000Y-69850000D03*
X77300000Y-64770000D03*
X77470000Y-55880000D03*
X92710000Y-57785000D03*
X74930000Y-87630000D03*
X92710000Y-61595000D03*
X81695602Y-92254846D03*
X92710000Y-65405000D03*
X67310000Y-59055000D03*
X86360000Y-86995000D03*
X90170000Y-69850000D03*
X78740000Y-91440000D03*
%TO.N,+3.3V*%
X81575767Y-89990500D03*
X74930000Y-92075000D03*
%TO.N,/TXD*%
X78730837Y-94029479D03*
%TO.N,/RXD*%
X82550000Y-93980000D03*
%TO.N,Net-(SW4-Pad2)*%
X77470000Y-71755000D03*
X77470000Y-80010000D03*
%TD*%
D32*
%TO.N,/In-1*%
X71115000Y-51365000D02*
X71115000Y-50170000D01*
X92075000Y-48895000D02*
X92710000Y-49530000D01*
X71115000Y-50170000D02*
X72390000Y-48895000D01*
X72390000Y-48895000D02*
X92075000Y-48895000D01*
X92710000Y-49530000D02*
X92710000Y-52705000D01*
X88900000Y-67310000D02*
X87640000Y-68570000D01*
X92710000Y-52705000D02*
X90805000Y-54610000D01*
X90805000Y-54610000D02*
X90805000Y-67310000D01*
X90805000Y-67310000D02*
X88900000Y-67310000D01*
X87640000Y-68570000D02*
X87640000Y-72390000D01*
%TO.N,VBUS*%
X88175000Y-92075000D02*
X90805000Y-92075000D01*
X90805000Y-92075000D02*
X91498702Y-91381298D01*
X84820000Y-90490000D02*
X84820000Y-88675000D01*
X78990000Y-89890000D02*
X78990000Y-88375000D01*
X86360000Y-89535000D02*
X87630000Y-89535000D01*
X91498702Y-91381298D02*
X93850000Y-91381298D01*
X78245000Y-86944500D02*
X78740000Y-86449500D01*
X84820000Y-88675000D02*
X85090000Y-88405000D01*
X84820000Y-90490000D02*
X85405000Y-90490000D01*
X85405000Y-90490000D02*
X86360000Y-89535000D01*
X78990000Y-88375000D02*
X78245000Y-87630000D01*
X78990000Y-89890000D02*
X79490000Y-89890000D01*
X78245000Y-87630000D02*
X78245000Y-86944500D01*
%TO.N,GND*%
X77190000Y-90690000D02*
X76720000Y-90690000D01*
X76695000Y-87630000D02*
X74930000Y-87630000D01*
X83325000Y-87770000D02*
X83185000Y-87630000D01*
X71120000Y-92710000D02*
X72390000Y-92710000D01*
X93850000Y-88781298D02*
X93850000Y-87581298D01*
X71056873Y-92646873D02*
X71120000Y-92710000D01*
X81280000Y-86360000D02*
X81280000Y-86995000D01*
X96550000Y-89081298D02*
X96550000Y-91081298D01*
X63485603Y-92646873D02*
X71056873Y-92646873D01*
X96550000Y-91081298D02*
X96550000Y-92981298D01*
X86220000Y-86855000D02*
X86360000Y-86995000D01*
X96250000Y-88781298D02*
X96550000Y-89081298D01*
X86245000Y-92190000D02*
X86360000Y-92075000D01*
X81130756Y-91690000D02*
X81695602Y-92254846D01*
X79955557Y-86282003D02*
X81202003Y-86282003D01*
X84820000Y-92190000D02*
X86245000Y-92190000D01*
X81202003Y-86282003D02*
X81280000Y-86360000D01*
X93850000Y-88781298D02*
X96250000Y-88781298D01*
X85090000Y-86855000D02*
X86220000Y-86855000D01*
X80290000Y-91690000D02*
X81130756Y-91690000D01*
X96550000Y-87181298D02*
X96550000Y-89081298D01*
X76720000Y-90690000D02*
X76200000Y-90170000D01*
X83325000Y-88900000D02*
X83325000Y-87770000D01*
%TO.N,+3.3V*%
X74930000Y-90995000D02*
X74930000Y-92075000D01*
X79990000Y-90190000D02*
X79990000Y-88285000D01*
X81775000Y-88900000D02*
X81775000Y-89791267D01*
X79990000Y-88285000D02*
X80010000Y-88265000D01*
X79990000Y-90190000D02*
X81376267Y-90190000D01*
X81376267Y-90190000D02*
X81575767Y-89990500D01*
X81775000Y-89791267D02*
X81575767Y-89990500D01*
D33*
%TO.N,/D+*%
X84410000Y-93980000D02*
X94615000Y-93980000D01*
X94615000Y-93980000D02*
X95250000Y-93345000D01*
X82820000Y-92390000D02*
X84410000Y-93980000D01*
X82820000Y-92390000D02*
X81620000Y-91190000D01*
X95250000Y-90805000D02*
X94526298Y-90081298D01*
X95250000Y-93345000D02*
X95250000Y-90805000D01*
X94526298Y-90081298D02*
X93850000Y-90081298D01*
X81620000Y-91190000D02*
X80290000Y-91190000D01*
D32*
%TO.N,Net-(D2-Pad2)*%
X66040000Y-91060000D02*
X66040000Y-88187500D01*
%TO.N,Net-(D4-Pad2)*%
X68580000Y-91060000D02*
X68580000Y-88197768D01*
%TO.N,Net-(D5-Pad2)*%
X71120000Y-88187500D02*
X71120000Y-91060000D01*
%TO.N,/TXD*%
X78490000Y-93788642D02*
X78490000Y-92990000D01*
X78730837Y-94029479D02*
X78490000Y-93788642D01*
%TO.N,/RXD*%
X81775521Y-94754479D02*
X82550000Y-93980000D01*
X77990000Y-92990000D02*
X77990000Y-94500000D01*
X77990000Y-94500000D02*
X78244479Y-94754479D01*
X78244479Y-94754479D02*
X81775521Y-94754479D01*
%TO.N,/In-2 {slash} RX*%
X86380000Y-54630000D02*
X85090000Y-53340000D01*
X86380000Y-57150000D02*
X86380000Y-54630000D01*
X69215000Y-53340000D02*
X68575000Y-52700000D01*
X85090000Y-53340000D02*
X69215000Y-53340000D01*
X68575000Y-52700000D02*
X68575000Y-51365000D01*
%TO.N,/In-3 {slash} TX*%
X68580000Y-58420000D02*
X66035000Y-55875000D01*
X88265000Y-58420000D02*
X68580000Y-58420000D01*
X88920000Y-57150000D02*
X88920000Y-57765000D01*
X66035000Y-55875000D02*
X66035000Y-51365000D01*
X88920000Y-57765000D02*
X88265000Y-58420000D01*
%TO.N,/Out-3*%
X76200000Y-81915000D02*
X76200000Y-83830000D01*
X74305000Y-80020000D02*
X76200000Y-81915000D01*
X72390000Y-80020000D02*
X74305000Y-80020000D01*
%TO.N,/In-0*%
X93345000Y-84455000D02*
X92710000Y-85090000D01*
X93345000Y-78105000D02*
X93345000Y-84455000D01*
X90180000Y-74940000D02*
X93345000Y-78105000D01*
X92710000Y-85090000D02*
X74920000Y-85090000D01*
X74920000Y-85090000D02*
X73660000Y-83830000D01*
X90180000Y-72390000D02*
X90180000Y-74940000D01*
%TO.N,Net-(R1-Pad2)*%
X75375000Y-88900000D02*
X74930000Y-89345000D01*
X78105000Y-88900000D02*
X75375000Y-88900000D01*
X78490000Y-89890000D02*
X78490000Y-89285000D01*
X78490000Y-89285000D02*
X78105000Y-88900000D01*
D33*
%TO.N,/D-*%
X85828702Y-90731298D02*
X85470000Y-91090000D01*
X83420000Y-91090000D02*
X82820000Y-90490000D01*
X85470000Y-91090000D02*
X83420000Y-91090000D01*
X85828702Y-90731298D02*
X93850000Y-90731298D01*
X82620000Y-90690000D02*
X82820000Y-90490000D01*
X80290000Y-90690000D02*
X82620000Y-90690000D01*
D32*
%TO.N,Net-(D2-Pad1)*%
X66040000Y-81280000D02*
X64865000Y-82455000D01*
X64865000Y-85137500D02*
X66040000Y-86312500D01*
X67310000Y-73660000D02*
X66040000Y-74930000D01*
X64865000Y-82455000D02*
X64865000Y-85137500D01*
X67310000Y-72400000D02*
X67310000Y-73660000D01*
X66040000Y-74930000D02*
X66040000Y-81280000D01*
%TO.N,Net-(D3-Pad1)*%
X62325000Y-74845000D02*
X64770000Y-72400000D01*
X62325000Y-74845000D02*
X62325000Y-85187904D01*
X62325000Y-85187904D02*
X63485603Y-86348507D01*
%TO.N,Net-(D3-Pad2)*%
X63485603Y-90996873D02*
X63485603Y-88223507D01*
%TO.N,Net-(D4-Pad1)*%
X67310000Y-85052768D02*
X67310000Y-82550000D01*
X67310000Y-82550000D02*
X68580000Y-81280000D01*
X68580000Y-86322768D02*
X67310000Y-85052768D01*
X68580000Y-81280000D02*
X68580000Y-76200000D01*
X69850000Y-74930000D02*
X69850000Y-72400000D01*
X68580000Y-76200000D02*
X69850000Y-74930000D01*
%TO.N,Net-(D5-Pad1)*%
X71120000Y-76200000D02*
X72390000Y-74930000D01*
X71120000Y-81280000D02*
X71120000Y-76200000D01*
X69850000Y-82550000D02*
X71120000Y-81280000D01*
X72390000Y-74930000D02*
X72390000Y-72400000D01*
X71120000Y-86312500D02*
X71072500Y-86312500D01*
X69850000Y-85090000D02*
X69850000Y-82550000D01*
X71072500Y-86312500D02*
X69850000Y-85090000D01*
%TO.N,Net-(SW2-Pad2)*%
X74050000Y-60380000D02*
X80550000Y-60380000D01*
%TO.N,Net-(SW3-Pad2)*%
X90180000Y-78750000D02*
X90180000Y-80010000D01*
X75565000Y-78105000D02*
X89535000Y-78105000D01*
X74930000Y-71755000D02*
X74930000Y-77470000D01*
X74930000Y-77470000D02*
X75565000Y-78105000D01*
X74295000Y-71120000D02*
X74930000Y-71755000D01*
X89535000Y-78105000D02*
X90180000Y-78750000D01*
X71755000Y-70485000D02*
X72390000Y-71120000D01*
X63500000Y-60380000D02*
X70000000Y-60380000D01*
X72390000Y-71120000D02*
X74295000Y-71120000D01*
X71755000Y-62135000D02*
X71755000Y-70485000D01*
X70000000Y-60380000D02*
X71755000Y-62135000D01*
%TO.N,Net-(SW4-Pad2)*%
X77470000Y-80010000D02*
X82560000Y-80010000D01*
X63500000Y-68930000D02*
X70000000Y-68930000D01*
%TO.N,Net-(SW6-Pad2)*%
X87640000Y-81905000D02*
X87640000Y-80010000D01*
X92075000Y-78740000D02*
X92075000Y-80645000D01*
X80550000Y-76105000D02*
X81915000Y-77470000D01*
X90805000Y-77470000D02*
X92075000Y-78740000D01*
X87630000Y-81915000D02*
X87640000Y-81905000D01*
X81915000Y-77470000D02*
X90805000Y-77470000D01*
X80550000Y-68930000D02*
X80550000Y-76105000D01*
X92075000Y-80645000D02*
X90805000Y-81915000D01*
X74050000Y-68930000D02*
X80550000Y-68930000D01*
X90805000Y-81915000D02*
X87630000Y-81915000D01*
%TD*%
M02*
