%TF.GenerationSoftware,KiCad,Pcbnew,(6.0.9-0)*%
%TF.CreationDate,2022-11-13T08:04:19-06:00*%
%TF.ProjectId,ProgramingAddOn,50726f67-7261-46d6-996e-674164644f6e,rev?*%
%TF.SameCoordinates,Original*%
%TF.FileFunction,Legend,Top*%
%TF.FilePolarity,Positive*%
%FSLAX46Y46*%
G04 Gerber Fmt 4.6, Leading zero omitted, Abs format (unit mm)*
G04 Created by KiCad (PCBNEW (6.0.9-0)) date 2022-11-13 08:04:19*
%MOMM*%
%LPD*%
G01*
G04 APERTURE LIST*
%ADD10C,0.150000*%
%ADD11C,0.125000*%
%ADD12C,0.100000*%
%ADD13C,0.120000*%
G04 APERTURE END LIST*
D10*
X72182552Y-70544817D02*
X72553980Y-70544817D01*
X72353980Y-70773389D01*
X72439694Y-70773389D01*
X72496837Y-70801960D01*
X72525409Y-70830531D01*
X72553980Y-70887674D01*
X72553980Y-71030531D01*
X72525409Y-71087674D01*
X72496837Y-71116246D01*
X72439694Y-71144817D01*
X72268266Y-71144817D01*
X72211123Y-71116246D01*
X72182552Y-71087674D01*
X64165677Y-54266736D02*
X64165677Y-53266736D01*
X64641867Y-53600070D02*
X64641867Y-54266736D01*
X64641867Y-53695308D02*
X64689486Y-53647689D01*
X64784724Y-53600070D01*
X64927581Y-53600070D01*
X65022819Y-53647689D01*
X65070438Y-53742927D01*
X65070438Y-54266736D01*
X65546629Y-53600070D02*
X65546629Y-54600070D01*
X65546629Y-53647689D02*
X65641867Y-53600070D01*
X65832343Y-53600070D01*
X65927581Y-53647689D01*
X65975200Y-53695308D01*
X66022819Y-53790546D01*
X66022819Y-54076260D01*
X65975200Y-54171498D01*
X65927581Y-54219117D01*
X65832343Y-54266736D01*
X65641867Y-54266736D01*
X65546629Y-54219117D01*
X66879962Y-53600070D02*
X66879962Y-54266736D01*
X66451391Y-53600070D02*
X66451391Y-54123879D01*
X66499010Y-54219117D01*
X66594248Y-54266736D01*
X66737105Y-54266736D01*
X66832343Y-54219117D01*
X66879962Y-54171498D01*
X67213296Y-53600070D02*
X67594248Y-53600070D01*
X67356153Y-53266736D02*
X67356153Y-54123879D01*
X67403772Y-54219117D01*
X67499010Y-54266736D01*
X67594248Y-54266736D01*
X68879962Y-53266736D02*
X68975200Y-53266736D01*
X69070438Y-53314356D01*
X69118057Y-53361975D01*
X69165677Y-53457213D01*
X69213296Y-53647689D01*
X69213296Y-53885784D01*
X69165677Y-54076260D01*
X69118057Y-54171498D01*
X69070438Y-54219117D01*
X68975200Y-54266736D01*
X68879962Y-54266736D01*
X68784724Y-54219117D01*
X68737105Y-54171498D01*
X68689486Y-54076260D01*
X68641867Y-53885784D01*
X68641867Y-53647689D01*
X68689486Y-53457213D01*
X68737105Y-53361975D01*
X68784724Y-53314356D01*
X68879962Y-53266736D01*
X82353187Y-70531440D02*
X82724615Y-70531440D01*
X82524615Y-70760012D01*
X82610329Y-70760012D01*
X82667472Y-70788583D01*
X82696044Y-70817154D01*
X82724615Y-70874297D01*
X82724615Y-71017154D01*
X82696044Y-71074297D01*
X82667472Y-71102869D01*
X82610329Y-71131440D01*
X82438901Y-71131440D01*
X82381758Y-71102869D01*
X82353187Y-71074297D01*
X64377537Y-62873585D02*
X64377537Y-61873585D01*
X64853727Y-62206919D02*
X64853727Y-62873585D01*
X64853727Y-62302157D02*
X64901346Y-62254538D01*
X64996584Y-62206919D01*
X65139441Y-62206919D01*
X65234679Y-62254538D01*
X65282298Y-62349776D01*
X65282298Y-62873585D01*
X65758489Y-62206919D02*
X65758489Y-63206919D01*
X65758489Y-62254538D02*
X65853727Y-62206919D01*
X66044203Y-62206919D01*
X66139441Y-62254538D01*
X66187060Y-62302157D01*
X66234679Y-62397395D01*
X66234679Y-62683109D01*
X66187060Y-62778347D01*
X66139441Y-62825966D01*
X66044203Y-62873585D01*
X65853727Y-62873585D01*
X65758489Y-62825966D01*
X67091822Y-62206919D02*
X67091822Y-62873585D01*
X66663251Y-62206919D02*
X66663251Y-62730728D01*
X66710870Y-62825966D01*
X66806108Y-62873585D01*
X66948965Y-62873585D01*
X67044203Y-62825966D01*
X67091822Y-62778347D01*
X67425156Y-62206919D02*
X67806108Y-62206919D01*
X67568013Y-61873585D02*
X67568013Y-62730728D01*
X67615632Y-62825966D01*
X67710870Y-62873585D01*
X67806108Y-62873585D01*
X68806108Y-61873585D02*
X69425156Y-61873585D01*
X69091822Y-62254538D01*
X69234679Y-62254538D01*
X69329917Y-62302157D01*
X69377537Y-62349776D01*
X69425156Y-62445014D01*
X69425156Y-62683109D01*
X69377537Y-62778347D01*
X69329917Y-62825966D01*
X69234679Y-62873585D01*
X68948965Y-62873585D01*
X68853727Y-62825966D01*
X68806108Y-62778347D01*
X76922380Y-74382380D02*
X77112857Y-74382380D01*
X77208095Y-74430000D01*
X77303333Y-74525238D01*
X77350952Y-74715714D01*
X77350952Y-75049047D01*
X77303333Y-75239523D01*
X77208095Y-75334761D01*
X77112857Y-75382380D01*
X76922380Y-75382380D01*
X76827142Y-75334761D01*
X76731904Y-75239523D01*
X76684285Y-75049047D01*
X76684285Y-74715714D01*
X76731904Y-74525238D01*
X76827142Y-74430000D01*
X76922380Y-74382380D01*
X77779523Y-74715714D02*
X77779523Y-75382380D01*
X77779523Y-74810952D02*
X77827142Y-74763333D01*
X77922380Y-74715714D01*
X78065238Y-74715714D01*
X78160476Y-74763333D01*
X78208095Y-74858571D01*
X78208095Y-75382380D01*
X79812380Y-81843571D02*
X79955238Y-81891190D01*
X80002857Y-81938809D01*
X80050476Y-82034047D01*
X80050476Y-82176904D01*
X80002857Y-82272142D01*
X79955238Y-82319761D01*
X79859999Y-82367380D01*
X79479047Y-82367380D01*
X79479047Y-81367380D01*
X79812380Y-81367380D01*
X79907619Y-81415000D01*
X79955238Y-81462619D01*
X80002857Y-81557857D01*
X80002857Y-81653095D01*
X79955238Y-81748333D01*
X79907619Y-81795952D01*
X79812380Y-81843571D01*
X79479047Y-81843571D01*
X80907619Y-81700714D02*
X80907619Y-82367380D01*
X80479047Y-81700714D02*
X80479047Y-82224523D01*
X80526666Y-82319761D01*
X80621904Y-82367380D01*
X80764761Y-82367380D01*
X80859999Y-82319761D01*
X80907619Y-82272142D01*
X81240952Y-81700714D02*
X81621904Y-81700714D01*
X81383809Y-81367380D02*
X81383809Y-82224523D01*
X81431428Y-82319761D01*
X81526666Y-82367380D01*
X81621904Y-82367380D01*
X81812380Y-81700714D02*
X82193333Y-81700714D01*
X81955238Y-81367380D02*
X81955238Y-82224523D01*
X82002857Y-82319761D01*
X82098095Y-82367380D01*
X82193333Y-82367380D01*
X82669523Y-82367380D02*
X82574285Y-82319761D01*
X82526666Y-82272142D01*
X82479047Y-82176904D01*
X82479047Y-81891190D01*
X82526666Y-81795952D01*
X82574285Y-81748333D01*
X82669523Y-81700714D01*
X82812380Y-81700714D01*
X82907619Y-81748333D01*
X82955238Y-81795952D01*
X83002857Y-81891190D01*
X83002857Y-82176904D01*
X82955238Y-82272142D01*
X82907619Y-82319761D01*
X82812380Y-82367380D01*
X82669523Y-82367380D01*
X83431428Y-81700714D02*
X83431428Y-82367380D01*
X83431428Y-81795952D02*
X83479047Y-81748333D01*
X83574285Y-81700714D01*
X83717142Y-81700714D01*
X83812380Y-81748333D01*
X83859999Y-81843571D01*
X83859999Y-82367380D01*
X84288571Y-82319761D02*
X84383809Y-82367380D01*
X84574285Y-82367380D01*
X84669523Y-82319761D01*
X84717142Y-82224523D01*
X84717142Y-82176904D01*
X84669523Y-82081666D01*
X84574285Y-82034047D01*
X84431428Y-82034047D01*
X84336190Y-81986428D01*
X84288571Y-81891190D01*
X84288571Y-81843571D01*
X84336190Y-81748333D01*
X84431428Y-81700714D01*
X84574285Y-81700714D01*
X84669523Y-81748333D01*
X85907619Y-81986428D02*
X86669523Y-81986428D01*
X87145714Y-81700714D02*
X87907619Y-81986428D01*
X87145714Y-82272142D01*
X89145714Y-82367380D02*
X89145714Y-81367380D01*
X89621904Y-81700714D02*
X89621904Y-82367380D01*
X89621904Y-81795952D02*
X89669523Y-81748333D01*
X89764761Y-81700714D01*
X89907619Y-81700714D01*
X90002857Y-81748333D01*
X90050476Y-81843571D01*
X90050476Y-82367380D01*
X90526666Y-81700714D02*
X90526666Y-82700714D01*
X90526666Y-81748333D02*
X90621904Y-81700714D01*
X90812380Y-81700714D01*
X90907619Y-81748333D01*
X90955238Y-81795952D01*
X91002857Y-81891190D01*
X91002857Y-82176904D01*
X90955238Y-82272142D01*
X90907619Y-82319761D01*
X90812380Y-82367380D01*
X90621904Y-82367380D01*
X90526666Y-82319761D01*
X91859999Y-81700714D02*
X91859999Y-82367380D01*
X91431428Y-81700714D02*
X91431428Y-82224523D01*
X91479047Y-82319761D01*
X91574285Y-82367380D01*
X91717142Y-82367380D01*
X91812380Y-82319761D01*
X91859999Y-82272142D01*
X92193333Y-81700714D02*
X92574285Y-81700714D01*
X92336190Y-81367380D02*
X92336190Y-82224523D01*
X92383809Y-82319761D01*
X92479047Y-82367380D01*
X92574285Y-82367380D01*
X92859999Y-82319761D02*
X92955238Y-82367380D01*
X93145714Y-82367380D01*
X93240952Y-82319761D01*
X93288571Y-82224523D01*
X93288571Y-82176904D01*
X93240952Y-82081666D01*
X93145714Y-82034047D01*
X93002857Y-82034047D01*
X92907619Y-81986428D01*
X92859999Y-81891190D01*
X92859999Y-81843571D01*
X92907619Y-81748333D01*
X93002857Y-81700714D01*
X93145714Y-81700714D01*
X93240952Y-81748333D01*
X81883333Y-61682380D02*
X82073809Y-61682380D01*
X82169047Y-61730000D01*
X82264285Y-61825238D01*
X82311904Y-62015714D01*
X82311904Y-62349047D01*
X82264285Y-62539523D01*
X82169047Y-62634761D01*
X82073809Y-62682380D01*
X81883333Y-62682380D01*
X81788095Y-62634761D01*
X81692857Y-62539523D01*
X81645238Y-62349047D01*
X81645238Y-62015714D01*
X81692857Y-61825238D01*
X81788095Y-61730000D01*
X81883333Y-61682380D01*
X82597619Y-62015714D02*
X82978571Y-62015714D01*
X82740476Y-62682380D02*
X82740476Y-61825238D01*
X82788095Y-61730000D01*
X82883333Y-61682380D01*
X82978571Y-61682380D01*
X83169047Y-62015714D02*
X83550000Y-62015714D01*
X83311904Y-62682380D02*
X83311904Y-61825238D01*
X83359523Y-61730000D01*
X83454761Y-61682380D01*
X83550000Y-61682380D01*
X70920000Y-89206428D02*
X71291428Y-89206428D01*
X71091428Y-89435000D01*
X71177142Y-89435000D01*
X71234285Y-89463571D01*
X71262857Y-89492142D01*
X71291428Y-89549285D01*
X71291428Y-89692142D01*
X71262857Y-89749285D01*
X71234285Y-89777857D01*
X71177142Y-89806428D01*
X71005714Y-89806428D01*
X70948571Y-89777857D01*
X70920000Y-89749285D01*
D11*
X72734776Y-85983783D02*
X72353824Y-86126640D01*
X72734776Y-86269497D01*
X72972871Y-86126640D02*
X73353824Y-86126640D01*
X74068110Y-85817116D02*
X74163348Y-85817116D01*
X74210967Y-85840926D01*
X74258586Y-85888545D01*
X74282395Y-85983783D01*
X74282395Y-86150449D01*
X74258586Y-86245687D01*
X74210967Y-86293306D01*
X74163348Y-86317116D01*
X74068110Y-86317116D01*
X74020491Y-86293306D01*
X73972871Y-86245687D01*
X73949062Y-86150449D01*
X73949062Y-85983783D01*
X73972871Y-85888545D01*
X74020491Y-85840926D01*
X74068110Y-85817116D01*
X74710967Y-85983783D02*
X74710967Y-86317116D01*
X74496681Y-85983783D02*
X74496681Y-86245687D01*
X74520491Y-86293306D01*
X74568110Y-86317116D01*
X74639538Y-86317116D01*
X74687157Y-86293306D01*
X74710967Y-86269497D01*
X74877633Y-85983783D02*
X75068110Y-85983783D01*
X74949062Y-85817116D02*
X74949062Y-86245687D01*
X74972871Y-86293306D01*
X75020491Y-86317116D01*
X75068110Y-86317116D01*
X75234776Y-85983783D02*
X75234776Y-86483783D01*
X75234776Y-86007592D02*
X75282395Y-85983783D01*
X75377633Y-85983783D01*
X75425252Y-86007592D01*
X75449062Y-86031402D01*
X75472871Y-86079021D01*
X75472871Y-86221878D01*
X75449062Y-86269497D01*
X75425252Y-86293306D01*
X75377633Y-86317116D01*
X75282395Y-86317116D01*
X75234776Y-86293306D01*
X75901443Y-85983783D02*
X75901443Y-86317116D01*
X75687157Y-85983783D02*
X75687157Y-86245687D01*
X75710967Y-86293306D01*
X75758586Y-86317116D01*
X75830014Y-86317116D01*
X75877633Y-86293306D01*
X75901443Y-86269497D01*
X76068110Y-85983783D02*
X76258586Y-85983783D01*
X76139538Y-85817116D02*
X76139538Y-86245687D01*
X76163348Y-86293306D01*
X76210967Y-86317116D01*
X76258586Y-86317116D01*
X73746681Y-87122116D02*
X73508586Y-87122116D01*
X73508586Y-86622116D01*
X73913348Y-86860211D02*
X74080014Y-86860211D01*
X74151443Y-87122116D02*
X73913348Y-87122116D01*
X73913348Y-86622116D01*
X74151443Y-86622116D01*
X74365729Y-87122116D02*
X74365729Y-86622116D01*
X74484776Y-86622116D01*
X74556205Y-86645926D01*
X74603824Y-86693545D01*
X74627633Y-86741164D01*
X74651443Y-86836402D01*
X74651443Y-86907830D01*
X74627633Y-87003068D01*
X74603824Y-87050687D01*
X74556205Y-87098306D01*
X74484776Y-87122116D01*
X74365729Y-87122116D01*
X74841919Y-87098306D02*
X74889538Y-87122116D01*
X74984776Y-87122116D01*
X75032395Y-87098306D01*
X75056205Y-87050687D01*
X75056205Y-87026878D01*
X75032395Y-86979259D01*
X74984776Y-86955449D01*
X74913348Y-86955449D01*
X74865729Y-86931640D01*
X74841919Y-86884021D01*
X74841919Y-86860211D01*
X74865729Y-86812592D01*
X74913348Y-86788783D01*
X74984776Y-86788783D01*
X75032395Y-86812592D01*
D10*
X75023547Y-54319701D02*
X75023547Y-53319701D01*
X75499737Y-53653035D02*
X75499737Y-54319701D01*
X75499737Y-53748273D02*
X75547356Y-53700654D01*
X75642594Y-53653035D01*
X75785451Y-53653035D01*
X75880689Y-53700654D01*
X75928308Y-53795892D01*
X75928308Y-54319701D01*
X76404499Y-53653035D02*
X76404499Y-54653035D01*
X76404499Y-53700654D02*
X76499737Y-53653035D01*
X76690213Y-53653035D01*
X76785451Y-53700654D01*
X76833070Y-53748273D01*
X76880689Y-53843511D01*
X76880689Y-54129225D01*
X76833070Y-54224463D01*
X76785451Y-54272082D01*
X76690213Y-54319701D01*
X76499737Y-54319701D01*
X76404499Y-54272082D01*
X77737832Y-53653035D02*
X77737832Y-54319701D01*
X77309261Y-53653035D02*
X77309261Y-54176844D01*
X77356880Y-54272082D01*
X77452118Y-54319701D01*
X77594975Y-54319701D01*
X77690213Y-54272082D01*
X77737832Y-54224463D01*
X78071166Y-53653035D02*
X78452118Y-53653035D01*
X78214023Y-53319701D02*
X78214023Y-54176844D01*
X78261642Y-54272082D01*
X78356880Y-54319701D01*
X78452118Y-54319701D01*
X79499737Y-53414940D02*
X79547356Y-53367321D01*
X79642594Y-53319701D01*
X79880689Y-53319701D01*
X79975927Y-53367321D01*
X80023547Y-53414940D01*
X80071166Y-53510178D01*
X80071166Y-53605416D01*
X80023547Y-53748273D01*
X79452118Y-54319701D01*
X80071166Y-54319701D01*
X67489750Y-71144817D02*
X67146893Y-71144817D01*
X67318322Y-71144817D02*
X67318322Y-70544817D01*
X67261179Y-70630531D01*
X67204036Y-70687674D01*
X67146893Y-70716246D01*
X84153809Y-65957380D02*
X84153809Y-66766904D01*
X84201428Y-66862142D01*
X84249047Y-66909761D01*
X84344285Y-66957380D01*
X84534761Y-66957380D01*
X84630000Y-66909761D01*
X84677619Y-66862142D01*
X84725238Y-66766904D01*
X84725238Y-65957380D01*
X85153809Y-66909761D02*
X85296666Y-66957380D01*
X85534761Y-66957380D01*
X85630000Y-66909761D01*
X85677619Y-66862142D01*
X85725238Y-66766904D01*
X85725238Y-66671666D01*
X85677619Y-66576428D01*
X85630000Y-66528809D01*
X85534761Y-66481190D01*
X85344285Y-66433571D01*
X85249047Y-66385952D01*
X85201428Y-66338333D01*
X85153809Y-66243095D01*
X85153809Y-66147857D01*
X85201428Y-66052619D01*
X85249047Y-66005000D01*
X85344285Y-65957380D01*
X85582380Y-65957380D01*
X85725238Y-66005000D01*
X86487142Y-66433571D02*
X86630000Y-66481190D01*
X86677619Y-66528809D01*
X86725238Y-66624047D01*
X86725238Y-66766904D01*
X86677619Y-66862142D01*
X86630000Y-66909761D01*
X86534761Y-66957380D01*
X86153809Y-66957380D01*
X86153809Y-65957380D01*
X86487142Y-65957380D01*
X86582380Y-66005000D01*
X86630000Y-66052619D01*
X86677619Y-66147857D01*
X86677619Y-66243095D01*
X86630000Y-66338333D01*
X86582380Y-66385952D01*
X86487142Y-66433571D01*
X86153809Y-66433571D01*
X87915714Y-65957380D02*
X87915714Y-66766904D01*
X87963333Y-66862142D01*
X88010952Y-66909761D01*
X88106190Y-66957380D01*
X88296666Y-66957380D01*
X88391904Y-66909761D01*
X88439523Y-66862142D01*
X88487142Y-66766904D01*
X88487142Y-65957380D01*
X88915714Y-66671666D02*
X89391904Y-66671666D01*
X88820476Y-66957380D02*
X89153809Y-65957380D01*
X89487142Y-66957380D01*
X90391904Y-66957380D02*
X90058571Y-66481190D01*
X89820476Y-66957380D02*
X89820476Y-65957380D01*
X90201428Y-65957380D01*
X90296666Y-66005000D01*
X90344285Y-66052619D01*
X90391904Y-66147857D01*
X90391904Y-66290714D01*
X90344285Y-66385952D01*
X90296666Y-66433571D01*
X90201428Y-66481190D01*
X89820476Y-66481190D01*
X90677619Y-65957380D02*
X91249047Y-65957380D01*
X90963333Y-66957380D02*
X90963333Y-65957380D01*
X85368095Y-68043571D02*
X85701428Y-68043571D01*
X85844285Y-68567380D02*
X85368095Y-68567380D01*
X85368095Y-67567380D01*
X85844285Y-67567380D01*
X86272857Y-67900714D02*
X86272857Y-68567380D01*
X86272857Y-67995952D02*
X86320476Y-67948333D01*
X86415714Y-67900714D01*
X86558571Y-67900714D01*
X86653809Y-67948333D01*
X86701428Y-68043571D01*
X86701428Y-68567380D01*
X87606190Y-68567380D02*
X87606190Y-68043571D01*
X87558571Y-67948333D01*
X87463333Y-67900714D01*
X87272857Y-67900714D01*
X87177619Y-67948333D01*
X87606190Y-68519761D02*
X87510952Y-68567380D01*
X87272857Y-68567380D01*
X87177619Y-68519761D01*
X87130000Y-68424523D01*
X87130000Y-68329285D01*
X87177619Y-68234047D01*
X87272857Y-68186428D01*
X87510952Y-68186428D01*
X87606190Y-68138809D01*
X88082380Y-68567380D02*
X88082380Y-67567380D01*
X88082380Y-67948333D02*
X88177619Y-67900714D01*
X88368095Y-67900714D01*
X88463333Y-67948333D01*
X88510952Y-67995952D01*
X88558571Y-68091190D01*
X88558571Y-68376904D01*
X88510952Y-68472142D01*
X88463333Y-68519761D01*
X88368095Y-68567380D01*
X88177619Y-68567380D01*
X88082380Y-68519761D01*
X89130000Y-68567380D02*
X89034761Y-68519761D01*
X88987142Y-68424523D01*
X88987142Y-67567380D01*
X89891904Y-68519761D02*
X89796666Y-68567380D01*
X89606190Y-68567380D01*
X89510952Y-68519761D01*
X89463333Y-68424523D01*
X89463333Y-68043571D01*
X89510952Y-67948333D01*
X89606190Y-67900714D01*
X89796666Y-67900714D01*
X89891904Y-67948333D01*
X89939523Y-68043571D01*
X89939523Y-68138809D01*
X89463333Y-68234047D01*
D11*
X84875912Y-93861212D02*
X84947340Y-93885022D01*
X85066388Y-93885022D01*
X85114007Y-93861212D01*
X85137816Y-93837403D01*
X85161626Y-93789784D01*
X85161626Y-93742165D01*
X85137816Y-93694546D01*
X85114007Y-93670736D01*
X85066388Y-93646927D01*
X84971150Y-93623117D01*
X84923531Y-93599308D01*
X84899721Y-93575498D01*
X84875912Y-93527879D01*
X84875912Y-93480260D01*
X84899721Y-93432641D01*
X84923531Y-93408832D01*
X84971150Y-93385022D01*
X85090197Y-93385022D01*
X85161626Y-93408832D01*
X85590197Y-93551689D02*
X85590197Y-93885022D01*
X85375912Y-93551689D02*
X85375912Y-93813593D01*
X85399721Y-93861212D01*
X85447340Y-93885022D01*
X85518769Y-93885022D01*
X85566388Y-93861212D01*
X85590197Y-93837403D01*
X85828293Y-93551689D02*
X85828293Y-94051689D01*
X85828293Y-93575498D02*
X85875912Y-93551689D01*
X85971150Y-93551689D01*
X86018769Y-93575498D01*
X86042578Y-93599308D01*
X86066388Y-93646927D01*
X86066388Y-93789784D01*
X86042578Y-93837403D01*
X86018769Y-93861212D01*
X85971150Y-93885022D01*
X85875912Y-93885022D01*
X85828293Y-93861212D01*
X86471150Y-93861212D02*
X86423531Y-93885022D01*
X86328293Y-93885022D01*
X86280674Y-93861212D01*
X86256864Y-93813593D01*
X86256864Y-93623117D01*
X86280674Y-93575498D01*
X86328293Y-93551689D01*
X86423531Y-93551689D01*
X86471150Y-93575498D01*
X86494959Y-93623117D01*
X86494959Y-93670736D01*
X86256864Y-93718355D01*
X86709245Y-93885022D02*
X86709245Y-93551689D01*
X86709245Y-93646927D02*
X86733054Y-93599308D01*
X86756864Y-93575498D01*
X86804483Y-93551689D01*
X86852102Y-93551689D01*
X87233054Y-93861212D02*
X87185435Y-93885022D01*
X87090197Y-93885022D01*
X87042578Y-93861212D01*
X87018769Y-93837403D01*
X86994959Y-93789784D01*
X86994959Y-93646927D01*
X87018769Y-93599308D01*
X87042578Y-93575498D01*
X87090197Y-93551689D01*
X87185435Y-93551689D01*
X87233054Y-93575498D01*
X87518769Y-93885022D02*
X87471150Y-93861212D01*
X87447340Y-93837403D01*
X87423531Y-93789784D01*
X87423531Y-93646927D01*
X87447340Y-93599308D01*
X87471150Y-93575498D01*
X87518769Y-93551689D01*
X87590197Y-93551689D01*
X87637816Y-93575498D01*
X87661626Y-93599308D01*
X87685435Y-93646927D01*
X87685435Y-93789784D01*
X87661626Y-93837403D01*
X87637816Y-93861212D01*
X87590197Y-93885022D01*
X87518769Y-93885022D01*
X87899721Y-93551689D02*
X87899721Y-93885022D01*
X87899721Y-93599308D02*
X87923531Y-93575498D01*
X87971150Y-93551689D01*
X88042578Y-93551689D01*
X88090197Y-93575498D01*
X88114007Y-93623117D01*
X88114007Y-93885022D01*
X88899721Y-93623117D02*
X88971150Y-93646927D01*
X88994959Y-93670736D01*
X89018769Y-93718355D01*
X89018769Y-93789784D01*
X88994959Y-93837403D01*
X88971150Y-93861212D01*
X88923531Y-93885022D01*
X88733054Y-93885022D01*
X88733054Y-93385022D01*
X88899721Y-93385022D01*
X88947340Y-93408832D01*
X88971150Y-93432641D01*
X88994959Y-93480260D01*
X88994959Y-93527879D01*
X88971150Y-93575498D01*
X88947340Y-93599308D01*
X88899721Y-93623117D01*
X88733054Y-93623117D01*
X89447340Y-93885022D02*
X89447340Y-93623117D01*
X89423531Y-93575498D01*
X89375912Y-93551689D01*
X89280674Y-93551689D01*
X89233054Y-93575498D01*
X89447340Y-93861212D02*
X89399721Y-93885022D01*
X89280674Y-93885022D01*
X89233054Y-93861212D01*
X89209245Y-93813593D01*
X89209245Y-93765974D01*
X89233054Y-93718355D01*
X89280674Y-93694546D01*
X89399721Y-93694546D01*
X89447340Y-93670736D01*
X89899721Y-93885022D02*
X89899721Y-93385022D01*
X89899721Y-93861212D02*
X89852102Y-93885022D01*
X89756864Y-93885022D01*
X89709245Y-93861212D01*
X89685435Y-93837403D01*
X89661626Y-93789784D01*
X89661626Y-93646927D01*
X89685435Y-93599308D01*
X89709245Y-93575498D01*
X89756864Y-93551689D01*
X89852102Y-93551689D01*
X89899721Y-93575498D01*
X90352102Y-93551689D02*
X90352102Y-93956451D01*
X90328293Y-94004070D01*
X90304483Y-94027879D01*
X90256864Y-94051689D01*
X90185435Y-94051689D01*
X90137816Y-94027879D01*
X90352102Y-93861212D02*
X90304483Y-93885022D01*
X90209245Y-93885022D01*
X90161626Y-93861212D01*
X90137816Y-93837403D01*
X90114007Y-93789784D01*
X90114007Y-93646927D01*
X90137816Y-93599308D01*
X90161626Y-93575498D01*
X90209245Y-93551689D01*
X90304483Y-93551689D01*
X90352102Y-93575498D01*
X90780674Y-93861212D02*
X90733054Y-93885022D01*
X90637816Y-93885022D01*
X90590197Y-93861212D01*
X90566388Y-93813593D01*
X90566388Y-93623117D01*
X90590197Y-93575498D01*
X90637816Y-93551689D01*
X90733054Y-93551689D01*
X90780674Y-93575498D01*
X90804483Y-93623117D01*
X90804483Y-93670736D01*
X90566388Y-93718355D01*
X91399721Y-93885022D02*
X91399721Y-93385022D01*
X91994959Y-93361212D02*
X91566388Y-94004070D01*
X92256864Y-93385022D02*
X92352102Y-93385022D01*
X92399721Y-93408832D01*
X92447340Y-93456451D01*
X92471150Y-93551689D01*
X92471150Y-93718355D01*
X92447340Y-93813593D01*
X92399721Y-93861212D01*
X92352102Y-93885022D01*
X92256864Y-93885022D01*
X92209245Y-93861212D01*
X92161626Y-93813593D01*
X92137816Y-93718355D01*
X92137816Y-93551689D01*
X92161626Y-93456451D01*
X92209245Y-93408832D01*
X92256864Y-93385022D01*
X93471150Y-93885022D02*
X93447340Y-93885022D01*
X93399721Y-93861212D01*
X93328293Y-93789784D01*
X93209245Y-93646927D01*
X93161626Y-93575498D01*
X93137816Y-93504070D01*
X93137816Y-93456451D01*
X93161626Y-93408832D01*
X93209245Y-93385022D01*
X93233054Y-93385022D01*
X93280674Y-93408832D01*
X93304483Y-93456451D01*
X93304483Y-93480260D01*
X93280674Y-93527879D01*
X93256864Y-93551689D01*
X93114007Y-93646927D01*
X93090197Y-93670736D01*
X93066388Y-93718355D01*
X93066388Y-93789784D01*
X93090197Y-93837403D01*
X93114007Y-93861212D01*
X93161626Y-93885022D01*
X93233054Y-93885022D01*
X93280674Y-93861212D01*
X93304483Y-93837403D01*
X93375912Y-93742165D01*
X93399721Y-93670736D01*
X93399721Y-93623117D01*
X84899721Y-94190022D02*
X84899721Y-94594784D01*
X84923531Y-94642403D01*
X84947340Y-94666212D01*
X84994959Y-94690022D01*
X85090197Y-94690022D01*
X85137816Y-94666212D01*
X85161626Y-94642403D01*
X85185435Y-94594784D01*
X85185435Y-94190022D01*
X85399721Y-94666212D02*
X85471150Y-94690022D01*
X85590197Y-94690022D01*
X85637816Y-94666212D01*
X85661626Y-94642403D01*
X85685435Y-94594784D01*
X85685435Y-94547165D01*
X85661626Y-94499546D01*
X85637816Y-94475736D01*
X85590197Y-94451927D01*
X85494959Y-94428117D01*
X85447340Y-94404308D01*
X85423531Y-94380498D01*
X85399721Y-94332879D01*
X85399721Y-94285260D01*
X85423531Y-94237641D01*
X85447340Y-94213832D01*
X85494959Y-94190022D01*
X85614007Y-94190022D01*
X85685435Y-94213832D01*
X86066388Y-94428117D02*
X86137816Y-94451927D01*
X86161626Y-94475736D01*
X86185435Y-94523355D01*
X86185435Y-94594784D01*
X86161626Y-94642403D01*
X86137816Y-94666212D01*
X86090197Y-94690022D01*
X85899721Y-94690022D01*
X85899721Y-94190022D01*
X86066388Y-94190022D01*
X86114007Y-94213832D01*
X86137816Y-94237641D01*
X86161626Y-94285260D01*
X86161626Y-94332879D01*
X86137816Y-94380498D01*
X86114007Y-94404308D01*
X86066388Y-94428117D01*
X85899721Y-94428117D01*
X86399721Y-94499546D02*
X86780674Y-94499546D01*
X87018769Y-94356689D02*
X87399721Y-94499546D01*
X87018769Y-94642403D01*
X87637816Y-94190022D02*
X87637816Y-94594784D01*
X87661626Y-94642403D01*
X87685435Y-94666212D01*
X87733054Y-94690022D01*
X87828293Y-94690022D01*
X87875912Y-94666212D01*
X87899721Y-94642403D01*
X87923531Y-94594784D01*
X87923531Y-94190022D01*
X88137816Y-94547165D02*
X88375912Y-94547165D01*
X88090197Y-94690022D02*
X88256864Y-94190022D01*
X88423531Y-94690022D01*
X88875912Y-94690022D02*
X88709245Y-94451927D01*
X88590197Y-94690022D02*
X88590197Y-94190022D01*
X88780674Y-94190022D01*
X88828293Y-94213832D01*
X88852102Y-94237641D01*
X88875912Y-94285260D01*
X88875912Y-94356689D01*
X88852102Y-94404308D01*
X88828293Y-94428117D01*
X88780674Y-94451927D01*
X88590197Y-94451927D01*
X89018769Y-94190022D02*
X89304483Y-94190022D01*
X89161626Y-94690022D02*
X89161626Y-94190022D01*
X89828293Y-94547165D02*
X90066388Y-94547165D01*
X89780674Y-94690022D02*
X89947340Y-94190022D01*
X90114007Y-94690022D01*
X90494959Y-94690022D02*
X90494959Y-94190022D01*
X90494959Y-94666212D02*
X90447340Y-94690022D01*
X90352102Y-94690022D01*
X90304483Y-94666212D01*
X90280674Y-94642403D01*
X90256864Y-94594784D01*
X90256864Y-94451927D01*
X90280674Y-94404308D01*
X90304483Y-94380498D01*
X90352102Y-94356689D01*
X90447340Y-94356689D01*
X90494959Y-94380498D01*
X90947340Y-94690022D02*
X90947340Y-94428117D01*
X90923531Y-94380498D01*
X90875912Y-94356689D01*
X90780674Y-94356689D01*
X90733054Y-94380498D01*
X90947340Y-94666212D02*
X90899721Y-94690022D01*
X90780674Y-94690022D01*
X90733054Y-94666212D01*
X90709245Y-94618593D01*
X90709245Y-94570974D01*
X90733054Y-94523355D01*
X90780674Y-94499546D01*
X90899721Y-94499546D01*
X90947340Y-94475736D01*
X91185435Y-94356689D02*
X91185435Y-94856689D01*
X91185435Y-94380498D02*
X91233054Y-94356689D01*
X91328293Y-94356689D01*
X91375912Y-94380498D01*
X91399721Y-94404308D01*
X91423531Y-94451927D01*
X91423531Y-94594784D01*
X91399721Y-94642403D01*
X91375912Y-94666212D01*
X91328293Y-94690022D01*
X91233054Y-94690022D01*
X91185435Y-94666212D01*
X91566388Y-94356689D02*
X91756864Y-94356689D01*
X91637816Y-94190022D02*
X91637816Y-94618593D01*
X91661626Y-94666212D01*
X91709245Y-94690022D01*
X91756864Y-94690022D01*
X92114007Y-94666212D02*
X92066388Y-94690022D01*
X91971150Y-94690022D01*
X91923531Y-94666212D01*
X91899721Y-94618593D01*
X91899721Y-94428117D01*
X91923531Y-94380498D01*
X91971150Y-94356689D01*
X92066388Y-94356689D01*
X92114007Y-94380498D01*
X92137816Y-94428117D01*
X92137816Y-94475736D01*
X91899721Y-94523355D01*
X92352102Y-94690022D02*
X92352102Y-94356689D01*
X92352102Y-94451927D02*
X92375912Y-94404308D01*
X92399721Y-94380498D01*
X92447340Y-94356689D01*
X92494959Y-94356689D01*
D10*
X84922051Y-70588583D02*
X84950622Y-70560012D01*
X85007765Y-70531440D01*
X85150622Y-70531440D01*
X85207765Y-70560012D01*
X85236337Y-70588583D01*
X85264908Y-70645726D01*
X85264908Y-70702869D01*
X85236337Y-70788583D01*
X84893480Y-71131440D01*
X85264908Y-71131440D01*
X62389523Y-81367380D02*
X62580000Y-81367380D01*
X62675238Y-81415000D01*
X62770476Y-81510238D01*
X62818095Y-81700714D01*
X62818095Y-82034047D01*
X62770476Y-82224523D01*
X62675238Y-82319761D01*
X62580000Y-82367380D01*
X62389523Y-82367380D01*
X62294285Y-82319761D01*
X62199047Y-82224523D01*
X62151428Y-82034047D01*
X62151428Y-81700714D01*
X62199047Y-81510238D01*
X62294285Y-81415000D01*
X62389523Y-81367380D01*
X63675238Y-81700714D02*
X63675238Y-82367380D01*
X63246666Y-81700714D02*
X63246666Y-82224523D01*
X63294285Y-82319761D01*
X63389523Y-82367380D01*
X63532380Y-82367380D01*
X63627619Y-82319761D01*
X63675238Y-82272142D01*
X64008571Y-81700714D02*
X64389523Y-81700714D01*
X64151428Y-81367380D02*
X64151428Y-82224523D01*
X64199047Y-82319761D01*
X64294285Y-82367380D01*
X64389523Y-82367380D01*
X64722857Y-81700714D02*
X64722857Y-82700714D01*
X64722857Y-81748333D02*
X64818095Y-81700714D01*
X65008571Y-81700714D01*
X65103809Y-81748333D01*
X65151428Y-81795952D01*
X65199047Y-81891190D01*
X65199047Y-82176904D01*
X65151428Y-82272142D01*
X65103809Y-82319761D01*
X65008571Y-82367380D01*
X64818095Y-82367380D01*
X64722857Y-82319761D01*
X66056190Y-81700714D02*
X66056190Y-82367380D01*
X65627619Y-81700714D02*
X65627619Y-82224523D01*
X65675238Y-82319761D01*
X65770476Y-82367380D01*
X65913333Y-82367380D01*
X66008571Y-82319761D01*
X66056190Y-82272142D01*
X66389523Y-81700714D02*
X66770476Y-81700714D01*
X66532380Y-81367380D02*
X66532380Y-82224523D01*
X66580000Y-82319761D01*
X66675238Y-82367380D01*
X66770476Y-82367380D01*
X67056190Y-82319761D02*
X67151428Y-82367380D01*
X67341904Y-82367380D01*
X67437142Y-82319761D01*
X67484761Y-82224523D01*
X67484761Y-82176904D01*
X67437142Y-82081666D01*
X67341904Y-82034047D01*
X67199047Y-82034047D01*
X67103809Y-81986428D01*
X67056190Y-81891190D01*
X67056190Y-81843571D01*
X67103809Y-81748333D01*
X67199047Y-81700714D01*
X67341904Y-81700714D01*
X67437142Y-81748333D01*
X68675238Y-81986428D02*
X69437142Y-81986428D01*
X69913333Y-81700714D02*
X70675238Y-81986428D01*
X69913333Y-82272142D01*
X72389523Y-82367380D02*
X71913333Y-82367380D01*
X71913333Y-81367380D01*
X72722857Y-81843571D02*
X73056190Y-81843571D01*
X73199047Y-82367380D02*
X72722857Y-82367380D01*
X72722857Y-81367380D01*
X73199047Y-81367380D01*
X73627619Y-82367380D02*
X73627619Y-81367380D01*
X73865714Y-81367380D01*
X74008571Y-81415000D01*
X74103809Y-81510238D01*
X74151428Y-81605476D01*
X74199047Y-81795952D01*
X74199047Y-81938809D01*
X74151428Y-82129285D01*
X74103809Y-82224523D01*
X74008571Y-82319761D01*
X73865714Y-82367380D01*
X73627619Y-82367380D01*
X74580000Y-82319761D02*
X74675238Y-82367380D01*
X74865714Y-82367380D01*
X74960952Y-82319761D01*
X75008571Y-82224523D01*
X75008571Y-82176904D01*
X74960952Y-82081666D01*
X74865714Y-82034047D01*
X74722857Y-82034047D01*
X74627619Y-81986428D01*
X74580000Y-81891190D01*
X74580000Y-81843571D01*
X74627619Y-81748333D01*
X74722857Y-81700714D01*
X74865714Y-81700714D01*
X74960952Y-81748333D01*
D11*
X88913128Y-91892762D02*
X89032175Y-92226095D01*
X89151223Y-91892762D01*
X89436937Y-91726095D02*
X89484556Y-91726095D01*
X89532175Y-91749905D01*
X89555985Y-91773714D01*
X89579794Y-91821333D01*
X89603604Y-91916571D01*
X89603604Y-92035619D01*
X89579794Y-92130857D01*
X89555985Y-92178476D01*
X89532175Y-92202285D01*
X89484556Y-92226095D01*
X89436937Y-92226095D01*
X89389318Y-92202285D01*
X89365509Y-92178476D01*
X89341699Y-92130857D01*
X89317890Y-92035619D01*
X89317890Y-91916571D01*
X89341699Y-91821333D01*
X89365509Y-91773714D01*
X89389318Y-91749905D01*
X89436937Y-91726095D01*
X89817890Y-92178476D02*
X89841699Y-92202285D01*
X89817890Y-92226095D01*
X89794080Y-92202285D01*
X89817890Y-92178476D01*
X89817890Y-92226095D01*
X90317890Y-92226095D02*
X90032175Y-92226095D01*
X90175033Y-92226095D02*
X90175033Y-91726095D01*
X90127414Y-91797524D01*
X90079794Y-91845143D01*
X90032175Y-91868952D01*
X88055985Y-93031095D02*
X87770271Y-93031095D01*
X87913128Y-93031095D02*
X87913128Y-92531095D01*
X87865509Y-92602524D01*
X87817890Y-92650143D01*
X87770271Y-92673952D01*
X88532175Y-93031095D02*
X88246461Y-93031095D01*
X88389318Y-93031095D02*
X88389318Y-92531095D01*
X88341699Y-92602524D01*
X88294080Y-92650143D01*
X88246461Y-92673952D01*
X89103604Y-92507285D02*
X88675033Y-93150143D01*
X89532175Y-93031095D02*
X89246461Y-93031095D01*
X89389318Y-93031095D02*
X89389318Y-92531095D01*
X89341699Y-92602524D01*
X89294080Y-92650143D01*
X89246461Y-92673952D01*
X89722652Y-92578714D02*
X89746461Y-92554905D01*
X89794080Y-92531095D01*
X89913128Y-92531095D01*
X89960747Y-92554905D01*
X89984556Y-92578714D01*
X90008366Y-92626333D01*
X90008366Y-92673952D01*
X89984556Y-92745381D01*
X89698842Y-93031095D01*
X90008366Y-93031095D01*
X90579794Y-92507285D02*
X90151223Y-93150143D01*
X90722652Y-92578714D02*
X90746461Y-92554905D01*
X90794080Y-92531095D01*
X90913128Y-92531095D01*
X90960747Y-92554905D01*
X90984556Y-92578714D01*
X91008366Y-92626333D01*
X91008366Y-92673952D01*
X90984556Y-92745381D01*
X90698842Y-93031095D01*
X91008366Y-93031095D01*
X91198842Y-92578714D02*
X91222652Y-92554905D01*
X91270271Y-92531095D01*
X91389318Y-92531095D01*
X91436937Y-92554905D01*
X91460747Y-92578714D01*
X91484556Y-92626333D01*
X91484556Y-92673952D01*
X91460747Y-92745381D01*
X91175033Y-93031095D01*
X91484556Y-93031095D01*
D10*
X63520489Y-89206428D02*
X63577632Y-89206428D01*
X63634775Y-89235000D01*
X63663346Y-89263571D01*
X63691918Y-89320714D01*
X63720489Y-89435000D01*
X63720489Y-89577857D01*
X63691918Y-89692142D01*
X63663346Y-89749285D01*
X63634775Y-89777857D01*
X63577632Y-89806428D01*
X63520489Y-89806428D01*
X63463346Y-89777857D01*
X63434775Y-89749285D01*
X63406203Y-89692142D01*
X63377632Y-89577857D01*
X63377632Y-89435000D01*
X63406203Y-89320714D01*
X63434775Y-89263571D01*
X63463346Y-89235000D01*
X63520489Y-89206428D01*
X86193333Y-55697380D02*
X85860000Y-55221190D01*
X85621904Y-55697380D02*
X85621904Y-54697380D01*
X86002857Y-54697380D01*
X86098095Y-54745000D01*
X86145714Y-54792619D01*
X86193333Y-54887857D01*
X86193333Y-55030714D01*
X86145714Y-55125952D01*
X86098095Y-55173571D01*
X86002857Y-55221190D01*
X85621904Y-55221190D01*
X86526666Y-54697380D02*
X87193333Y-55697380D01*
X87193333Y-54697380D02*
X86526666Y-55697380D01*
X82002380Y-58507380D02*
X82192857Y-58507380D01*
X82288095Y-58555000D01*
X82383333Y-58650238D01*
X82430952Y-58840714D01*
X82430952Y-59174047D01*
X82383333Y-59364523D01*
X82288095Y-59459761D01*
X82192857Y-59507380D01*
X82002380Y-59507380D01*
X81907142Y-59459761D01*
X81811904Y-59364523D01*
X81764285Y-59174047D01*
X81764285Y-58840714D01*
X81811904Y-58650238D01*
X81907142Y-58555000D01*
X82002380Y-58507380D01*
X82859523Y-58840714D02*
X82859523Y-59507380D01*
X82859523Y-58935952D02*
X82907142Y-58888333D01*
X83002380Y-58840714D01*
X83145238Y-58840714D01*
X83240476Y-58888333D01*
X83288095Y-58983571D01*
X83288095Y-59507380D01*
X68424925Y-89263571D02*
X68453496Y-89235000D01*
X68510639Y-89206428D01*
X68653496Y-89206428D01*
X68710639Y-89235000D01*
X68739211Y-89263571D01*
X68767782Y-89320714D01*
X68767782Y-89377857D01*
X68739211Y-89463571D01*
X68396354Y-89806428D01*
X68767782Y-89806428D01*
X87789225Y-71131440D02*
X87446368Y-71131440D01*
X87617797Y-71131440D02*
X87617797Y-70531440D01*
X87560654Y-70617154D01*
X87503511Y-70674297D01*
X87446368Y-70702869D01*
X64783041Y-70544817D02*
X64840184Y-70544817D01*
X64897327Y-70573389D01*
X64925898Y-70601960D01*
X64954470Y-70659103D01*
X64983041Y-70773389D01*
X64983041Y-70916246D01*
X64954470Y-71030531D01*
X64925898Y-71087674D01*
X64897327Y-71116246D01*
X64840184Y-71144817D01*
X64783041Y-71144817D01*
X64725898Y-71116246D01*
X64697327Y-71087674D01*
X64668755Y-71030531D01*
X64640184Y-70916246D01*
X64640184Y-70773389D01*
X64668755Y-70659103D01*
X64697327Y-70601960D01*
X64725898Y-70573389D01*
X64783041Y-70544817D01*
X91756866Y-92529463D02*
X92323533Y-92529463D01*
X92390200Y-92496130D01*
X92423533Y-92462796D01*
X92456866Y-92396130D01*
X92456866Y-92262796D01*
X92423533Y-92196130D01*
X92390200Y-92162796D01*
X92323533Y-92129463D01*
X91756866Y-92129463D01*
X92423533Y-91829463D02*
X92456866Y-91729463D01*
X92456866Y-91562796D01*
X92423533Y-91496130D01*
X92390200Y-91462796D01*
X92323533Y-91429463D01*
X92256866Y-91429463D01*
X92190200Y-91462796D01*
X92156866Y-91496130D01*
X92123533Y-91562796D01*
X92090200Y-91696130D01*
X92056866Y-91762796D01*
X92023533Y-91796130D01*
X91956866Y-91829463D01*
X91890200Y-91829463D01*
X91823533Y-91796130D01*
X91790200Y-91762796D01*
X91756866Y-91696130D01*
X91756866Y-91529463D01*
X91790200Y-91429463D01*
X92090200Y-90896130D02*
X92123533Y-90796130D01*
X92156866Y-90762796D01*
X92223533Y-90729463D01*
X92323533Y-90729463D01*
X92390200Y-90762796D01*
X92423533Y-90796130D01*
X92456866Y-90862796D01*
X92456866Y-91129463D01*
X91756866Y-91129463D01*
X91756866Y-90896130D01*
X91790200Y-90829463D01*
X91823533Y-90796130D01*
X91890200Y-90762796D01*
X91956866Y-90762796D01*
X92023533Y-90796130D01*
X92056866Y-90829463D01*
X92090200Y-90896130D01*
X92090200Y-91129463D01*
X66227198Y-89806428D02*
X65884341Y-89806428D01*
X66055770Y-89806428D02*
X66055770Y-89206428D01*
X65998627Y-89292142D01*
X65941484Y-89349285D01*
X65884341Y-89377857D01*
X76803333Y-77557380D02*
X76993809Y-77557380D01*
X77089047Y-77605000D01*
X77184285Y-77700238D01*
X77231904Y-77890714D01*
X77231904Y-78224047D01*
X77184285Y-78414523D01*
X77089047Y-78509761D01*
X76993809Y-78557380D01*
X76803333Y-78557380D01*
X76708095Y-78509761D01*
X76612857Y-78414523D01*
X76565238Y-78224047D01*
X76565238Y-77890714D01*
X76612857Y-77700238D01*
X76708095Y-77605000D01*
X76803333Y-77557380D01*
X77517619Y-77890714D02*
X77898571Y-77890714D01*
X77660476Y-78557380D02*
X77660476Y-77700238D01*
X77708095Y-77605000D01*
X77803333Y-77557380D01*
X77898571Y-77557380D01*
X78089047Y-77890714D02*
X78470000Y-77890714D01*
X78231904Y-78557380D02*
X78231904Y-77700238D01*
X78279523Y-77605000D01*
X78374761Y-77557380D01*
X78470000Y-77557380D01*
X88138095Y-54697380D02*
X88709523Y-54697380D01*
X88423809Y-55697380D02*
X88423809Y-54697380D01*
X88947619Y-54697380D02*
X89614285Y-55697380D01*
X89614285Y-54697380D02*
X88947619Y-55697380D01*
X90145495Y-70531440D02*
X90202638Y-70531440D01*
X90259781Y-70560012D01*
X90288352Y-70588583D01*
X90316924Y-70645726D01*
X90345495Y-70760012D01*
X90345495Y-70902869D01*
X90316924Y-71017154D01*
X90288352Y-71074297D01*
X90259781Y-71102869D01*
X90202638Y-71131440D01*
X90145495Y-71131440D01*
X90088352Y-71102869D01*
X90059781Y-71074297D01*
X90031209Y-71017154D01*
X90002638Y-70902869D01*
X90002638Y-70760012D01*
X90031209Y-70645726D01*
X90059781Y-70588583D01*
X90088352Y-70560012D01*
X90145495Y-70531440D01*
X69687477Y-70601960D02*
X69716048Y-70573389D01*
X69773191Y-70544817D01*
X69916048Y-70544817D01*
X69973191Y-70573389D01*
X70001763Y-70601960D01*
X70030334Y-70659103D01*
X70030334Y-70716246D01*
X70001763Y-70801960D01*
X69658906Y-71144817D01*
X70030334Y-71144817D01*
X74891134Y-62847102D02*
X74891134Y-61847102D01*
X75367324Y-62180436D02*
X75367324Y-62847102D01*
X75367324Y-62275674D02*
X75414943Y-62228055D01*
X75510181Y-62180436D01*
X75653038Y-62180436D01*
X75748276Y-62228055D01*
X75795895Y-62323293D01*
X75795895Y-62847102D01*
X76272086Y-62180436D02*
X76272086Y-63180436D01*
X76272086Y-62228055D02*
X76367324Y-62180436D01*
X76557800Y-62180436D01*
X76653038Y-62228055D01*
X76700657Y-62275674D01*
X76748276Y-62370912D01*
X76748276Y-62656626D01*
X76700657Y-62751864D01*
X76653038Y-62799483D01*
X76557800Y-62847102D01*
X76367324Y-62847102D01*
X76272086Y-62799483D01*
X77605419Y-62180436D02*
X77605419Y-62847102D01*
X77176848Y-62180436D02*
X77176848Y-62704245D01*
X77224467Y-62799483D01*
X77319705Y-62847102D01*
X77462562Y-62847102D01*
X77557800Y-62799483D01*
X77605419Y-62751864D01*
X77938753Y-62180436D02*
X78319705Y-62180436D01*
X78081610Y-61847102D02*
X78081610Y-62704245D01*
X78129229Y-62799483D01*
X78224467Y-62847102D01*
X78319705Y-62847102D01*
X79938753Y-62847102D02*
X79367324Y-62847102D01*
X79653038Y-62847102D02*
X79653038Y-61847102D01*
X79557800Y-61989960D01*
X79462562Y-62085198D01*
X79367324Y-62132817D01*
D11*
%TO.C,C3*%
X79872223Y-85330574D02*
X79848414Y-85354383D01*
X79776985Y-85378193D01*
X79729366Y-85378193D01*
X79657937Y-85354383D01*
X79610318Y-85306764D01*
X79586509Y-85259145D01*
X79562699Y-85163907D01*
X79562699Y-85092479D01*
X79586509Y-84997241D01*
X79610318Y-84949622D01*
X79657937Y-84902003D01*
X79729366Y-84878193D01*
X79776985Y-84878193D01*
X79848414Y-84902003D01*
X79872223Y-84925812D01*
X80038890Y-84878193D02*
X80348414Y-84878193D01*
X80181747Y-85068669D01*
X80253176Y-85068669D01*
X80300795Y-85092479D01*
X80324604Y-85116288D01*
X80348414Y-85163907D01*
X80348414Y-85282955D01*
X80324604Y-85330574D01*
X80300795Y-85354383D01*
X80253176Y-85378193D01*
X80110318Y-85378193D01*
X80062699Y-85354383D01*
X80038890Y-85330574D01*
%TO.C,D2*%
X66616548Y-85330586D02*
X66616548Y-84830586D01*
X66735596Y-84830586D01*
X66807024Y-84854396D01*
X66854643Y-84902015D01*
X66878453Y-84949634D01*
X66902262Y-85044872D01*
X66902262Y-85116300D01*
X66878453Y-85211538D01*
X66854643Y-85259157D01*
X66807024Y-85306776D01*
X66735596Y-85330586D01*
X66616548Y-85330586D01*
X67092738Y-84878205D02*
X67116548Y-84854396D01*
X67164167Y-84830586D01*
X67283215Y-84830586D01*
X67330834Y-84854396D01*
X67354643Y-84878205D01*
X67378453Y-84925824D01*
X67378453Y-84973443D01*
X67354643Y-85044872D01*
X67068929Y-85330586D01*
X67378453Y-85330586D01*
D10*
%TO.C,R3*%
X63244529Y-94507033D02*
X62911196Y-94030843D01*
X62673100Y-94507033D02*
X62673100Y-93507033D01*
X63054053Y-93507033D01*
X63149291Y-93554653D01*
X63196910Y-93602272D01*
X63244529Y-93697510D01*
X63244529Y-93840367D01*
X63196910Y-93935605D01*
X63149291Y-93983224D01*
X63054053Y-94030843D01*
X62673100Y-94030843D01*
X63577862Y-93507033D02*
X64196910Y-93507033D01*
X63863576Y-93887986D01*
X64006434Y-93887986D01*
X64101672Y-93935605D01*
X64149291Y-93983224D01*
X64196910Y-94078462D01*
X64196910Y-94316557D01*
X64149291Y-94411795D01*
X64101672Y-94459414D01*
X64006434Y-94507033D01*
X63720719Y-94507033D01*
X63625481Y-94459414D01*
X63577862Y-94411795D01*
%TO.C,D1*%
X83353915Y-93844841D02*
X83353915Y-93244841D01*
X83496773Y-93244841D01*
X83582487Y-93273413D01*
X83639630Y-93330555D01*
X83668201Y-93387698D01*
X83696773Y-93501984D01*
X83696773Y-93587698D01*
X83668201Y-93701984D01*
X83639630Y-93759127D01*
X83582487Y-93816270D01*
X83496773Y-93844841D01*
X83353915Y-93844841D01*
X84268201Y-93844841D02*
X83925344Y-93844841D01*
X84096773Y-93844841D02*
X84096773Y-93244841D01*
X84039630Y-93330555D01*
X83982487Y-93387698D01*
X83925344Y-93416270D01*
%TO.C,R5*%
X71006655Y-94580702D02*
X70673322Y-94104512D01*
X70435226Y-94580702D02*
X70435226Y-93580702D01*
X70816179Y-93580702D01*
X70911417Y-93628322D01*
X70959036Y-93675941D01*
X71006655Y-93771179D01*
X71006655Y-93914036D01*
X70959036Y-94009274D01*
X70911417Y-94056893D01*
X70816179Y-94104512D01*
X70435226Y-94104512D01*
X71911417Y-93580702D02*
X71435226Y-93580702D01*
X71387607Y-94056893D01*
X71435226Y-94009274D01*
X71530464Y-93961655D01*
X71768560Y-93961655D01*
X71863798Y-94009274D01*
X71911417Y-94056893D01*
X71959036Y-94152131D01*
X71959036Y-94390226D01*
X71911417Y-94485464D01*
X71863798Y-94533083D01*
X71768560Y-94580702D01*
X71530464Y-94580702D01*
X71435226Y-94533083D01*
X71387607Y-94485464D01*
%TO.C,R4*%
X68550378Y-94570160D02*
X68217045Y-94093970D01*
X67978949Y-94570160D02*
X67978949Y-93570160D01*
X68359902Y-93570160D01*
X68455140Y-93617780D01*
X68502759Y-93665399D01*
X68550378Y-93760637D01*
X68550378Y-93903494D01*
X68502759Y-93998732D01*
X68455140Y-94046351D01*
X68359902Y-94093970D01*
X67978949Y-94093970D01*
X69407521Y-93903494D02*
X69407521Y-94570160D01*
X69169425Y-93522541D02*
X68931330Y-94236827D01*
X69550378Y-94236827D01*
%TO.C,C1*%
X84923333Y-86082142D02*
X84875714Y-86129761D01*
X84732857Y-86177380D01*
X84637619Y-86177380D01*
X84494761Y-86129761D01*
X84399523Y-86034523D01*
X84351904Y-85939285D01*
X84304285Y-85748809D01*
X84304285Y-85605952D01*
X84351904Y-85415476D01*
X84399523Y-85320238D01*
X84494761Y-85225000D01*
X84637619Y-85177380D01*
X84732857Y-85177380D01*
X84875714Y-85225000D01*
X84923333Y-85272619D01*
X85875714Y-86177380D02*
X85304285Y-86177380D01*
X85590000Y-86177380D02*
X85590000Y-85177380D01*
X85494761Y-85320238D01*
X85399523Y-85415476D01*
X85304285Y-85463095D01*
D12*
%TO.C,C4*%
X81815000Y-87844285D02*
X81786428Y-87872857D01*
X81700714Y-87901428D01*
X81643571Y-87901428D01*
X81557857Y-87872857D01*
X81500714Y-87815714D01*
X81472142Y-87758571D01*
X81443571Y-87644285D01*
X81443571Y-87558571D01*
X81472142Y-87444285D01*
X81500714Y-87387142D01*
X81557857Y-87330000D01*
X81643571Y-87301428D01*
X81700714Y-87301428D01*
X81786428Y-87330000D01*
X81815000Y-87358571D01*
X82329285Y-87501428D02*
X82329285Y-87901428D01*
X82186428Y-87272857D02*
X82043571Y-87701428D01*
X82415000Y-87701428D01*
D11*
%TO.C,D5*%
X72020952Y-85316190D02*
X72020952Y-84816190D01*
X72140000Y-84816190D01*
X72211428Y-84840000D01*
X72259047Y-84887619D01*
X72282857Y-84935238D01*
X72306666Y-85030476D01*
X72306666Y-85101904D01*
X72282857Y-85197142D01*
X72259047Y-85244761D01*
X72211428Y-85292380D01*
X72140000Y-85316190D01*
X72020952Y-85316190D01*
X72759047Y-84816190D02*
X72520952Y-84816190D01*
X72497142Y-85054285D01*
X72520952Y-85030476D01*
X72568571Y-85006666D01*
X72687619Y-85006666D01*
X72735238Y-85030476D01*
X72759047Y-85054285D01*
X72782857Y-85101904D01*
X72782857Y-85220952D01*
X72759047Y-85268571D01*
X72735238Y-85292380D01*
X72687619Y-85316190D01*
X72568571Y-85316190D01*
X72520952Y-85292380D01*
X72497142Y-85268571D01*
D10*
%TO.C,U1*%
X74168095Y-92552380D02*
X74168095Y-93361904D01*
X74215714Y-93457142D01*
X74263333Y-93504761D01*
X74358571Y-93552380D01*
X74549047Y-93552380D01*
X74644285Y-93504761D01*
X74691904Y-93457142D01*
X74739523Y-93361904D01*
X74739523Y-92552380D01*
X75739523Y-93552380D02*
X75168095Y-93552380D01*
X75453809Y-93552380D02*
X75453809Y-92552380D01*
X75358571Y-92695238D01*
X75263333Y-92790476D01*
X75168095Y-92838095D01*
%TO.C,R2*%
X65893192Y-94570160D02*
X65559859Y-94093970D01*
X65321763Y-94570160D02*
X65321763Y-93570160D01*
X65702716Y-93570160D01*
X65797954Y-93617780D01*
X65845573Y-93665399D01*
X65893192Y-93760637D01*
X65893192Y-93903494D01*
X65845573Y-93998732D01*
X65797954Y-94046351D01*
X65702716Y-94093970D01*
X65321763Y-94093970D01*
X66274144Y-93665399D02*
X66321763Y-93617780D01*
X66417001Y-93570160D01*
X66655097Y-93570160D01*
X66750335Y-93617780D01*
X66797954Y-93665399D01*
X66845573Y-93760637D01*
X66845573Y-93855875D01*
X66797954Y-93998732D01*
X66226525Y-94570160D01*
X66845573Y-94570160D01*
D11*
%TO.C,D4*%
X69170952Y-85316190D02*
X69170952Y-84816190D01*
X69290000Y-84816190D01*
X69361428Y-84840000D01*
X69409047Y-84887619D01*
X69432857Y-84935238D01*
X69456666Y-85030476D01*
X69456666Y-85101904D01*
X69432857Y-85197142D01*
X69409047Y-85244761D01*
X69361428Y-85292380D01*
X69290000Y-85316190D01*
X69170952Y-85316190D01*
X69885238Y-84982857D02*
X69885238Y-85316190D01*
X69766190Y-84792380D02*
X69647142Y-85149523D01*
X69956666Y-85149523D01*
D10*
%TO.C,R1*%
X73952380Y-90336666D02*
X73476190Y-90670000D01*
X73952380Y-90908095D02*
X72952380Y-90908095D01*
X72952380Y-90527142D01*
X73000000Y-90431904D01*
X73047619Y-90384285D01*
X73142857Y-90336666D01*
X73285714Y-90336666D01*
X73380952Y-90384285D01*
X73428571Y-90431904D01*
X73476190Y-90527142D01*
X73476190Y-90908095D01*
X73952380Y-89384285D02*
X73952380Y-89955714D01*
X73952380Y-89670000D02*
X72952380Y-89670000D01*
X73095238Y-89765238D01*
X73190476Y-89860476D01*
X73238095Y-89955714D01*
D11*
%TO.C,C2*%
X77246086Y-86716472D02*
X77222277Y-86740281D01*
X77150848Y-86764091D01*
X77103229Y-86764091D01*
X77031800Y-86740281D01*
X76984181Y-86692662D01*
X76960372Y-86645043D01*
X76936562Y-86549805D01*
X76936562Y-86478377D01*
X76960372Y-86383139D01*
X76984181Y-86335520D01*
X77031800Y-86287901D01*
X77103229Y-86264091D01*
X77150848Y-86264091D01*
X77222277Y-86287901D01*
X77246086Y-86311710D01*
X77436562Y-86311710D02*
X77460372Y-86287901D01*
X77507991Y-86264091D01*
X77627039Y-86264091D01*
X77674658Y-86287901D01*
X77698467Y-86311710D01*
X77722277Y-86359329D01*
X77722277Y-86406948D01*
X77698467Y-86478377D01*
X77412753Y-86764091D01*
X77722277Y-86764091D01*
%TO.C,D3*%
X64076555Y-85352197D02*
X64076555Y-84852197D01*
X64195603Y-84852197D01*
X64267031Y-84876007D01*
X64314650Y-84923626D01*
X64338460Y-84971245D01*
X64362269Y-85066483D01*
X64362269Y-85137911D01*
X64338460Y-85233149D01*
X64314650Y-85280768D01*
X64267031Y-85328387D01*
X64195603Y-85352197D01*
X64076555Y-85352197D01*
X64528936Y-84852197D02*
X64838460Y-84852197D01*
X64671793Y-85042673D01*
X64743222Y-85042673D01*
X64790841Y-85066483D01*
X64814650Y-85090292D01*
X64838460Y-85137911D01*
X64838460Y-85256959D01*
X64814650Y-85304578D01*
X64790841Y-85328387D01*
X64743222Y-85352197D01*
X64600364Y-85352197D01*
X64552745Y-85328387D01*
X64528936Y-85304578D01*
D13*
%TO.C,SW2*%
X75050000Y-61380000D02*
X79550000Y-61380000D01*
X79550000Y-54880000D02*
X75050000Y-54880000D01*
X73800000Y-57380000D02*
X73800000Y-58880000D01*
X80800000Y-58880000D02*
X80800000Y-57380000D01*
%TO.C,C3*%
X79445557Y-87197583D02*
X79445557Y-86916423D01*
X80465557Y-87197583D02*
X80465557Y-86916423D01*
%TO.C,D2*%
X67000000Y-85565000D02*
X65080000Y-85565000D01*
X65080000Y-85565000D02*
X65080000Y-88250000D01*
X67000000Y-88250000D02*
X67000000Y-85565000D01*
%TO.C,R3*%
X64008103Y-92059131D02*
X64008103Y-91584615D01*
X62963103Y-92059131D02*
X62963103Y-91584615D01*
%TO.C,G\u002A\u002A\u002A*%
G36*
X89167180Y-86793700D02*
G01*
X89198259Y-86769607D01*
X89234373Y-86750000D01*
X89272299Y-86737915D01*
X89314178Y-86732723D01*
X89325286Y-86732431D01*
X89372265Y-86736185D01*
X89416054Y-86748063D01*
X89455926Y-86767622D01*
X89491156Y-86794416D01*
X89521017Y-86828000D01*
X89544105Y-86866517D01*
X89560212Y-86909396D01*
X89567865Y-86952811D01*
X89567500Y-86995824D01*
X89559552Y-87037496D01*
X89544457Y-87076889D01*
X89522651Y-87113063D01*
X89494568Y-87145080D01*
X89460644Y-87172001D01*
X89421314Y-87192887D01*
X89387442Y-87204313D01*
X89359432Y-87209024D01*
X89327102Y-87210430D01*
X89294490Y-87208585D01*
X89265635Y-87203545D01*
X89262214Y-87202613D01*
X89220402Y-87186394D01*
X89183079Y-87162789D01*
X89158655Y-87141191D01*
X89129689Y-87106353D01*
X89108461Y-87068135D01*
X89094860Y-87027581D01*
X89088774Y-86985736D01*
X89090093Y-86943644D01*
X89098704Y-86902351D01*
X89114496Y-86862899D01*
X89118691Y-86856189D01*
X89211631Y-86856189D01*
X89213768Y-86876117D01*
X89222228Y-86894003D01*
X89235680Y-86908557D01*
X89252792Y-86918491D01*
X89272232Y-86922516D01*
X89292668Y-86919342D01*
X89300333Y-86916025D01*
X89318248Y-86902182D01*
X89330715Y-86883193D01*
X89334651Y-86870575D01*
X89334023Y-86853264D01*
X89327427Y-86834641D01*
X89316513Y-86818206D01*
X89305539Y-86808839D01*
X89285162Y-86801606D01*
X89263576Y-86801872D01*
X89243131Y-86808929D01*
X89226174Y-86822068D01*
X89217149Y-86835507D01*
X89211631Y-86856189D01*
X89118691Y-86856189D01*
X89137358Y-86826334D01*
X89167180Y-86793700D01*
G37*
G36*
X89226197Y-90013404D02*
G01*
X89226310Y-89980979D01*
X89226575Y-89955421D01*
X89227054Y-89935658D01*
X89227809Y-89920619D01*
X89228902Y-89909232D01*
X89230395Y-89900425D01*
X89232350Y-89893127D01*
X89234830Y-89886266D01*
X89236060Y-89883214D01*
X89249858Y-89854610D01*
X89265014Y-89833550D01*
X89280796Y-89819747D01*
X89292369Y-89812330D01*
X89303730Y-89806544D01*
X89316228Y-89802161D01*
X89331211Y-89798955D01*
X89350025Y-89796696D01*
X89374019Y-89795157D01*
X89404539Y-89794110D01*
X89436308Y-89793442D01*
X89482283Y-89792997D01*
X89520299Y-89793516D01*
X89551366Y-89795091D01*
X89576492Y-89797816D01*
X89596687Y-89801784D01*
X89612960Y-89807088D01*
X89620262Y-89810433D01*
X89642932Y-89826784D01*
X89662199Y-89850359D01*
X89676923Y-89879660D01*
X89680247Y-89889226D01*
X89683102Y-89898781D01*
X89685354Y-89908024D01*
X89687074Y-89918147D01*
X89688333Y-89930344D01*
X89689201Y-89945807D01*
X89689751Y-89965729D01*
X89690054Y-89991303D01*
X89690180Y-90023723D01*
X89690202Y-90056020D01*
X89690127Y-90096457D01*
X89689867Y-90129001D01*
X89689370Y-90154770D01*
X89688585Y-90174880D01*
X89687459Y-90190448D01*
X89685942Y-90202591D01*
X89683981Y-90212425D01*
X89682746Y-90217080D01*
X89669909Y-90250918D01*
X89652750Y-90277220D01*
X89630620Y-90296675D01*
X89602872Y-90309972D01*
X89592693Y-90313042D01*
X89579752Y-90315160D01*
X89559503Y-90316862D01*
X89533604Y-90318145D01*
X89503708Y-90319008D01*
X89471471Y-90319449D01*
X89438549Y-90319463D01*
X89406596Y-90319050D01*
X89377269Y-90318207D01*
X89352222Y-90316932D01*
X89333110Y-90315222D01*
X89322760Y-90313422D01*
X89292030Y-90301304D01*
X89267406Y-90282925D01*
X89248378Y-90257782D01*
X89234919Y-90226869D01*
X89232485Y-90218762D01*
X89230545Y-90210185D01*
X89229045Y-90200045D01*
X89227928Y-90187250D01*
X89227141Y-90170706D01*
X89226627Y-90149320D01*
X89226331Y-90122000D01*
X89226198Y-90087652D01*
X89226180Y-90063361D01*
X89317886Y-90063361D01*
X89318141Y-90095326D01*
X89318828Y-90125489D01*
X89319949Y-90152315D01*
X89321505Y-90174267D01*
X89323497Y-90189809D01*
X89325117Y-90195971D01*
X89329298Y-90204565D01*
X89334529Y-90211269D01*
X89341887Y-90216299D01*
X89352450Y-90219872D01*
X89367297Y-90222204D01*
X89387506Y-90223513D01*
X89414156Y-90224015D01*
X89448324Y-90223926D01*
X89463465Y-90223783D01*
X89496350Y-90223412D01*
X89521441Y-90222996D01*
X89539957Y-90222408D01*
X89553115Y-90221521D01*
X89562132Y-90220209D01*
X89568225Y-90218346D01*
X89572612Y-90215803D01*
X89576509Y-90212456D01*
X89577034Y-90211964D01*
X89583235Y-90204855D01*
X89588145Y-90195811D01*
X89591882Y-90183830D01*
X89594565Y-90167909D01*
X89596313Y-90147048D01*
X89597243Y-90120243D01*
X89597476Y-90086493D01*
X89597128Y-90044796D01*
X89597098Y-90042505D01*
X89596541Y-90000813D01*
X89595539Y-89967256D01*
X89593248Y-89940966D01*
X89588827Y-89921076D01*
X89581432Y-89906717D01*
X89570221Y-89897024D01*
X89554352Y-89891128D01*
X89532981Y-89888162D01*
X89505267Y-89887259D01*
X89470366Y-89887552D01*
X89446925Y-89887921D01*
X89412662Y-89888526D01*
X89386232Y-89889398D01*
X89366460Y-89890844D01*
X89352168Y-89893173D01*
X89342181Y-89896693D01*
X89335321Y-89901711D01*
X89330411Y-89908536D01*
X89326277Y-89917475D01*
X89325360Y-89919742D01*
X89323049Y-89930264D01*
X89321163Y-89948200D01*
X89319702Y-89972014D01*
X89318668Y-90000169D01*
X89318062Y-90031130D01*
X89317886Y-90063361D01*
X89226180Y-90063361D01*
X89226173Y-90053767D01*
X89226197Y-90013404D01*
G37*
G36*
X90683112Y-90008792D02*
G01*
X90722878Y-90009032D01*
X90754826Y-90009454D01*
X90779549Y-90010074D01*
X90797644Y-90010912D01*
X90809705Y-90011984D01*
X90816327Y-90013307D01*
X90817840Y-90014122D01*
X90820775Y-90021689D01*
X90822656Y-90036422D01*
X90823246Y-90054413D01*
X90823331Y-90067201D01*
X90823012Y-90077547D01*
X90821429Y-90085709D01*
X90817720Y-90091944D01*
X90811025Y-90096511D01*
X90800483Y-90099667D01*
X90785234Y-90101671D01*
X90764416Y-90102781D01*
X90737170Y-90103255D01*
X90702633Y-90103350D01*
X90660058Y-90103324D01*
X90516896Y-90103324D01*
X90517151Y-90129229D01*
X90519750Y-90157748D01*
X90527079Y-90179144D01*
X90539386Y-90194110D01*
X90540870Y-90195258D01*
X90544923Y-90197974D01*
X90549639Y-90200131D01*
X90556071Y-90201807D01*
X90565275Y-90203082D01*
X90578304Y-90204036D01*
X90596213Y-90204746D01*
X90620057Y-90205293D01*
X90650890Y-90205756D01*
X90686194Y-90206173D01*
X90724249Y-90206622D01*
X90754289Y-90207071D01*
X90777307Y-90207596D01*
X90794297Y-90208275D01*
X90806253Y-90209184D01*
X90814170Y-90210400D01*
X90819042Y-90212001D01*
X90821862Y-90214062D01*
X90823624Y-90216660D01*
X90823697Y-90216795D01*
X90826232Y-90226370D01*
X90827484Y-90241462D01*
X90827576Y-90259656D01*
X90826629Y-90278538D01*
X90824764Y-90295690D01*
X90822103Y-90308699D01*
X90818769Y-90315148D01*
X90818741Y-90315166D01*
X90812528Y-90316290D01*
X90798681Y-90317215D01*
X90778574Y-90317942D01*
X90753580Y-90318473D01*
X90725075Y-90318807D01*
X90694430Y-90318946D01*
X90663022Y-90318890D01*
X90632223Y-90318641D01*
X90603407Y-90318199D01*
X90577948Y-90317565D01*
X90557221Y-90316740D01*
X90542599Y-90315725D01*
X90537169Y-90314993D01*
X90505748Y-90305810D01*
X90480204Y-90291581D01*
X90460034Y-90271644D01*
X90444737Y-90245342D01*
X90433811Y-90212015D01*
X90426753Y-90171002D01*
X90426602Y-90169701D01*
X90424623Y-90143235D01*
X90424001Y-90113240D01*
X90424838Y-90085108D01*
X90424973Y-90083068D01*
X90426574Y-90062310D01*
X90428349Y-90048328D01*
X90430962Y-90038897D01*
X90435074Y-90031797D01*
X90441349Y-90024804D01*
X90442770Y-90023375D01*
X90457428Y-90008716D01*
X90634931Y-90008716D01*
X90683112Y-90008792D01*
G37*
G36*
X88016789Y-90187539D02*
G01*
X88016600Y-90150426D01*
X88016543Y-90105805D01*
X88016542Y-90053748D01*
X88016542Y-89827609D01*
X88031455Y-89812696D01*
X88048604Y-89800058D01*
X88066370Y-89794787D01*
X88075686Y-89794105D01*
X88092766Y-89793570D01*
X88116362Y-89793193D01*
X88145227Y-89792984D01*
X88178116Y-89792956D01*
X88213782Y-89793118D01*
X88235041Y-89793302D01*
X88278282Y-89793785D01*
X88313504Y-89794364D01*
X88341700Y-89795191D01*
X88363862Y-89796415D01*
X88380980Y-89798185D01*
X88394048Y-89800651D01*
X88404056Y-89803962D01*
X88411997Y-89808269D01*
X88418863Y-89813721D01*
X88425645Y-89820467D01*
X88427397Y-89822324D01*
X88439156Y-89837564D01*
X88447501Y-89855426D01*
X88453002Y-89877775D01*
X88456232Y-89906475D01*
X88456949Y-89918729D01*
X88457271Y-89957189D01*
X88454020Y-89988519D01*
X88446984Y-90013951D01*
X88437267Y-90032773D01*
X88430538Y-90043781D01*
X88428662Y-90050481D01*
X88431114Y-90055792D01*
X88432763Y-90057716D01*
X88444945Y-90076883D01*
X88453891Y-90103095D01*
X88459359Y-90134899D01*
X88461108Y-90170843D01*
X88458897Y-90209473D01*
X88458528Y-90212757D01*
X88452854Y-90245577D01*
X88444027Y-90270947D01*
X88431393Y-90290075D01*
X88414301Y-90304168D01*
X88406923Y-90308245D01*
X88384194Y-90319571D01*
X88219515Y-90319451D01*
X88175927Y-90319380D01*
X88140446Y-90319209D01*
X88112166Y-90318902D01*
X88090184Y-90318420D01*
X88073596Y-90317725D01*
X88061496Y-90316777D01*
X88052982Y-90315540D01*
X88047149Y-90313975D01*
X88043093Y-90312044D01*
X88042999Y-90311986D01*
X88037227Y-90308383D01*
X88032361Y-90304832D01*
X88028325Y-90300576D01*
X88025041Y-90294858D01*
X88022431Y-90286924D01*
X88020418Y-90276017D01*
X88018925Y-90261381D01*
X88017874Y-90242260D01*
X88017387Y-90224963D01*
X88111150Y-90224963D01*
X88229675Y-90224963D01*
X88267106Y-90224874D01*
X88296510Y-90224575D01*
X88318865Y-90224017D01*
X88335151Y-90223150D01*
X88346351Y-90221925D01*
X88353442Y-90220292D01*
X88356945Y-90218568D01*
X88361004Y-90214551D01*
X88363588Y-90208421D01*
X88365015Y-90198304D01*
X88365604Y-90182325D01*
X88365690Y-90167232D01*
X88365607Y-90145747D01*
X88364593Y-90129710D01*
X88361499Y-90118326D01*
X88355175Y-90110799D01*
X88344474Y-90106331D01*
X88328247Y-90104127D01*
X88305345Y-90103390D01*
X88274619Y-90103324D01*
X88273498Y-90103324D01*
X88243211Y-90103121D01*
X88220804Y-90102456D01*
X88205155Y-90101246D01*
X88195142Y-90099408D01*
X88189973Y-90097111D01*
X88184279Y-90088372D01*
X88180501Y-90073778D01*
X88178835Y-90056321D01*
X88179482Y-90038989D01*
X88182638Y-90024775D01*
X88184873Y-90020280D01*
X88187726Y-90016324D01*
X88191229Y-90013427D01*
X88196740Y-90011393D01*
X88205620Y-90010026D01*
X88219227Y-90009130D01*
X88238920Y-90008509D01*
X88266060Y-90007968D01*
X88270846Y-90007881D01*
X88302343Y-90007288D01*
X88325966Y-90006317D01*
X88342848Y-90004247D01*
X88354118Y-90000355D01*
X88360907Y-89993920D01*
X88364346Y-89984220D01*
X88365565Y-89970534D01*
X88365695Y-89952141D01*
X88365690Y-89947351D01*
X88365745Y-89930361D01*
X88365286Y-89916899D01*
X88363375Y-89906556D01*
X88359076Y-89898922D01*
X88351452Y-89893587D01*
X88339567Y-89890142D01*
X88322484Y-89888178D01*
X88299265Y-89887286D01*
X88268975Y-89887055D01*
X88230676Y-89887077D01*
X88111150Y-89887077D01*
X88111150Y-90224963D01*
X88017387Y-90224963D01*
X88017188Y-90217898D01*
X88016789Y-90187539D01*
G37*
G36*
X89883218Y-89791887D02*
G01*
X89892593Y-89792344D01*
X89899074Y-89792469D01*
X89913008Y-89792479D01*
X89923778Y-89793193D01*
X89931791Y-89795637D01*
X89937452Y-89800838D01*
X89941170Y-89809822D01*
X89943351Y-89823617D01*
X89944403Y-89843248D01*
X89944731Y-89869742D01*
X89944743Y-89904126D01*
X89944743Y-90008716D01*
X89975153Y-90008609D01*
X90006928Y-90006897D01*
X90030322Y-90002019D01*
X90045308Y-89993983D01*
X90048369Y-89990685D01*
X90052657Y-89984038D01*
X90060593Y-89970824D01*
X90071422Y-89952337D01*
X90084389Y-89929869D01*
X90098738Y-89904714D01*
X90104420Y-89894680D01*
X90119053Y-89868963D01*
X90132567Y-89845562D01*
X90144214Y-89825740D01*
X90153249Y-89810761D01*
X90158927Y-89801889D01*
X90160074Y-89800353D01*
X90165221Y-89796386D01*
X90173573Y-89793971D01*
X90187091Y-89792777D01*
X90206581Y-89792469D01*
X90226278Y-89792745D01*
X90238826Y-89793794D01*
X90246074Y-89795950D01*
X90249875Y-89799547D01*
X90250325Y-89800353D01*
X90252723Y-89810296D01*
X90252169Y-89814995D01*
X90249500Y-89820332D01*
X90243037Y-89832236D01*
X90233483Y-89849468D01*
X90221543Y-89870788D01*
X90207921Y-89894956D01*
X90193322Y-89920733D01*
X90178448Y-89946878D01*
X90164006Y-89972153D01*
X90150698Y-89995318D01*
X90139229Y-90015132D01*
X90130303Y-90030357D01*
X90124624Y-90039753D01*
X90123572Y-90041378D01*
X90120774Y-90051066D01*
X90122719Y-90055482D01*
X90134275Y-90071757D01*
X90144870Y-90087317D01*
X90155504Y-90103760D01*
X90167175Y-90122682D01*
X90180882Y-90145682D01*
X90197625Y-90174358D01*
X90204757Y-90186669D01*
X90223656Y-90219387D01*
X90238484Y-90245233D01*
X90249699Y-90265124D01*
X90257759Y-90279979D01*
X90263122Y-90290714D01*
X90266248Y-90298247D01*
X90267595Y-90303495D01*
X90267620Y-90307375D01*
X90266789Y-90310786D01*
X90264669Y-90314849D01*
X90260261Y-90317430D01*
X90251812Y-90318858D01*
X90237571Y-90319461D01*
X90219951Y-90319571D01*
X90198638Y-90319296D01*
X90184467Y-90318278D01*
X90175582Y-90316231D01*
X90170126Y-90312867D01*
X90168993Y-90311687D01*
X90164860Y-90305632D01*
X90157027Y-90292935D01*
X90146209Y-90274808D01*
X90133126Y-90252460D01*
X90118495Y-90227101D01*
X90109557Y-90211448D01*
X90094236Y-90184863D01*
X90079868Y-90160592D01*
X90067203Y-90139849D01*
X90056990Y-90123850D01*
X90049980Y-90113810D01*
X90047692Y-90111208D01*
X90041578Y-90107482D01*
X90032620Y-90105105D01*
X90018941Y-90103814D01*
X89998667Y-90103344D01*
X89991548Y-90103324D01*
X89944743Y-90103324D01*
X89944743Y-90206041D01*
X89944581Y-90242803D01*
X89944072Y-90271216D01*
X89943183Y-90291935D01*
X89941882Y-90305616D01*
X89940136Y-90312915D01*
X89939337Y-90314165D01*
X89931731Y-90317091D01*
X89916748Y-90318961D01*
X89897439Y-90319571D01*
X89876992Y-90318878D01*
X89862429Y-90316935D01*
X89855541Y-90314165D01*
X89854309Y-90310645D01*
X89853260Y-90302393D01*
X89852384Y-90288887D01*
X89851669Y-90269608D01*
X89851105Y-90244035D01*
X89850680Y-90211645D01*
X89850385Y-90171920D01*
X89850207Y-90124338D01*
X89850137Y-90068378D01*
X89850135Y-90055278D01*
X89850080Y-89999783D01*
X89850000Y-89952625D01*
X89850019Y-89913132D01*
X89850263Y-89880631D01*
X89850857Y-89854451D01*
X89851925Y-89833919D01*
X89853594Y-89818363D01*
X89855988Y-89807111D01*
X89859233Y-89799492D01*
X89863453Y-89794831D01*
X89868774Y-89792459D01*
X89875321Y-89791701D01*
X89883218Y-89791887D01*
G37*
G36*
X88740748Y-89792943D02*
G01*
X88781480Y-89793217D01*
X88797628Y-89793347D01*
X88843581Y-89793759D01*
X88881462Y-89794254D01*
X88912208Y-89794957D01*
X88936757Y-89795998D01*
X88956047Y-89797501D01*
X88971016Y-89799595D01*
X88982601Y-89802407D01*
X88991740Y-89806063D01*
X88999371Y-89810690D01*
X89006432Y-89816416D01*
X89012978Y-89822521D01*
X89027609Y-89842031D01*
X89038769Y-89868092D01*
X89046298Y-89898874D01*
X89050032Y-89932549D01*
X89049811Y-89967285D01*
X89045472Y-90001254D01*
X89036854Y-90032626D01*
X89032499Y-90043318D01*
X89018964Y-90064718D01*
X89000392Y-90082311D01*
X88979241Y-90094027D01*
X88968848Y-90096963D01*
X88958681Y-90099350D01*
X88953710Y-90101458D01*
X88953611Y-90101688D01*
X88955790Y-90105928D01*
X88961916Y-90116869D01*
X88971377Y-90133444D01*
X88983561Y-90154584D01*
X88997855Y-90179219D01*
X89010222Y-90200427D01*
X89029930Y-90234672D01*
X89045494Y-90262841D01*
X89056724Y-90284566D01*
X89063430Y-90299480D01*
X89065422Y-90307214D01*
X89065410Y-90307308D01*
X89064238Y-90311844D01*
X89061151Y-90314825D01*
X89054472Y-90316651D01*
X89042524Y-90317723D01*
X89023629Y-90318442D01*
X89018131Y-90318599D01*
X88994372Y-90318837D01*
X88978472Y-90317921D01*
X88969341Y-90315755D01*
X88966898Y-90314094D01*
X88963291Y-90308721D01*
X88955932Y-90296606D01*
X88945474Y-90278862D01*
X88932569Y-90256608D01*
X88917871Y-90230958D01*
X88904240Y-90206942D01*
X88846959Y-90105577D01*
X88778646Y-90104333D01*
X88710334Y-90103089D01*
X88710334Y-90205924D01*
X88710172Y-90242706D01*
X88709663Y-90271138D01*
X88708776Y-90291877D01*
X88707478Y-90305579D01*
X88705734Y-90312899D01*
X88704927Y-90314165D01*
X88697322Y-90317091D01*
X88682339Y-90318961D01*
X88663030Y-90319571D01*
X88642582Y-90318878D01*
X88628020Y-90316935D01*
X88621132Y-90314165D01*
X88619549Y-90308174D01*
X88618217Y-90294502D01*
X88617138Y-90274477D01*
X88616310Y-90249424D01*
X88615733Y-90220671D01*
X88615409Y-90189543D01*
X88615336Y-90157367D01*
X88615514Y-90125469D01*
X88615945Y-90095177D01*
X88616627Y-90067816D01*
X88617560Y-90044712D01*
X88618746Y-90027194D01*
X88620183Y-90016586D01*
X88621132Y-90014122D01*
X88625387Y-90012518D01*
X88635033Y-90011228D01*
X88650698Y-90010230D01*
X88673010Y-90009503D01*
X88702599Y-90009024D01*
X88740092Y-90008771D01*
X88774095Y-90008716D01*
X88823050Y-90008553D01*
X88863023Y-90008064D01*
X88894035Y-90007247D01*
X88916107Y-90006103D01*
X88929261Y-90004630D01*
X88932631Y-90003713D01*
X88945179Y-89993841D01*
X88952754Y-89977548D01*
X88955663Y-89954135D01*
X88955713Y-89950876D01*
X88953530Y-89925079D01*
X88946824Y-89905821D01*
X88935873Y-89893811D01*
X88932822Y-89892167D01*
X88924816Y-89890520D01*
X88908637Y-89889201D01*
X88884108Y-89888204D01*
X88851053Y-89887524D01*
X88809296Y-89887154D01*
X88774095Y-89887077D01*
X88730204Y-89886980D01*
X88694693Y-89886674D01*
X88666933Y-89886137D01*
X88646297Y-89885346D01*
X88632155Y-89884279D01*
X88623879Y-89882915D01*
X88621132Y-89881671D01*
X88617723Y-89873517D01*
X88615849Y-89859364D01*
X88615442Y-89842080D01*
X88616437Y-89824533D01*
X88618766Y-89809590D01*
X88622361Y-89800120D01*
X88623054Y-89799300D01*
X88625711Y-89797395D01*
X88630059Y-89795866D01*
X88636974Y-89794685D01*
X88647333Y-89793822D01*
X88662014Y-89793246D01*
X88681892Y-89792927D01*
X88707844Y-89792836D01*
X88740748Y-89792943D01*
G37*
G36*
X90777904Y-86827065D02*
G01*
X90804766Y-86797320D01*
X90836000Y-86772318D01*
X90870855Y-86752662D01*
X90908575Y-86738955D01*
X90948408Y-86731798D01*
X90989600Y-86731795D01*
X91031397Y-86739547D01*
X91073046Y-86755659D01*
X91073281Y-86755776D01*
X91113911Y-86780034D01*
X91147051Y-86808925D01*
X91173294Y-86843098D01*
X91193235Y-86883203D01*
X91195847Y-86890121D01*
X91206794Y-86932670D01*
X91209490Y-86975569D01*
X91204495Y-87017801D01*
X91192365Y-87058352D01*
X91173659Y-87096204D01*
X91148935Y-87130341D01*
X91118750Y-87159748D01*
X91083663Y-87183408D01*
X91044231Y-87200305D01*
X91022377Y-87206043D01*
X90996056Y-87209536D01*
X90965991Y-87210429D01*
X90936318Y-87208774D01*
X90911170Y-87204624D01*
X90911096Y-87204606D01*
X90868455Y-87189411D01*
X90829866Y-87166692D01*
X90796231Y-87137364D01*
X90768447Y-87102345D01*
X90747415Y-87062549D01*
X90735564Y-87025846D01*
X90729258Y-86981424D01*
X90731092Y-86938733D01*
X90740314Y-86898374D01*
X90756001Y-86861346D01*
X90853280Y-86861346D01*
X90857112Y-86883537D01*
X90867497Y-86901358D01*
X90882769Y-86914132D01*
X90901260Y-86921178D01*
X90921304Y-86921819D01*
X90941236Y-86915377D01*
X90957069Y-86903600D01*
X90970107Y-86885164D01*
X90975402Y-86865232D01*
X90973660Y-86845439D01*
X90965588Y-86827416D01*
X90951893Y-86812798D01*
X90933282Y-86803216D01*
X90912339Y-86800254D01*
X90890896Y-86804700D01*
X90872916Y-86816326D01*
X90859976Y-86833502D01*
X90853652Y-86854597D01*
X90853280Y-86861346D01*
X90756001Y-86861346D01*
X90756169Y-86860950D01*
X90777904Y-86827065D01*
G37*
G36*
X91632501Y-89793398D02*
G01*
X91650429Y-89794306D01*
X91661530Y-89795817D01*
X91667987Y-89798605D01*
X91671982Y-89803340D01*
X91673408Y-89805985D01*
X91674575Y-89812746D01*
X91675625Y-89827487D01*
X91676555Y-89849178D01*
X91677362Y-89876789D01*
X91678043Y-89909291D01*
X91678594Y-89945654D01*
X91679014Y-89984847D01*
X91679299Y-90025842D01*
X91679446Y-90067608D01*
X91679453Y-90109117D01*
X91679316Y-90149337D01*
X91679033Y-90187239D01*
X91678600Y-90221794D01*
X91678015Y-90251971D01*
X91677275Y-90276742D01*
X91676376Y-90295075D01*
X91675317Y-90305942D01*
X91674830Y-90308015D01*
X91672207Y-90313679D01*
X91668291Y-90317080D01*
X91661052Y-90318766D01*
X91648460Y-90319280D01*
X91633157Y-90319215D01*
X91615192Y-90318788D01*
X91600430Y-90317968D01*
X91591413Y-90316911D01*
X91590247Y-90316587D01*
X91588885Y-90311663D01*
X91587693Y-90298708D01*
X91586667Y-90278703D01*
X91585808Y-90252626D01*
X91585113Y-90221456D01*
X91584582Y-90186173D01*
X91584213Y-90147754D01*
X91584004Y-90107180D01*
X91583955Y-90065428D01*
X91584064Y-90023479D01*
X91584330Y-89982310D01*
X91584751Y-89942902D01*
X91585326Y-89906232D01*
X91586054Y-89873280D01*
X91586934Y-89845025D01*
X91587963Y-89822445D01*
X91589142Y-89806521D01*
X91590468Y-89798230D01*
X91590946Y-89797329D01*
X91599441Y-89794510D01*
X91615469Y-89793234D01*
X91632501Y-89793398D01*
G37*
G36*
X92116678Y-89792570D02*
G01*
X92165072Y-89792870D01*
X92205499Y-89793365D01*
X92237748Y-89794049D01*
X92261608Y-89794920D01*
X92276870Y-89795972D01*
X92283209Y-89797133D01*
X92287576Y-89800621D01*
X92290203Y-89806670D01*
X92291510Y-89817290D01*
X92291914Y-89834489D01*
X92291923Y-89839031D01*
X92291240Y-89859838D01*
X92289320Y-89874602D01*
X92286517Y-89881671D01*
X92280947Y-89883804D01*
X92268681Y-89885372D01*
X92249100Y-89886413D01*
X92221584Y-89886964D01*
X92196414Y-89887077D01*
X92111717Y-89887077D01*
X92111717Y-90091768D01*
X92111620Y-90139767D01*
X92111338Y-90183163D01*
X92110886Y-90221258D01*
X92110278Y-90253355D01*
X92109528Y-90278756D01*
X92108650Y-90296762D01*
X92107658Y-90306677D01*
X92107323Y-90308015D01*
X92104689Y-90313672D01*
X92100730Y-90317098D01*
X92093421Y-90318850D01*
X92080739Y-90319488D01*
X92065426Y-90319571D01*
X92044488Y-90318892D01*
X92029650Y-90316980D01*
X92022515Y-90314165D01*
X92021168Y-90310432D01*
X92020041Y-90301783D01*
X92019120Y-90287659D01*
X92018391Y-90267500D01*
X92017840Y-90240746D01*
X92017453Y-90206838D01*
X92017216Y-90165214D01*
X92017115Y-90115316D01*
X92017109Y-90097918D01*
X92017109Y-89887077D01*
X91930160Y-89887077D01*
X91896128Y-89886867D01*
X91870469Y-89886212D01*
X91852556Y-89885074D01*
X91841762Y-89883419D01*
X91837804Y-89881671D01*
X91834458Y-89873604D01*
X91832591Y-89859526D01*
X91832145Y-89842303D01*
X91833061Y-89824802D01*
X91835282Y-89809888D01*
X91838748Y-89800429D01*
X91839478Y-89799549D01*
X91841962Y-89797894D01*
X91846320Y-89796515D01*
X91853313Y-89795387D01*
X91863698Y-89794485D01*
X91878238Y-89793786D01*
X91897690Y-89793264D01*
X91922814Y-89792897D01*
X91954372Y-89792659D01*
X91993121Y-89792526D01*
X92039822Y-89792473D01*
X92060526Y-89792469D01*
X92116678Y-89792570D01*
G37*
G36*
X91219551Y-89792698D02*
G01*
X91257060Y-89793131D01*
X91289373Y-89793837D01*
X91315533Y-89794792D01*
X91334583Y-89795967D01*
X91345456Y-89797312D01*
X91371912Y-89806191D01*
X91392066Y-89820664D01*
X91407441Y-89841859D01*
X91408648Y-89844146D01*
X91413545Y-89854538D01*
X91416932Y-89864724D01*
X91419155Y-89876831D01*
X91420562Y-89892983D01*
X91421498Y-89915307D01*
X91421767Y-89924548D01*
X91421964Y-89958897D01*
X91420280Y-89985802D01*
X91416477Y-90006681D01*
X91410315Y-90022948D01*
X91403258Y-90033935D01*
X91394387Y-90045213D01*
X91424683Y-90101071D01*
X91424683Y-90170901D01*
X91424598Y-90197804D01*
X91424189Y-90217551D01*
X91423221Y-90232000D01*
X91421463Y-90243004D01*
X91418681Y-90252418D01*
X91414641Y-90262098D01*
X91412693Y-90266307D01*
X91400615Y-90286908D01*
X91385740Y-90301616D01*
X91381493Y-90304601D01*
X91362283Y-90317318D01*
X91193004Y-90318516D01*
X91149418Y-90318807D01*
X91113915Y-90318977D01*
X91085571Y-90318984D01*
X91063458Y-90318790D01*
X91046651Y-90318353D01*
X91034224Y-90317634D01*
X91025251Y-90316592D01*
X91018805Y-90315188D01*
X91013961Y-90313380D01*
X91009793Y-90311130D01*
X91008812Y-90310533D01*
X91002676Y-90306624D01*
X90997513Y-90302573D01*
X90993240Y-90297612D01*
X90989772Y-90290973D01*
X90987025Y-90281887D01*
X90984915Y-90269586D01*
X90983358Y-90253302D01*
X90982271Y-90232267D01*
X90982078Y-90224963D01*
X91075534Y-90224963D01*
X91193918Y-90224963D01*
X91230692Y-90224891D01*
X91259513Y-90224638D01*
X91281435Y-90224146D01*
X91297515Y-90223356D01*
X91308807Y-90222212D01*
X91316368Y-90220655D01*
X91321254Y-90218629D01*
X91322315Y-90217950D01*
X91326917Y-90214009D01*
X91329847Y-90208695D01*
X91331477Y-90200082D01*
X91332180Y-90186245D01*
X91332327Y-90166141D01*
X91332229Y-90144940D01*
X91331164Y-90129141D01*
X91327980Y-90117949D01*
X91321520Y-90110571D01*
X91310631Y-90106213D01*
X91294159Y-90104082D01*
X91270950Y-90103383D01*
X91240974Y-90103324D01*
X91209767Y-90103225D01*
X91186428Y-90102525D01*
X91169814Y-90100623D01*
X91158781Y-90096914D01*
X91152188Y-90090795D01*
X91148891Y-90081665D01*
X91147748Y-90068919D01*
X91147616Y-90054064D01*
X91148423Y-90032350D01*
X91150791Y-90018637D01*
X91153337Y-90014082D01*
X91159845Y-90012291D01*
X91174081Y-90010662D01*
X91194764Y-90009289D01*
X91220611Y-90008269D01*
X91236222Y-90007899D01*
X91267944Y-90007242D01*
X91291785Y-90006143D01*
X91308870Y-90003903D01*
X91320324Y-89999821D01*
X91327271Y-89993196D01*
X91330838Y-89983329D01*
X91332148Y-89969517D01*
X91332328Y-89951061D01*
X91332327Y-89948059D01*
X91332462Y-89931358D01*
X91332238Y-89918157D01*
X91330711Y-89908035D01*
X91326938Y-89900571D01*
X91319975Y-89895345D01*
X91308877Y-89891937D01*
X91292702Y-89889925D01*
X91270506Y-89888890D01*
X91241346Y-89888411D01*
X91204276Y-89888067D01*
X91197542Y-89887997D01*
X91075534Y-89886663D01*
X91075534Y-90224963D01*
X90982078Y-90224963D01*
X90981568Y-90205713D01*
X90981166Y-90172871D01*
X90980981Y-90132973D01*
X90980929Y-90085251D01*
X90980926Y-90055719D01*
X90980933Y-90003223D01*
X90981019Y-89958979D01*
X90981284Y-89922231D01*
X90981828Y-89892222D01*
X90982041Y-89886663D01*
X90982750Y-89868193D01*
X90984150Y-89849389D01*
X90986126Y-89835051D01*
X90988778Y-89824423D01*
X90992207Y-89816747D01*
X90996510Y-89811265D01*
X91001788Y-89807222D01*
X91008140Y-89803858D01*
X91014373Y-89801007D01*
X91020173Y-89798682D01*
X91026909Y-89796829D01*
X91035619Y-89795394D01*
X91047338Y-89794323D01*
X91063102Y-89793563D01*
X91083947Y-89793060D01*
X91110909Y-89792762D01*
X91145025Y-89792614D01*
X91177804Y-89792568D01*
X91219551Y-89792698D01*
G37*
G36*
X87292405Y-87753903D02*
G01*
X87284763Y-87746881D01*
X87270899Y-87725622D01*
X87264883Y-87702606D01*
X87266396Y-87679558D01*
X87275121Y-87658204D01*
X87290738Y-87640269D01*
X87306251Y-87630354D01*
X87313244Y-87627249D01*
X87320679Y-87624818D01*
X87329807Y-87622941D01*
X87341880Y-87621502D01*
X87358150Y-87620382D01*
X87379867Y-87619463D01*
X87408284Y-87618628D01*
X87438466Y-87617900D01*
X87573190Y-87618311D01*
X87713181Y-87625575D01*
X87857906Y-87639644D01*
X88006834Y-87660476D01*
X88069795Y-87671105D01*
X88095114Y-87675491D01*
X88117173Y-87679126D01*
X88134523Y-87681785D01*
X88145713Y-87683245D01*
X88149307Y-87683368D01*
X88149452Y-87678445D01*
X88148274Y-87667379D01*
X88146738Y-87657031D01*
X88140440Y-87612891D01*
X88134814Y-87562602D01*
X88130000Y-87508399D01*
X88126137Y-87452515D01*
X88123365Y-87397186D01*
X88121823Y-87344647D01*
X88121649Y-87297133D01*
X88122448Y-87267336D01*
X88128360Y-87175803D01*
X88137984Y-87082279D01*
X88149984Y-86997027D01*
X88156102Y-86959089D01*
X88811291Y-86959089D01*
X88813727Y-87017392D01*
X88825014Y-87086264D01*
X88844389Y-87151475D01*
X88871685Y-87212673D01*
X88906737Y-87269505D01*
X88949379Y-87321619D01*
X88963887Y-87336536D01*
X89015323Y-87381810D01*
X89069788Y-87418752D01*
X89127958Y-87447731D01*
X89190512Y-87469113D01*
X89222731Y-87476878D01*
X89249355Y-87481029D01*
X89281949Y-87483886D01*
X89317556Y-87485383D01*
X89353219Y-87485455D01*
X89385982Y-87484034D01*
X89412519Y-87481116D01*
X89447130Y-87473621D01*
X89485436Y-87462209D01*
X89523754Y-87448138D01*
X89558404Y-87432664D01*
X89566311Y-87428591D01*
X89625987Y-87391919D01*
X89679218Y-87349072D01*
X89725721Y-87300428D01*
X89765217Y-87246364D01*
X89797425Y-87187258D01*
X89822063Y-87123487D01*
X89837104Y-87064605D01*
X89840721Y-87038424D01*
X89842755Y-87006198D01*
X89843239Y-86970745D01*
X89842854Y-86957381D01*
X90454111Y-86957381D01*
X90455150Y-87005454D01*
X90459578Y-87052006D01*
X90467311Y-87093814D01*
X90468666Y-87099157D01*
X90490329Y-87164070D01*
X90519782Y-87224896D01*
X90556529Y-87281033D01*
X90600072Y-87331879D01*
X90649915Y-87376833D01*
X90705559Y-87415291D01*
X90748911Y-87438609D01*
X90803410Y-87460218D01*
X90862497Y-87475526D01*
X90924133Y-87484336D01*
X90986278Y-87486451D01*
X91046891Y-87481673D01*
X91095432Y-87472111D01*
X91159505Y-87451165D01*
X91218756Y-87423150D01*
X91272886Y-87388714D01*
X91321597Y-87348508D01*
X91364591Y-87303181D01*
X91401571Y-87253383D01*
X91432236Y-87199763D01*
X91456290Y-87142971D01*
X91473435Y-87083657D01*
X91483371Y-87022471D01*
X91485802Y-86960061D01*
X91480427Y-86897078D01*
X91466951Y-86834172D01*
X91445073Y-86771991D01*
X91430869Y-86741333D01*
X91411023Y-86704581D01*
X91390438Y-86672737D01*
X91366826Y-86642599D01*
X91337902Y-86610969D01*
X91337196Y-86610240D01*
X91287688Y-86565376D01*
X91233856Y-86528027D01*
X91176470Y-86498273D01*
X91116295Y-86476194D01*
X91054098Y-86461868D01*
X90990648Y-86455377D01*
X90926710Y-86456800D01*
X90863052Y-86466217D01*
X90800441Y-86483707D01*
X90739644Y-86509351D01*
X90683011Y-86542170D01*
X90628237Y-86583866D01*
X90580310Y-86631324D01*
X90539487Y-86684163D01*
X90506027Y-86741999D01*
X90480187Y-86804448D01*
X90462546Y-86869557D01*
X90456548Y-86911008D01*
X90454111Y-86957381D01*
X89842854Y-86957381D01*
X89842206Y-86934884D01*
X89839690Y-86901433D01*
X89835723Y-86873212D01*
X89834799Y-86868631D01*
X89816081Y-86801977D01*
X89789742Y-86739710D01*
X89756270Y-86682298D01*
X89716152Y-86630206D01*
X89669875Y-86583901D01*
X89617929Y-86543848D01*
X89560798Y-86510516D01*
X89498972Y-86484369D01*
X89432938Y-86465874D01*
X89408963Y-86461301D01*
X89345190Y-86454952D01*
X89280950Y-86456927D01*
X89217343Y-86466878D01*
X89155468Y-86484459D01*
X89096422Y-86509323D01*
X89041305Y-86541122D01*
X88991216Y-86579509D01*
X88969204Y-86600251D01*
X88922857Y-86652866D01*
X88884230Y-86709140D01*
X88853540Y-86768487D01*
X88831008Y-86830319D01*
X88816852Y-86894049D01*
X88811291Y-86959089D01*
X88156102Y-86959089D01*
X88161608Y-86924945D01*
X88023333Y-86014906D01*
X88006054Y-85901085D01*
X87990122Y-85795909D01*
X87975499Y-85699122D01*
X87962148Y-85610467D01*
X87950030Y-85529685D01*
X87939110Y-85456519D01*
X87929348Y-85390713D01*
X87920709Y-85332008D01*
X87913154Y-85280148D01*
X87906645Y-85234874D01*
X87901146Y-85195930D01*
X87896619Y-85163059D01*
X87893026Y-85136001D01*
X87890331Y-85114502D01*
X87888495Y-85098302D01*
X87887481Y-85087145D01*
X87887252Y-85080773D01*
X87887293Y-85080089D01*
X87894734Y-85045281D01*
X87909960Y-85013971D01*
X87932117Y-84987368D01*
X87960347Y-84966679D01*
X87971712Y-84960965D01*
X88005671Y-84949595D01*
X88039299Y-84945670D01*
X88069208Y-84949091D01*
X88075837Y-84951272D01*
X88090419Y-84956462D01*
X88112475Y-84964483D01*
X88141531Y-84975158D01*
X88177109Y-84988309D01*
X88218734Y-85003758D01*
X88265929Y-85021328D01*
X88318218Y-85040842D01*
X88375124Y-85062121D01*
X88436172Y-85084988D01*
X88500885Y-85109265D01*
X88568786Y-85134775D01*
X88639399Y-85161340D01*
X88712249Y-85188783D01*
X88736768Y-85198027D01*
X89382659Y-85441602D01*
X89423802Y-85425342D01*
X89548060Y-85381029D01*
X89675586Y-85344886D01*
X89805667Y-85317001D01*
X89937593Y-85297460D01*
X90070652Y-85286350D01*
X90204133Y-85283755D01*
X90337326Y-85289764D01*
X90445612Y-85301143D01*
X90570713Y-85321431D01*
X90692393Y-85348813D01*
X90812688Y-85383811D01*
X90927593Y-85424610D01*
X90971120Y-85441386D01*
X92289670Y-84943918D01*
X92323459Y-84945915D01*
X92361249Y-84952094D01*
X92394085Y-84965671D01*
X92421551Y-84986321D01*
X92443232Y-85013719D01*
X92458713Y-85047538D01*
X92460486Y-85053185D01*
X92464600Y-85069532D01*
X92467208Y-85084679D01*
X92467681Y-85091043D01*
X92467020Y-85096802D01*
X92465066Y-85111042D01*
X92461883Y-85133339D01*
X92457535Y-85163267D01*
X92452085Y-85200400D01*
X92445597Y-85244312D01*
X92438135Y-85294579D01*
X92429762Y-85350773D01*
X92420541Y-85412470D01*
X92410537Y-85479244D01*
X92399812Y-85550669D01*
X92388431Y-85626320D01*
X92376457Y-85705771D01*
X92363953Y-85788597D01*
X92350984Y-85874371D01*
X92337612Y-85962668D01*
X92329691Y-86014906D01*
X92191642Y-86924945D01*
X92203530Y-87001533D01*
X92210502Y-87047852D01*
X92215960Y-87087811D01*
X92220147Y-87123890D01*
X92223308Y-87158566D01*
X92225689Y-87194316D01*
X92227532Y-87233619D01*
X92228197Y-87251568D01*
X92229451Y-87316896D01*
X92228834Y-87383956D01*
X92226454Y-87450803D01*
X92222418Y-87515495D01*
X92216833Y-87576088D01*
X92209806Y-87630639D01*
X92205951Y-87654120D01*
X92203791Y-87668521D01*
X92202977Y-87678978D01*
X92203470Y-87682709D01*
X92208452Y-87682729D01*
X92220661Y-87681291D01*
X92238473Y-87678626D01*
X92260265Y-87674964D01*
X92270204Y-87673187D01*
X92339008Y-87661544D01*
X92414153Y-87650414D01*
X92492973Y-87640160D01*
X92572801Y-87631148D01*
X92593679Y-87629025D01*
X92624906Y-87626122D01*
X92654703Y-87623822D01*
X92684762Y-87622061D01*
X92716774Y-87620773D01*
X92752429Y-87619893D01*
X92793419Y-87619354D01*
X92841434Y-87619091D01*
X92850561Y-87619069D01*
X92888418Y-87619092D01*
X92924052Y-87619308D01*
X92956301Y-87619694D01*
X92984003Y-87620229D01*
X93005996Y-87620892D01*
X93021116Y-87621660D01*
X93027656Y-87622371D01*
X93041517Y-87627750D01*
X93056604Y-87637162D01*
X93062528Y-87642003D01*
X93078708Y-87662029D01*
X93087021Y-87684757D01*
X93087292Y-87708516D01*
X93079345Y-87731638D01*
X93072953Y-87741507D01*
X93066523Y-87749682D01*
X93060283Y-87756216D01*
X93053191Y-87761280D01*
X93044203Y-87765048D01*
X93032277Y-87767694D01*
X93016372Y-87769390D01*
X92995444Y-87770310D01*
X92968452Y-87770627D01*
X92934352Y-87770514D01*
X92900117Y-87770220D01*
X92833359Y-87770042D01*
X92772899Y-87770939D01*
X92716076Y-87773059D01*
X92660225Y-87776552D01*
X92602682Y-87781567D01*
X92540786Y-87788252D01*
X92508170Y-87792170D01*
X92483316Y-87795440D01*
X92453668Y-87799673D01*
X92420488Y-87804658D01*
X92385037Y-87810184D01*
X92348576Y-87816041D01*
X92312367Y-87822018D01*
X92277671Y-87827904D01*
X92245750Y-87833488D01*
X92217865Y-87838561D01*
X92195278Y-87842911D01*
X92179250Y-87846327D01*
X92171646Y-87848368D01*
X92167330Y-87853569D01*
X92162821Y-87864397D01*
X92161291Y-87869667D01*
X92148516Y-87915265D01*
X92132258Y-87966472D01*
X92113352Y-88020992D01*
X92092633Y-88076524D01*
X92070936Y-88130770D01*
X92049095Y-88181431D01*
X92044146Y-88192320D01*
X92035368Y-88211765D01*
X92028348Y-88227979D01*
X92023753Y-88239371D01*
X92022249Y-88244350D01*
X92022292Y-88244433D01*
X92027016Y-88245229D01*
X92039464Y-88246871D01*
X92058406Y-88249211D01*
X92082612Y-88252098D01*
X92110852Y-88255382D01*
X92134243Y-88258051D01*
X92261168Y-88274213D01*
X92382217Y-88293268D01*
X92497039Y-88315119D01*
X92605285Y-88339672D01*
X92706605Y-88366831D01*
X92800650Y-88396500D01*
X92887069Y-88428583D01*
X92965515Y-88462985D01*
X93035636Y-88499610D01*
X93051878Y-88509134D01*
X93079495Y-88528454D01*
X93098360Y-88548217D01*
X93108728Y-88568932D01*
X93110856Y-88591110D01*
X93105139Y-88614902D01*
X93092320Y-88637019D01*
X93073754Y-88652437D01*
X93050338Y-88660549D01*
X93036348Y-88661678D01*
X93023676Y-88661115D01*
X93012533Y-88658806D01*
X93000374Y-88653820D01*
X92984654Y-88645223D01*
X92973876Y-88638804D01*
X92910277Y-88603899D01*
X92838975Y-88571390D01*
X92759842Y-88541243D01*
X92672748Y-88513425D01*
X92577565Y-88487902D01*
X92474165Y-88464639D01*
X92362419Y-88443603D01*
X92242197Y-88424761D01*
X92113372Y-88408077D01*
X92086939Y-88405039D01*
X92046356Y-88400508D01*
X92013807Y-88397008D01*
X91988383Y-88394501D01*
X91969170Y-88392948D01*
X91955258Y-88392311D01*
X91945735Y-88392553D01*
X91939690Y-88393634D01*
X91936210Y-88395516D01*
X91934385Y-88398162D01*
X91934194Y-88398631D01*
X91929851Y-88406867D01*
X91921089Y-88421123D01*
X91908781Y-88440125D01*
X91893799Y-88462598D01*
X91877016Y-88487271D01*
X91859304Y-88512868D01*
X91841536Y-88538116D01*
X91824583Y-88561743D01*
X91809320Y-88582473D01*
X91798870Y-88596168D01*
X91784913Y-88614253D01*
X91773207Y-88629824D01*
X91764762Y-88641507D01*
X91760586Y-88647930D01*
X91760316Y-88648644D01*
X91763677Y-88652380D01*
X91772913Y-88660535D01*
X91786755Y-88672038D01*
X91803932Y-88685818D01*
X91810999Y-88691373D01*
X91884927Y-88750266D01*
X91953335Y-88806992D01*
X92015944Y-88861278D01*
X92072478Y-88912852D01*
X92122659Y-88961444D01*
X92166211Y-89006781D01*
X92202855Y-89048592D01*
X92232314Y-89086605D01*
X92254312Y-89120548D01*
X92260424Y-89131861D01*
X92270683Y-89153532D01*
X92276261Y-89170122D01*
X92277454Y-89184059D01*
X92274557Y-89197774D01*
X92269864Y-89209407D01*
X92255887Y-89231102D01*
X92237830Y-89245705D01*
X92217080Y-89253286D01*
X92195021Y-89253915D01*
X92173042Y-89247664D01*
X92152527Y-89234601D01*
X92134863Y-89214798D01*
X92127425Y-89202176D01*
X92112971Y-89178523D01*
X92091444Y-89150336D01*
X92063293Y-89118036D01*
X92028970Y-89082042D01*
X91988925Y-89042775D01*
X91943611Y-89000657D01*
X91893477Y-88956107D01*
X91838975Y-88909546D01*
X91780557Y-88861395D01*
X91718672Y-88812075D01*
X91662535Y-88768672D01*
X91657822Y-88769544D01*
X91648142Y-88775906D01*
X91633167Y-88788022D01*
X91612564Y-88806158D01*
X91590770Y-88826142D01*
X91484800Y-88918732D01*
X91375076Y-89003193D01*
X91261688Y-89079482D01*
X91144724Y-89147555D01*
X91024275Y-89207367D01*
X90900429Y-89258874D01*
X90773276Y-89302031D01*
X90642907Y-89336795D01*
X90509409Y-89363122D01*
X90502192Y-89364290D01*
X90441309Y-89372785D01*
X90375514Y-89379731D01*
X90307044Y-89385016D01*
X90238137Y-89388530D01*
X90171031Y-89390160D01*
X90107964Y-89389796D01*
X90051174Y-89387326D01*
X90046109Y-89386972D01*
X89906679Y-89372542D01*
X89770526Y-89349725D01*
X89637737Y-89318558D01*
X89508400Y-89279081D01*
X89382602Y-89231332D01*
X89260430Y-89175351D01*
X89141971Y-89111176D01*
X89027314Y-89038846D01*
X88916545Y-88958401D01*
X88809752Y-88869878D01*
X88740790Y-88806376D01*
X88696735Y-88764111D01*
X88662077Y-88790608D01*
X88591666Y-88845500D01*
X88525762Y-88899017D01*
X88464751Y-88950790D01*
X88409017Y-89000450D01*
X88358949Y-89047626D01*
X88314932Y-89091950D01*
X88277352Y-89133050D01*
X88246596Y-89170559D01*
X88223049Y-89204105D01*
X88213905Y-89219635D01*
X88200469Y-89235719D01*
X88180899Y-89247918D01*
X88160260Y-89254180D01*
X88138197Y-89253635D01*
X88117119Y-89245501D01*
X88098757Y-89231168D01*
X88084841Y-89212025D01*
X88077104Y-89189464D01*
X88076745Y-89187129D01*
X88077352Y-89167437D01*
X88084275Y-89144494D01*
X88097703Y-89118030D01*
X88117821Y-89087772D01*
X88144818Y-89053449D01*
X88178881Y-89014789D01*
X88220198Y-88971520D01*
X88237135Y-88954512D01*
X88277823Y-88915327D01*
X88324616Y-88872492D01*
X88376062Y-88827267D01*
X88430711Y-88780910D01*
X88487110Y-88734680D01*
X88527875Y-88702269D01*
X88547758Y-88686631D01*
X88565271Y-88672779D01*
X88579129Y-88661736D01*
X88588048Y-88654524D01*
X88590641Y-88652326D01*
X88590534Y-88646585D01*
X88584672Y-88636139D01*
X88579471Y-88629202D01*
X88550595Y-88592037D01*
X88519201Y-88549471D01*
X88487069Y-88504022D01*
X88455982Y-88458206D01*
X88429124Y-88416770D01*
X88412461Y-88390361D01*
X88377813Y-88393376D01*
X88282258Y-88402716D01*
X88186155Y-88414074D01*
X88091431Y-88427166D01*
X88000013Y-88441706D01*
X87913827Y-88457410D01*
X87838588Y-88473138D01*
X87758684Y-88492129D01*
X87686099Y-88511739D01*
X87619142Y-88532584D01*
X87556122Y-88555280D01*
X87495349Y-88580442D01*
X87435130Y-88608686D01*
X87373776Y-88640628D01*
X87364041Y-88645958D01*
X87336630Y-88657890D01*
X87312361Y-88661531D01*
X87290720Y-88656822D01*
X87271192Y-88643705D01*
X87262587Y-88634606D01*
X87248816Y-88612067D01*
X87243397Y-88588038D01*
X87246375Y-88563966D01*
X87257793Y-88541297D01*
X87259657Y-88538835D01*
X87270406Y-88528835D01*
X87288445Y-88516299D01*
X87312608Y-88501811D01*
X87341731Y-88485954D01*
X87374651Y-88469311D01*
X87410203Y-88452465D01*
X87447222Y-88435998D01*
X87484544Y-88420494D01*
X87521005Y-88406536D01*
X87531122Y-88402907D01*
X87611673Y-88376639D01*
X87700109Y-88351811D01*
X87795389Y-88328644D01*
X87896471Y-88307359D01*
X88002311Y-88288179D01*
X88111868Y-88271323D01*
X88210347Y-88258611D01*
X88239652Y-88255228D01*
X88266568Y-88252244D01*
X88289580Y-88249817D01*
X88307177Y-88248104D01*
X88317844Y-88247264D01*
X88319596Y-88247205D01*
X88328557Y-88246445D01*
X88331902Y-88244803D01*
X88330028Y-88239754D01*
X88325221Y-88229394D01*
X88321136Y-88221151D01*
X88304365Y-88185911D01*
X88286201Y-88143981D01*
X88267427Y-88097412D01*
X88248826Y-88048257D01*
X88231183Y-87998568D01*
X88215280Y-87950397D01*
X88205502Y-87918329D01*
X88198532Y-87895333D01*
X88192060Y-87875469D01*
X88186639Y-87860328D01*
X88182824Y-87851501D01*
X88181716Y-87849968D01*
X88175740Y-87848089D01*
X88162249Y-87844924D01*
X88142604Y-87840735D01*
X88118166Y-87835786D01*
X88090297Y-87830340D01*
X88060356Y-87824660D01*
X88029706Y-87819009D01*
X87999706Y-87813650D01*
X87971720Y-87808846D01*
X87953469Y-87805861D01*
X87900954Y-87798094D01*
X87843380Y-87790609D01*
X87784310Y-87783817D01*
X87727310Y-87778131D01*
X87681148Y-87774331D01*
X87662064Y-87773245D01*
X87637384Y-87772279D01*
X87608326Y-87771442D01*
X87576110Y-87770741D01*
X87541953Y-87770185D01*
X87507077Y-87769784D01*
X87472698Y-87769544D01*
X87440036Y-87769476D01*
X87410310Y-87769587D01*
X87384738Y-87769886D01*
X87364540Y-87770381D01*
X87350935Y-87771082D01*
X87345170Y-87771977D01*
X87335700Y-87773277D01*
X87321962Y-87769955D01*
X87310808Y-87764985D01*
X89806342Y-87764985D01*
X89807721Y-87772612D01*
X89811509Y-87781652D01*
X89818133Y-87792717D01*
X89828022Y-87806417D01*
X89841602Y-87823363D01*
X89859301Y-87844165D01*
X89881546Y-87869435D01*
X89908765Y-87899782D01*
X89941385Y-87935818D01*
X89962946Y-87959563D01*
X89992849Y-87992374D01*
X90021314Y-88023403D01*
X90047692Y-88051955D01*
X90071333Y-88077338D01*
X90091587Y-88098856D01*
X90107803Y-88115816D01*
X90119332Y-88127523D01*
X90125524Y-88133282D01*
X90125748Y-88133450D01*
X90143727Y-88141767D01*
X90160396Y-88143587D01*
X90180995Y-88143587D01*
X90355832Y-87969012D01*
X90395613Y-87929269D01*
X90429451Y-87895337D01*
X90457779Y-87866663D01*
X90481033Y-87842695D01*
X90499645Y-87822879D01*
X90514051Y-87806662D01*
X90524684Y-87793490D01*
X90531979Y-87782812D01*
X90536371Y-87774074D01*
X90538292Y-87766722D01*
X90538179Y-87760203D01*
X90536464Y-87753966D01*
X90533583Y-87747455D01*
X90532119Y-87744486D01*
X90523396Y-87730970D01*
X90512806Y-87719618D01*
X90510934Y-87718141D01*
X90508361Y-87716372D01*
X90505399Y-87714843D01*
X90501411Y-87713537D01*
X90495763Y-87712435D01*
X90487819Y-87711520D01*
X90476943Y-87710776D01*
X90462498Y-87710184D01*
X90443851Y-87709726D01*
X90420364Y-87709387D01*
X90391401Y-87709147D01*
X90356329Y-87708991D01*
X90314509Y-87708899D01*
X90265307Y-87708855D01*
X90208088Y-87708841D01*
X90172253Y-87708840D01*
X90110258Y-87708845D01*
X90056638Y-87708869D01*
X90010757Y-87708932D01*
X89971979Y-87709050D01*
X89939669Y-87709241D01*
X89913190Y-87709523D01*
X89891906Y-87709912D01*
X89875183Y-87710426D01*
X89862384Y-87711083D01*
X89852874Y-87711900D01*
X89846016Y-87712895D01*
X89841176Y-87714084D01*
X89837717Y-87715487D01*
X89835004Y-87717119D01*
X89833571Y-87718141D01*
X89823106Y-87728487D01*
X89813702Y-87741998D01*
X89812386Y-87744486D01*
X89809102Y-87751533D01*
X89806945Y-87758163D01*
X89806342Y-87764985D01*
X87310808Y-87764985D01*
X87306636Y-87763126D01*
X87292405Y-87753903D01*
G37*
G36*
X90823358Y-89804025D02*
G01*
X90825908Y-89815255D01*
X90827493Y-89830942D01*
X90827751Y-89839773D01*
X90826930Y-89855975D01*
X90824838Y-89870205D01*
X90823358Y-89875521D01*
X90818964Y-89887077D01*
X90627706Y-89887077D01*
X90580579Y-89887045D01*
X90541657Y-89886930D01*
X90510134Y-89886703D01*
X90485204Y-89886336D01*
X90466062Y-89885799D01*
X90451902Y-89885064D01*
X90441919Y-89884102D01*
X90435307Y-89882885D01*
X90431260Y-89881383D01*
X90429368Y-89879998D01*
X90425411Y-89871361D01*
X90422968Y-89856773D01*
X90422142Y-89839181D01*
X90423037Y-89821533D01*
X90425758Y-89806777D01*
X90426682Y-89804025D01*
X90431076Y-89792469D01*
X90818964Y-89792469D01*
X90823358Y-89804025D01*
G37*
%TO.C,D1*%
X84470000Y-89880000D02*
X83170000Y-89880000D01*
X83170000Y-93000000D02*
X85170000Y-93000000D01*
%TO.C,SW7*%
X88275000Y-78010000D02*
X88275000Y-74390000D01*
X89545000Y-78010000D02*
X90815000Y-78010000D01*
X92290000Y-79610000D02*
X92290000Y-72789000D01*
X84465000Y-76803333D02*
X85735000Y-76803333D01*
X91170000Y-79610000D02*
X92290000Y-79610000D01*
X90145000Y-78010000D02*
X90145000Y-76803333D01*
X87845000Y-78010000D02*
X87845000Y-76803333D01*
X90505000Y-78010000D02*
X90505000Y-76803333D01*
X88205000Y-78010000D02*
X88205000Y-76803333D01*
X85735000Y-74390000D02*
X84465000Y-74390000D01*
X87005000Y-78010000D02*
X88275000Y-78010000D01*
X90815000Y-78010000D02*
X90815000Y-74390000D01*
X86090000Y-72789000D02*
X86651000Y-72789000D01*
X83195000Y-74390000D02*
X81925000Y-74390000D01*
X80450000Y-79610000D02*
X80450000Y-72789000D01*
X84825000Y-78010000D02*
X84825000Y-76803333D01*
X89545000Y-76803333D02*
X90815000Y-76803333D01*
X87245000Y-78010000D02*
X87245000Y-76803333D01*
X89545000Y-74390000D02*
X89545000Y-78010000D01*
X81925000Y-76803333D02*
X83195000Y-76803333D01*
X90385000Y-78010000D02*
X90385000Y-76803333D01*
X90025000Y-78010000D02*
X90025000Y-76803333D01*
X83550000Y-72789000D02*
X84111000Y-72789000D01*
X89665000Y-78010000D02*
X89665000Y-76803333D01*
X85305000Y-78010000D02*
X85305000Y-76803333D01*
X82765000Y-78010000D02*
X82765000Y-76803333D01*
X87365000Y-78010000D02*
X87365000Y-76803333D01*
X80210000Y-79850000D02*
X81520000Y-79850000D01*
X90815000Y-74390000D02*
X89545000Y-74390000D01*
X88630000Y-79610000D02*
X89191000Y-79610000D01*
X87485000Y-78010000D02*
X87485000Y-76803333D01*
X84945000Y-78010000D02*
X84945000Y-76803333D01*
X84705000Y-78010000D02*
X84705000Y-76803333D01*
X85735000Y-78010000D02*
X85735000Y-74390000D01*
X88275000Y-74390000D02*
X87005000Y-74390000D01*
X81925000Y-78010000D02*
X83195000Y-78010000D01*
X80450000Y-72789000D02*
X81570000Y-72789000D01*
X80450000Y-79610000D02*
X81520000Y-79610000D01*
X83005000Y-78010000D02*
X83005000Y-76803333D01*
X88630000Y-72789000D02*
X89191000Y-72789000D01*
X81925000Y-74390000D02*
X81925000Y-78010000D01*
X80210000Y-79850000D02*
X80210000Y-78467000D01*
X82045000Y-78010000D02*
X82045000Y-76803333D01*
X87005000Y-76803333D02*
X88275000Y-76803333D01*
X82645000Y-78010000D02*
X82645000Y-76803333D01*
X87125000Y-78010000D02*
X87125000Y-76803333D01*
X89785000Y-78010000D02*
X89785000Y-76803333D01*
X87005000Y-74390000D02*
X87005000Y-78010000D01*
X82405000Y-78010000D02*
X82405000Y-76803333D01*
X87965000Y-78010000D02*
X87965000Y-76803333D01*
X83600000Y-79610000D02*
X84111000Y-79610000D01*
X87605000Y-78010000D02*
X87605000Y-76803333D01*
X90625000Y-78010000D02*
X90625000Y-76803333D01*
X84585000Y-78010000D02*
X84585000Y-76803333D01*
X85545000Y-78010000D02*
X85545000Y-76803333D01*
X84465000Y-74390000D02*
X84465000Y-78010000D01*
X91170000Y-72789000D02*
X92290000Y-72789000D01*
X90745000Y-78010000D02*
X90745000Y-76803333D01*
X84465000Y-78010000D02*
X85735000Y-78010000D01*
X88085000Y-78010000D02*
X88085000Y-76803333D01*
X82165000Y-78010000D02*
X82165000Y-76803333D01*
X85425000Y-78010000D02*
X85425000Y-76803333D01*
X85665000Y-78010000D02*
X85665000Y-76803333D01*
X82285000Y-78010000D02*
X82285000Y-76803333D01*
X82525000Y-78010000D02*
X82525000Y-76803333D01*
X86090000Y-79610000D02*
X86651000Y-79610000D01*
X85065000Y-78010000D02*
X85065000Y-76803333D01*
X83125000Y-78010000D02*
X83125000Y-76803333D01*
X85185000Y-78010000D02*
X85185000Y-76803333D01*
X82885000Y-78010000D02*
X82885000Y-76803333D01*
X90265000Y-78010000D02*
X90265000Y-76803333D01*
X83195000Y-78010000D02*
X83195000Y-74390000D01*
X87725000Y-78010000D02*
X87725000Y-76803333D01*
X89905000Y-78010000D02*
X89905000Y-76803333D01*
%TO.C,J1*%
X97540000Y-86321298D02*
X97940000Y-86321298D01*
X97940000Y-93841298D02*
X97540000Y-93841298D01*
X95570000Y-86321298D02*
X93590000Y-86321298D01*
X93360000Y-91841298D02*
X92910000Y-91841298D01*
X93590000Y-86321298D02*
X93590000Y-86741298D01*
X92910000Y-91391298D02*
X92910000Y-91841298D01*
X93590000Y-93841298D02*
X93590000Y-93421298D01*
X95570000Y-93841298D02*
X93590000Y-93841298D01*
%TO.C,SW1*%
X89555000Y-59150000D02*
X88285000Y-59150000D01*
X89910000Y-64370000D02*
X91030000Y-64370000D01*
X89005000Y-62770000D02*
X89005000Y-61563333D01*
X89125000Y-62770000D02*
X89125000Y-61563333D01*
X85985000Y-62770000D02*
X85985000Y-61563333D01*
X87420000Y-64370000D02*
X87931000Y-64370000D01*
X88645000Y-62770000D02*
X88645000Y-61563333D01*
X87015000Y-59150000D02*
X85745000Y-59150000D01*
X86585000Y-62770000D02*
X86585000Y-61563333D01*
X86945000Y-62770000D02*
X86945000Y-61563333D01*
X86345000Y-62770000D02*
X86345000Y-61563333D01*
X84270000Y-64370000D02*
X84270000Y-57549000D01*
X88285000Y-61563333D02*
X89555000Y-61563333D01*
X89555000Y-62770000D02*
X89555000Y-59150000D01*
X86825000Y-62770000D02*
X86825000Y-61563333D01*
X86105000Y-62770000D02*
X86105000Y-61563333D01*
X85745000Y-61563333D02*
X87015000Y-61563333D01*
X88765000Y-62770000D02*
X88765000Y-61563333D01*
X89910000Y-57549000D02*
X91030000Y-57549000D01*
X84270000Y-57549000D02*
X85390000Y-57549000D01*
X88885000Y-62770000D02*
X88885000Y-61563333D01*
X84030000Y-64610000D02*
X84030000Y-63227000D01*
X89485000Y-62770000D02*
X89485000Y-61563333D01*
X87370000Y-57549000D02*
X87931000Y-57549000D01*
X84270000Y-64370000D02*
X85340000Y-64370000D01*
X88285000Y-62770000D02*
X89555000Y-62770000D01*
X85745000Y-62770000D02*
X87015000Y-62770000D01*
X86225000Y-62770000D02*
X86225000Y-61563333D01*
X84030000Y-64610000D02*
X85340000Y-64610000D01*
X88405000Y-62770000D02*
X88405000Y-61563333D01*
X88285000Y-59150000D02*
X88285000Y-62770000D01*
X88525000Y-62770000D02*
X88525000Y-61563333D01*
X86705000Y-62770000D02*
X86705000Y-61563333D01*
X89245000Y-62770000D02*
X89245000Y-61563333D01*
X89365000Y-62770000D02*
X89365000Y-61563333D01*
X91030000Y-64370000D02*
X91030000Y-57549000D01*
X86465000Y-62770000D02*
X86465000Y-61563333D01*
X85745000Y-59150000D02*
X85745000Y-62770000D01*
X85865000Y-62770000D02*
X85865000Y-61563333D01*
X87015000Y-62770000D02*
X87015000Y-59150000D01*
%TO.C,R5*%
X70597500Y-92122258D02*
X70597500Y-91647742D01*
X71642500Y-92122258D02*
X71642500Y-91647742D01*
%TO.C,R4*%
X68057500Y-92122258D02*
X68057500Y-91647742D01*
X69102500Y-92122258D02*
X69102500Y-91647742D01*
%TO.C,C1*%
X84580000Y-87770580D02*
X84580000Y-87489420D01*
X85600000Y-87770580D02*
X85600000Y-87489420D01*
%TO.C,C4*%
X82409420Y-88390000D02*
X82690580Y-88390000D01*
X82409420Y-89410000D02*
X82690580Y-89410000D01*
%TO.C,SW4*%
X64500000Y-69930000D02*
X69000000Y-69930000D01*
X63250000Y-65930000D02*
X63250000Y-67430000D01*
X70250000Y-67430000D02*
X70250000Y-65930000D01*
X69000000Y-63430000D02*
X64500000Y-63430000D01*
%TO.C,SW3*%
X69000000Y-54880000D02*
X64500000Y-54880000D01*
X63250000Y-57380000D02*
X63250000Y-58880000D01*
X64500000Y-61380000D02*
X69000000Y-61380000D01*
X70250000Y-58880000D02*
X70250000Y-57380000D01*
%TO.C,D5*%
X70160000Y-85565000D02*
X70160000Y-88250000D01*
X72080000Y-88250000D02*
X72080000Y-85565000D01*
X72080000Y-85565000D02*
X70160000Y-85565000D01*
%TO.C,U1*%
X77580000Y-89780000D02*
X77080000Y-89780000D01*
X79900000Y-89780000D02*
X80400000Y-89780000D01*
X80400000Y-93100000D02*
X79900000Y-93100000D01*
X77080000Y-89780000D02*
X77080000Y-90280000D01*
X80400000Y-89780000D02*
X80400000Y-90280000D01*
X77080000Y-93100000D02*
X77080000Y-92600000D01*
X77580000Y-93100000D02*
X77080000Y-93100000D01*
%TO.C,R2*%
X66562500Y-92122258D02*
X66562500Y-91647742D01*
X65517500Y-92122258D02*
X65517500Y-91647742D01*
%TO.C,D4*%
X69540000Y-88260268D02*
X69540000Y-85575268D01*
X67620000Y-85575268D02*
X67620000Y-88260268D01*
X69540000Y-85575268D02*
X67620000Y-85575268D01*
%TO.C,R1*%
X75452500Y-90407258D02*
X75452500Y-89932742D01*
X74407500Y-90407258D02*
X74407500Y-89932742D01*
%TO.C,C2*%
X77610580Y-88140000D02*
X77329420Y-88140000D01*
X77610580Y-87120000D02*
X77329420Y-87120000D01*
%TO.C,SW6*%
X73800000Y-65930000D02*
X73800000Y-67430000D01*
X79550000Y-63430000D02*
X75050000Y-63430000D01*
X75050000Y-69930000D02*
X79550000Y-69930000D01*
X80800000Y-67430000D02*
X80800000Y-65930000D01*
%TO.C,SW5*%
X64135000Y-74400000D02*
X64135000Y-78020000D01*
X67345000Y-74400000D02*
X67345000Y-75606667D01*
X71825000Y-74400000D02*
X71825000Y-75606667D01*
X69405000Y-74400000D02*
X69405000Y-75606667D01*
X70125000Y-74400000D02*
X70125000Y-75606667D01*
X69525000Y-74400000D02*
X69525000Y-75606667D01*
X69765000Y-74400000D02*
X69765000Y-75606667D01*
X64325000Y-74400000D02*
X64325000Y-75606667D01*
X74740000Y-72560000D02*
X74740000Y-73943000D01*
X69645000Y-74400000D02*
X69645000Y-75606667D01*
X66865000Y-74400000D02*
X66865000Y-75606667D01*
X67225000Y-74400000D02*
X67225000Y-75606667D01*
X74500000Y-79621000D02*
X73380000Y-79621000D01*
X65165000Y-74400000D02*
X65165000Y-75606667D01*
X71400000Y-79621000D02*
X70839000Y-79621000D01*
X63780000Y-72800000D02*
X62660000Y-72800000D01*
X70005000Y-74400000D02*
X70005000Y-75606667D01*
X64135000Y-78020000D02*
X65405000Y-78020000D01*
X74500000Y-72800000D02*
X73430000Y-72800000D01*
X72785000Y-74400000D02*
X72785000Y-75606667D01*
X73025000Y-78020000D02*
X73025000Y-74400000D01*
X64205000Y-74400000D02*
X64205000Y-75606667D01*
X66985000Y-74400000D02*
X66985000Y-75606667D01*
X67945000Y-78020000D02*
X67945000Y-74400000D01*
X65285000Y-74400000D02*
X65285000Y-75606667D01*
X70365000Y-74400000D02*
X70365000Y-75606667D01*
X73025000Y-74400000D02*
X71755000Y-74400000D01*
X69215000Y-78020000D02*
X70485000Y-78020000D01*
X74500000Y-72800000D02*
X74500000Y-79621000D01*
X66745000Y-74400000D02*
X66745000Y-75606667D01*
X72545000Y-74400000D02*
X72545000Y-75606667D01*
X70245000Y-74400000D02*
X70245000Y-75606667D01*
X67105000Y-74400000D02*
X67105000Y-75606667D01*
X72185000Y-74400000D02*
X72185000Y-75606667D01*
X72905000Y-74400000D02*
X72905000Y-75606667D01*
X71755000Y-74400000D02*
X71755000Y-78020000D01*
X66320000Y-72800000D02*
X65759000Y-72800000D01*
X72665000Y-74400000D02*
X72665000Y-75606667D01*
X71945000Y-74400000D02*
X71945000Y-75606667D01*
X64685000Y-74400000D02*
X64685000Y-75606667D01*
X64925000Y-74400000D02*
X64925000Y-75606667D01*
X67705000Y-74400000D02*
X67705000Y-75606667D01*
X65045000Y-74400000D02*
X65045000Y-75606667D01*
X66320000Y-79621000D02*
X65759000Y-79621000D01*
X65405000Y-74400000D02*
X64135000Y-74400000D01*
X71350000Y-72800000D02*
X70839000Y-72800000D01*
X63780000Y-79621000D02*
X62660000Y-79621000D01*
X70485000Y-74400000D02*
X69215000Y-74400000D01*
X64805000Y-74400000D02*
X64805000Y-75606667D01*
X74740000Y-72560000D02*
X73430000Y-72560000D01*
X70485000Y-75606667D02*
X69215000Y-75606667D01*
X65405000Y-75606667D02*
X64135000Y-75606667D01*
X64445000Y-74400000D02*
X64445000Y-75606667D01*
X66675000Y-74400000D02*
X66675000Y-78020000D01*
X67945000Y-74400000D02*
X66675000Y-74400000D01*
X67585000Y-74400000D02*
X67585000Y-75606667D01*
X68860000Y-79621000D02*
X68299000Y-79621000D01*
X72305000Y-74400000D02*
X72305000Y-75606667D01*
X73025000Y-75606667D02*
X71755000Y-75606667D01*
X68860000Y-72800000D02*
X68299000Y-72800000D01*
X70485000Y-78020000D02*
X70485000Y-74400000D01*
X67465000Y-74400000D02*
X67465000Y-75606667D01*
X66675000Y-78020000D02*
X67945000Y-78020000D01*
X69285000Y-74400000D02*
X69285000Y-75606667D01*
X67825000Y-74400000D02*
X67825000Y-75606667D01*
X72065000Y-74400000D02*
X72065000Y-75606667D01*
X69885000Y-74400000D02*
X69885000Y-75606667D01*
X64565000Y-74400000D02*
X64565000Y-75606667D01*
X69215000Y-74400000D02*
X69215000Y-78020000D01*
X67945000Y-75606667D02*
X66675000Y-75606667D01*
X65405000Y-78020000D02*
X65405000Y-74400000D01*
X62660000Y-72800000D02*
X62660000Y-79621000D01*
X71755000Y-78020000D02*
X73025000Y-78020000D01*
X72425000Y-74400000D02*
X72425000Y-75606667D01*
%TO.C,J4*%
X84195000Y-50322071D02*
X84195000Y-49925000D01*
X76575000Y-50322071D02*
X76575000Y-49925000D01*
X87625000Y-49925000D02*
X87625000Y-47265000D01*
X74035000Y-50322071D02*
X74035000Y-49925000D01*
X88515000Y-50322071D02*
X88515000Y-49925000D01*
X72385000Y-49925000D02*
X72385000Y-47265000D01*
X90165000Y-49925000D02*
X90165000Y-47265000D01*
X89275000Y-50322071D02*
X89275000Y-49925000D01*
X78355000Y-50322071D02*
X78355000Y-49925000D01*
X65655000Y-50322071D02*
X65655000Y-49925000D01*
X62225000Y-52635000D02*
X62225000Y-51365000D01*
X91815000Y-50322071D02*
X91815000Y-49925000D01*
X69845000Y-49925000D02*
X69845000Y-47265000D01*
X92765000Y-47265000D02*
X62165000Y-47265000D01*
X73275000Y-50322071D02*
X73275000Y-49925000D01*
X71495000Y-50322071D02*
X71495000Y-49925000D01*
X81655000Y-50322071D02*
X81655000Y-49925000D01*
X85975000Y-50322071D02*
X85975000Y-49925000D01*
X92765000Y-49925000D02*
X92765000Y-47265000D01*
X80895000Y-50322071D02*
X80895000Y-49925000D01*
X77465000Y-49925000D02*
X77465000Y-47265000D01*
X74925000Y-49925000D02*
X74925000Y-47265000D01*
X75815000Y-50322071D02*
X75815000Y-49925000D01*
X85085000Y-49925000D02*
X85085000Y-47265000D01*
X62165000Y-49925000D02*
X92765000Y-49925000D01*
X91055000Y-50322071D02*
X91055000Y-49925000D01*
X68195000Y-50322071D02*
X68195000Y-49925000D01*
X63875000Y-50255000D02*
X63875000Y-49925000D01*
X62165000Y-47265000D02*
X62165000Y-49925000D01*
X82545000Y-49925000D02*
X82545000Y-47265000D01*
X67305000Y-49925000D02*
X67305000Y-47265000D01*
X83435000Y-50322071D02*
X83435000Y-49925000D01*
X66415000Y-50322071D02*
X66415000Y-49925000D01*
X86735000Y-50322071D02*
X86735000Y-49925000D01*
X63495000Y-52635000D02*
X62225000Y-52635000D01*
X80005000Y-49925000D02*
X80005000Y-47265000D01*
X64765000Y-49925000D02*
X64765000Y-47265000D01*
X79115000Y-50322071D02*
X79115000Y-49925000D01*
X70735000Y-50322071D02*
X70735000Y-49925000D01*
X63115000Y-50255000D02*
X63115000Y-49925000D01*
X68955000Y-50322071D02*
X68955000Y-49925000D01*
%TO.C,D3*%
X64445603Y-85601007D02*
X62525603Y-85601007D01*
X64445603Y-88286007D02*
X64445603Y-85601007D01*
X62525603Y-85601007D02*
X62525603Y-88286007D01*
%TD*%
M02*
