%TF.GenerationSoftware,KiCad,Pcbnew,(6.0.9-0)*%
%TF.CreationDate,2022-11-13T08:04:19-06:00*%
%TF.ProjectId,ProgramingAddOn,50726f67-7261-46d6-996e-674164644f6e,rev?*%
%TF.SameCoordinates,Original*%
%TF.FileFunction,Copper,L3,Inr*%
%TF.FilePolarity,Positive*%
%FSLAX46Y46*%
G04 Gerber Fmt 4.6, Leading zero omitted, Abs format (unit mm)*
G04 Created by KiCad (PCBNEW (6.0.9-0)) date 2022-11-13 08:04:19*
%MOMM*%
%LPD*%
G01*
G04 APERTURE LIST*
%TA.AperFunction,ComponentPad*%
%ADD10C,2.000000*%
%TD*%
%TA.AperFunction,ComponentPad*%
%ADD11R,1.600000X1.600000*%
%TD*%
%TA.AperFunction,ComponentPad*%
%ADD12O,1.600000X1.600000*%
%TD*%
%TA.AperFunction,ComponentPad*%
%ADD13O,1.550000X0.890000*%
%TD*%
%TA.AperFunction,ComponentPad*%
%ADD14O,0.950000X1.250000*%
%TD*%
%TA.AperFunction,ComponentPad*%
%ADD15R,1.700000X1.700000*%
%TD*%
%TA.AperFunction,ComponentPad*%
%ADD16O,1.700000X1.700000*%
%TD*%
%TA.AperFunction,ViaPad*%
%ADD17C,0.800000*%
%TD*%
%TA.AperFunction,Conductor*%
%ADD18C,0.250000*%
%TD*%
G04 APERTURE END LIST*
D10*
%TO.N,+3.3V*%
%TO.C,SW2*%
X74050000Y-55880000D03*
X80550000Y-55880000D03*
%TO.N,Net-(SW2-Pad2)*%
X80550000Y-60380000D03*
X74050000Y-60380000D03*
%TD*%
D11*
%TO.N,Net-(SW4-Pad2)*%
%TO.C,SW7*%
X82560000Y-80010000D03*
D12*
%TO.N,Net-(SW2-Pad2)*%
X85100000Y-80010000D03*
%TO.N,Net-(SW6-Pad2)*%
X87640000Y-80010000D03*
%TO.N,Net-(SW3-Pad2)*%
X90180000Y-80010000D03*
%TO.N,/In-0*%
X90180000Y-72390000D03*
%TO.N,/In-1*%
X87640000Y-72390000D03*
%TO.N,/In-2 {slash} RX*%
X85100000Y-72390000D03*
%TO.N,/In-3 {slash} TX*%
X82560000Y-72390000D03*
%TD*%
D13*
%TO.N,GND*%
%TO.C,J1*%
X96550000Y-86581298D03*
D14*
X93850000Y-92581298D03*
X93850000Y-87581298D03*
D13*
X96550000Y-93581298D03*
%TD*%
D11*
%TO.N,/TXD*%
%TO.C,SW1*%
X86380000Y-64770000D03*
D12*
%TO.N,/RXD*%
X88920000Y-64770000D03*
%TO.N,/In-3 {slash} TX*%
X88920000Y-57150000D03*
%TO.N,/In-2 {slash} RX*%
X86380000Y-57150000D03*
%TD*%
D10*
%TO.N,+3.3V*%
%TO.C,SW4*%
X70000000Y-64430000D03*
X63500000Y-64430000D03*
%TO.N,Net-(SW4-Pad2)*%
X63500000Y-68930000D03*
X70000000Y-68930000D03*
%TD*%
%TO.N,+3.3V*%
%TO.C,SW3*%
X70000000Y-55880000D03*
X63500000Y-55880000D03*
%TO.N,Net-(SW3-Pad2)*%
X63500000Y-60380000D03*
X70000000Y-60380000D03*
%TD*%
%TO.N,+3.3V*%
%TO.C,SW6*%
X74050000Y-64430000D03*
X80550000Y-64430000D03*
%TO.N,Net-(SW6-Pad2)*%
X80550000Y-68930000D03*
X74050000Y-68930000D03*
%TD*%
D11*
%TO.N,Net-(D5-Pad1)*%
%TO.C,SW5*%
X72390000Y-72400000D03*
D12*
%TO.N,Net-(D4-Pad1)*%
X69850000Y-72400000D03*
%TO.N,Net-(D2-Pad1)*%
X67310000Y-72400000D03*
%TO.N,Net-(D3-Pad1)*%
X64770000Y-72400000D03*
%TO.N,/Out-0*%
X64770000Y-80020000D03*
%TO.N,/Out-1*%
X67310000Y-80020000D03*
%TO.N,/Out-2*%
X69850000Y-80020000D03*
%TO.N,/Out-3*%
X72390000Y-80020000D03*
%TD*%
D15*
%TO.N,GND*%
%TO.C,J4*%
X63495000Y-51365000D03*
D16*
%TO.N,/In-3 {slash} TX*%
X66035000Y-51365000D03*
%TO.N,/In-2 {slash} RX*%
X68575000Y-51365000D03*
%TO.N,/In-1*%
X71115000Y-51365000D03*
%TO.N,/In-0*%
X73655000Y-51365000D03*
%TO.N,/Out-3*%
X76195000Y-51365000D03*
%TO.N,/Out-2*%
X78735000Y-51365000D03*
%TO.N,/Out-1*%
X81275000Y-51365000D03*
%TO.N,/Out-0*%
X83815000Y-51365000D03*
%TO.N,GND*%
X86355000Y-51365000D03*
%TO.N,+3.3V*%
X88895000Y-51365000D03*
%TO.N,/Reset*%
X91435000Y-51365000D03*
%TD*%
D15*
%TO.N,GND*%
%TO.C,J5*%
X63500000Y-83830000D03*
D16*
%TO.N,/In-3 {slash} TX*%
X66040000Y-83830000D03*
%TO.N,/In-2 {slash} RX*%
X68580000Y-83830000D03*
%TO.N,/In-1*%
X71120000Y-83830000D03*
%TO.N,/In-0*%
X73660000Y-83830000D03*
%TO.N,/Out-3*%
X76200000Y-83830000D03*
%TO.N,/Out-2*%
X78740000Y-83830000D03*
%TO.N,/Out-1*%
X81280000Y-83830000D03*
%TO.N,/Out-0*%
X83820000Y-83830000D03*
%TO.N,GND*%
X86360000Y-83830000D03*
%TO.N,+3.3V*%
X88900000Y-83830000D03*
%TO.N,/Reset*%
X91440000Y-83830000D03*
%TD*%
D17*
%TO.N,VBUS*%
X87630000Y-89535000D03*
X78740000Y-86449500D03*
X88175000Y-92075000D03*
%TO.N,GND*%
X83820000Y-94615000D03*
X72390000Y-92710000D03*
X87630000Y-60325000D03*
X88900000Y-53975000D03*
X64770000Y-57785000D03*
X67310000Y-64770000D03*
X83185000Y-87630000D03*
X92710000Y-54610000D03*
X82550000Y-74930000D03*
X85090000Y-54610000D03*
X86360000Y-92075000D03*
X76200000Y-90170000D03*
X76835000Y-93980000D03*
X87630000Y-75565000D03*
X64770000Y-76835000D03*
X77470000Y-69850000D03*
X81280000Y-86995000D03*
X86360000Y-69850000D03*
X77300000Y-64770000D03*
X77470000Y-55880000D03*
X92710000Y-57785000D03*
X74930000Y-87630000D03*
X92710000Y-61595000D03*
X81695602Y-92254846D03*
X92710000Y-65405000D03*
X67310000Y-59055000D03*
X86360000Y-86995000D03*
X90170000Y-69850000D03*
X78740000Y-91440000D03*
%TO.N,+3.3V*%
X81575767Y-89990500D03*
X74930000Y-92075000D03*
%TO.N,/TXD*%
X78730837Y-94029479D03*
%TO.N,/RXD*%
X82550000Y-93980000D03*
%TO.N,Net-(SW4-Pad2)*%
X77470000Y-71755000D03*
X77470000Y-80010000D03*
%TD*%
D18*
%TO.N,/TXD*%
X81280000Y-93980000D02*
X78740000Y-93980000D01*
X88765000Y-67155000D02*
X88765000Y-82050000D01*
X85185000Y-90075000D02*
X81280000Y-93980000D01*
X85185000Y-83343299D02*
X85185000Y-90075000D01*
X88160000Y-82655000D02*
X88765000Y-82050000D01*
X85873299Y-82655000D02*
X85185000Y-83343299D01*
X78740000Y-94020316D02*
X78730837Y-94029479D01*
X85873299Y-82655000D02*
X88160000Y-82655000D01*
X78740000Y-93980000D02*
X78740000Y-94020316D01*
X86380000Y-64770000D02*
X88765000Y-67155000D01*
%TO.N,/RXD*%
X90075000Y-85185000D02*
X86360000Y-88900000D01*
X91440000Y-66675000D02*
X91440000Y-82168299D01*
X86360000Y-88900000D02*
X86360000Y-90170000D01*
X91440000Y-82168299D02*
X90075000Y-83533299D01*
X86360000Y-90170000D02*
X82550000Y-93980000D01*
X90075000Y-83533299D02*
X90075000Y-85185000D01*
X88920000Y-64770000D02*
X90825000Y-66675000D01*
X90825000Y-66675000D02*
X91440000Y-66675000D01*
%TO.N,/In-2 {slash} RX*%
X82550000Y-76835000D02*
X85100000Y-74285000D01*
X70485000Y-76835000D02*
X82550000Y-76835000D01*
X68580000Y-78740000D02*
X70485000Y-76835000D01*
X68580000Y-83830000D02*
X68580000Y-78740000D01*
X85100000Y-74285000D02*
X85100000Y-72390000D01*
%TO.N,/In-3 {slash} TX*%
X76835000Y-75565000D02*
X80010000Y-72390000D01*
X80010000Y-72390000D02*
X82560000Y-72390000D01*
X69215000Y-75565000D02*
X76835000Y-75565000D01*
X66040000Y-78740000D02*
X69215000Y-75565000D01*
X66040000Y-83830000D02*
X66040000Y-78740000D01*
%TO.N,/Out-0*%
X83820000Y-84455000D02*
X83820000Y-83830000D01*
X64770000Y-85090000D02*
X65405000Y-85725000D01*
X65405000Y-85725000D02*
X82550000Y-85725000D01*
X64770000Y-80020000D02*
X64770000Y-85090000D01*
X82550000Y-85725000D02*
X83820000Y-84455000D01*
%TO.N,/Out-2*%
X77470000Y-81280000D02*
X78740000Y-82550000D01*
X78740000Y-82550000D02*
X78740000Y-83830000D01*
X69850000Y-80020000D02*
X69850000Y-80645000D01*
X69850000Y-80645000D02*
X70485000Y-81280000D01*
X70485000Y-81280000D02*
X77470000Y-81280000D01*
%TO.N,Net-(SW2-Pad2)*%
X86360000Y-71120000D02*
X86360000Y-78750000D01*
X80550000Y-60380000D02*
X81970000Y-60380000D01*
X83185000Y-69850000D02*
X83820000Y-70485000D01*
X86360000Y-78750000D02*
X85100000Y-80010000D01*
X85725000Y-70485000D02*
X86360000Y-71120000D01*
X81970000Y-60380000D02*
X83185000Y-61595000D01*
X83185000Y-61595000D02*
X83185000Y-69850000D01*
X83820000Y-70485000D02*
X85725000Y-70485000D01*
%TO.N,Net-(SW4-Pad2)*%
X72345000Y-71275000D02*
X76990000Y-71275000D01*
X76990000Y-71275000D02*
X77470000Y-71755000D01*
X70000000Y-68930000D02*
X72345000Y-71275000D01*
%TD*%
M02*
