%TF.GenerationSoftware,KiCad,Pcbnew,(6.0.9-0)*%
%TF.CreationDate,2022-11-13T08:04:19-06:00*%
%TF.ProjectId,ProgramingAddOn,50726f67-7261-46d6-996e-674164644f6e,rev?*%
%TF.SameCoordinates,Original*%
%TF.FileFunction,Copper,L4,Inr*%
%TF.FilePolarity,Positive*%
%FSLAX46Y46*%
G04 Gerber Fmt 4.6, Leading zero omitted, Abs format (unit mm)*
G04 Created by KiCad (PCBNEW (6.0.9-0)) date 2022-11-13 08:04:19*
%MOMM*%
%LPD*%
G01*
G04 APERTURE LIST*
%TA.AperFunction,ComponentPad*%
%ADD10C,2.000000*%
%TD*%
%TA.AperFunction,ComponentPad*%
%ADD11R,1.600000X1.600000*%
%TD*%
%TA.AperFunction,ComponentPad*%
%ADD12O,1.600000X1.600000*%
%TD*%
%TA.AperFunction,ComponentPad*%
%ADD13O,1.550000X0.890000*%
%TD*%
%TA.AperFunction,ComponentPad*%
%ADD14O,0.950000X1.250000*%
%TD*%
%TA.AperFunction,ComponentPad*%
%ADD15R,1.700000X1.700000*%
%TD*%
%TA.AperFunction,ComponentPad*%
%ADD16O,1.700000X1.700000*%
%TD*%
%TA.AperFunction,ViaPad*%
%ADD17C,0.800000*%
%TD*%
G04 APERTURE END LIST*
D10*
%TO.N,+3.3V*%
%TO.C,SW2*%
X74050000Y-55880000D03*
X80550000Y-55880000D03*
%TO.N,Net-(SW2-Pad2)*%
X80550000Y-60380000D03*
X74050000Y-60380000D03*
%TD*%
D11*
%TO.N,Net-(SW4-Pad2)*%
%TO.C,SW7*%
X82560000Y-80010000D03*
D12*
%TO.N,Net-(SW2-Pad2)*%
X85100000Y-80010000D03*
%TO.N,Net-(SW6-Pad2)*%
X87640000Y-80010000D03*
%TO.N,Net-(SW3-Pad2)*%
X90180000Y-80010000D03*
%TO.N,/In-0*%
X90180000Y-72390000D03*
%TO.N,/In-1*%
X87640000Y-72390000D03*
%TO.N,/In-2 {slash} RX*%
X85100000Y-72390000D03*
%TO.N,/In-3 {slash} TX*%
X82560000Y-72390000D03*
%TD*%
D13*
%TO.N,GND*%
%TO.C,J1*%
X96550000Y-86581298D03*
D14*
X93850000Y-92581298D03*
X93850000Y-87581298D03*
D13*
X96550000Y-93581298D03*
%TD*%
D11*
%TO.N,/TXD*%
%TO.C,SW1*%
X86380000Y-64770000D03*
D12*
%TO.N,/RXD*%
X88920000Y-64770000D03*
%TO.N,/In-3 {slash} TX*%
X88920000Y-57150000D03*
%TO.N,/In-2 {slash} RX*%
X86380000Y-57150000D03*
%TD*%
D10*
%TO.N,+3.3V*%
%TO.C,SW4*%
X70000000Y-64430000D03*
X63500000Y-64430000D03*
%TO.N,Net-(SW4-Pad2)*%
X63500000Y-68930000D03*
X70000000Y-68930000D03*
%TD*%
%TO.N,+3.3V*%
%TO.C,SW3*%
X70000000Y-55880000D03*
X63500000Y-55880000D03*
%TO.N,Net-(SW3-Pad2)*%
X63500000Y-60380000D03*
X70000000Y-60380000D03*
%TD*%
%TO.N,+3.3V*%
%TO.C,SW6*%
X74050000Y-64430000D03*
X80550000Y-64430000D03*
%TO.N,Net-(SW6-Pad2)*%
X80550000Y-68930000D03*
X74050000Y-68930000D03*
%TD*%
D11*
%TO.N,Net-(D5-Pad1)*%
%TO.C,SW5*%
X72390000Y-72400000D03*
D12*
%TO.N,Net-(D4-Pad1)*%
X69850000Y-72400000D03*
%TO.N,Net-(D2-Pad1)*%
X67310000Y-72400000D03*
%TO.N,Net-(D3-Pad1)*%
X64770000Y-72400000D03*
%TO.N,/Out-0*%
X64770000Y-80020000D03*
%TO.N,/Out-1*%
X67310000Y-80020000D03*
%TO.N,/Out-2*%
X69850000Y-80020000D03*
%TO.N,/Out-3*%
X72390000Y-80020000D03*
%TD*%
D15*
%TO.N,GND*%
%TO.C,J4*%
X63495000Y-51365000D03*
D16*
%TO.N,/In-3 {slash} TX*%
X66035000Y-51365000D03*
%TO.N,/In-2 {slash} RX*%
X68575000Y-51365000D03*
%TO.N,/In-1*%
X71115000Y-51365000D03*
%TO.N,/In-0*%
X73655000Y-51365000D03*
%TO.N,/Out-3*%
X76195000Y-51365000D03*
%TO.N,/Out-2*%
X78735000Y-51365000D03*
%TO.N,/Out-1*%
X81275000Y-51365000D03*
%TO.N,/Out-0*%
X83815000Y-51365000D03*
%TO.N,GND*%
X86355000Y-51365000D03*
%TO.N,+3.3V*%
X88895000Y-51365000D03*
%TO.N,/Reset*%
X91435000Y-51365000D03*
%TD*%
D15*
%TO.N,GND*%
%TO.C,J5*%
X63500000Y-83830000D03*
D16*
%TO.N,/In-3 {slash} TX*%
X66040000Y-83830000D03*
%TO.N,/In-2 {slash} RX*%
X68580000Y-83830000D03*
%TO.N,/In-1*%
X71120000Y-83830000D03*
%TO.N,/In-0*%
X73660000Y-83830000D03*
%TO.N,/Out-3*%
X76200000Y-83830000D03*
%TO.N,/Out-2*%
X78740000Y-83830000D03*
%TO.N,/Out-1*%
X81280000Y-83830000D03*
%TO.N,/Out-0*%
X83820000Y-83830000D03*
%TO.N,GND*%
X86360000Y-83830000D03*
%TO.N,+3.3V*%
X88900000Y-83830000D03*
%TO.N,/Reset*%
X91440000Y-83830000D03*
%TD*%
D17*
%TO.N,VBUS*%
X87630000Y-89535000D03*
X78740000Y-86449500D03*
X88175000Y-92075000D03*
%TO.N,GND*%
X83820000Y-94615000D03*
X72390000Y-92710000D03*
X87630000Y-60325000D03*
X88900000Y-53975000D03*
X64770000Y-57785000D03*
X67310000Y-64770000D03*
X83185000Y-87630000D03*
X92710000Y-54610000D03*
X82550000Y-74930000D03*
X85090000Y-54610000D03*
X86360000Y-92075000D03*
X76200000Y-90170000D03*
X76835000Y-93980000D03*
X87630000Y-75565000D03*
X64770000Y-76835000D03*
X77470000Y-69850000D03*
X81280000Y-86995000D03*
X86360000Y-69850000D03*
X77300000Y-64770000D03*
X77470000Y-55880000D03*
X92710000Y-57785000D03*
X74930000Y-87630000D03*
X92710000Y-61595000D03*
X81695602Y-92254846D03*
X92710000Y-65405000D03*
X67310000Y-59055000D03*
X86360000Y-86995000D03*
X90170000Y-69850000D03*
X78740000Y-91440000D03*
%TO.N,+3.3V*%
X81575767Y-89990500D03*
X74930000Y-92075000D03*
%TO.N,/TXD*%
X78730837Y-94029479D03*
%TO.N,/RXD*%
X82550000Y-93980000D03*
%TO.N,Net-(SW4-Pad2)*%
X77470000Y-71755000D03*
X77470000Y-80010000D03*
%TD*%
%TA.AperFunction,Conductor*%
%TO.N,+3.3V*%
G36*
X93413621Y-47518502D02*
G01*
X93460114Y-47572158D01*
X93471500Y-47624500D01*
X93471500Y-53793006D01*
X93451498Y-53861127D01*
X93397842Y-53907620D01*
X93327568Y-53917724D01*
X93271439Y-53894942D01*
X93172094Y-53822763D01*
X93172093Y-53822762D01*
X93166752Y-53818882D01*
X93160724Y-53816198D01*
X93160722Y-53816197D01*
X92998319Y-53743891D01*
X92998318Y-53743891D01*
X92992288Y-53741206D01*
X92898888Y-53721353D01*
X92811944Y-53702872D01*
X92811939Y-53702872D01*
X92805487Y-53701500D01*
X92614513Y-53701500D01*
X92608061Y-53702872D01*
X92608056Y-53702872D01*
X92521113Y-53721353D01*
X92427712Y-53741206D01*
X92421682Y-53743891D01*
X92421681Y-53743891D01*
X92259278Y-53816197D01*
X92259276Y-53816198D01*
X92253248Y-53818882D01*
X92098747Y-53931134D01*
X91970960Y-54073056D01*
X91875473Y-54238444D01*
X91816458Y-54420072D01*
X91796496Y-54610000D01*
X91797186Y-54616565D01*
X91813187Y-54768803D01*
X91816458Y-54799928D01*
X91875473Y-54981556D01*
X91970960Y-55146944D01*
X91975378Y-55151851D01*
X91975379Y-55151852D01*
X92019753Y-55201134D01*
X92098747Y-55288866D01*
X92253248Y-55401118D01*
X92259276Y-55403802D01*
X92259278Y-55403803D01*
X92421681Y-55476109D01*
X92427712Y-55478794D01*
X92521113Y-55498647D01*
X92608056Y-55517128D01*
X92608061Y-55517128D01*
X92614513Y-55518500D01*
X92805487Y-55518500D01*
X92811939Y-55517128D01*
X92811944Y-55517128D01*
X92898888Y-55498647D01*
X92992288Y-55478794D01*
X92998319Y-55476109D01*
X93160722Y-55403803D01*
X93160724Y-55403802D01*
X93166752Y-55401118D01*
X93271439Y-55325058D01*
X93338306Y-55301200D01*
X93407458Y-55317280D01*
X93456938Y-55368194D01*
X93471500Y-55426994D01*
X93471500Y-56968006D01*
X93451498Y-57036127D01*
X93397842Y-57082620D01*
X93327568Y-57092724D01*
X93271439Y-57069942D01*
X93172094Y-56997763D01*
X93172093Y-56997762D01*
X93166752Y-56993882D01*
X93160724Y-56991198D01*
X93160722Y-56991197D01*
X92998319Y-56918891D01*
X92998318Y-56918891D01*
X92992288Y-56916206D01*
X92898888Y-56896353D01*
X92811944Y-56877872D01*
X92811939Y-56877872D01*
X92805487Y-56876500D01*
X92614513Y-56876500D01*
X92608061Y-56877872D01*
X92608056Y-56877872D01*
X92521112Y-56896353D01*
X92427712Y-56916206D01*
X92421682Y-56918891D01*
X92421681Y-56918891D01*
X92259278Y-56991197D01*
X92259276Y-56991198D01*
X92253248Y-56993882D01*
X92098747Y-57106134D01*
X92094326Y-57111044D01*
X92094325Y-57111045D01*
X92064180Y-57144525D01*
X91970960Y-57248056D01*
X91875473Y-57413444D01*
X91816458Y-57595072D01*
X91796496Y-57785000D01*
X91816458Y-57974928D01*
X91875473Y-58156556D01*
X91970960Y-58321944D01*
X91975378Y-58326851D01*
X91975379Y-58326852D01*
X92019753Y-58376134D01*
X92098747Y-58463866D01*
X92253248Y-58576118D01*
X92259276Y-58578802D01*
X92259278Y-58578803D01*
X92421681Y-58651109D01*
X92427712Y-58653794D01*
X92521113Y-58673647D01*
X92608056Y-58692128D01*
X92608061Y-58692128D01*
X92614513Y-58693500D01*
X92805487Y-58693500D01*
X92811939Y-58692128D01*
X92811944Y-58692128D01*
X92898887Y-58673647D01*
X92992288Y-58653794D01*
X92998319Y-58651109D01*
X93160722Y-58578803D01*
X93160724Y-58578802D01*
X93166752Y-58576118D01*
X93271439Y-58500058D01*
X93338306Y-58476200D01*
X93407458Y-58492280D01*
X93456938Y-58543194D01*
X93471500Y-58601994D01*
X93471500Y-60778006D01*
X93451498Y-60846127D01*
X93397842Y-60892620D01*
X93327568Y-60902724D01*
X93271439Y-60879942D01*
X93172094Y-60807763D01*
X93172093Y-60807762D01*
X93166752Y-60803882D01*
X93160724Y-60801198D01*
X93160722Y-60801197D01*
X92998319Y-60728891D01*
X92998318Y-60728891D01*
X92992288Y-60726206D01*
X92879721Y-60702279D01*
X92811944Y-60687872D01*
X92811939Y-60687872D01*
X92805487Y-60686500D01*
X92614513Y-60686500D01*
X92608061Y-60687872D01*
X92608056Y-60687872D01*
X92540279Y-60702279D01*
X92427712Y-60726206D01*
X92421682Y-60728891D01*
X92421681Y-60728891D01*
X92259278Y-60801197D01*
X92259276Y-60801198D01*
X92253248Y-60803882D01*
X92098747Y-60916134D01*
X92094326Y-60921044D01*
X92094325Y-60921045D01*
X92016257Y-61007749D01*
X91970960Y-61058056D01*
X91875473Y-61223444D01*
X91816458Y-61405072D01*
X91796496Y-61595000D01*
X91816458Y-61784928D01*
X91875473Y-61966556D01*
X91970960Y-62131944D01*
X92098747Y-62273866D01*
X92253248Y-62386118D01*
X92259276Y-62388802D01*
X92259278Y-62388803D01*
X92421681Y-62461109D01*
X92427712Y-62463794D01*
X92521113Y-62483647D01*
X92608056Y-62502128D01*
X92608061Y-62502128D01*
X92614513Y-62503500D01*
X92805487Y-62503500D01*
X92811939Y-62502128D01*
X92811944Y-62502128D01*
X92898887Y-62483647D01*
X92992288Y-62463794D01*
X92998319Y-62461109D01*
X93160722Y-62388803D01*
X93160724Y-62388802D01*
X93166752Y-62386118D01*
X93271439Y-62310058D01*
X93338306Y-62286200D01*
X93407458Y-62302280D01*
X93456938Y-62353194D01*
X93471500Y-62411994D01*
X93471500Y-64588006D01*
X93451498Y-64656127D01*
X93397842Y-64702620D01*
X93327568Y-64712724D01*
X93271439Y-64689942D01*
X93172094Y-64617763D01*
X93172093Y-64617762D01*
X93166752Y-64613882D01*
X93160724Y-64611198D01*
X93160722Y-64611197D01*
X92998319Y-64538891D01*
X92998318Y-64538891D01*
X92992288Y-64536206D01*
X92898888Y-64516353D01*
X92811944Y-64497872D01*
X92811939Y-64497872D01*
X92805487Y-64496500D01*
X92614513Y-64496500D01*
X92608061Y-64497872D01*
X92608056Y-64497872D01*
X92521112Y-64516353D01*
X92427712Y-64536206D01*
X92421682Y-64538891D01*
X92421681Y-64538891D01*
X92259278Y-64611197D01*
X92259276Y-64611198D01*
X92253248Y-64613882D01*
X92098747Y-64726134D01*
X92094326Y-64731044D01*
X92094325Y-64731045D01*
X92064180Y-64764525D01*
X91970960Y-64868056D01*
X91875473Y-65033444D01*
X91816458Y-65215072D01*
X91796496Y-65405000D01*
X91797186Y-65411565D01*
X91813187Y-65563803D01*
X91816458Y-65594928D01*
X91875473Y-65776556D01*
X91970960Y-65941944D01*
X91975378Y-65946851D01*
X91975379Y-65946852D01*
X92044634Y-66023767D01*
X92098747Y-66083866D01*
X92253248Y-66196118D01*
X92259276Y-66198802D01*
X92259278Y-66198803D01*
X92421681Y-66271109D01*
X92427712Y-66273794D01*
X92521112Y-66293647D01*
X92608056Y-66312128D01*
X92608061Y-66312128D01*
X92614513Y-66313500D01*
X92805487Y-66313500D01*
X92811939Y-66312128D01*
X92811944Y-66312128D01*
X92898888Y-66293647D01*
X92992288Y-66273794D01*
X92998319Y-66271109D01*
X93160722Y-66198803D01*
X93160724Y-66198802D01*
X93166752Y-66196118D01*
X93271439Y-66120058D01*
X93338306Y-66096200D01*
X93407458Y-66112280D01*
X93456938Y-66163194D01*
X93471500Y-66221994D01*
X93471500Y-85081377D01*
X93471498Y-85082147D01*
X93471024Y-85159721D01*
X93473491Y-85168352D01*
X93479150Y-85188153D01*
X93482728Y-85204915D01*
X93486920Y-85234187D01*
X93490634Y-85242355D01*
X93490634Y-85242356D01*
X93497548Y-85257562D01*
X93503996Y-85275086D01*
X93511051Y-85299771D01*
X93515843Y-85307365D01*
X93515844Y-85307368D01*
X93526830Y-85324780D01*
X93534969Y-85339863D01*
X93547208Y-85366782D01*
X93553069Y-85373584D01*
X93563970Y-85386235D01*
X93575073Y-85401239D01*
X93588776Y-85422958D01*
X93595501Y-85428897D01*
X93595504Y-85428901D01*
X93610938Y-85442532D01*
X93622982Y-85454724D01*
X93636427Y-85470327D01*
X93636430Y-85470329D01*
X93642287Y-85477127D01*
X93649816Y-85482007D01*
X93649817Y-85482008D01*
X93663835Y-85491094D01*
X93678709Y-85502385D01*
X93691217Y-85513431D01*
X93697951Y-85519378D01*
X93724711Y-85531942D01*
X93739691Y-85540263D01*
X93756983Y-85551471D01*
X93756988Y-85551473D01*
X93764515Y-85556352D01*
X93773108Y-85558922D01*
X93773113Y-85558924D01*
X93789120Y-85563711D01*
X93806564Y-85570372D01*
X93821676Y-85577467D01*
X93821678Y-85577468D01*
X93829800Y-85581281D01*
X93838667Y-85582662D01*
X93838668Y-85582662D01*
X93848310Y-85584163D01*
X93859017Y-85585830D01*
X93875732Y-85589613D01*
X93895466Y-85595515D01*
X93895472Y-85595516D01*
X93904066Y-85598086D01*
X93913037Y-85598141D01*
X93913038Y-85598141D01*
X93923097Y-85598202D01*
X93938506Y-85598296D01*
X93939289Y-85598329D01*
X93940386Y-85598500D01*
X93971377Y-85598500D01*
X93972147Y-85598502D01*
X94045785Y-85598952D01*
X94045786Y-85598952D01*
X94049721Y-85598976D01*
X94051065Y-85598592D01*
X94052410Y-85598500D01*
X95560834Y-85598500D01*
X95628955Y-85618502D01*
X95675448Y-85672158D01*
X95685552Y-85742432D01*
X95656058Y-85807012D01*
X95642836Y-85820164D01*
X95525941Y-85920355D01*
X95407216Y-86073414D01*
X95321693Y-86247221D01*
X95320086Y-86253391D01*
X95320084Y-86253396D01*
X95274475Y-86428492D01*
X95272865Y-86434674D01*
X95270700Y-86475987D01*
X95263272Y-86617721D01*
X95262727Y-86628116D01*
X95291693Y-86819647D01*
X95358581Y-87001440D01*
X95361939Y-87006856D01*
X95361941Y-87006860D01*
X95457293Y-87160648D01*
X95457296Y-87160652D01*
X95460656Y-87166071D01*
X95465042Y-87170709D01*
X95527482Y-87236737D01*
X95593751Y-87306815D01*
X95752427Y-87417921D01*
X95930204Y-87494852D01*
X95936452Y-87496157D01*
X95936451Y-87496157D01*
X96115073Y-87533474D01*
X96115077Y-87533474D01*
X96119818Y-87534465D01*
X96126172Y-87534798D01*
X96928408Y-87534798D01*
X96974161Y-87530151D01*
X97066368Y-87520785D01*
X97066370Y-87520785D01*
X97072716Y-87520140D01*
X97257561Y-87462213D01*
X97426982Y-87368301D01*
X97436351Y-87360271D01*
X97569207Y-87246400D01*
X97569209Y-87246398D01*
X97574059Y-87242241D01*
X97690941Y-87091558D01*
X97748497Y-87049991D01*
X97819389Y-87046141D01*
X97881109Y-87081228D01*
X97914061Y-87144115D01*
X97916500Y-87168784D01*
X97916500Y-93001205D01*
X97896498Y-93069326D01*
X97842842Y-93115819D01*
X97772568Y-93125923D01*
X97707988Y-93096429D01*
X97683414Y-93067601D01*
X97642712Y-93001955D01*
X97642705Y-93001947D01*
X97639344Y-92996525D01*
X97547997Y-92899928D01*
X97510638Y-92860422D01*
X97510637Y-92860421D01*
X97506249Y-92855781D01*
X97360699Y-92753866D01*
X97352803Y-92748337D01*
X97352802Y-92748337D01*
X97347573Y-92744675D01*
X97169796Y-92667744D01*
X97057889Y-92644365D01*
X96984927Y-92629122D01*
X96984923Y-92629122D01*
X96980182Y-92628131D01*
X96973828Y-92627798D01*
X96171592Y-92627798D01*
X96128993Y-92632125D01*
X96033632Y-92641811D01*
X96033630Y-92641811D01*
X96027284Y-92642456D01*
X95842439Y-92700383D01*
X95673018Y-92794295D01*
X95668170Y-92798451D01*
X95668169Y-92798451D01*
X95549774Y-92899928D01*
X95525941Y-92920355D01*
X95512568Y-92937595D01*
X95424216Y-93051498D01*
X95407216Y-93073414D01*
X95321693Y-93247221D01*
X95320086Y-93253391D01*
X95320084Y-93253396D01*
X95274475Y-93428492D01*
X95272865Y-93434674D01*
X95272531Y-93441054D01*
X95263162Y-93619821D01*
X95262727Y-93628116D01*
X95291693Y-93819647D01*
X95358581Y-94001440D01*
X95361939Y-94006856D01*
X95361941Y-94006860D01*
X95457293Y-94160648D01*
X95457296Y-94160652D01*
X95460656Y-94166071D01*
X95593751Y-94306815D01*
X95752427Y-94417921D01*
X95930204Y-94494852D01*
X95934616Y-94495774D01*
X95992942Y-94535061D01*
X96021035Y-94600263D01*
X96009418Y-94670302D01*
X95961778Y-94722943D01*
X95895960Y-94741500D01*
X84858814Y-94741500D01*
X84790693Y-94721498D01*
X84744200Y-94667842D01*
X84733244Y-94617476D01*
X84733504Y-94615000D01*
X84722597Y-94511226D01*
X84714232Y-94431635D01*
X84714232Y-94431633D01*
X84713542Y-94425072D01*
X84654527Y-94243444D01*
X84559040Y-94078056D01*
X84431253Y-93936134D01*
X84307352Y-93846114D01*
X84282094Y-93827763D01*
X84282093Y-93827762D01*
X84276752Y-93823882D01*
X84270724Y-93821198D01*
X84270722Y-93821197D01*
X84108319Y-93748891D01*
X84108318Y-93748891D01*
X84102288Y-93746206D01*
X84008888Y-93726353D01*
X83921944Y-93707872D01*
X83921939Y-93707872D01*
X83915487Y-93706500D01*
X83724513Y-93706500D01*
X83718061Y-93707872D01*
X83718056Y-93707872D01*
X83547265Y-93744175D01*
X83476474Y-93738773D01*
X83419841Y-93695956D01*
X83401235Y-93659865D01*
X83386568Y-93614725D01*
X83386567Y-93614724D01*
X83384527Y-93608444D01*
X83289040Y-93443056D01*
X83243744Y-93392749D01*
X83165675Y-93306045D01*
X83165674Y-93306044D01*
X83161253Y-93301134D01*
X83047947Y-93218812D01*
X83012094Y-93192763D01*
X83012093Y-93192762D01*
X83006752Y-93188882D01*
X83000724Y-93186198D01*
X83000722Y-93186197D01*
X82838319Y-93113891D01*
X82838318Y-93113891D01*
X82832288Y-93111206D01*
X82719721Y-93087279D01*
X82651944Y-93072872D01*
X82651939Y-93072872D01*
X82645487Y-93071500D01*
X82465790Y-93071500D01*
X82397669Y-93051498D01*
X82351176Y-92997842D01*
X82341072Y-92927568D01*
X82372154Y-92861190D01*
X82430223Y-92796698D01*
X82430224Y-92796697D01*
X82434642Y-92791790D01*
X82530129Y-92626402D01*
X82589144Y-92444774D01*
X82609106Y-92254846D01*
X82606204Y-92227237D01*
X82590204Y-92075000D01*
X85446496Y-92075000D01*
X85447186Y-92081565D01*
X85463719Y-92238864D01*
X85466458Y-92264928D01*
X85525473Y-92446556D01*
X85620960Y-92611944D01*
X85625378Y-92616851D01*
X85625379Y-92616852D01*
X85635526Y-92628121D01*
X85748747Y-92753866D01*
X85903248Y-92866118D01*
X85909276Y-92868802D01*
X85909278Y-92868803D01*
X86071681Y-92941109D01*
X86077712Y-92943794D01*
X86171113Y-92963647D01*
X86258056Y-92982128D01*
X86258061Y-92982128D01*
X86264513Y-92983500D01*
X86455487Y-92983500D01*
X86461939Y-92982128D01*
X86461944Y-92982128D01*
X86548887Y-92963647D01*
X86642288Y-92943794D01*
X86648319Y-92941109D01*
X86810722Y-92868803D01*
X86810724Y-92868802D01*
X86816752Y-92866118D01*
X86971253Y-92753866D01*
X87084474Y-92628121D01*
X87094621Y-92616852D01*
X87094622Y-92616851D01*
X87099040Y-92611944D01*
X87148293Y-92526635D01*
X87158381Y-92509163D01*
X87209764Y-92460170D01*
X87279477Y-92446734D01*
X87345388Y-92473121D01*
X87376619Y-92509163D01*
X87386707Y-92526635D01*
X87435960Y-92611944D01*
X87440378Y-92616851D01*
X87440379Y-92616852D01*
X87450526Y-92628121D01*
X87563747Y-92753866D01*
X87718248Y-92866118D01*
X87724276Y-92868802D01*
X87724278Y-92868803D01*
X87886681Y-92941109D01*
X87892712Y-92943794D01*
X87986113Y-92963647D01*
X88073056Y-92982128D01*
X88073061Y-92982128D01*
X88079513Y-92983500D01*
X88270487Y-92983500D01*
X88276939Y-92982128D01*
X88276944Y-92982128D01*
X88363887Y-92963647D01*
X88457288Y-92943794D01*
X88463319Y-92941109D01*
X88625722Y-92868803D01*
X88625724Y-92868802D01*
X88631752Y-92866118D01*
X88748587Y-92781232D01*
X92866500Y-92781232D01*
X92867572Y-92791790D01*
X92878557Y-92899928D01*
X92881619Y-92930078D01*
X92902855Y-92997842D01*
X92926369Y-93072872D01*
X92941369Y-93120738D01*
X93038235Y-93295489D01*
X93042391Y-93300338D01*
X93160508Y-93438148D01*
X93168261Y-93447194D01*
X93173298Y-93451101D01*
X93173300Y-93451103D01*
X93321093Y-93565743D01*
X93321096Y-93565745D01*
X93326137Y-93569655D01*
X93331863Y-93572473D01*
X93331867Y-93572475D01*
X93444945Y-93628116D01*
X93505411Y-93657869D01*
X93594906Y-93681181D01*
X93692580Y-93706623D01*
X93692583Y-93706623D01*
X93698762Y-93708233D01*
X93792256Y-93713133D01*
X93891911Y-93718356D01*
X93891915Y-93718356D01*
X93898292Y-93718690D01*
X94095848Y-93688812D01*
X94113249Y-93682410D01*
X94277371Y-93622025D01*
X94277372Y-93622025D01*
X94283361Y-93619821D01*
X94453172Y-93514533D01*
X94598344Y-93377251D01*
X94712946Y-93213582D01*
X94792298Y-93030212D01*
X94833156Y-92834632D01*
X94833500Y-92828069D01*
X94833500Y-92381364D01*
X94830162Y-92348500D01*
X94819026Y-92238864D01*
X94819025Y-92238860D01*
X94818381Y-92232518D01*
X94758631Y-92041858D01*
X94661765Y-91867107D01*
X94606709Y-91802872D01*
X94535891Y-91720246D01*
X94535890Y-91720245D01*
X94531739Y-91715402D01*
X94526700Y-91711493D01*
X94378907Y-91596853D01*
X94378904Y-91596851D01*
X94373863Y-91592941D01*
X94368137Y-91590123D01*
X94368133Y-91590121D01*
X94200318Y-91507546D01*
X94194589Y-91504727D01*
X94075797Y-91473784D01*
X94007420Y-91455973D01*
X94007417Y-91455973D01*
X94001238Y-91454363D01*
X93907744Y-91449463D01*
X93808089Y-91444240D01*
X93808085Y-91444240D01*
X93801708Y-91443906D01*
X93604152Y-91473784D01*
X93598165Y-91475987D01*
X93598164Y-91475987D01*
X93429465Y-91538056D01*
X93416639Y-91542775D01*
X93335730Y-91592941D01*
X93276077Y-91629928D01*
X93246828Y-91648063D01*
X93242195Y-91652444D01*
X93242194Y-91652445D01*
X93194316Y-91697721D01*
X93101656Y-91785345D01*
X92987054Y-91949014D01*
X92907702Y-92132384D01*
X92866844Y-92327964D01*
X92866500Y-92334527D01*
X92866500Y-92781232D01*
X88748587Y-92781232D01*
X88786253Y-92753866D01*
X88899474Y-92628121D01*
X88909621Y-92616852D01*
X88909622Y-92616851D01*
X88914040Y-92611944D01*
X89009527Y-92446556D01*
X89068542Y-92264928D01*
X89071282Y-92238864D01*
X89087814Y-92081565D01*
X89088504Y-92075000D01*
X89075878Y-91954873D01*
X89069232Y-91891635D01*
X89069232Y-91891633D01*
X89068542Y-91885072D01*
X89009527Y-91703444D01*
X88914040Y-91538056D01*
X88884031Y-91504727D01*
X88790675Y-91401045D01*
X88790674Y-91401044D01*
X88786253Y-91396134D01*
X88631752Y-91283882D01*
X88625724Y-91281198D01*
X88625722Y-91281197D01*
X88463319Y-91208891D01*
X88463318Y-91208891D01*
X88457288Y-91206206D01*
X88363887Y-91186353D01*
X88276944Y-91167872D01*
X88276939Y-91167872D01*
X88270487Y-91166500D01*
X88079513Y-91166500D01*
X88073061Y-91167872D01*
X88073056Y-91167872D01*
X87986113Y-91186353D01*
X87892712Y-91206206D01*
X87886682Y-91208891D01*
X87886681Y-91208891D01*
X87724278Y-91281197D01*
X87724276Y-91281198D01*
X87718248Y-91283882D01*
X87563747Y-91396134D01*
X87559326Y-91401044D01*
X87559325Y-91401045D01*
X87465970Y-91504727D01*
X87435960Y-91538056D01*
X87414065Y-91575980D01*
X87376619Y-91640837D01*
X87325236Y-91689830D01*
X87255523Y-91703266D01*
X87189612Y-91676879D01*
X87158381Y-91640837D01*
X87120935Y-91575980D01*
X87099040Y-91538056D01*
X87069031Y-91504727D01*
X86975675Y-91401045D01*
X86975674Y-91401044D01*
X86971253Y-91396134D01*
X86816752Y-91283882D01*
X86810724Y-91281198D01*
X86810722Y-91281197D01*
X86648319Y-91208891D01*
X86648318Y-91208891D01*
X86642288Y-91206206D01*
X86548887Y-91186353D01*
X86461944Y-91167872D01*
X86461939Y-91167872D01*
X86455487Y-91166500D01*
X86264513Y-91166500D01*
X86258061Y-91167872D01*
X86258056Y-91167872D01*
X86171113Y-91186353D01*
X86077712Y-91206206D01*
X86071682Y-91208891D01*
X86071681Y-91208891D01*
X85909278Y-91281197D01*
X85909276Y-91281198D01*
X85903248Y-91283882D01*
X85748747Y-91396134D01*
X85744326Y-91401044D01*
X85744325Y-91401045D01*
X85650970Y-91504727D01*
X85620960Y-91538056D01*
X85525473Y-91703444D01*
X85466458Y-91885072D01*
X85465768Y-91891633D01*
X85465768Y-91891635D01*
X85459122Y-91954873D01*
X85446496Y-92075000D01*
X82590204Y-92075000D01*
X82589834Y-92071481D01*
X82589834Y-92071479D01*
X82589144Y-92064918D01*
X82530129Y-91883290D01*
X82434642Y-91717902D01*
X82365253Y-91640837D01*
X82311277Y-91580891D01*
X82311276Y-91580890D01*
X82306855Y-91575980D01*
X82152354Y-91463728D01*
X82146326Y-91461044D01*
X82146324Y-91461043D01*
X81983921Y-91388737D01*
X81983920Y-91388737D01*
X81977890Y-91386052D01*
X81884490Y-91366199D01*
X81797546Y-91347718D01*
X81797541Y-91347718D01*
X81791089Y-91346346D01*
X81600115Y-91346346D01*
X81593663Y-91347718D01*
X81593658Y-91347718D01*
X81506714Y-91366199D01*
X81413314Y-91386052D01*
X81407284Y-91388737D01*
X81407283Y-91388737D01*
X81244880Y-91461043D01*
X81244878Y-91461044D01*
X81238850Y-91463728D01*
X81084349Y-91575980D01*
X81079928Y-91580890D01*
X81079927Y-91580891D01*
X81025952Y-91640837D01*
X80956562Y-91717902D01*
X80861075Y-91883290D01*
X80802060Y-92064918D01*
X80801370Y-92071479D01*
X80801370Y-92071481D01*
X80785000Y-92227237D01*
X80782098Y-92254846D01*
X80802060Y-92444774D01*
X80861075Y-92626402D01*
X80956562Y-92791790D01*
X80960980Y-92796697D01*
X80960981Y-92796698D01*
X81072322Y-92920355D01*
X81084349Y-92933712D01*
X81238850Y-93045964D01*
X81244878Y-93048648D01*
X81244880Y-93048649D01*
X81406796Y-93120738D01*
X81413314Y-93123640D01*
X81506714Y-93143493D01*
X81593658Y-93161974D01*
X81593663Y-93161974D01*
X81600115Y-93163346D01*
X81779812Y-93163346D01*
X81847933Y-93183348D01*
X81894426Y-93237004D01*
X81904530Y-93307278D01*
X81873448Y-93373656D01*
X81810960Y-93443056D01*
X81715473Y-93608444D01*
X81656458Y-93790072D01*
X81655768Y-93796633D01*
X81655768Y-93796635D01*
X81650568Y-93846114D01*
X81636496Y-93980000D01*
X81637186Y-93986565D01*
X81655483Y-94160648D01*
X81656458Y-94169928D01*
X81715473Y-94351556D01*
X81810960Y-94516944D01*
X81823789Y-94531192D01*
X81854505Y-94595198D01*
X81845740Y-94665651D01*
X81800277Y-94720182D01*
X81730151Y-94741500D01*
X79587034Y-94741500D01*
X79518913Y-94721498D01*
X79472420Y-94667842D01*
X79462316Y-94597568D01*
X79477915Y-94552500D01*
X79488136Y-94534798D01*
X79565364Y-94401035D01*
X79624379Y-94219407D01*
X79629580Y-94169928D01*
X79643651Y-94036044D01*
X79644341Y-94029479D01*
X79624379Y-93839551D01*
X79565364Y-93657923D01*
X79469877Y-93492535D01*
X79430475Y-93448774D01*
X79346512Y-93355524D01*
X79346511Y-93355523D01*
X79342090Y-93350613D01*
X79199784Y-93247221D01*
X79192931Y-93242242D01*
X79192930Y-93242241D01*
X79187589Y-93238361D01*
X79181561Y-93235677D01*
X79181559Y-93235676D01*
X79019156Y-93163370D01*
X79019155Y-93163370D01*
X79013125Y-93160685D01*
X78919724Y-93140832D01*
X78832781Y-93122351D01*
X78832776Y-93122351D01*
X78826324Y-93120979D01*
X78635350Y-93120979D01*
X78628898Y-93122351D01*
X78628893Y-93122351D01*
X78541950Y-93140832D01*
X78448549Y-93160685D01*
X78442519Y-93163370D01*
X78442518Y-93163370D01*
X78280115Y-93235676D01*
X78280113Y-93235677D01*
X78274085Y-93238361D01*
X78268744Y-93242241D01*
X78268743Y-93242242D01*
X78261890Y-93247221D01*
X78119584Y-93350613D01*
X78115163Y-93355523D01*
X78115162Y-93355524D01*
X78031200Y-93448774D01*
X77991797Y-93492535D01*
X77902982Y-93646367D01*
X77851600Y-93695360D01*
X77781886Y-93708796D01*
X77715975Y-93682410D01*
X77674030Y-93622303D01*
X77673846Y-93621735D01*
X77669527Y-93608444D01*
X77574040Y-93443056D01*
X77528744Y-93392749D01*
X77450675Y-93306045D01*
X77450674Y-93306044D01*
X77446253Y-93301134D01*
X77332947Y-93218812D01*
X77297094Y-93192763D01*
X77297093Y-93192762D01*
X77291752Y-93188882D01*
X77285724Y-93186198D01*
X77285722Y-93186197D01*
X77123319Y-93113891D01*
X77123318Y-93113891D01*
X77117288Y-93111206D01*
X77004721Y-93087279D01*
X76936944Y-93072872D01*
X76936939Y-93072872D01*
X76930487Y-93071500D01*
X76739513Y-93071500D01*
X76733061Y-93072872D01*
X76733056Y-93072872D01*
X76665279Y-93087279D01*
X76552712Y-93111206D01*
X76546682Y-93113891D01*
X76546681Y-93113891D01*
X76384278Y-93186197D01*
X76384276Y-93186198D01*
X76378248Y-93188882D01*
X76372907Y-93192762D01*
X76372906Y-93192763D01*
X76337053Y-93218812D01*
X76223747Y-93301134D01*
X76219326Y-93306044D01*
X76219325Y-93306045D01*
X76141257Y-93392749D01*
X76095960Y-93443056D01*
X76000473Y-93608444D01*
X75941458Y-93790072D01*
X75940768Y-93796633D01*
X75940768Y-93796635D01*
X75935568Y-93846114D01*
X75921496Y-93980000D01*
X75922186Y-93986565D01*
X75940483Y-94160648D01*
X75941458Y-94169928D01*
X76000473Y-94351556D01*
X76095960Y-94516944D01*
X76108789Y-94531192D01*
X76139505Y-94595198D01*
X76130740Y-94665651D01*
X76085277Y-94720182D01*
X76015151Y-94741500D01*
X61594500Y-94741500D01*
X61526379Y-94721498D01*
X61479886Y-94667842D01*
X61468500Y-94615500D01*
X61468500Y-92710000D01*
X71476496Y-92710000D01*
X71477186Y-92716565D01*
X71493187Y-92868803D01*
X71496458Y-92899928D01*
X71555473Y-93081556D01*
X71650960Y-93246944D01*
X71655378Y-93251851D01*
X71655379Y-93251852D01*
X71744304Y-93350613D01*
X71778747Y-93388866D01*
X71841796Y-93434674D01*
X71921435Y-93492535D01*
X71933248Y-93501118D01*
X71939276Y-93503802D01*
X71939278Y-93503803D01*
X72087185Y-93569655D01*
X72107712Y-93578794D01*
X72201113Y-93598647D01*
X72288056Y-93617128D01*
X72288061Y-93617128D01*
X72294513Y-93618500D01*
X72485487Y-93618500D01*
X72491939Y-93617128D01*
X72491944Y-93617128D01*
X72578887Y-93598647D01*
X72672288Y-93578794D01*
X72692815Y-93569655D01*
X72840722Y-93503803D01*
X72840724Y-93503802D01*
X72846752Y-93501118D01*
X72858566Y-93492535D01*
X72938204Y-93434674D01*
X73001253Y-93388866D01*
X73035696Y-93350613D01*
X73124621Y-93251852D01*
X73124622Y-93251851D01*
X73129040Y-93246944D01*
X73224527Y-93081556D01*
X73283542Y-92899928D01*
X73286814Y-92868803D01*
X73302814Y-92716565D01*
X73303504Y-92710000D01*
X73295319Y-92632125D01*
X73284232Y-92526635D01*
X73284232Y-92526633D01*
X73283542Y-92520072D01*
X73224527Y-92338444D01*
X73218477Y-92327964D01*
X73132341Y-92178774D01*
X73129040Y-92173056D01*
X73087143Y-92126524D01*
X73005675Y-92036045D01*
X73005674Y-92036044D01*
X73001253Y-92031134D01*
X72846752Y-91918882D01*
X72840724Y-91916198D01*
X72840722Y-91916197D01*
X72678319Y-91843891D01*
X72678318Y-91843891D01*
X72672288Y-91841206D01*
X72559721Y-91817279D01*
X72491944Y-91802872D01*
X72491939Y-91802872D01*
X72485487Y-91801500D01*
X72294513Y-91801500D01*
X72288061Y-91802872D01*
X72288056Y-91802872D01*
X72220279Y-91817279D01*
X72107712Y-91841206D01*
X72101682Y-91843891D01*
X72101681Y-91843891D01*
X71939278Y-91916197D01*
X71939276Y-91916198D01*
X71933248Y-91918882D01*
X71778747Y-92031134D01*
X71774326Y-92036044D01*
X71774325Y-92036045D01*
X71692858Y-92126524D01*
X71650960Y-92173056D01*
X71647659Y-92178774D01*
X71561524Y-92327964D01*
X71555473Y-92338444D01*
X71496458Y-92520072D01*
X71495768Y-92526633D01*
X71495768Y-92526635D01*
X71484681Y-92632125D01*
X71476496Y-92710000D01*
X61468500Y-92710000D01*
X61468500Y-91440000D01*
X77826496Y-91440000D01*
X77827186Y-91446565D01*
X77842571Y-91592941D01*
X77846458Y-91629928D01*
X77905473Y-91811556D01*
X78000960Y-91976944D01*
X78005378Y-91981851D01*
X78005379Y-91981852D01*
X78049753Y-92031134D01*
X78128747Y-92118866D01*
X78283248Y-92231118D01*
X78289276Y-92233802D01*
X78289278Y-92233803D01*
X78451681Y-92306109D01*
X78457712Y-92308794D01*
X78525614Y-92323227D01*
X78638056Y-92347128D01*
X78638061Y-92347128D01*
X78644513Y-92348500D01*
X78835487Y-92348500D01*
X78841939Y-92347128D01*
X78841944Y-92347128D01*
X78954386Y-92323227D01*
X79022288Y-92308794D01*
X79028319Y-92306109D01*
X79190722Y-92233803D01*
X79190724Y-92233802D01*
X79196752Y-92231118D01*
X79351253Y-92118866D01*
X79430247Y-92031134D01*
X79474621Y-91981852D01*
X79474622Y-91981851D01*
X79479040Y-91976944D01*
X79574527Y-91811556D01*
X79633542Y-91629928D01*
X79637430Y-91592941D01*
X79652814Y-91446565D01*
X79653504Y-91440000D01*
X79643661Y-91346346D01*
X79634232Y-91256635D01*
X79634232Y-91256633D01*
X79633542Y-91250072D01*
X79574527Y-91068444D01*
X79479040Y-90903056D01*
X79433744Y-90852749D01*
X79355675Y-90766045D01*
X79355674Y-90766044D01*
X79351253Y-90761134D01*
X79196752Y-90648882D01*
X79190724Y-90646198D01*
X79190722Y-90646197D01*
X79028319Y-90573891D01*
X79028318Y-90573891D01*
X79022288Y-90571206D01*
X78909721Y-90547279D01*
X78841944Y-90532872D01*
X78841939Y-90532872D01*
X78835487Y-90531500D01*
X78644513Y-90531500D01*
X78638061Y-90532872D01*
X78638056Y-90532872D01*
X78570279Y-90547279D01*
X78457712Y-90571206D01*
X78451682Y-90573891D01*
X78451681Y-90573891D01*
X78289278Y-90646197D01*
X78289276Y-90646198D01*
X78283248Y-90648882D01*
X78128747Y-90761134D01*
X78124326Y-90766044D01*
X78124325Y-90766045D01*
X78046257Y-90852749D01*
X78000960Y-90903056D01*
X77905473Y-91068444D01*
X77846458Y-91250072D01*
X77845768Y-91256633D01*
X77845768Y-91256635D01*
X77836339Y-91346346D01*
X77826496Y-91440000D01*
X61468500Y-91440000D01*
X61468500Y-90170000D01*
X75286496Y-90170000D01*
X75287186Y-90176565D01*
X75303187Y-90328803D01*
X75306458Y-90359928D01*
X75365473Y-90541556D01*
X75460960Y-90706944D01*
X75465378Y-90711851D01*
X75465379Y-90711852D01*
X75509753Y-90761134D01*
X75588747Y-90848866D01*
X75743248Y-90961118D01*
X75749276Y-90963802D01*
X75749278Y-90963803D01*
X75911681Y-91036109D01*
X75917712Y-91038794D01*
X76011113Y-91058647D01*
X76098056Y-91077128D01*
X76098061Y-91077128D01*
X76104513Y-91078500D01*
X76295487Y-91078500D01*
X76301939Y-91077128D01*
X76301944Y-91077128D01*
X76388887Y-91058647D01*
X76482288Y-91038794D01*
X76488319Y-91036109D01*
X76650722Y-90963803D01*
X76650724Y-90963802D01*
X76656752Y-90961118D01*
X76811253Y-90848866D01*
X76890247Y-90761134D01*
X76934621Y-90711852D01*
X76934622Y-90711851D01*
X76939040Y-90706944D01*
X77034527Y-90541556D01*
X77093542Y-90359928D01*
X77096814Y-90328803D01*
X77112814Y-90176565D01*
X77113504Y-90170000D01*
X77093542Y-89980072D01*
X77034527Y-89798444D01*
X76939040Y-89633056D01*
X76850750Y-89535000D01*
X86716496Y-89535000D01*
X86736458Y-89724928D01*
X86795473Y-89906556D01*
X86890960Y-90071944D01*
X87018747Y-90213866D01*
X87173248Y-90326118D01*
X87179276Y-90328802D01*
X87179278Y-90328803D01*
X87341681Y-90401109D01*
X87347712Y-90403794D01*
X87441113Y-90423647D01*
X87528056Y-90442128D01*
X87528061Y-90442128D01*
X87534513Y-90443500D01*
X87725487Y-90443500D01*
X87731939Y-90442128D01*
X87731944Y-90442128D01*
X87818887Y-90423647D01*
X87912288Y-90403794D01*
X87918319Y-90401109D01*
X88080722Y-90328803D01*
X88080724Y-90328802D01*
X88086752Y-90326118D01*
X88241253Y-90213866D01*
X88369040Y-90071944D01*
X88464527Y-89906556D01*
X88523542Y-89724928D01*
X88543504Y-89535000D01*
X88538485Y-89487251D01*
X88524232Y-89351635D01*
X88524232Y-89351633D01*
X88523542Y-89345072D01*
X88464527Y-89163444D01*
X88369040Y-88998056D01*
X88241253Y-88856134D01*
X88086752Y-88743882D01*
X88080724Y-88741198D01*
X88080722Y-88741197D01*
X87918319Y-88668891D01*
X87918318Y-88668891D01*
X87912288Y-88666206D01*
X87818887Y-88646353D01*
X87731944Y-88627872D01*
X87731939Y-88627872D01*
X87725487Y-88626500D01*
X87534513Y-88626500D01*
X87528061Y-88627872D01*
X87528056Y-88627872D01*
X87441113Y-88646353D01*
X87347712Y-88666206D01*
X87341682Y-88668891D01*
X87341681Y-88668891D01*
X87179278Y-88741197D01*
X87179276Y-88741198D01*
X87173248Y-88743882D01*
X87018747Y-88856134D01*
X86890960Y-88998056D01*
X86795473Y-89163444D01*
X86736458Y-89345072D01*
X86735768Y-89351633D01*
X86735768Y-89351635D01*
X86721515Y-89487251D01*
X86716496Y-89535000D01*
X76850750Y-89535000D01*
X76811253Y-89491134D01*
X76656752Y-89378882D01*
X76650724Y-89376198D01*
X76650722Y-89376197D01*
X76488319Y-89303891D01*
X76488318Y-89303891D01*
X76482288Y-89301206D01*
X76388887Y-89281353D01*
X76301944Y-89262872D01*
X76301939Y-89262872D01*
X76295487Y-89261500D01*
X76104513Y-89261500D01*
X76098061Y-89262872D01*
X76098056Y-89262872D01*
X76011113Y-89281353D01*
X75917712Y-89301206D01*
X75911682Y-89303891D01*
X75911681Y-89303891D01*
X75749278Y-89376197D01*
X75749276Y-89376198D01*
X75743248Y-89378882D01*
X75588747Y-89491134D01*
X75460960Y-89633056D01*
X75365473Y-89798444D01*
X75306458Y-89980072D01*
X75286496Y-90170000D01*
X61468500Y-90170000D01*
X61468500Y-87630000D01*
X74016496Y-87630000D01*
X74017186Y-87636565D01*
X74033187Y-87788803D01*
X74036458Y-87819928D01*
X74095473Y-88001556D01*
X74098776Y-88007278D01*
X74098777Y-88007279D01*
X74115401Y-88036072D01*
X74190960Y-88166944D01*
X74195378Y-88171851D01*
X74195379Y-88171852D01*
X74232953Y-88213582D01*
X74318747Y-88308866D01*
X74473248Y-88421118D01*
X74479276Y-88423802D01*
X74479278Y-88423803D01*
X74641681Y-88496109D01*
X74647712Y-88498794D01*
X74721758Y-88514533D01*
X74828056Y-88537128D01*
X74828061Y-88537128D01*
X74834513Y-88538500D01*
X75025487Y-88538500D01*
X75031939Y-88537128D01*
X75031944Y-88537128D01*
X75138242Y-88514533D01*
X75212288Y-88498794D01*
X75218319Y-88496109D01*
X75380722Y-88423803D01*
X75380724Y-88423802D01*
X75386752Y-88421118D01*
X75541253Y-88308866D01*
X75627047Y-88213582D01*
X75664621Y-88171852D01*
X75664622Y-88171851D01*
X75669040Y-88166944D01*
X75744599Y-88036072D01*
X75761223Y-88007279D01*
X75761224Y-88007278D01*
X75764527Y-88001556D01*
X75823542Y-87819928D01*
X75826814Y-87788803D01*
X75842814Y-87636565D01*
X75843504Y-87630000D01*
X75832025Y-87520785D01*
X75824232Y-87446635D01*
X75824232Y-87446633D01*
X75823542Y-87440072D01*
X75764527Y-87258444D01*
X75757574Y-87246400D01*
X75672341Y-87098774D01*
X75669040Y-87093056D01*
X75577466Y-86991352D01*
X75545675Y-86956045D01*
X75545674Y-86956044D01*
X75541253Y-86951134D01*
X75386752Y-86838882D01*
X75380724Y-86836198D01*
X75380722Y-86836197D01*
X75218319Y-86763891D01*
X75218318Y-86763891D01*
X75212288Y-86761206D01*
X75118887Y-86741353D01*
X75031944Y-86722872D01*
X75031939Y-86722872D01*
X75025487Y-86721500D01*
X74834513Y-86721500D01*
X74828061Y-86722872D01*
X74828056Y-86722872D01*
X74741113Y-86741353D01*
X74647712Y-86761206D01*
X74641682Y-86763891D01*
X74641681Y-86763891D01*
X74479278Y-86836197D01*
X74479276Y-86836198D01*
X74473248Y-86838882D01*
X74318747Y-86951134D01*
X74314326Y-86956044D01*
X74314325Y-86956045D01*
X74282535Y-86991352D01*
X74190960Y-87093056D01*
X74187659Y-87098774D01*
X74102427Y-87246400D01*
X74095473Y-87258444D01*
X74036458Y-87440072D01*
X74035768Y-87446633D01*
X74035768Y-87446635D01*
X74027975Y-87520785D01*
X74016496Y-87630000D01*
X61468500Y-87630000D01*
X61468500Y-86449500D01*
X77826496Y-86449500D01*
X77827186Y-86456065D01*
X77845439Y-86629729D01*
X77846458Y-86639428D01*
X77905473Y-86821056D01*
X77908776Y-86826778D01*
X77908777Y-86826779D01*
X77929261Y-86862258D01*
X78000960Y-86986444D01*
X78005378Y-86991351D01*
X78005379Y-86991352D01*
X78102102Y-87098774D01*
X78128747Y-87128366D01*
X78283248Y-87240618D01*
X78289276Y-87243302D01*
X78289278Y-87243303D01*
X78451681Y-87315609D01*
X78457712Y-87318294D01*
X78526235Y-87332859D01*
X78638056Y-87356628D01*
X78638061Y-87356628D01*
X78644513Y-87358000D01*
X78835487Y-87358000D01*
X78841939Y-87356628D01*
X78841944Y-87356628D01*
X78953765Y-87332859D01*
X79022288Y-87318294D01*
X79028319Y-87315609D01*
X79190722Y-87243303D01*
X79190724Y-87243302D01*
X79196752Y-87240618D01*
X79351253Y-87128366D01*
X79377898Y-87098774D01*
X79471336Y-86995000D01*
X80366496Y-86995000D01*
X80367186Y-87001565D01*
X80384964Y-87170709D01*
X80386458Y-87184928D01*
X80445473Y-87366556D01*
X80448776Y-87372278D01*
X80448777Y-87372279D01*
X80473014Y-87414259D01*
X80540960Y-87531944D01*
X80668747Y-87673866D01*
X80823248Y-87786118D01*
X80829276Y-87788802D01*
X80829278Y-87788803D01*
X80942852Y-87839369D01*
X80997712Y-87863794D01*
X81091112Y-87883647D01*
X81178056Y-87902128D01*
X81178061Y-87902128D01*
X81184513Y-87903500D01*
X81375487Y-87903500D01*
X81381939Y-87902128D01*
X81381944Y-87902128D01*
X81468888Y-87883647D01*
X81562288Y-87863794D01*
X81617148Y-87839369D01*
X81730722Y-87788803D01*
X81730724Y-87788802D01*
X81736752Y-87786118D01*
X81891253Y-87673866D01*
X82019040Y-87531944D01*
X82043892Y-87488899D01*
X82095273Y-87439907D01*
X82164986Y-87426470D01*
X82230897Y-87452857D01*
X82272080Y-87510688D01*
X82278320Y-87565070D01*
X82271496Y-87630000D01*
X82272186Y-87636565D01*
X82288187Y-87788803D01*
X82291458Y-87819928D01*
X82350473Y-88001556D01*
X82353776Y-88007278D01*
X82353777Y-88007279D01*
X82370401Y-88036072D01*
X82445960Y-88166944D01*
X82450378Y-88171851D01*
X82450379Y-88171852D01*
X82487953Y-88213582D01*
X82573747Y-88308866D01*
X82728248Y-88421118D01*
X82734276Y-88423802D01*
X82734278Y-88423803D01*
X82896681Y-88496109D01*
X82902712Y-88498794D01*
X82976758Y-88514533D01*
X83083056Y-88537128D01*
X83083061Y-88537128D01*
X83089513Y-88538500D01*
X83280487Y-88538500D01*
X83286939Y-88537128D01*
X83286944Y-88537128D01*
X83393242Y-88514533D01*
X83467288Y-88498794D01*
X83473319Y-88496109D01*
X83635722Y-88423803D01*
X83635724Y-88423802D01*
X83641752Y-88421118D01*
X83796253Y-88308866D01*
X83882047Y-88213582D01*
X83919621Y-88171852D01*
X83919622Y-88171851D01*
X83924040Y-88166944D01*
X83999599Y-88036072D01*
X84016223Y-88007279D01*
X84016224Y-88007278D01*
X84019527Y-88001556D01*
X84078542Y-87819928D01*
X84081814Y-87788803D01*
X84097814Y-87636565D01*
X84098504Y-87630000D01*
X84087025Y-87520785D01*
X84079232Y-87446635D01*
X84079232Y-87446633D01*
X84078542Y-87440072D01*
X84019527Y-87258444D01*
X84012574Y-87246400D01*
X83927341Y-87098774D01*
X83924040Y-87093056D01*
X83835751Y-86995000D01*
X85446496Y-86995000D01*
X85447186Y-87001565D01*
X85464964Y-87170709D01*
X85466458Y-87184928D01*
X85525473Y-87366556D01*
X85528776Y-87372278D01*
X85528777Y-87372279D01*
X85553014Y-87414259D01*
X85620960Y-87531944D01*
X85748747Y-87673866D01*
X85903248Y-87786118D01*
X85909276Y-87788802D01*
X85909278Y-87788803D01*
X86022852Y-87839369D01*
X86077712Y-87863794D01*
X86171112Y-87883647D01*
X86258056Y-87902128D01*
X86258061Y-87902128D01*
X86264513Y-87903500D01*
X86455487Y-87903500D01*
X86461939Y-87902128D01*
X86461944Y-87902128D01*
X86548888Y-87883647D01*
X86642288Y-87863794D01*
X86697148Y-87839369D01*
X86810722Y-87788803D01*
X86810724Y-87788802D01*
X86816752Y-87786118D01*
X86823477Y-87781232D01*
X92866500Y-87781232D01*
X92866823Y-87784411D01*
X92875026Y-87865166D01*
X92881619Y-87930078D01*
X92941369Y-88120738D01*
X93038235Y-88295489D01*
X93042391Y-88300338D01*
X93148213Y-88423803D01*
X93168261Y-88447194D01*
X93173298Y-88451101D01*
X93173300Y-88451103D01*
X93321093Y-88565743D01*
X93321096Y-88565745D01*
X93326137Y-88569655D01*
X93331863Y-88572473D01*
X93331867Y-88572475D01*
X93441661Y-88626500D01*
X93505411Y-88657869D01*
X93594906Y-88681181D01*
X93692580Y-88706623D01*
X93692583Y-88706623D01*
X93698762Y-88708233D01*
X93792256Y-88713133D01*
X93891911Y-88718356D01*
X93891915Y-88718356D01*
X93898292Y-88718690D01*
X94095848Y-88688812D01*
X94283361Y-88619821D01*
X94407531Y-88542832D01*
X94447750Y-88517895D01*
X94447751Y-88517894D01*
X94453172Y-88514533D01*
X94598344Y-88377251D01*
X94712946Y-88213582D01*
X94792298Y-88030212D01*
X94833156Y-87834632D01*
X94833500Y-87828069D01*
X94833500Y-87381364D01*
X94821653Y-87264729D01*
X94819026Y-87238864D01*
X94819025Y-87238860D01*
X94818381Y-87232518D01*
X94770969Y-87081228D01*
X94760540Y-87047949D01*
X94760539Y-87047948D01*
X94758631Y-87041858D01*
X94661765Y-86867107D01*
X94640900Y-86842763D01*
X94535891Y-86720246D01*
X94535890Y-86720245D01*
X94531739Y-86715402D01*
X94526700Y-86711493D01*
X94378907Y-86596853D01*
X94378904Y-86596851D01*
X94373863Y-86592941D01*
X94368137Y-86590123D01*
X94368133Y-86590121D01*
X94200318Y-86507546D01*
X94194589Y-86504727D01*
X94075797Y-86473784D01*
X94007420Y-86455973D01*
X94007417Y-86455973D01*
X94001238Y-86454363D01*
X93907744Y-86449463D01*
X93808089Y-86444240D01*
X93808085Y-86444240D01*
X93801708Y-86443906D01*
X93604152Y-86473784D01*
X93416639Y-86542775D01*
X93335730Y-86592941D01*
X93260755Y-86639428D01*
X93246828Y-86648063D01*
X93101656Y-86785345D01*
X92987054Y-86949014D01*
X92907702Y-87132384D01*
X92866844Y-87327964D01*
X92866500Y-87334527D01*
X92866500Y-87781232D01*
X86823477Y-87781232D01*
X86971253Y-87673866D01*
X87099040Y-87531944D01*
X87166986Y-87414259D01*
X87191223Y-87372279D01*
X87191224Y-87372278D01*
X87194527Y-87366556D01*
X87253542Y-87184928D01*
X87255037Y-87170709D01*
X87272814Y-87001565D01*
X87273504Y-86995000D01*
X87260062Y-86867107D01*
X87254232Y-86811635D01*
X87254232Y-86811633D01*
X87253542Y-86805072D01*
X87194527Y-86623444D01*
X87099040Y-86458056D01*
X87083732Y-86441054D01*
X86975675Y-86321045D01*
X86975674Y-86321044D01*
X86971253Y-86316134D01*
X86816752Y-86203882D01*
X86810724Y-86201198D01*
X86810722Y-86201197D01*
X86648319Y-86128891D01*
X86648318Y-86128891D01*
X86642288Y-86126206D01*
X86548888Y-86106353D01*
X86461944Y-86087872D01*
X86461939Y-86087872D01*
X86455487Y-86086500D01*
X86264513Y-86086500D01*
X86258061Y-86087872D01*
X86258056Y-86087872D01*
X86171112Y-86106353D01*
X86077712Y-86126206D01*
X86071682Y-86128891D01*
X86071681Y-86128891D01*
X85909278Y-86201197D01*
X85909276Y-86201198D01*
X85903248Y-86203882D01*
X85748747Y-86316134D01*
X85744326Y-86321044D01*
X85744325Y-86321045D01*
X85636269Y-86441054D01*
X85620960Y-86458056D01*
X85525473Y-86623444D01*
X85466458Y-86805072D01*
X85465768Y-86811633D01*
X85465768Y-86811635D01*
X85459938Y-86867107D01*
X85446496Y-86995000D01*
X83835751Y-86995000D01*
X83832466Y-86991352D01*
X83800675Y-86956045D01*
X83800674Y-86956044D01*
X83796253Y-86951134D01*
X83641752Y-86838882D01*
X83635724Y-86836198D01*
X83635722Y-86836197D01*
X83473319Y-86763891D01*
X83473318Y-86763891D01*
X83467288Y-86761206D01*
X83373887Y-86741353D01*
X83286944Y-86722872D01*
X83286939Y-86722872D01*
X83280487Y-86721500D01*
X83089513Y-86721500D01*
X83083061Y-86722872D01*
X83083056Y-86722872D01*
X82996113Y-86741353D01*
X82902712Y-86761206D01*
X82896682Y-86763891D01*
X82896681Y-86763891D01*
X82734278Y-86836197D01*
X82734276Y-86836198D01*
X82728248Y-86838882D01*
X82573747Y-86951134D01*
X82569326Y-86956044D01*
X82569325Y-86956045D01*
X82537535Y-86991352D01*
X82445960Y-87093056D01*
X82421108Y-87136101D01*
X82369727Y-87185093D01*
X82300014Y-87198530D01*
X82234103Y-87172143D01*
X82192920Y-87114312D01*
X82186680Y-87059930D01*
X82192814Y-87001565D01*
X82193504Y-86995000D01*
X82180062Y-86867107D01*
X82174232Y-86811635D01*
X82174232Y-86811633D01*
X82173542Y-86805072D01*
X82114527Y-86623444D01*
X82019040Y-86458056D01*
X82003732Y-86441054D01*
X81895675Y-86321045D01*
X81895674Y-86321044D01*
X81891253Y-86316134D01*
X81736752Y-86203882D01*
X81730724Y-86201198D01*
X81730722Y-86201197D01*
X81568319Y-86128891D01*
X81568318Y-86128891D01*
X81562288Y-86126206D01*
X81468888Y-86106353D01*
X81381944Y-86087872D01*
X81381939Y-86087872D01*
X81375487Y-86086500D01*
X81184513Y-86086500D01*
X81178061Y-86087872D01*
X81178056Y-86087872D01*
X81091112Y-86106353D01*
X80997712Y-86126206D01*
X80991682Y-86128891D01*
X80991681Y-86128891D01*
X80829278Y-86201197D01*
X80829276Y-86201198D01*
X80823248Y-86203882D01*
X80668747Y-86316134D01*
X80664326Y-86321044D01*
X80664325Y-86321045D01*
X80556269Y-86441054D01*
X80540960Y-86458056D01*
X80445473Y-86623444D01*
X80386458Y-86805072D01*
X80385768Y-86811633D01*
X80385768Y-86811635D01*
X80379938Y-86867107D01*
X80366496Y-86995000D01*
X79471336Y-86995000D01*
X79474621Y-86991352D01*
X79474622Y-86991351D01*
X79479040Y-86986444D01*
X79550739Y-86862258D01*
X79571223Y-86826779D01*
X79571224Y-86826778D01*
X79574527Y-86821056D01*
X79633542Y-86639428D01*
X79634562Y-86629729D01*
X79652814Y-86456065D01*
X79653504Y-86449500D01*
X79633542Y-86259572D01*
X79574527Y-86077944D01*
X79569552Y-86069326D01*
X79486458Y-85925405D01*
X79479040Y-85912556D01*
X79432099Y-85860422D01*
X79355675Y-85775545D01*
X79355674Y-85775544D01*
X79351253Y-85770634D01*
X79196752Y-85658382D01*
X79190724Y-85655698D01*
X79190722Y-85655697D01*
X79028319Y-85583391D01*
X79028318Y-85583391D01*
X79022288Y-85580706D01*
X78928888Y-85560853D01*
X78841944Y-85542372D01*
X78841939Y-85542372D01*
X78835487Y-85541000D01*
X78644513Y-85541000D01*
X78638061Y-85542372D01*
X78638056Y-85542372D01*
X78551112Y-85560853D01*
X78457712Y-85580706D01*
X78451682Y-85583391D01*
X78451681Y-85583391D01*
X78289278Y-85655697D01*
X78289276Y-85655698D01*
X78283248Y-85658382D01*
X78128747Y-85770634D01*
X78124326Y-85775544D01*
X78124325Y-85775545D01*
X78047902Y-85860422D01*
X78000960Y-85912556D01*
X77993542Y-85925405D01*
X77910449Y-86069326D01*
X77905473Y-86077944D01*
X77846458Y-86259572D01*
X77826496Y-86449500D01*
X61468500Y-86449500D01*
X61468500Y-84728134D01*
X62141500Y-84728134D01*
X62148255Y-84790316D01*
X62199385Y-84926705D01*
X62286739Y-85043261D01*
X62403295Y-85130615D01*
X62539684Y-85181745D01*
X62601866Y-85188500D01*
X64398134Y-85188500D01*
X64460316Y-85181745D01*
X64596705Y-85130615D01*
X64713261Y-85043261D01*
X64800615Y-84926705D01*
X64830136Y-84847958D01*
X64844598Y-84809382D01*
X64887240Y-84752618D01*
X64953802Y-84727918D01*
X65023150Y-84743126D01*
X65057817Y-84771114D01*
X65086250Y-84803938D01*
X65258126Y-84946632D01*
X65451000Y-85059338D01*
X65659692Y-85139030D01*
X65664760Y-85140061D01*
X65664763Y-85140062D01*
X65761391Y-85159721D01*
X65878597Y-85183567D01*
X65883772Y-85183757D01*
X65883774Y-85183757D01*
X66096673Y-85191564D01*
X66096677Y-85191564D01*
X66101837Y-85191753D01*
X66106957Y-85191097D01*
X66106959Y-85191097D01*
X66318288Y-85164025D01*
X66318289Y-85164025D01*
X66323416Y-85163368D01*
X66365487Y-85150746D01*
X66532429Y-85100661D01*
X66532434Y-85100659D01*
X66537384Y-85099174D01*
X66737994Y-85000896D01*
X66919860Y-84871173D01*
X67078096Y-84713489D01*
X67137594Y-84630689D01*
X67208453Y-84532077D01*
X67209776Y-84533028D01*
X67256645Y-84489857D01*
X67326580Y-84477625D01*
X67392026Y-84505144D01*
X67419875Y-84536994D01*
X67479987Y-84635088D01*
X67626250Y-84803938D01*
X67798126Y-84946632D01*
X67991000Y-85059338D01*
X68199692Y-85139030D01*
X68204760Y-85140061D01*
X68204763Y-85140062D01*
X68301391Y-85159721D01*
X68418597Y-85183567D01*
X68423772Y-85183757D01*
X68423774Y-85183757D01*
X68636673Y-85191564D01*
X68636677Y-85191564D01*
X68641837Y-85191753D01*
X68646957Y-85191097D01*
X68646959Y-85191097D01*
X68858288Y-85164025D01*
X68858289Y-85164025D01*
X68863416Y-85163368D01*
X68905487Y-85150746D01*
X69072429Y-85100661D01*
X69072434Y-85100659D01*
X69077384Y-85099174D01*
X69277994Y-85000896D01*
X69459860Y-84871173D01*
X69618096Y-84713489D01*
X69677594Y-84630689D01*
X69748453Y-84532077D01*
X69749776Y-84533028D01*
X69796645Y-84489857D01*
X69866580Y-84477625D01*
X69932026Y-84505144D01*
X69959875Y-84536994D01*
X70019987Y-84635088D01*
X70166250Y-84803938D01*
X70338126Y-84946632D01*
X70531000Y-85059338D01*
X70739692Y-85139030D01*
X70744760Y-85140061D01*
X70744763Y-85140062D01*
X70841391Y-85159721D01*
X70958597Y-85183567D01*
X70963772Y-85183757D01*
X70963774Y-85183757D01*
X71176673Y-85191564D01*
X71176677Y-85191564D01*
X71181837Y-85191753D01*
X71186957Y-85191097D01*
X71186959Y-85191097D01*
X71398288Y-85164025D01*
X71398289Y-85164025D01*
X71403416Y-85163368D01*
X71445487Y-85150746D01*
X71612429Y-85100661D01*
X71612434Y-85100659D01*
X71617384Y-85099174D01*
X71817994Y-85000896D01*
X71999860Y-84871173D01*
X72158096Y-84713489D01*
X72217594Y-84630689D01*
X72288453Y-84532077D01*
X72289776Y-84533028D01*
X72336645Y-84489857D01*
X72406580Y-84477625D01*
X72472026Y-84505144D01*
X72499875Y-84536994D01*
X72559987Y-84635088D01*
X72706250Y-84803938D01*
X72878126Y-84946632D01*
X73071000Y-85059338D01*
X73279692Y-85139030D01*
X73284760Y-85140061D01*
X73284763Y-85140062D01*
X73381391Y-85159721D01*
X73498597Y-85183567D01*
X73503772Y-85183757D01*
X73503774Y-85183757D01*
X73716673Y-85191564D01*
X73716677Y-85191564D01*
X73721837Y-85191753D01*
X73726957Y-85191097D01*
X73726959Y-85191097D01*
X73938288Y-85164025D01*
X73938289Y-85164025D01*
X73943416Y-85163368D01*
X73985487Y-85150746D01*
X74152429Y-85100661D01*
X74152434Y-85100659D01*
X74157384Y-85099174D01*
X74357994Y-85000896D01*
X74539860Y-84871173D01*
X74698096Y-84713489D01*
X74757594Y-84630689D01*
X74828453Y-84532077D01*
X74829776Y-84533028D01*
X74876645Y-84489857D01*
X74946580Y-84477625D01*
X75012026Y-84505144D01*
X75039875Y-84536994D01*
X75099987Y-84635088D01*
X75246250Y-84803938D01*
X75418126Y-84946632D01*
X75611000Y-85059338D01*
X75819692Y-85139030D01*
X75824760Y-85140061D01*
X75824763Y-85140062D01*
X75921391Y-85159721D01*
X76038597Y-85183567D01*
X76043772Y-85183757D01*
X76043774Y-85183757D01*
X76256673Y-85191564D01*
X76256677Y-85191564D01*
X76261837Y-85191753D01*
X76266957Y-85191097D01*
X76266959Y-85191097D01*
X76478288Y-85164025D01*
X76478289Y-85164025D01*
X76483416Y-85163368D01*
X76525487Y-85150746D01*
X76692429Y-85100661D01*
X76692434Y-85100659D01*
X76697384Y-85099174D01*
X76897994Y-85000896D01*
X77079860Y-84871173D01*
X77238096Y-84713489D01*
X77297594Y-84630689D01*
X77368453Y-84532077D01*
X77369776Y-84533028D01*
X77416645Y-84489857D01*
X77486580Y-84477625D01*
X77552026Y-84505144D01*
X77579875Y-84536994D01*
X77639987Y-84635088D01*
X77786250Y-84803938D01*
X77958126Y-84946632D01*
X78151000Y-85059338D01*
X78359692Y-85139030D01*
X78364760Y-85140061D01*
X78364763Y-85140062D01*
X78461391Y-85159721D01*
X78578597Y-85183567D01*
X78583772Y-85183757D01*
X78583774Y-85183757D01*
X78796673Y-85191564D01*
X78796677Y-85191564D01*
X78801837Y-85191753D01*
X78806957Y-85191097D01*
X78806959Y-85191097D01*
X79018288Y-85164025D01*
X79018289Y-85164025D01*
X79023416Y-85163368D01*
X79065487Y-85150746D01*
X79232429Y-85100661D01*
X79232434Y-85100659D01*
X79237384Y-85099174D01*
X79437994Y-85000896D01*
X79619860Y-84871173D01*
X79778096Y-84713489D01*
X79837594Y-84630689D01*
X79908453Y-84532077D01*
X79909776Y-84533028D01*
X79956645Y-84489857D01*
X80026580Y-84477625D01*
X80092026Y-84505144D01*
X80119875Y-84536994D01*
X80179987Y-84635088D01*
X80326250Y-84803938D01*
X80498126Y-84946632D01*
X80691000Y-85059338D01*
X80899692Y-85139030D01*
X80904760Y-85140061D01*
X80904763Y-85140062D01*
X81001391Y-85159721D01*
X81118597Y-85183567D01*
X81123772Y-85183757D01*
X81123774Y-85183757D01*
X81336673Y-85191564D01*
X81336677Y-85191564D01*
X81341837Y-85191753D01*
X81346957Y-85191097D01*
X81346959Y-85191097D01*
X81558288Y-85164025D01*
X81558289Y-85164025D01*
X81563416Y-85163368D01*
X81605487Y-85150746D01*
X81772429Y-85100661D01*
X81772434Y-85100659D01*
X81777384Y-85099174D01*
X81977994Y-85000896D01*
X82159860Y-84871173D01*
X82318096Y-84713489D01*
X82377594Y-84630689D01*
X82448453Y-84532077D01*
X82449776Y-84533028D01*
X82496645Y-84489857D01*
X82566580Y-84477625D01*
X82632026Y-84505144D01*
X82659875Y-84536994D01*
X82719987Y-84635088D01*
X82866250Y-84803938D01*
X83038126Y-84946632D01*
X83231000Y-85059338D01*
X83439692Y-85139030D01*
X83444760Y-85140061D01*
X83444763Y-85140062D01*
X83541391Y-85159721D01*
X83658597Y-85183567D01*
X83663772Y-85183757D01*
X83663774Y-85183757D01*
X83876673Y-85191564D01*
X83876677Y-85191564D01*
X83881837Y-85191753D01*
X83886957Y-85191097D01*
X83886959Y-85191097D01*
X84098288Y-85164025D01*
X84098289Y-85164025D01*
X84103416Y-85163368D01*
X84145487Y-85150746D01*
X84312429Y-85100661D01*
X84312434Y-85100659D01*
X84317384Y-85099174D01*
X84517994Y-85000896D01*
X84699860Y-84871173D01*
X84858096Y-84713489D01*
X84917594Y-84630689D01*
X84988453Y-84532077D01*
X84989776Y-84533028D01*
X85036645Y-84489857D01*
X85106580Y-84477625D01*
X85172026Y-84505144D01*
X85199875Y-84536994D01*
X85259987Y-84635088D01*
X85406250Y-84803938D01*
X85578126Y-84946632D01*
X85771000Y-85059338D01*
X85979692Y-85139030D01*
X85984760Y-85140061D01*
X85984763Y-85140062D01*
X86081391Y-85159721D01*
X86198597Y-85183567D01*
X86203772Y-85183757D01*
X86203774Y-85183757D01*
X86416673Y-85191564D01*
X86416677Y-85191564D01*
X86421837Y-85191753D01*
X86426957Y-85191097D01*
X86426959Y-85191097D01*
X86638288Y-85164025D01*
X86638289Y-85164025D01*
X86643416Y-85163368D01*
X86685487Y-85150746D01*
X86852429Y-85100661D01*
X86852434Y-85100659D01*
X86857384Y-85099174D01*
X87057994Y-85000896D01*
X87239860Y-84871173D01*
X87398096Y-84713489D01*
X87457594Y-84630689D01*
X87525435Y-84536277D01*
X87528453Y-84532077D01*
X87549320Y-84489857D01*
X87625136Y-84336453D01*
X87625137Y-84336451D01*
X87627430Y-84331811D01*
X87692370Y-84118069D01*
X87721529Y-83896590D01*
X87723156Y-83830000D01*
X87720418Y-83796695D01*
X90077251Y-83796695D01*
X90077548Y-83801848D01*
X90077548Y-83801851D01*
X90083011Y-83896590D01*
X90090110Y-84019715D01*
X90091247Y-84024761D01*
X90091248Y-84024767D01*
X90111119Y-84112939D01*
X90139222Y-84237639D01*
X90223266Y-84444616D01*
X90274019Y-84527438D01*
X90337291Y-84630688D01*
X90339987Y-84635088D01*
X90486250Y-84803938D01*
X90658126Y-84946632D01*
X90851000Y-85059338D01*
X91059692Y-85139030D01*
X91064760Y-85140061D01*
X91064763Y-85140062D01*
X91161391Y-85159721D01*
X91278597Y-85183567D01*
X91283772Y-85183757D01*
X91283774Y-85183757D01*
X91496673Y-85191564D01*
X91496677Y-85191564D01*
X91501837Y-85191753D01*
X91506957Y-85191097D01*
X91506959Y-85191097D01*
X91718288Y-85164025D01*
X91718289Y-85164025D01*
X91723416Y-85163368D01*
X91765487Y-85150746D01*
X91932429Y-85100661D01*
X91932434Y-85100659D01*
X91937384Y-85099174D01*
X92137994Y-85000896D01*
X92319860Y-84871173D01*
X92478096Y-84713489D01*
X92537594Y-84630689D01*
X92605435Y-84536277D01*
X92608453Y-84532077D01*
X92629320Y-84489857D01*
X92705136Y-84336453D01*
X92705137Y-84336451D01*
X92707430Y-84331811D01*
X92772370Y-84118069D01*
X92801529Y-83896590D01*
X92803156Y-83830000D01*
X92784852Y-83607361D01*
X92730431Y-83390702D01*
X92641354Y-83185840D01*
X92520014Y-82998277D01*
X92369670Y-82833051D01*
X92365619Y-82829852D01*
X92365615Y-82829848D01*
X92198414Y-82697800D01*
X92198410Y-82697798D01*
X92194359Y-82694598D01*
X91998789Y-82586638D01*
X91993920Y-82584914D01*
X91993916Y-82584912D01*
X91793087Y-82513795D01*
X91793083Y-82513794D01*
X91788212Y-82512069D01*
X91783119Y-82511162D01*
X91783116Y-82511161D01*
X91573373Y-82473800D01*
X91573367Y-82473799D01*
X91568284Y-82472894D01*
X91494452Y-82471992D01*
X91350081Y-82470228D01*
X91350079Y-82470228D01*
X91344911Y-82470165D01*
X91124091Y-82503955D01*
X90911756Y-82573357D01*
X90713607Y-82676507D01*
X90709474Y-82679610D01*
X90709471Y-82679612D01*
X90539100Y-82807530D01*
X90534965Y-82810635D01*
X90531393Y-82814373D01*
X90423729Y-82927037D01*
X90380629Y-82972138D01*
X90254743Y-83156680D01*
X90160688Y-83359305D01*
X90100989Y-83574570D01*
X90077251Y-83796695D01*
X87720418Y-83796695D01*
X87704852Y-83607361D01*
X87650431Y-83390702D01*
X87561354Y-83185840D01*
X87440014Y-82998277D01*
X87289670Y-82833051D01*
X87285619Y-82829852D01*
X87285615Y-82829848D01*
X87118414Y-82697800D01*
X87118410Y-82697798D01*
X87114359Y-82694598D01*
X86918789Y-82586638D01*
X86913920Y-82584914D01*
X86913916Y-82584912D01*
X86713087Y-82513795D01*
X86713083Y-82513794D01*
X86708212Y-82512069D01*
X86703119Y-82511162D01*
X86703116Y-82511161D01*
X86493373Y-82473800D01*
X86493367Y-82473799D01*
X86488284Y-82472894D01*
X86414452Y-82471992D01*
X86270081Y-82470228D01*
X86270079Y-82470228D01*
X86264911Y-82470165D01*
X86044091Y-82503955D01*
X85831756Y-82573357D01*
X85633607Y-82676507D01*
X85629474Y-82679610D01*
X85629471Y-82679612D01*
X85459100Y-82807530D01*
X85454965Y-82810635D01*
X85451393Y-82814373D01*
X85343729Y-82927037D01*
X85300629Y-82972138D01*
X85193201Y-83129621D01*
X85138293Y-83174621D01*
X85067768Y-83182792D01*
X85004021Y-83151538D01*
X84983324Y-83127054D01*
X84902822Y-83002617D01*
X84902820Y-83002614D01*
X84900014Y-82998277D01*
X84749670Y-82833051D01*
X84745619Y-82829852D01*
X84745615Y-82829848D01*
X84578414Y-82697800D01*
X84578410Y-82697798D01*
X84574359Y-82694598D01*
X84378789Y-82586638D01*
X84373920Y-82584914D01*
X84373916Y-82584912D01*
X84173087Y-82513795D01*
X84173083Y-82513794D01*
X84168212Y-82512069D01*
X84163119Y-82511162D01*
X84163116Y-82511161D01*
X83953373Y-82473800D01*
X83953367Y-82473799D01*
X83948284Y-82472894D01*
X83874452Y-82471992D01*
X83730081Y-82470228D01*
X83730079Y-82470228D01*
X83724911Y-82470165D01*
X83504091Y-82503955D01*
X83291756Y-82573357D01*
X83093607Y-82676507D01*
X83089474Y-82679610D01*
X83089471Y-82679612D01*
X82919100Y-82807530D01*
X82914965Y-82810635D01*
X82911393Y-82814373D01*
X82803729Y-82927037D01*
X82760629Y-82972138D01*
X82653201Y-83129621D01*
X82598293Y-83174621D01*
X82527768Y-83182792D01*
X82464021Y-83151538D01*
X82443324Y-83127054D01*
X82362822Y-83002617D01*
X82362820Y-83002614D01*
X82360014Y-82998277D01*
X82209670Y-82833051D01*
X82205619Y-82829852D01*
X82205615Y-82829848D01*
X82038414Y-82697800D01*
X82038410Y-82697798D01*
X82034359Y-82694598D01*
X81838789Y-82586638D01*
X81833920Y-82584914D01*
X81833916Y-82584912D01*
X81633087Y-82513795D01*
X81633083Y-82513794D01*
X81628212Y-82512069D01*
X81623119Y-82511162D01*
X81623116Y-82511161D01*
X81413373Y-82473800D01*
X81413367Y-82473799D01*
X81408284Y-82472894D01*
X81334452Y-82471992D01*
X81190081Y-82470228D01*
X81190079Y-82470228D01*
X81184911Y-82470165D01*
X80964091Y-82503955D01*
X80751756Y-82573357D01*
X80553607Y-82676507D01*
X80549474Y-82679610D01*
X80549471Y-82679612D01*
X80379100Y-82807530D01*
X80374965Y-82810635D01*
X80371393Y-82814373D01*
X80263729Y-82927037D01*
X80220629Y-82972138D01*
X80113201Y-83129621D01*
X80058293Y-83174621D01*
X79987768Y-83182792D01*
X79924021Y-83151538D01*
X79903324Y-83127054D01*
X79822822Y-83002617D01*
X79822820Y-83002614D01*
X79820014Y-82998277D01*
X79669670Y-82833051D01*
X79665619Y-82829852D01*
X79665615Y-82829848D01*
X79498414Y-82697800D01*
X79498410Y-82697798D01*
X79494359Y-82694598D01*
X79298789Y-82586638D01*
X79293920Y-82584914D01*
X79293916Y-82584912D01*
X79093087Y-82513795D01*
X79093083Y-82513794D01*
X79088212Y-82512069D01*
X79083119Y-82511162D01*
X79083116Y-82511161D01*
X78873373Y-82473800D01*
X78873367Y-82473799D01*
X78868284Y-82472894D01*
X78794452Y-82471992D01*
X78650081Y-82470228D01*
X78650079Y-82470228D01*
X78644911Y-82470165D01*
X78424091Y-82503955D01*
X78211756Y-82573357D01*
X78013607Y-82676507D01*
X78009474Y-82679610D01*
X78009471Y-82679612D01*
X77839100Y-82807530D01*
X77834965Y-82810635D01*
X77831393Y-82814373D01*
X77723729Y-82927037D01*
X77680629Y-82972138D01*
X77573201Y-83129621D01*
X77518293Y-83174621D01*
X77447768Y-83182792D01*
X77384021Y-83151538D01*
X77363324Y-83127054D01*
X77282822Y-83002617D01*
X77282820Y-83002614D01*
X77280014Y-82998277D01*
X77129670Y-82833051D01*
X77125619Y-82829852D01*
X77125615Y-82829848D01*
X76958414Y-82697800D01*
X76958410Y-82697798D01*
X76954359Y-82694598D01*
X76758789Y-82586638D01*
X76753920Y-82584914D01*
X76753916Y-82584912D01*
X76553087Y-82513795D01*
X76553083Y-82513794D01*
X76548212Y-82512069D01*
X76543119Y-82511162D01*
X76543116Y-82511161D01*
X76333373Y-82473800D01*
X76333367Y-82473799D01*
X76328284Y-82472894D01*
X76254452Y-82471992D01*
X76110081Y-82470228D01*
X76110079Y-82470228D01*
X76104911Y-82470165D01*
X75884091Y-82503955D01*
X75671756Y-82573357D01*
X75473607Y-82676507D01*
X75469474Y-82679610D01*
X75469471Y-82679612D01*
X75299100Y-82807530D01*
X75294965Y-82810635D01*
X75291393Y-82814373D01*
X75183729Y-82927037D01*
X75140629Y-82972138D01*
X75033201Y-83129621D01*
X74978293Y-83174621D01*
X74907768Y-83182792D01*
X74844021Y-83151538D01*
X74823324Y-83127054D01*
X74742822Y-83002617D01*
X74742820Y-83002614D01*
X74740014Y-82998277D01*
X74589670Y-82833051D01*
X74585619Y-82829852D01*
X74585615Y-82829848D01*
X74418414Y-82697800D01*
X74418410Y-82697798D01*
X74414359Y-82694598D01*
X74218789Y-82586638D01*
X74213920Y-82584914D01*
X74213916Y-82584912D01*
X74013087Y-82513795D01*
X74013083Y-82513794D01*
X74008212Y-82512069D01*
X74003119Y-82511162D01*
X74003116Y-82511161D01*
X73793373Y-82473800D01*
X73793367Y-82473799D01*
X73788284Y-82472894D01*
X73714452Y-82471992D01*
X73570081Y-82470228D01*
X73570079Y-82470228D01*
X73564911Y-82470165D01*
X73344091Y-82503955D01*
X73131756Y-82573357D01*
X72933607Y-82676507D01*
X72929474Y-82679610D01*
X72929471Y-82679612D01*
X72759100Y-82807530D01*
X72754965Y-82810635D01*
X72751393Y-82814373D01*
X72643729Y-82927037D01*
X72600629Y-82972138D01*
X72493201Y-83129621D01*
X72438293Y-83174621D01*
X72367768Y-83182792D01*
X72304021Y-83151538D01*
X72283324Y-83127054D01*
X72202822Y-83002617D01*
X72202820Y-83002614D01*
X72200014Y-82998277D01*
X72049670Y-82833051D01*
X72045619Y-82829852D01*
X72045615Y-82829848D01*
X71878414Y-82697800D01*
X71878410Y-82697798D01*
X71874359Y-82694598D01*
X71678789Y-82586638D01*
X71673920Y-82584914D01*
X71673916Y-82584912D01*
X71473087Y-82513795D01*
X71473083Y-82513794D01*
X71468212Y-82512069D01*
X71463119Y-82511162D01*
X71463116Y-82511161D01*
X71253373Y-82473800D01*
X71253367Y-82473799D01*
X71248284Y-82472894D01*
X71174452Y-82471992D01*
X71030081Y-82470228D01*
X71030079Y-82470228D01*
X71024911Y-82470165D01*
X70804091Y-82503955D01*
X70591756Y-82573357D01*
X70393607Y-82676507D01*
X70389474Y-82679610D01*
X70389471Y-82679612D01*
X70219100Y-82807530D01*
X70214965Y-82810635D01*
X70211393Y-82814373D01*
X70103729Y-82927037D01*
X70060629Y-82972138D01*
X69953201Y-83129621D01*
X69898293Y-83174621D01*
X69827768Y-83182792D01*
X69764021Y-83151538D01*
X69743324Y-83127054D01*
X69662822Y-83002617D01*
X69662820Y-83002614D01*
X69660014Y-82998277D01*
X69509670Y-82833051D01*
X69505619Y-82829852D01*
X69505615Y-82829848D01*
X69338414Y-82697800D01*
X69338410Y-82697798D01*
X69334359Y-82694598D01*
X69138789Y-82586638D01*
X69133920Y-82584914D01*
X69133916Y-82584912D01*
X68933087Y-82513795D01*
X68933083Y-82513794D01*
X68928212Y-82512069D01*
X68923119Y-82511162D01*
X68923116Y-82511161D01*
X68713373Y-82473800D01*
X68713367Y-82473799D01*
X68708284Y-82472894D01*
X68634452Y-82471992D01*
X68490081Y-82470228D01*
X68490079Y-82470228D01*
X68484911Y-82470165D01*
X68264091Y-82503955D01*
X68051756Y-82573357D01*
X67853607Y-82676507D01*
X67849474Y-82679610D01*
X67849471Y-82679612D01*
X67679100Y-82807530D01*
X67674965Y-82810635D01*
X67671393Y-82814373D01*
X67563729Y-82927037D01*
X67520629Y-82972138D01*
X67413201Y-83129621D01*
X67358293Y-83174621D01*
X67287768Y-83182792D01*
X67224021Y-83151538D01*
X67203324Y-83127054D01*
X67122822Y-83002617D01*
X67122820Y-83002614D01*
X67120014Y-82998277D01*
X66969670Y-82833051D01*
X66965619Y-82829852D01*
X66965615Y-82829848D01*
X66798414Y-82697800D01*
X66798410Y-82697798D01*
X66794359Y-82694598D01*
X66598789Y-82586638D01*
X66593920Y-82584914D01*
X66593916Y-82584912D01*
X66393087Y-82513795D01*
X66393083Y-82513794D01*
X66388212Y-82512069D01*
X66383119Y-82511162D01*
X66383116Y-82511161D01*
X66173373Y-82473800D01*
X66173367Y-82473799D01*
X66168284Y-82472894D01*
X66094452Y-82471992D01*
X65950081Y-82470228D01*
X65950079Y-82470228D01*
X65944911Y-82470165D01*
X65724091Y-82503955D01*
X65511756Y-82573357D01*
X65313607Y-82676507D01*
X65309474Y-82679610D01*
X65309471Y-82679612D01*
X65139100Y-82807530D01*
X65134965Y-82810635D01*
X65078537Y-82869684D01*
X65054283Y-82895064D01*
X64992759Y-82930494D01*
X64921846Y-82927037D01*
X64864060Y-82885791D01*
X64845207Y-82852243D01*
X64803767Y-82741703D01*
X64800615Y-82733295D01*
X64713261Y-82616739D01*
X64596705Y-82529385D01*
X64460316Y-82478255D01*
X64398134Y-82471500D01*
X62601866Y-82471500D01*
X62539684Y-82478255D01*
X62403295Y-82529385D01*
X62286739Y-82616739D01*
X62199385Y-82733295D01*
X62148255Y-82869684D01*
X62141500Y-82931866D01*
X62141500Y-84728134D01*
X61468500Y-84728134D01*
X61468500Y-80020000D01*
X63456502Y-80020000D01*
X63476457Y-80248087D01*
X63477881Y-80253400D01*
X63477881Y-80253402D01*
X63531614Y-80453933D01*
X63535716Y-80469243D01*
X63538039Y-80474224D01*
X63538039Y-80474225D01*
X63630151Y-80671762D01*
X63630154Y-80671767D01*
X63632477Y-80676749D01*
X63705902Y-80781611D01*
X63759529Y-80858197D01*
X63763802Y-80864300D01*
X63925700Y-81026198D01*
X63930208Y-81029355D01*
X63930211Y-81029357D01*
X63969268Y-81056705D01*
X64113251Y-81157523D01*
X64118233Y-81159846D01*
X64118238Y-81159849D01*
X64302363Y-81245707D01*
X64320757Y-81254284D01*
X64326065Y-81255706D01*
X64326067Y-81255707D01*
X64536598Y-81312119D01*
X64536600Y-81312119D01*
X64541913Y-81313543D01*
X64770000Y-81333498D01*
X64998087Y-81313543D01*
X65003400Y-81312119D01*
X65003402Y-81312119D01*
X65213933Y-81255707D01*
X65213935Y-81255706D01*
X65219243Y-81254284D01*
X65237637Y-81245707D01*
X65421762Y-81159849D01*
X65421767Y-81159846D01*
X65426749Y-81157523D01*
X65570732Y-81056705D01*
X65609789Y-81029357D01*
X65609792Y-81029355D01*
X65614300Y-81026198D01*
X65776198Y-80864300D01*
X65780472Y-80858197D01*
X65834098Y-80781611D01*
X65907523Y-80676749D01*
X65909846Y-80671767D01*
X65909849Y-80671762D01*
X65925805Y-80637543D01*
X65972722Y-80584258D01*
X66040999Y-80564797D01*
X66108959Y-80585339D01*
X66154195Y-80637543D01*
X66170151Y-80671762D01*
X66170154Y-80671767D01*
X66172477Y-80676749D01*
X66245902Y-80781611D01*
X66299529Y-80858197D01*
X66303802Y-80864300D01*
X66465700Y-81026198D01*
X66470208Y-81029355D01*
X66470211Y-81029357D01*
X66509268Y-81056705D01*
X66653251Y-81157523D01*
X66658233Y-81159846D01*
X66658238Y-81159849D01*
X66842363Y-81245707D01*
X66860757Y-81254284D01*
X66866065Y-81255706D01*
X66866067Y-81255707D01*
X67076598Y-81312119D01*
X67076600Y-81312119D01*
X67081913Y-81313543D01*
X67310000Y-81333498D01*
X67538087Y-81313543D01*
X67543400Y-81312119D01*
X67543402Y-81312119D01*
X67753933Y-81255707D01*
X67753935Y-81255706D01*
X67759243Y-81254284D01*
X67777637Y-81245707D01*
X67961762Y-81159849D01*
X67961767Y-81159846D01*
X67966749Y-81157523D01*
X68110732Y-81056705D01*
X68149789Y-81029357D01*
X68149792Y-81029355D01*
X68154300Y-81026198D01*
X68316198Y-80864300D01*
X68320472Y-80858197D01*
X68374098Y-80781611D01*
X68447523Y-80676749D01*
X68449846Y-80671767D01*
X68449849Y-80671762D01*
X68465805Y-80637543D01*
X68512722Y-80584258D01*
X68580999Y-80564797D01*
X68648959Y-80585339D01*
X68694195Y-80637543D01*
X68710151Y-80671762D01*
X68710154Y-80671767D01*
X68712477Y-80676749D01*
X68785902Y-80781611D01*
X68839529Y-80858197D01*
X68843802Y-80864300D01*
X69005700Y-81026198D01*
X69010208Y-81029355D01*
X69010211Y-81029357D01*
X69049268Y-81056705D01*
X69193251Y-81157523D01*
X69198233Y-81159846D01*
X69198238Y-81159849D01*
X69382363Y-81245707D01*
X69400757Y-81254284D01*
X69406065Y-81255706D01*
X69406067Y-81255707D01*
X69616598Y-81312119D01*
X69616600Y-81312119D01*
X69621913Y-81313543D01*
X69850000Y-81333498D01*
X70078087Y-81313543D01*
X70083400Y-81312119D01*
X70083402Y-81312119D01*
X70293933Y-81255707D01*
X70293935Y-81255706D01*
X70299243Y-81254284D01*
X70317637Y-81245707D01*
X70501762Y-81159849D01*
X70501767Y-81159846D01*
X70506749Y-81157523D01*
X70650732Y-81056705D01*
X70689789Y-81029357D01*
X70689792Y-81029355D01*
X70694300Y-81026198D01*
X70856198Y-80864300D01*
X70860472Y-80858197D01*
X70914098Y-80781611D01*
X70987523Y-80676749D01*
X70989846Y-80671767D01*
X70989849Y-80671762D01*
X71005805Y-80637543D01*
X71052722Y-80584258D01*
X71120999Y-80564797D01*
X71188959Y-80585339D01*
X71234195Y-80637543D01*
X71250151Y-80671762D01*
X71250154Y-80671767D01*
X71252477Y-80676749D01*
X71325902Y-80781611D01*
X71379529Y-80858197D01*
X71383802Y-80864300D01*
X71545700Y-81026198D01*
X71550208Y-81029355D01*
X71550211Y-81029357D01*
X71589268Y-81056705D01*
X71733251Y-81157523D01*
X71738233Y-81159846D01*
X71738238Y-81159849D01*
X71922363Y-81245707D01*
X71940757Y-81254284D01*
X71946065Y-81255706D01*
X71946067Y-81255707D01*
X72156598Y-81312119D01*
X72156600Y-81312119D01*
X72161913Y-81313543D01*
X72390000Y-81333498D01*
X72618087Y-81313543D01*
X72623400Y-81312119D01*
X72623402Y-81312119D01*
X72833933Y-81255707D01*
X72833935Y-81255706D01*
X72839243Y-81254284D01*
X72857637Y-81245707D01*
X73041762Y-81159849D01*
X73041767Y-81159846D01*
X73046749Y-81157523D01*
X73190732Y-81056705D01*
X73229789Y-81029357D01*
X73229792Y-81029355D01*
X73234300Y-81026198D01*
X73396198Y-80864300D01*
X73400472Y-80858197D01*
X73454098Y-80781611D01*
X73527523Y-80676749D01*
X73529846Y-80671767D01*
X73529849Y-80671762D01*
X73621961Y-80474225D01*
X73621961Y-80474224D01*
X73624284Y-80469243D01*
X73628387Y-80453933D01*
X73682119Y-80253402D01*
X73682119Y-80253400D01*
X73683543Y-80248087D01*
X73703498Y-80020000D01*
X73702623Y-80010000D01*
X76556496Y-80010000D01*
X76576458Y-80199928D01*
X76635473Y-80381556D01*
X76730960Y-80546944D01*
X76735378Y-80551851D01*
X76735379Y-80551852D01*
X76847837Y-80676749D01*
X76858747Y-80688866D01*
X77013248Y-80801118D01*
X77019276Y-80803802D01*
X77019278Y-80803803D01*
X77181681Y-80876109D01*
X77187712Y-80878794D01*
X77281112Y-80898647D01*
X77368056Y-80917128D01*
X77368061Y-80917128D01*
X77374513Y-80918500D01*
X77565487Y-80918500D01*
X77571939Y-80917128D01*
X77571944Y-80917128D01*
X77658888Y-80898647D01*
X77752288Y-80878794D01*
X77758319Y-80876109D01*
X77798692Y-80858134D01*
X81251500Y-80858134D01*
X81258255Y-80920316D01*
X81309385Y-81056705D01*
X81396739Y-81173261D01*
X81513295Y-81260615D01*
X81649684Y-81311745D01*
X81711866Y-81318500D01*
X83408134Y-81318500D01*
X83470316Y-81311745D01*
X83606705Y-81260615D01*
X83723261Y-81173261D01*
X83810615Y-81056705D01*
X83861745Y-80920316D01*
X83862917Y-80909526D01*
X83863803Y-80907394D01*
X83864425Y-80904778D01*
X83864848Y-80904879D01*
X83890155Y-80843965D01*
X83948517Y-80803537D01*
X84019471Y-80801078D01*
X84080490Y-80837371D01*
X84087489Y-80846031D01*
X84090643Y-80849789D01*
X84093802Y-80854300D01*
X84255700Y-81016198D01*
X84260208Y-81019355D01*
X84260211Y-81019357D01*
X84269981Y-81026198D01*
X84443251Y-81147523D01*
X84448233Y-81149846D01*
X84448238Y-81149849D01*
X84645775Y-81241961D01*
X84650757Y-81244284D01*
X84656065Y-81245706D01*
X84656067Y-81245707D01*
X84866598Y-81302119D01*
X84866600Y-81302119D01*
X84871913Y-81303543D01*
X85100000Y-81323498D01*
X85328087Y-81303543D01*
X85333400Y-81302119D01*
X85333402Y-81302119D01*
X85543933Y-81245707D01*
X85543935Y-81245706D01*
X85549243Y-81244284D01*
X85554225Y-81241961D01*
X85751762Y-81149849D01*
X85751767Y-81149846D01*
X85756749Y-81147523D01*
X85930019Y-81026198D01*
X85939789Y-81019357D01*
X85939792Y-81019355D01*
X85944300Y-81016198D01*
X86106198Y-80854300D01*
X86141557Y-80803803D01*
X86164098Y-80771611D01*
X86237523Y-80666749D01*
X86239846Y-80661767D01*
X86239849Y-80661762D01*
X86255805Y-80627543D01*
X86302722Y-80574258D01*
X86370999Y-80554797D01*
X86438959Y-80575339D01*
X86484195Y-80627543D01*
X86500151Y-80661762D01*
X86500154Y-80661767D01*
X86502477Y-80666749D01*
X86575902Y-80771611D01*
X86598444Y-80803803D01*
X86633802Y-80854300D01*
X86795700Y-81016198D01*
X86800208Y-81019355D01*
X86800211Y-81019357D01*
X86809981Y-81026198D01*
X86983251Y-81147523D01*
X86988233Y-81149846D01*
X86988238Y-81149849D01*
X87185775Y-81241961D01*
X87190757Y-81244284D01*
X87196065Y-81245706D01*
X87196067Y-81245707D01*
X87406598Y-81302119D01*
X87406600Y-81302119D01*
X87411913Y-81303543D01*
X87640000Y-81323498D01*
X87868087Y-81303543D01*
X87873400Y-81302119D01*
X87873402Y-81302119D01*
X88083933Y-81245707D01*
X88083935Y-81245706D01*
X88089243Y-81244284D01*
X88094225Y-81241961D01*
X88291762Y-81149849D01*
X88291767Y-81149846D01*
X88296749Y-81147523D01*
X88470019Y-81026198D01*
X88479789Y-81019357D01*
X88479792Y-81019355D01*
X88484300Y-81016198D01*
X88646198Y-80854300D01*
X88681557Y-80803803D01*
X88704098Y-80771611D01*
X88777523Y-80666749D01*
X88779846Y-80661767D01*
X88779849Y-80661762D01*
X88795805Y-80627543D01*
X88842722Y-80574258D01*
X88910999Y-80554797D01*
X88978959Y-80575339D01*
X89024195Y-80627543D01*
X89040151Y-80661762D01*
X89040154Y-80661767D01*
X89042477Y-80666749D01*
X89115902Y-80771611D01*
X89138444Y-80803803D01*
X89173802Y-80854300D01*
X89335700Y-81016198D01*
X89340208Y-81019355D01*
X89340211Y-81019357D01*
X89349981Y-81026198D01*
X89523251Y-81147523D01*
X89528233Y-81149846D01*
X89528238Y-81149849D01*
X89725775Y-81241961D01*
X89730757Y-81244284D01*
X89736065Y-81245706D01*
X89736067Y-81245707D01*
X89946598Y-81302119D01*
X89946600Y-81302119D01*
X89951913Y-81303543D01*
X90180000Y-81323498D01*
X90408087Y-81303543D01*
X90413400Y-81302119D01*
X90413402Y-81302119D01*
X90623933Y-81245707D01*
X90623935Y-81245706D01*
X90629243Y-81244284D01*
X90634225Y-81241961D01*
X90831762Y-81149849D01*
X90831767Y-81149846D01*
X90836749Y-81147523D01*
X91010019Y-81026198D01*
X91019789Y-81019357D01*
X91019792Y-81019355D01*
X91024300Y-81016198D01*
X91186198Y-80854300D01*
X91221557Y-80803803D01*
X91244098Y-80771611D01*
X91317523Y-80666749D01*
X91319846Y-80661767D01*
X91319849Y-80661762D01*
X91411961Y-80464225D01*
X91411961Y-80464224D01*
X91414284Y-80459243D01*
X91436785Y-80375271D01*
X91472119Y-80243402D01*
X91472119Y-80243400D01*
X91473543Y-80238087D01*
X91493498Y-80010000D01*
X91473543Y-79781913D01*
X91450000Y-79694050D01*
X91415707Y-79566067D01*
X91415706Y-79566065D01*
X91414284Y-79560757D01*
X91324512Y-79368238D01*
X91319849Y-79358238D01*
X91319846Y-79358233D01*
X91317523Y-79353251D01*
X91223437Y-79218882D01*
X91189357Y-79170211D01*
X91189355Y-79170208D01*
X91186198Y-79165700D01*
X91024300Y-79003802D01*
X91019792Y-79000645D01*
X91019789Y-79000643D01*
X90851030Y-78882477D01*
X90836749Y-78872477D01*
X90831767Y-78870154D01*
X90831762Y-78870151D01*
X90634225Y-78778039D01*
X90634224Y-78778039D01*
X90629243Y-78775716D01*
X90623935Y-78774294D01*
X90623933Y-78774293D01*
X90413402Y-78717881D01*
X90413400Y-78717881D01*
X90408087Y-78716457D01*
X90180000Y-78696502D01*
X89951913Y-78716457D01*
X89946600Y-78717881D01*
X89946598Y-78717881D01*
X89736067Y-78774293D01*
X89736065Y-78774294D01*
X89730757Y-78775716D01*
X89725776Y-78778039D01*
X89725775Y-78778039D01*
X89528238Y-78870151D01*
X89528233Y-78870154D01*
X89523251Y-78872477D01*
X89508970Y-78882477D01*
X89340211Y-79000643D01*
X89340208Y-79000645D01*
X89335700Y-79003802D01*
X89173802Y-79165700D01*
X89170645Y-79170208D01*
X89170643Y-79170211D01*
X89136563Y-79218882D01*
X89042477Y-79353251D01*
X89040154Y-79358233D01*
X89040151Y-79358238D01*
X89024195Y-79392457D01*
X88977278Y-79445742D01*
X88909001Y-79465203D01*
X88841041Y-79444661D01*
X88795805Y-79392457D01*
X88779849Y-79358238D01*
X88779846Y-79358233D01*
X88777523Y-79353251D01*
X88683437Y-79218882D01*
X88649357Y-79170211D01*
X88649355Y-79170208D01*
X88646198Y-79165700D01*
X88484300Y-79003802D01*
X88479792Y-79000645D01*
X88479789Y-79000643D01*
X88311030Y-78882477D01*
X88296749Y-78872477D01*
X88291767Y-78870154D01*
X88291762Y-78870151D01*
X88094225Y-78778039D01*
X88094224Y-78778039D01*
X88089243Y-78775716D01*
X88083935Y-78774294D01*
X88083933Y-78774293D01*
X87873402Y-78717881D01*
X87873400Y-78717881D01*
X87868087Y-78716457D01*
X87640000Y-78696502D01*
X87411913Y-78716457D01*
X87406600Y-78717881D01*
X87406598Y-78717881D01*
X87196067Y-78774293D01*
X87196065Y-78774294D01*
X87190757Y-78775716D01*
X87185776Y-78778039D01*
X87185775Y-78778039D01*
X86988238Y-78870151D01*
X86988233Y-78870154D01*
X86983251Y-78872477D01*
X86968970Y-78882477D01*
X86800211Y-79000643D01*
X86800208Y-79000645D01*
X86795700Y-79003802D01*
X86633802Y-79165700D01*
X86630645Y-79170208D01*
X86630643Y-79170211D01*
X86596563Y-79218882D01*
X86502477Y-79353251D01*
X86500154Y-79358233D01*
X86500151Y-79358238D01*
X86484195Y-79392457D01*
X86437278Y-79445742D01*
X86369001Y-79465203D01*
X86301041Y-79444661D01*
X86255805Y-79392457D01*
X86239849Y-79358238D01*
X86239846Y-79358233D01*
X86237523Y-79353251D01*
X86143437Y-79218882D01*
X86109357Y-79170211D01*
X86109355Y-79170208D01*
X86106198Y-79165700D01*
X85944300Y-79003802D01*
X85939792Y-79000645D01*
X85939789Y-79000643D01*
X85771030Y-78882477D01*
X85756749Y-78872477D01*
X85751767Y-78870154D01*
X85751762Y-78870151D01*
X85554225Y-78778039D01*
X85554224Y-78778039D01*
X85549243Y-78775716D01*
X85543935Y-78774294D01*
X85543933Y-78774293D01*
X85333402Y-78717881D01*
X85333400Y-78717881D01*
X85328087Y-78716457D01*
X85100000Y-78696502D01*
X84871913Y-78716457D01*
X84866600Y-78717881D01*
X84866598Y-78717881D01*
X84656067Y-78774293D01*
X84656065Y-78774294D01*
X84650757Y-78775716D01*
X84645776Y-78778039D01*
X84645775Y-78778039D01*
X84448238Y-78870151D01*
X84448233Y-78870154D01*
X84443251Y-78872477D01*
X84428970Y-78882477D01*
X84260211Y-79000643D01*
X84260208Y-79000645D01*
X84255700Y-79003802D01*
X84093802Y-79165700D01*
X84090643Y-79170211D01*
X84087108Y-79174424D01*
X84085974Y-79173473D01*
X84035929Y-79213471D01*
X83965310Y-79220776D01*
X83901951Y-79188742D01*
X83865970Y-79127538D01*
X83862918Y-79110483D01*
X83861745Y-79099684D01*
X83810615Y-78963295D01*
X83723261Y-78846739D01*
X83606705Y-78759385D01*
X83470316Y-78708255D01*
X83408134Y-78701500D01*
X81711866Y-78701500D01*
X81649684Y-78708255D01*
X81513295Y-78759385D01*
X81396739Y-78846739D01*
X81309385Y-78963295D01*
X81258255Y-79099684D01*
X81251500Y-79161866D01*
X81251500Y-80858134D01*
X77798692Y-80858134D01*
X77920722Y-80803803D01*
X77920724Y-80803802D01*
X77926752Y-80801118D01*
X78081253Y-80688866D01*
X78092163Y-80676749D01*
X78204621Y-80551852D01*
X78204622Y-80551851D01*
X78209040Y-80546944D01*
X78304527Y-80381556D01*
X78363542Y-80199928D01*
X78383504Y-80010000D01*
X78363542Y-79820072D01*
X78304527Y-79638444D01*
X78209040Y-79473056D01*
X78193451Y-79455742D01*
X78085675Y-79336045D01*
X78085674Y-79336044D01*
X78081253Y-79331134D01*
X77926752Y-79218882D01*
X77920724Y-79216198D01*
X77920722Y-79216197D01*
X77758319Y-79143891D01*
X77758318Y-79143891D01*
X77752288Y-79141206D01*
X77658887Y-79121353D01*
X77571944Y-79102872D01*
X77571939Y-79102872D01*
X77565487Y-79101500D01*
X77374513Y-79101500D01*
X77368061Y-79102872D01*
X77368056Y-79102872D01*
X77281113Y-79121353D01*
X77187712Y-79141206D01*
X77181682Y-79143891D01*
X77181681Y-79143891D01*
X77019278Y-79216197D01*
X77019276Y-79216198D01*
X77013248Y-79218882D01*
X76858747Y-79331134D01*
X76854326Y-79336044D01*
X76854325Y-79336045D01*
X76746550Y-79455742D01*
X76730960Y-79473056D01*
X76635473Y-79638444D01*
X76576458Y-79820072D01*
X76556496Y-80010000D01*
X73702623Y-80010000D01*
X73683543Y-79791913D01*
X73682119Y-79786598D01*
X73625707Y-79576067D01*
X73625706Y-79576065D01*
X73624284Y-79570757D01*
X73541142Y-79392457D01*
X73529849Y-79368238D01*
X73529846Y-79368233D01*
X73527523Y-79363251D01*
X73427761Y-79220776D01*
X73399357Y-79180211D01*
X73399355Y-79180208D01*
X73396198Y-79175700D01*
X73234300Y-79013802D01*
X73229792Y-79010645D01*
X73229789Y-79010643D01*
X73151611Y-78955902D01*
X73046749Y-78882477D01*
X73041767Y-78880154D01*
X73041762Y-78880151D01*
X72844225Y-78788039D01*
X72844224Y-78788039D01*
X72839243Y-78785716D01*
X72833935Y-78784294D01*
X72833933Y-78784293D01*
X72623402Y-78727881D01*
X72623400Y-78727881D01*
X72618087Y-78726457D01*
X72390000Y-78706502D01*
X72161913Y-78726457D01*
X72156600Y-78727881D01*
X72156598Y-78727881D01*
X71946067Y-78784293D01*
X71946065Y-78784294D01*
X71940757Y-78785716D01*
X71935776Y-78788039D01*
X71935775Y-78788039D01*
X71738238Y-78880151D01*
X71738233Y-78880154D01*
X71733251Y-78882477D01*
X71628389Y-78955902D01*
X71550211Y-79010643D01*
X71550208Y-79010645D01*
X71545700Y-79013802D01*
X71383802Y-79175700D01*
X71380645Y-79180208D01*
X71380643Y-79180211D01*
X71352239Y-79220776D01*
X71252477Y-79363251D01*
X71250154Y-79368233D01*
X71250151Y-79368238D01*
X71234195Y-79402457D01*
X71187278Y-79455742D01*
X71119001Y-79475203D01*
X71051041Y-79454661D01*
X71005805Y-79402457D01*
X70989849Y-79368238D01*
X70989846Y-79368233D01*
X70987523Y-79363251D01*
X70887761Y-79220776D01*
X70859357Y-79180211D01*
X70859355Y-79180208D01*
X70856198Y-79175700D01*
X70694300Y-79013802D01*
X70689792Y-79010645D01*
X70689789Y-79010643D01*
X70611611Y-78955902D01*
X70506749Y-78882477D01*
X70501767Y-78880154D01*
X70501762Y-78880151D01*
X70304225Y-78788039D01*
X70304224Y-78788039D01*
X70299243Y-78785716D01*
X70293935Y-78784294D01*
X70293933Y-78784293D01*
X70083402Y-78727881D01*
X70083400Y-78727881D01*
X70078087Y-78726457D01*
X69850000Y-78706502D01*
X69621913Y-78726457D01*
X69616600Y-78727881D01*
X69616598Y-78727881D01*
X69406067Y-78784293D01*
X69406065Y-78784294D01*
X69400757Y-78785716D01*
X69395776Y-78788039D01*
X69395775Y-78788039D01*
X69198238Y-78880151D01*
X69198233Y-78880154D01*
X69193251Y-78882477D01*
X69088389Y-78955902D01*
X69010211Y-79010643D01*
X69010208Y-79010645D01*
X69005700Y-79013802D01*
X68843802Y-79175700D01*
X68840645Y-79180208D01*
X68840643Y-79180211D01*
X68812239Y-79220776D01*
X68712477Y-79363251D01*
X68710154Y-79368233D01*
X68710151Y-79368238D01*
X68694195Y-79402457D01*
X68647278Y-79455742D01*
X68579001Y-79475203D01*
X68511041Y-79454661D01*
X68465805Y-79402457D01*
X68449849Y-79368238D01*
X68449846Y-79368233D01*
X68447523Y-79363251D01*
X68347761Y-79220776D01*
X68319357Y-79180211D01*
X68319355Y-79180208D01*
X68316198Y-79175700D01*
X68154300Y-79013802D01*
X68149792Y-79010645D01*
X68149789Y-79010643D01*
X68071611Y-78955902D01*
X67966749Y-78882477D01*
X67961767Y-78880154D01*
X67961762Y-78880151D01*
X67764225Y-78788039D01*
X67764224Y-78788039D01*
X67759243Y-78785716D01*
X67753935Y-78784294D01*
X67753933Y-78784293D01*
X67543402Y-78727881D01*
X67543400Y-78727881D01*
X67538087Y-78726457D01*
X67310000Y-78706502D01*
X67081913Y-78726457D01*
X67076600Y-78727881D01*
X67076598Y-78727881D01*
X66866067Y-78784293D01*
X66866065Y-78784294D01*
X66860757Y-78785716D01*
X66855776Y-78788039D01*
X66855775Y-78788039D01*
X66658238Y-78880151D01*
X66658233Y-78880154D01*
X66653251Y-78882477D01*
X66548389Y-78955902D01*
X66470211Y-79010643D01*
X66470208Y-79010645D01*
X66465700Y-79013802D01*
X66303802Y-79175700D01*
X66300645Y-79180208D01*
X66300643Y-79180211D01*
X66272239Y-79220776D01*
X66172477Y-79363251D01*
X66170154Y-79368233D01*
X66170151Y-79368238D01*
X66154195Y-79402457D01*
X66107278Y-79455742D01*
X66039001Y-79475203D01*
X65971041Y-79454661D01*
X65925805Y-79402457D01*
X65909849Y-79368238D01*
X65909846Y-79368233D01*
X65907523Y-79363251D01*
X65807761Y-79220776D01*
X65779357Y-79180211D01*
X65779355Y-79180208D01*
X65776198Y-79175700D01*
X65614300Y-79013802D01*
X65609792Y-79010645D01*
X65609789Y-79010643D01*
X65531611Y-78955902D01*
X65426749Y-78882477D01*
X65421767Y-78880154D01*
X65421762Y-78880151D01*
X65224225Y-78788039D01*
X65224224Y-78788039D01*
X65219243Y-78785716D01*
X65213935Y-78784294D01*
X65213933Y-78784293D01*
X65003402Y-78727881D01*
X65003400Y-78727881D01*
X64998087Y-78726457D01*
X64770000Y-78706502D01*
X64541913Y-78726457D01*
X64536600Y-78727881D01*
X64536598Y-78727881D01*
X64326067Y-78784293D01*
X64326065Y-78784294D01*
X64320757Y-78785716D01*
X64315776Y-78788039D01*
X64315775Y-78788039D01*
X64118238Y-78880151D01*
X64118233Y-78880154D01*
X64113251Y-78882477D01*
X64008389Y-78955902D01*
X63930211Y-79010643D01*
X63930208Y-79010645D01*
X63925700Y-79013802D01*
X63763802Y-79175700D01*
X63760645Y-79180208D01*
X63760643Y-79180211D01*
X63732239Y-79220776D01*
X63632477Y-79363251D01*
X63630154Y-79368233D01*
X63630151Y-79368238D01*
X63618858Y-79392457D01*
X63535716Y-79570757D01*
X63534294Y-79576065D01*
X63534293Y-79576067D01*
X63477881Y-79786598D01*
X63476457Y-79791913D01*
X63456502Y-80020000D01*
X61468500Y-80020000D01*
X61468500Y-76835000D01*
X63856496Y-76835000D01*
X63876458Y-77024928D01*
X63935473Y-77206556D01*
X64030960Y-77371944D01*
X64158747Y-77513866D01*
X64313248Y-77626118D01*
X64319276Y-77628802D01*
X64319278Y-77628803D01*
X64481681Y-77701109D01*
X64487712Y-77703794D01*
X64581113Y-77723647D01*
X64668056Y-77742128D01*
X64668061Y-77742128D01*
X64674513Y-77743500D01*
X64865487Y-77743500D01*
X64871939Y-77742128D01*
X64871944Y-77742128D01*
X64958887Y-77723647D01*
X65052288Y-77703794D01*
X65058319Y-77701109D01*
X65220722Y-77628803D01*
X65220724Y-77628802D01*
X65226752Y-77626118D01*
X65381253Y-77513866D01*
X65509040Y-77371944D01*
X65604527Y-77206556D01*
X65663542Y-77024928D01*
X65683504Y-76835000D01*
X65663542Y-76645072D01*
X65604527Y-76463444D01*
X65509040Y-76298056D01*
X65463744Y-76247749D01*
X65385675Y-76161045D01*
X65385674Y-76161044D01*
X65381253Y-76156134D01*
X65226752Y-76043882D01*
X65220724Y-76041198D01*
X65220722Y-76041197D01*
X65058319Y-75968891D01*
X65058318Y-75968891D01*
X65052288Y-75966206D01*
X64939721Y-75942279D01*
X64871944Y-75927872D01*
X64871939Y-75927872D01*
X64865487Y-75926500D01*
X64674513Y-75926500D01*
X64668061Y-75927872D01*
X64668056Y-75927872D01*
X64600279Y-75942279D01*
X64487712Y-75966206D01*
X64481682Y-75968891D01*
X64481681Y-75968891D01*
X64319278Y-76041197D01*
X64319276Y-76041198D01*
X64313248Y-76043882D01*
X64158747Y-76156134D01*
X64154326Y-76161044D01*
X64154325Y-76161045D01*
X64076257Y-76247749D01*
X64030960Y-76298056D01*
X63935473Y-76463444D01*
X63876458Y-76645072D01*
X63856496Y-76835000D01*
X61468500Y-76835000D01*
X61468500Y-74930000D01*
X81636496Y-74930000D01*
X81656458Y-75119928D01*
X81715473Y-75301556D01*
X81810960Y-75466944D01*
X81938747Y-75608866D01*
X82093248Y-75721118D01*
X82099276Y-75723802D01*
X82099278Y-75723803D01*
X82261681Y-75796109D01*
X82267712Y-75798794D01*
X82361112Y-75818647D01*
X82448056Y-75837128D01*
X82448061Y-75837128D01*
X82454513Y-75838500D01*
X82645487Y-75838500D01*
X82651939Y-75837128D01*
X82651944Y-75837128D01*
X82738888Y-75818647D01*
X82832288Y-75798794D01*
X82838319Y-75796109D01*
X83000722Y-75723803D01*
X83000724Y-75723802D01*
X83006752Y-75721118D01*
X83161253Y-75608866D01*
X83200750Y-75565000D01*
X86716496Y-75565000D01*
X86717186Y-75571565D01*
X86733187Y-75723803D01*
X86736458Y-75754928D01*
X86795473Y-75936556D01*
X86890960Y-76101944D01*
X86895378Y-76106851D01*
X86895379Y-76106852D01*
X86939753Y-76156134D01*
X87018747Y-76243866D01*
X87173248Y-76356118D01*
X87179276Y-76358802D01*
X87179278Y-76358803D01*
X87341681Y-76431109D01*
X87347712Y-76433794D01*
X87441113Y-76453647D01*
X87528056Y-76472128D01*
X87528061Y-76472128D01*
X87534513Y-76473500D01*
X87725487Y-76473500D01*
X87731939Y-76472128D01*
X87731944Y-76472128D01*
X87818887Y-76453647D01*
X87912288Y-76433794D01*
X87918319Y-76431109D01*
X88080722Y-76358803D01*
X88080724Y-76358802D01*
X88086752Y-76356118D01*
X88241253Y-76243866D01*
X88320247Y-76156134D01*
X88364621Y-76106852D01*
X88364622Y-76106851D01*
X88369040Y-76101944D01*
X88464527Y-75936556D01*
X88523542Y-75754928D01*
X88526814Y-75723803D01*
X88542814Y-75571565D01*
X88543504Y-75565000D01*
X88523542Y-75375072D01*
X88464527Y-75193444D01*
X88369040Y-75028056D01*
X88241253Y-74886134D01*
X88086752Y-74773882D01*
X88080724Y-74771198D01*
X88080722Y-74771197D01*
X87918319Y-74698891D01*
X87918318Y-74698891D01*
X87912288Y-74696206D01*
X87818887Y-74676353D01*
X87731944Y-74657872D01*
X87731939Y-74657872D01*
X87725487Y-74656500D01*
X87534513Y-74656500D01*
X87528061Y-74657872D01*
X87528056Y-74657872D01*
X87441113Y-74676353D01*
X87347712Y-74696206D01*
X87341682Y-74698891D01*
X87341681Y-74698891D01*
X87179278Y-74771197D01*
X87179276Y-74771198D01*
X87173248Y-74773882D01*
X87018747Y-74886134D01*
X86890960Y-75028056D01*
X86795473Y-75193444D01*
X86736458Y-75375072D01*
X86716496Y-75565000D01*
X83200750Y-75565000D01*
X83289040Y-75466944D01*
X83384527Y-75301556D01*
X83443542Y-75119928D01*
X83463504Y-74930000D01*
X83458485Y-74882251D01*
X83444232Y-74746635D01*
X83444232Y-74746633D01*
X83443542Y-74740072D01*
X83384527Y-74558444D01*
X83289040Y-74393056D01*
X83161253Y-74251134D01*
X83006752Y-74138882D01*
X83000724Y-74136198D01*
X83000722Y-74136197D01*
X82838319Y-74063891D01*
X82838318Y-74063891D01*
X82832288Y-74061206D01*
X82738887Y-74041353D01*
X82651944Y-74022872D01*
X82651939Y-74022872D01*
X82645487Y-74021500D01*
X82454513Y-74021500D01*
X82448061Y-74022872D01*
X82448056Y-74022872D01*
X82361113Y-74041353D01*
X82267712Y-74061206D01*
X82261682Y-74063891D01*
X82261681Y-74063891D01*
X82099278Y-74136197D01*
X82099276Y-74136198D01*
X82093248Y-74138882D01*
X81938747Y-74251134D01*
X81810960Y-74393056D01*
X81715473Y-74558444D01*
X81656458Y-74740072D01*
X81655768Y-74746633D01*
X81655768Y-74746635D01*
X81641515Y-74882251D01*
X81636496Y-74930000D01*
X61468500Y-74930000D01*
X61468500Y-72400000D01*
X63456502Y-72400000D01*
X63476457Y-72628087D01*
X63477881Y-72633400D01*
X63477881Y-72633402D01*
X63531614Y-72833933D01*
X63535716Y-72849243D01*
X63538039Y-72854224D01*
X63538039Y-72854225D01*
X63630151Y-73051762D01*
X63630154Y-73051767D01*
X63632477Y-73056749D01*
X63635634Y-73061257D01*
X63759529Y-73238197D01*
X63763802Y-73244300D01*
X63925700Y-73406198D01*
X63930208Y-73409355D01*
X63930211Y-73409357D01*
X63971542Y-73438297D01*
X64113251Y-73537523D01*
X64118233Y-73539846D01*
X64118238Y-73539849D01*
X64302363Y-73625707D01*
X64320757Y-73634284D01*
X64326065Y-73635706D01*
X64326067Y-73635707D01*
X64536598Y-73692119D01*
X64536600Y-73692119D01*
X64541913Y-73693543D01*
X64770000Y-73713498D01*
X64998087Y-73693543D01*
X65003400Y-73692119D01*
X65003402Y-73692119D01*
X65213933Y-73635707D01*
X65213935Y-73635706D01*
X65219243Y-73634284D01*
X65237637Y-73625707D01*
X65421762Y-73539849D01*
X65421767Y-73539846D01*
X65426749Y-73537523D01*
X65568458Y-73438297D01*
X65609789Y-73409357D01*
X65609792Y-73409355D01*
X65614300Y-73406198D01*
X65776198Y-73244300D01*
X65780472Y-73238197D01*
X65904366Y-73061257D01*
X65907523Y-73056749D01*
X65909846Y-73051767D01*
X65909849Y-73051762D01*
X65925805Y-73017543D01*
X65972722Y-72964258D01*
X66040999Y-72944797D01*
X66108959Y-72965339D01*
X66154195Y-73017543D01*
X66170151Y-73051762D01*
X66170154Y-73051767D01*
X66172477Y-73056749D01*
X66175634Y-73061257D01*
X66299529Y-73238197D01*
X66303802Y-73244300D01*
X66465700Y-73406198D01*
X66470208Y-73409355D01*
X66470211Y-73409357D01*
X66511542Y-73438297D01*
X66653251Y-73537523D01*
X66658233Y-73539846D01*
X66658238Y-73539849D01*
X66842363Y-73625707D01*
X66860757Y-73634284D01*
X66866065Y-73635706D01*
X66866067Y-73635707D01*
X67076598Y-73692119D01*
X67076600Y-73692119D01*
X67081913Y-73693543D01*
X67310000Y-73713498D01*
X67538087Y-73693543D01*
X67543400Y-73692119D01*
X67543402Y-73692119D01*
X67753933Y-73635707D01*
X67753935Y-73635706D01*
X67759243Y-73634284D01*
X67777637Y-73625707D01*
X67961762Y-73539849D01*
X67961767Y-73539846D01*
X67966749Y-73537523D01*
X68108458Y-73438297D01*
X68149789Y-73409357D01*
X68149792Y-73409355D01*
X68154300Y-73406198D01*
X68316198Y-73244300D01*
X68320472Y-73238197D01*
X68444366Y-73061257D01*
X68447523Y-73056749D01*
X68449846Y-73051767D01*
X68449849Y-73051762D01*
X68465805Y-73017543D01*
X68512722Y-72964258D01*
X68580999Y-72944797D01*
X68648959Y-72965339D01*
X68694195Y-73017543D01*
X68710151Y-73051762D01*
X68710154Y-73051767D01*
X68712477Y-73056749D01*
X68715634Y-73061257D01*
X68839529Y-73238197D01*
X68843802Y-73244300D01*
X69005700Y-73406198D01*
X69010208Y-73409355D01*
X69010211Y-73409357D01*
X69051542Y-73438297D01*
X69193251Y-73537523D01*
X69198233Y-73539846D01*
X69198238Y-73539849D01*
X69382363Y-73625707D01*
X69400757Y-73634284D01*
X69406065Y-73635706D01*
X69406067Y-73635707D01*
X69616598Y-73692119D01*
X69616600Y-73692119D01*
X69621913Y-73693543D01*
X69850000Y-73713498D01*
X70078087Y-73693543D01*
X70083400Y-73692119D01*
X70083402Y-73692119D01*
X70293933Y-73635707D01*
X70293935Y-73635706D01*
X70299243Y-73634284D01*
X70317637Y-73625707D01*
X70501762Y-73539849D01*
X70501767Y-73539846D01*
X70506749Y-73537523D01*
X70648458Y-73438297D01*
X70689789Y-73409357D01*
X70689792Y-73409355D01*
X70694300Y-73406198D01*
X70856198Y-73244300D01*
X70859357Y-73239789D01*
X70862892Y-73235576D01*
X70864026Y-73236527D01*
X70914071Y-73196529D01*
X70984690Y-73189224D01*
X71048049Y-73221258D01*
X71084030Y-73282462D01*
X71087082Y-73299517D01*
X71088255Y-73310316D01*
X71139385Y-73446705D01*
X71226739Y-73563261D01*
X71343295Y-73650615D01*
X71479684Y-73701745D01*
X71541866Y-73708500D01*
X73238134Y-73708500D01*
X73300316Y-73701745D01*
X73436705Y-73650615D01*
X73553261Y-73563261D01*
X73640615Y-73446705D01*
X73691745Y-73310316D01*
X73698500Y-73248134D01*
X73698500Y-71755000D01*
X76556496Y-71755000D01*
X76576458Y-71944928D01*
X76635473Y-72126556D01*
X76730960Y-72291944D01*
X76735378Y-72296851D01*
X76735379Y-72296852D01*
X76828254Y-72400000D01*
X76858747Y-72433866D01*
X77013248Y-72546118D01*
X77019276Y-72548802D01*
X77019278Y-72548803D01*
X77181681Y-72621109D01*
X77187712Y-72623794D01*
X77281113Y-72643647D01*
X77368056Y-72662128D01*
X77368061Y-72662128D01*
X77374513Y-72663500D01*
X77565487Y-72663500D01*
X77571939Y-72662128D01*
X77571944Y-72662128D01*
X77658887Y-72643647D01*
X77752288Y-72623794D01*
X77758319Y-72621109D01*
X77920722Y-72548803D01*
X77920724Y-72548802D01*
X77926752Y-72546118D01*
X78081253Y-72433866D01*
X78111746Y-72400000D01*
X78120750Y-72390000D01*
X81246502Y-72390000D01*
X81266457Y-72618087D01*
X81267881Y-72623400D01*
X81267881Y-72623402D01*
X81292680Y-72715950D01*
X81325716Y-72839243D01*
X81328039Y-72844224D01*
X81328039Y-72844225D01*
X81420151Y-73041762D01*
X81420154Y-73041767D01*
X81422477Y-73046749D01*
X81553802Y-73234300D01*
X81715700Y-73396198D01*
X81720208Y-73399355D01*
X81720211Y-73399357D01*
X81729981Y-73406198D01*
X81903251Y-73527523D01*
X81908233Y-73529846D01*
X81908238Y-73529849D01*
X82105775Y-73621961D01*
X82110757Y-73624284D01*
X82116065Y-73625706D01*
X82116067Y-73625707D01*
X82326598Y-73682119D01*
X82326600Y-73682119D01*
X82331913Y-73683543D01*
X82560000Y-73703498D01*
X82788087Y-73683543D01*
X82793400Y-73682119D01*
X82793402Y-73682119D01*
X83003933Y-73625707D01*
X83003935Y-73625706D01*
X83009243Y-73624284D01*
X83014225Y-73621961D01*
X83211762Y-73529849D01*
X83211767Y-73529846D01*
X83216749Y-73527523D01*
X83390019Y-73406198D01*
X83399789Y-73399357D01*
X83399792Y-73399355D01*
X83404300Y-73396198D01*
X83566198Y-73234300D01*
X83697523Y-73046749D01*
X83699846Y-73041767D01*
X83699849Y-73041762D01*
X83715805Y-73007543D01*
X83762722Y-72954258D01*
X83830999Y-72934797D01*
X83898959Y-72955339D01*
X83944195Y-73007543D01*
X83960151Y-73041762D01*
X83960154Y-73041767D01*
X83962477Y-73046749D01*
X84093802Y-73234300D01*
X84255700Y-73396198D01*
X84260208Y-73399355D01*
X84260211Y-73399357D01*
X84269981Y-73406198D01*
X84443251Y-73527523D01*
X84448233Y-73529846D01*
X84448238Y-73529849D01*
X84645775Y-73621961D01*
X84650757Y-73624284D01*
X84656065Y-73625706D01*
X84656067Y-73625707D01*
X84866598Y-73682119D01*
X84866600Y-73682119D01*
X84871913Y-73683543D01*
X85100000Y-73703498D01*
X85328087Y-73683543D01*
X85333400Y-73682119D01*
X85333402Y-73682119D01*
X85543933Y-73625707D01*
X85543935Y-73625706D01*
X85549243Y-73624284D01*
X85554225Y-73621961D01*
X85751762Y-73529849D01*
X85751767Y-73529846D01*
X85756749Y-73527523D01*
X85930019Y-73406198D01*
X85939789Y-73399357D01*
X85939792Y-73399355D01*
X85944300Y-73396198D01*
X86106198Y-73234300D01*
X86237523Y-73046749D01*
X86239846Y-73041767D01*
X86239849Y-73041762D01*
X86255805Y-73007543D01*
X86302722Y-72954258D01*
X86370999Y-72934797D01*
X86438959Y-72955339D01*
X86484195Y-73007543D01*
X86500151Y-73041762D01*
X86500154Y-73041767D01*
X86502477Y-73046749D01*
X86633802Y-73234300D01*
X86795700Y-73396198D01*
X86800208Y-73399355D01*
X86800211Y-73399357D01*
X86809981Y-73406198D01*
X86983251Y-73527523D01*
X86988233Y-73529846D01*
X86988238Y-73529849D01*
X87185775Y-73621961D01*
X87190757Y-73624284D01*
X87196065Y-73625706D01*
X87196067Y-73625707D01*
X87406598Y-73682119D01*
X87406600Y-73682119D01*
X87411913Y-73683543D01*
X87640000Y-73703498D01*
X87868087Y-73683543D01*
X87873400Y-73682119D01*
X87873402Y-73682119D01*
X88083933Y-73625707D01*
X88083935Y-73625706D01*
X88089243Y-73624284D01*
X88094225Y-73621961D01*
X88291762Y-73529849D01*
X88291767Y-73529846D01*
X88296749Y-73527523D01*
X88470019Y-73406198D01*
X88479789Y-73399357D01*
X88479792Y-73399355D01*
X88484300Y-73396198D01*
X88646198Y-73234300D01*
X88777523Y-73046749D01*
X88779846Y-73041767D01*
X88779849Y-73041762D01*
X88795805Y-73007543D01*
X88842722Y-72954258D01*
X88910999Y-72934797D01*
X88978959Y-72955339D01*
X89024195Y-73007543D01*
X89040151Y-73041762D01*
X89040154Y-73041767D01*
X89042477Y-73046749D01*
X89173802Y-73234300D01*
X89335700Y-73396198D01*
X89340208Y-73399355D01*
X89340211Y-73399357D01*
X89349981Y-73406198D01*
X89523251Y-73527523D01*
X89528233Y-73529846D01*
X89528238Y-73529849D01*
X89725775Y-73621961D01*
X89730757Y-73624284D01*
X89736065Y-73625706D01*
X89736067Y-73625707D01*
X89946598Y-73682119D01*
X89946600Y-73682119D01*
X89951913Y-73683543D01*
X90180000Y-73703498D01*
X90408087Y-73683543D01*
X90413400Y-73682119D01*
X90413402Y-73682119D01*
X90623933Y-73625707D01*
X90623935Y-73625706D01*
X90629243Y-73624284D01*
X90634225Y-73621961D01*
X90831762Y-73529849D01*
X90831767Y-73529846D01*
X90836749Y-73527523D01*
X91010019Y-73406198D01*
X91019789Y-73399357D01*
X91019792Y-73399355D01*
X91024300Y-73396198D01*
X91186198Y-73234300D01*
X91317523Y-73046749D01*
X91319846Y-73041767D01*
X91319849Y-73041762D01*
X91411961Y-72844225D01*
X91411961Y-72844224D01*
X91414284Y-72839243D01*
X91447321Y-72715950D01*
X91472119Y-72623402D01*
X91472119Y-72623400D01*
X91473543Y-72618087D01*
X91493498Y-72390000D01*
X91473543Y-72161913D01*
X91450000Y-72074050D01*
X91415707Y-71946067D01*
X91415706Y-71946065D01*
X91414284Y-71940757D01*
X91327665Y-71755000D01*
X91319849Y-71738238D01*
X91319846Y-71738233D01*
X91317523Y-71733251D01*
X91200437Y-71566035D01*
X91189357Y-71550211D01*
X91189355Y-71550208D01*
X91186198Y-71545700D01*
X91024300Y-71383802D01*
X91019792Y-71380645D01*
X91019789Y-71380643D01*
X90851030Y-71262477D01*
X90836749Y-71252477D01*
X90831767Y-71250154D01*
X90831762Y-71250151D01*
X90634225Y-71158039D01*
X90634224Y-71158039D01*
X90629243Y-71155716D01*
X90623935Y-71154294D01*
X90623933Y-71154293D01*
X90413402Y-71097881D01*
X90413400Y-71097881D01*
X90408087Y-71096457D01*
X90180000Y-71076502D01*
X89951913Y-71096457D01*
X89946600Y-71097881D01*
X89946598Y-71097881D01*
X89736067Y-71154293D01*
X89736065Y-71154294D01*
X89730757Y-71155716D01*
X89725776Y-71158039D01*
X89725775Y-71158039D01*
X89528238Y-71250151D01*
X89528233Y-71250154D01*
X89523251Y-71252477D01*
X89508970Y-71262477D01*
X89340211Y-71380643D01*
X89340208Y-71380645D01*
X89335700Y-71383802D01*
X89173802Y-71545700D01*
X89170645Y-71550208D01*
X89170643Y-71550211D01*
X89159563Y-71566035D01*
X89042477Y-71733251D01*
X89040154Y-71738233D01*
X89040151Y-71738238D01*
X89024195Y-71772457D01*
X88977278Y-71825742D01*
X88909001Y-71845203D01*
X88841041Y-71824661D01*
X88795805Y-71772457D01*
X88779849Y-71738238D01*
X88779846Y-71738233D01*
X88777523Y-71733251D01*
X88660437Y-71566035D01*
X88649357Y-71550211D01*
X88649355Y-71550208D01*
X88646198Y-71545700D01*
X88484300Y-71383802D01*
X88479792Y-71380645D01*
X88479789Y-71380643D01*
X88311030Y-71262477D01*
X88296749Y-71252477D01*
X88291767Y-71250154D01*
X88291762Y-71250151D01*
X88094225Y-71158039D01*
X88094224Y-71158039D01*
X88089243Y-71155716D01*
X88083935Y-71154294D01*
X88083933Y-71154293D01*
X87873402Y-71097881D01*
X87873400Y-71097881D01*
X87868087Y-71096457D01*
X87640000Y-71076502D01*
X87411913Y-71096457D01*
X87406600Y-71097881D01*
X87406598Y-71097881D01*
X87196067Y-71154293D01*
X87196065Y-71154294D01*
X87190757Y-71155716D01*
X87185776Y-71158039D01*
X87185775Y-71158039D01*
X86988238Y-71250151D01*
X86988233Y-71250154D01*
X86983251Y-71252477D01*
X86968970Y-71262477D01*
X86800211Y-71380643D01*
X86800208Y-71380645D01*
X86795700Y-71383802D01*
X86633802Y-71545700D01*
X86630645Y-71550208D01*
X86630643Y-71550211D01*
X86619563Y-71566035D01*
X86502477Y-71733251D01*
X86500154Y-71738233D01*
X86500151Y-71738238D01*
X86484195Y-71772457D01*
X86437278Y-71825742D01*
X86369001Y-71845203D01*
X86301041Y-71824661D01*
X86255805Y-71772457D01*
X86239849Y-71738238D01*
X86239846Y-71738233D01*
X86237523Y-71733251D01*
X86120437Y-71566035D01*
X86109357Y-71550211D01*
X86109355Y-71550208D01*
X86106198Y-71545700D01*
X85944300Y-71383802D01*
X85939792Y-71380645D01*
X85939789Y-71380643D01*
X85771030Y-71262477D01*
X85756749Y-71252477D01*
X85751767Y-71250154D01*
X85751762Y-71250151D01*
X85554225Y-71158039D01*
X85554224Y-71158039D01*
X85549243Y-71155716D01*
X85543935Y-71154294D01*
X85543933Y-71154293D01*
X85333402Y-71097881D01*
X85333400Y-71097881D01*
X85328087Y-71096457D01*
X85100000Y-71076502D01*
X84871913Y-71096457D01*
X84866600Y-71097881D01*
X84866598Y-71097881D01*
X84656067Y-71154293D01*
X84656065Y-71154294D01*
X84650757Y-71155716D01*
X84645776Y-71158039D01*
X84645775Y-71158039D01*
X84448238Y-71250151D01*
X84448233Y-71250154D01*
X84443251Y-71252477D01*
X84428970Y-71262477D01*
X84260211Y-71380643D01*
X84260208Y-71380645D01*
X84255700Y-71383802D01*
X84093802Y-71545700D01*
X84090645Y-71550208D01*
X84090643Y-71550211D01*
X84079563Y-71566035D01*
X83962477Y-71733251D01*
X83960154Y-71738233D01*
X83960151Y-71738238D01*
X83944195Y-71772457D01*
X83897278Y-71825742D01*
X83829001Y-71845203D01*
X83761041Y-71824661D01*
X83715805Y-71772457D01*
X83699849Y-71738238D01*
X83699846Y-71738233D01*
X83697523Y-71733251D01*
X83580437Y-71566035D01*
X83569357Y-71550211D01*
X83569355Y-71550208D01*
X83566198Y-71545700D01*
X83404300Y-71383802D01*
X83399792Y-71380645D01*
X83399789Y-71380643D01*
X83231030Y-71262477D01*
X83216749Y-71252477D01*
X83211767Y-71250154D01*
X83211762Y-71250151D01*
X83014225Y-71158039D01*
X83014224Y-71158039D01*
X83009243Y-71155716D01*
X83003935Y-71154294D01*
X83003933Y-71154293D01*
X82793402Y-71097881D01*
X82793400Y-71097881D01*
X82788087Y-71096457D01*
X82560000Y-71076502D01*
X82331913Y-71096457D01*
X82326600Y-71097881D01*
X82326598Y-71097881D01*
X82116067Y-71154293D01*
X82116065Y-71154294D01*
X82110757Y-71155716D01*
X82105776Y-71158039D01*
X82105775Y-71158039D01*
X81908238Y-71250151D01*
X81908233Y-71250154D01*
X81903251Y-71252477D01*
X81888970Y-71262477D01*
X81720211Y-71380643D01*
X81720208Y-71380645D01*
X81715700Y-71383802D01*
X81553802Y-71545700D01*
X81550645Y-71550208D01*
X81550643Y-71550211D01*
X81539563Y-71566035D01*
X81422477Y-71733251D01*
X81420154Y-71738233D01*
X81420151Y-71738238D01*
X81412335Y-71755000D01*
X81325716Y-71940757D01*
X81324294Y-71946065D01*
X81324293Y-71946067D01*
X81290000Y-72074050D01*
X81266457Y-72161913D01*
X81246502Y-72390000D01*
X78120750Y-72390000D01*
X78204621Y-72296852D01*
X78204622Y-72296851D01*
X78209040Y-72291944D01*
X78304527Y-72126556D01*
X78363542Y-71944928D01*
X78383504Y-71755000D01*
X78363542Y-71565072D01*
X78304527Y-71383444D01*
X78287121Y-71353295D01*
X78236509Y-71265634D01*
X78209040Y-71218056D01*
X78147209Y-71149385D01*
X78085675Y-71081045D01*
X78085674Y-71081044D01*
X78081253Y-71076134D01*
X77926752Y-70963882D01*
X77920724Y-70961198D01*
X77920722Y-70961197D01*
X77822816Y-70917607D01*
X77768721Y-70871627D01*
X77748071Y-70803700D01*
X77767423Y-70735392D01*
X77822816Y-70687393D01*
X77920722Y-70643803D01*
X77920724Y-70643802D01*
X77926752Y-70641118D01*
X78081253Y-70528866D01*
X78085675Y-70523955D01*
X78204621Y-70391852D01*
X78204622Y-70391851D01*
X78209040Y-70386944D01*
X78304527Y-70221556D01*
X78363542Y-70039928D01*
X78383504Y-69850000D01*
X78363542Y-69660072D01*
X78304527Y-69478444D01*
X78209040Y-69313056D01*
X78081253Y-69171134D01*
X77926752Y-69058882D01*
X77920724Y-69056198D01*
X77920722Y-69056197D01*
X77758319Y-68983891D01*
X77758318Y-68983891D01*
X77752288Y-68981206D01*
X77658888Y-68961353D01*
X77571944Y-68942872D01*
X77571939Y-68942872D01*
X77565487Y-68941500D01*
X77374513Y-68941500D01*
X77368061Y-68942872D01*
X77368056Y-68942872D01*
X77281112Y-68961353D01*
X77187712Y-68981206D01*
X77181682Y-68983891D01*
X77181681Y-68983891D01*
X77019278Y-69056197D01*
X77019276Y-69056198D01*
X77013248Y-69058882D01*
X76858747Y-69171134D01*
X76730960Y-69313056D01*
X76635473Y-69478444D01*
X76576458Y-69660072D01*
X76556496Y-69850000D01*
X76576458Y-70039928D01*
X76635473Y-70221556D01*
X76730960Y-70386944D01*
X76735378Y-70391851D01*
X76735379Y-70391852D01*
X76854325Y-70523955D01*
X76858747Y-70528866D01*
X77013248Y-70641118D01*
X77019276Y-70643802D01*
X77019278Y-70643803D01*
X77117184Y-70687393D01*
X77171279Y-70733373D01*
X77191929Y-70801300D01*
X77172577Y-70869608D01*
X77117184Y-70917607D01*
X77019278Y-70961197D01*
X77019276Y-70961198D01*
X77013248Y-70963882D01*
X76858747Y-71076134D01*
X76854326Y-71081044D01*
X76854325Y-71081045D01*
X76792792Y-71149385D01*
X76730960Y-71218056D01*
X76703491Y-71265634D01*
X76652880Y-71353295D01*
X76635473Y-71383444D01*
X76576458Y-71565072D01*
X76556496Y-71755000D01*
X73698500Y-71755000D01*
X73698500Y-71551866D01*
X73691745Y-71489684D01*
X73640615Y-71353295D01*
X73553261Y-71236739D01*
X73436705Y-71149385D01*
X73300316Y-71098255D01*
X73238134Y-71091500D01*
X71541866Y-71091500D01*
X71479684Y-71098255D01*
X71343295Y-71149385D01*
X71226739Y-71236739D01*
X71139385Y-71353295D01*
X71088255Y-71489684D01*
X71087083Y-71500474D01*
X71086197Y-71502606D01*
X71085575Y-71505222D01*
X71085152Y-71505121D01*
X71059845Y-71566035D01*
X71001483Y-71606463D01*
X70930529Y-71608922D01*
X70869510Y-71572629D01*
X70862511Y-71563969D01*
X70859354Y-71560207D01*
X70856198Y-71555700D01*
X70694300Y-71393802D01*
X70689792Y-71390645D01*
X70689789Y-71390643D01*
X70611611Y-71335902D01*
X70506749Y-71262477D01*
X70501767Y-71260154D01*
X70501762Y-71260151D01*
X70304225Y-71168039D01*
X70304224Y-71168039D01*
X70299243Y-71165716D01*
X70293935Y-71164294D01*
X70293933Y-71164293D01*
X70083402Y-71107881D01*
X70083400Y-71107881D01*
X70078087Y-71106457D01*
X69850000Y-71086502D01*
X69621913Y-71106457D01*
X69616600Y-71107881D01*
X69616598Y-71107881D01*
X69406067Y-71164293D01*
X69406065Y-71164294D01*
X69400757Y-71165716D01*
X69395776Y-71168039D01*
X69395775Y-71168039D01*
X69198238Y-71260151D01*
X69198233Y-71260154D01*
X69193251Y-71262477D01*
X69088389Y-71335902D01*
X69010211Y-71390643D01*
X69010208Y-71390645D01*
X69005700Y-71393802D01*
X68843802Y-71555700D01*
X68840645Y-71560208D01*
X68840643Y-71560211D01*
X68836565Y-71566035D01*
X68712477Y-71743251D01*
X68710154Y-71748233D01*
X68710151Y-71748238D01*
X68694195Y-71782457D01*
X68647278Y-71835742D01*
X68579001Y-71855203D01*
X68511041Y-71834661D01*
X68465805Y-71782457D01*
X68449849Y-71748238D01*
X68449846Y-71748233D01*
X68447523Y-71743251D01*
X68323435Y-71566035D01*
X68319357Y-71560211D01*
X68319355Y-71560208D01*
X68316198Y-71555700D01*
X68154300Y-71393802D01*
X68149792Y-71390645D01*
X68149789Y-71390643D01*
X68071611Y-71335902D01*
X67966749Y-71262477D01*
X67961767Y-71260154D01*
X67961762Y-71260151D01*
X67764225Y-71168039D01*
X67764224Y-71168039D01*
X67759243Y-71165716D01*
X67753935Y-71164294D01*
X67753933Y-71164293D01*
X67543402Y-71107881D01*
X67543400Y-71107881D01*
X67538087Y-71106457D01*
X67310000Y-71086502D01*
X67081913Y-71106457D01*
X67076600Y-71107881D01*
X67076598Y-71107881D01*
X66866067Y-71164293D01*
X66866065Y-71164294D01*
X66860757Y-71165716D01*
X66855776Y-71168039D01*
X66855775Y-71168039D01*
X66658238Y-71260151D01*
X66658233Y-71260154D01*
X66653251Y-71262477D01*
X66548389Y-71335902D01*
X66470211Y-71390643D01*
X66470208Y-71390645D01*
X66465700Y-71393802D01*
X66303802Y-71555700D01*
X66300645Y-71560208D01*
X66300643Y-71560211D01*
X66296565Y-71566035D01*
X66172477Y-71743251D01*
X66170154Y-71748233D01*
X66170151Y-71748238D01*
X66154195Y-71782457D01*
X66107278Y-71835742D01*
X66039001Y-71855203D01*
X65971041Y-71834661D01*
X65925805Y-71782457D01*
X65909849Y-71748238D01*
X65909846Y-71748233D01*
X65907523Y-71743251D01*
X65783435Y-71566035D01*
X65779357Y-71560211D01*
X65779355Y-71560208D01*
X65776198Y-71555700D01*
X65614300Y-71393802D01*
X65609792Y-71390645D01*
X65609789Y-71390643D01*
X65531611Y-71335902D01*
X65426749Y-71262477D01*
X65421767Y-71260154D01*
X65421762Y-71260151D01*
X65224225Y-71168039D01*
X65224224Y-71168039D01*
X65219243Y-71165716D01*
X65213935Y-71164294D01*
X65213933Y-71164293D01*
X65003402Y-71107881D01*
X65003400Y-71107881D01*
X64998087Y-71106457D01*
X64770000Y-71086502D01*
X64541913Y-71106457D01*
X64536600Y-71107881D01*
X64536598Y-71107881D01*
X64326067Y-71164293D01*
X64326065Y-71164294D01*
X64320757Y-71165716D01*
X64315776Y-71168039D01*
X64315775Y-71168039D01*
X64118238Y-71260151D01*
X64118233Y-71260154D01*
X64113251Y-71262477D01*
X64008389Y-71335902D01*
X63930211Y-71390643D01*
X63930208Y-71390645D01*
X63925700Y-71393802D01*
X63763802Y-71555700D01*
X63760645Y-71560208D01*
X63760643Y-71560211D01*
X63756565Y-71566035D01*
X63632477Y-71743251D01*
X63630154Y-71748233D01*
X63630151Y-71748238D01*
X63626998Y-71755000D01*
X63535716Y-71950757D01*
X63534294Y-71956065D01*
X63534293Y-71956067D01*
X63477881Y-72166598D01*
X63476457Y-72171913D01*
X63456502Y-72400000D01*
X61468500Y-72400000D01*
X61468500Y-68930000D01*
X61986835Y-68930000D01*
X62005465Y-69166711D01*
X62006619Y-69171518D01*
X62006620Y-69171524D01*
X62039421Y-69308148D01*
X62060895Y-69397594D01*
X62151760Y-69616963D01*
X62154346Y-69621183D01*
X62273241Y-69815202D01*
X62273245Y-69815208D01*
X62275824Y-69819416D01*
X62430031Y-69999969D01*
X62610584Y-70154176D01*
X62614792Y-70156755D01*
X62614798Y-70156759D01*
X62808817Y-70275654D01*
X62813037Y-70278240D01*
X62817607Y-70280133D01*
X62817611Y-70280135D01*
X63027833Y-70367211D01*
X63032406Y-70369105D01*
X63082894Y-70381226D01*
X63258476Y-70423380D01*
X63258482Y-70423381D01*
X63263289Y-70424535D01*
X63500000Y-70443165D01*
X63736711Y-70424535D01*
X63741518Y-70423381D01*
X63741524Y-70423380D01*
X63917106Y-70381226D01*
X63967594Y-70369105D01*
X63972167Y-70367211D01*
X64182389Y-70280135D01*
X64182393Y-70280133D01*
X64186963Y-70278240D01*
X64191183Y-70275654D01*
X64385202Y-70156759D01*
X64385208Y-70156755D01*
X64389416Y-70154176D01*
X64569969Y-69999969D01*
X64724176Y-69819416D01*
X64726755Y-69815208D01*
X64726759Y-69815202D01*
X64845654Y-69621183D01*
X64848240Y-69616963D01*
X64939105Y-69397594D01*
X64960579Y-69308148D01*
X64993380Y-69171524D01*
X64993381Y-69171518D01*
X64994535Y-69166711D01*
X65013165Y-68930000D01*
X68486835Y-68930000D01*
X68505465Y-69166711D01*
X68506619Y-69171518D01*
X68506620Y-69171524D01*
X68539421Y-69308148D01*
X68560895Y-69397594D01*
X68651760Y-69616963D01*
X68654346Y-69621183D01*
X68773241Y-69815202D01*
X68773245Y-69815208D01*
X68775824Y-69819416D01*
X68930031Y-69999969D01*
X69110584Y-70154176D01*
X69114792Y-70156755D01*
X69114798Y-70156759D01*
X69308817Y-70275654D01*
X69313037Y-70278240D01*
X69317607Y-70280133D01*
X69317611Y-70280135D01*
X69527833Y-70367211D01*
X69532406Y-70369105D01*
X69582894Y-70381226D01*
X69758476Y-70423380D01*
X69758482Y-70423381D01*
X69763289Y-70424535D01*
X70000000Y-70443165D01*
X70236711Y-70424535D01*
X70241518Y-70423381D01*
X70241524Y-70423380D01*
X70417106Y-70381226D01*
X70467594Y-70369105D01*
X70472167Y-70367211D01*
X70682389Y-70280135D01*
X70682393Y-70280133D01*
X70686963Y-70278240D01*
X70691183Y-70275654D01*
X70885202Y-70156759D01*
X70885208Y-70156755D01*
X70889416Y-70154176D01*
X71069969Y-69999969D01*
X71224176Y-69819416D01*
X71226755Y-69815208D01*
X71226759Y-69815202D01*
X71345654Y-69621183D01*
X71348240Y-69616963D01*
X71439105Y-69397594D01*
X71460579Y-69308148D01*
X71493380Y-69171524D01*
X71493381Y-69171518D01*
X71494535Y-69166711D01*
X71513165Y-68930000D01*
X72536835Y-68930000D01*
X72555465Y-69166711D01*
X72556619Y-69171518D01*
X72556620Y-69171524D01*
X72589421Y-69308148D01*
X72610895Y-69397594D01*
X72701760Y-69616963D01*
X72704346Y-69621183D01*
X72823241Y-69815202D01*
X72823245Y-69815208D01*
X72825824Y-69819416D01*
X72980031Y-69999969D01*
X73160584Y-70154176D01*
X73164792Y-70156755D01*
X73164798Y-70156759D01*
X73358817Y-70275654D01*
X73363037Y-70278240D01*
X73367607Y-70280133D01*
X73367611Y-70280135D01*
X73577833Y-70367211D01*
X73582406Y-70369105D01*
X73632894Y-70381226D01*
X73808476Y-70423380D01*
X73808482Y-70423381D01*
X73813289Y-70424535D01*
X74050000Y-70443165D01*
X74286711Y-70424535D01*
X74291518Y-70423381D01*
X74291524Y-70423380D01*
X74467106Y-70381226D01*
X74517594Y-70369105D01*
X74522167Y-70367211D01*
X74732389Y-70280135D01*
X74732393Y-70280133D01*
X74736963Y-70278240D01*
X74741183Y-70275654D01*
X74935202Y-70156759D01*
X74935208Y-70156755D01*
X74939416Y-70154176D01*
X75119969Y-69999969D01*
X75274176Y-69819416D01*
X75276755Y-69815208D01*
X75276759Y-69815202D01*
X75395654Y-69621183D01*
X75398240Y-69616963D01*
X75489105Y-69397594D01*
X75510579Y-69308148D01*
X75543380Y-69171524D01*
X75543381Y-69171518D01*
X75544535Y-69166711D01*
X75563165Y-68930000D01*
X79036835Y-68930000D01*
X79055465Y-69166711D01*
X79056619Y-69171518D01*
X79056620Y-69171524D01*
X79089421Y-69308148D01*
X79110895Y-69397594D01*
X79201760Y-69616963D01*
X79204346Y-69621183D01*
X79323241Y-69815202D01*
X79323245Y-69815208D01*
X79325824Y-69819416D01*
X79480031Y-69999969D01*
X79660584Y-70154176D01*
X79664792Y-70156755D01*
X79664798Y-70156759D01*
X79858817Y-70275654D01*
X79863037Y-70278240D01*
X79867607Y-70280133D01*
X79867611Y-70280135D01*
X80077833Y-70367211D01*
X80082406Y-70369105D01*
X80132894Y-70381226D01*
X80308476Y-70423380D01*
X80308482Y-70423381D01*
X80313289Y-70424535D01*
X80550000Y-70443165D01*
X80786711Y-70424535D01*
X80791518Y-70423381D01*
X80791524Y-70423380D01*
X80967106Y-70381226D01*
X81017594Y-70369105D01*
X81022167Y-70367211D01*
X81232389Y-70280135D01*
X81232393Y-70280133D01*
X81236963Y-70278240D01*
X81241183Y-70275654D01*
X81435202Y-70156759D01*
X81435208Y-70156755D01*
X81439416Y-70154176D01*
X81619969Y-69999969D01*
X81748055Y-69850000D01*
X85446496Y-69850000D01*
X85466458Y-70039928D01*
X85525473Y-70221556D01*
X85620960Y-70386944D01*
X85625378Y-70391851D01*
X85625379Y-70391852D01*
X85744325Y-70523955D01*
X85748747Y-70528866D01*
X85903248Y-70641118D01*
X85909276Y-70643802D01*
X85909278Y-70643803D01*
X86071681Y-70716109D01*
X86077712Y-70718794D01*
X86155799Y-70735392D01*
X86258056Y-70757128D01*
X86258061Y-70757128D01*
X86264513Y-70758500D01*
X86455487Y-70758500D01*
X86461939Y-70757128D01*
X86461944Y-70757128D01*
X86564201Y-70735392D01*
X86642288Y-70718794D01*
X86648319Y-70716109D01*
X86810722Y-70643803D01*
X86810724Y-70643802D01*
X86816752Y-70641118D01*
X86971253Y-70528866D01*
X86975675Y-70523955D01*
X87094621Y-70391852D01*
X87094622Y-70391851D01*
X87099040Y-70386944D01*
X87194527Y-70221556D01*
X87253542Y-70039928D01*
X87273504Y-69850000D01*
X89256496Y-69850000D01*
X89276458Y-70039928D01*
X89335473Y-70221556D01*
X89430960Y-70386944D01*
X89435378Y-70391851D01*
X89435379Y-70391852D01*
X89554325Y-70523955D01*
X89558747Y-70528866D01*
X89713248Y-70641118D01*
X89719276Y-70643802D01*
X89719278Y-70643803D01*
X89881681Y-70716109D01*
X89887712Y-70718794D01*
X89965799Y-70735392D01*
X90068056Y-70757128D01*
X90068061Y-70757128D01*
X90074513Y-70758500D01*
X90265487Y-70758500D01*
X90271939Y-70757128D01*
X90271944Y-70757128D01*
X90374201Y-70735392D01*
X90452288Y-70718794D01*
X90458319Y-70716109D01*
X90620722Y-70643803D01*
X90620724Y-70643802D01*
X90626752Y-70641118D01*
X90781253Y-70528866D01*
X90785675Y-70523955D01*
X90904621Y-70391852D01*
X90904622Y-70391851D01*
X90909040Y-70386944D01*
X91004527Y-70221556D01*
X91063542Y-70039928D01*
X91083504Y-69850000D01*
X91063542Y-69660072D01*
X91004527Y-69478444D01*
X90909040Y-69313056D01*
X90781253Y-69171134D01*
X90626752Y-69058882D01*
X90620724Y-69056198D01*
X90620722Y-69056197D01*
X90458319Y-68983891D01*
X90458318Y-68983891D01*
X90452288Y-68981206D01*
X90358888Y-68961353D01*
X90271944Y-68942872D01*
X90271939Y-68942872D01*
X90265487Y-68941500D01*
X90074513Y-68941500D01*
X90068061Y-68942872D01*
X90068056Y-68942872D01*
X89981112Y-68961353D01*
X89887712Y-68981206D01*
X89881682Y-68983891D01*
X89881681Y-68983891D01*
X89719278Y-69056197D01*
X89719276Y-69056198D01*
X89713248Y-69058882D01*
X89558747Y-69171134D01*
X89430960Y-69313056D01*
X89335473Y-69478444D01*
X89276458Y-69660072D01*
X89256496Y-69850000D01*
X87273504Y-69850000D01*
X87253542Y-69660072D01*
X87194527Y-69478444D01*
X87099040Y-69313056D01*
X86971253Y-69171134D01*
X86816752Y-69058882D01*
X86810724Y-69056198D01*
X86810722Y-69056197D01*
X86648319Y-68983891D01*
X86648318Y-68983891D01*
X86642288Y-68981206D01*
X86548888Y-68961353D01*
X86461944Y-68942872D01*
X86461939Y-68942872D01*
X86455487Y-68941500D01*
X86264513Y-68941500D01*
X86258061Y-68942872D01*
X86258056Y-68942872D01*
X86171112Y-68961353D01*
X86077712Y-68981206D01*
X86071682Y-68983891D01*
X86071681Y-68983891D01*
X85909278Y-69056197D01*
X85909276Y-69056198D01*
X85903248Y-69058882D01*
X85748747Y-69171134D01*
X85620960Y-69313056D01*
X85525473Y-69478444D01*
X85466458Y-69660072D01*
X85446496Y-69850000D01*
X81748055Y-69850000D01*
X81774176Y-69819416D01*
X81776755Y-69815208D01*
X81776759Y-69815202D01*
X81895654Y-69621183D01*
X81898240Y-69616963D01*
X81989105Y-69397594D01*
X82010579Y-69308148D01*
X82043380Y-69171524D01*
X82043381Y-69171518D01*
X82044535Y-69166711D01*
X82063165Y-68930000D01*
X82044535Y-68693289D01*
X81989105Y-68462406D01*
X81898240Y-68243037D01*
X81895654Y-68238817D01*
X81776759Y-68044798D01*
X81776755Y-68044792D01*
X81774176Y-68040584D01*
X81619969Y-67860031D01*
X81439416Y-67705824D01*
X81435208Y-67703245D01*
X81435202Y-67703241D01*
X81241183Y-67584346D01*
X81236963Y-67581760D01*
X81232393Y-67579867D01*
X81232389Y-67579865D01*
X81022167Y-67492789D01*
X81022165Y-67492788D01*
X81017594Y-67490895D01*
X80937391Y-67471640D01*
X80791524Y-67436620D01*
X80791518Y-67436619D01*
X80786711Y-67435465D01*
X80550000Y-67416835D01*
X80313289Y-67435465D01*
X80308482Y-67436619D01*
X80308476Y-67436620D01*
X80162609Y-67471640D01*
X80082406Y-67490895D01*
X80077835Y-67492788D01*
X80077833Y-67492789D01*
X79867611Y-67579865D01*
X79867607Y-67579867D01*
X79863037Y-67581760D01*
X79858817Y-67584346D01*
X79664798Y-67703241D01*
X79664792Y-67703245D01*
X79660584Y-67705824D01*
X79480031Y-67860031D01*
X79325824Y-68040584D01*
X79323245Y-68044792D01*
X79323241Y-68044798D01*
X79204346Y-68238817D01*
X79201760Y-68243037D01*
X79110895Y-68462406D01*
X79055465Y-68693289D01*
X79036835Y-68930000D01*
X75563165Y-68930000D01*
X75544535Y-68693289D01*
X75489105Y-68462406D01*
X75398240Y-68243037D01*
X75395654Y-68238817D01*
X75276759Y-68044798D01*
X75276755Y-68044792D01*
X75274176Y-68040584D01*
X75119969Y-67860031D01*
X74939416Y-67705824D01*
X74935208Y-67703245D01*
X74935202Y-67703241D01*
X74741183Y-67584346D01*
X74736963Y-67581760D01*
X74732393Y-67579867D01*
X74732389Y-67579865D01*
X74522167Y-67492789D01*
X74522165Y-67492788D01*
X74517594Y-67490895D01*
X74437391Y-67471640D01*
X74291524Y-67436620D01*
X74291518Y-67436619D01*
X74286711Y-67435465D01*
X74050000Y-67416835D01*
X73813289Y-67435465D01*
X73808482Y-67436619D01*
X73808476Y-67436620D01*
X73662609Y-67471640D01*
X73582406Y-67490895D01*
X73577835Y-67492788D01*
X73577833Y-67492789D01*
X73367611Y-67579865D01*
X73367607Y-67579867D01*
X73363037Y-67581760D01*
X73358817Y-67584346D01*
X73164798Y-67703241D01*
X73164792Y-67703245D01*
X73160584Y-67705824D01*
X72980031Y-67860031D01*
X72825824Y-68040584D01*
X72823245Y-68044792D01*
X72823241Y-68044798D01*
X72704346Y-68238817D01*
X72701760Y-68243037D01*
X72610895Y-68462406D01*
X72555465Y-68693289D01*
X72536835Y-68930000D01*
X71513165Y-68930000D01*
X71494535Y-68693289D01*
X71439105Y-68462406D01*
X71348240Y-68243037D01*
X71345654Y-68238817D01*
X71226759Y-68044798D01*
X71226755Y-68044792D01*
X71224176Y-68040584D01*
X71069969Y-67860031D01*
X70889416Y-67705824D01*
X70885208Y-67703245D01*
X70885202Y-67703241D01*
X70691183Y-67584346D01*
X70686963Y-67581760D01*
X70682393Y-67579867D01*
X70682389Y-67579865D01*
X70472167Y-67492789D01*
X70472165Y-67492788D01*
X70467594Y-67490895D01*
X70387391Y-67471640D01*
X70241524Y-67436620D01*
X70241518Y-67436619D01*
X70236711Y-67435465D01*
X70000000Y-67416835D01*
X69763289Y-67435465D01*
X69758482Y-67436619D01*
X69758476Y-67436620D01*
X69612609Y-67471640D01*
X69532406Y-67490895D01*
X69527835Y-67492788D01*
X69527833Y-67492789D01*
X69317611Y-67579865D01*
X69317607Y-67579867D01*
X69313037Y-67581760D01*
X69308817Y-67584346D01*
X69114798Y-67703241D01*
X69114792Y-67703245D01*
X69110584Y-67705824D01*
X68930031Y-67860031D01*
X68775824Y-68040584D01*
X68773245Y-68044792D01*
X68773241Y-68044798D01*
X68654346Y-68238817D01*
X68651760Y-68243037D01*
X68560895Y-68462406D01*
X68505465Y-68693289D01*
X68486835Y-68930000D01*
X65013165Y-68930000D01*
X64994535Y-68693289D01*
X64939105Y-68462406D01*
X64848240Y-68243037D01*
X64845654Y-68238817D01*
X64726759Y-68044798D01*
X64726755Y-68044792D01*
X64724176Y-68040584D01*
X64569969Y-67860031D01*
X64389416Y-67705824D01*
X64385208Y-67703245D01*
X64385202Y-67703241D01*
X64191183Y-67584346D01*
X64186963Y-67581760D01*
X64182393Y-67579867D01*
X64182389Y-67579865D01*
X63972167Y-67492789D01*
X63972165Y-67492788D01*
X63967594Y-67490895D01*
X63887391Y-67471640D01*
X63741524Y-67436620D01*
X63741518Y-67436619D01*
X63736711Y-67435465D01*
X63500000Y-67416835D01*
X63263289Y-67435465D01*
X63258482Y-67436619D01*
X63258476Y-67436620D01*
X63112609Y-67471640D01*
X63032406Y-67490895D01*
X63027835Y-67492788D01*
X63027833Y-67492789D01*
X62817611Y-67579865D01*
X62817607Y-67579867D01*
X62813037Y-67581760D01*
X62808817Y-67584346D01*
X62614798Y-67703241D01*
X62614792Y-67703245D01*
X62610584Y-67705824D01*
X62430031Y-67860031D01*
X62275824Y-68040584D01*
X62273245Y-68044792D01*
X62273241Y-68044798D01*
X62154346Y-68238817D01*
X62151760Y-68243037D01*
X62060895Y-68462406D01*
X62005465Y-68693289D01*
X61986835Y-68930000D01*
X61468500Y-68930000D01*
X61468500Y-64770000D01*
X66396496Y-64770000D01*
X66416458Y-64959928D01*
X66475473Y-65141556D01*
X66570960Y-65306944D01*
X66698747Y-65448866D01*
X66853248Y-65561118D01*
X66859276Y-65563802D01*
X66859278Y-65563803D01*
X66981450Y-65618197D01*
X67027712Y-65638794D01*
X67121112Y-65658647D01*
X67208056Y-65677128D01*
X67208061Y-65677128D01*
X67214513Y-65678500D01*
X67405487Y-65678500D01*
X67411939Y-65677128D01*
X67411944Y-65677128D01*
X67498888Y-65658647D01*
X67592288Y-65638794D01*
X67638550Y-65618197D01*
X67760722Y-65563803D01*
X67760724Y-65563802D01*
X67766752Y-65561118D01*
X67921253Y-65448866D01*
X68049040Y-65306944D01*
X68144527Y-65141556D01*
X68203542Y-64959928D01*
X68223504Y-64770000D01*
X76386496Y-64770000D01*
X76406458Y-64959928D01*
X76465473Y-65141556D01*
X76560960Y-65306944D01*
X76688747Y-65448866D01*
X76843248Y-65561118D01*
X76849276Y-65563802D01*
X76849278Y-65563803D01*
X76971450Y-65618197D01*
X77017712Y-65638794D01*
X77111112Y-65658647D01*
X77198056Y-65677128D01*
X77198061Y-65677128D01*
X77204513Y-65678500D01*
X77395487Y-65678500D01*
X77401939Y-65677128D01*
X77401944Y-65677128D01*
X77488888Y-65658647D01*
X77582288Y-65638794D01*
X77628550Y-65618197D01*
X77628692Y-65618134D01*
X85071500Y-65618134D01*
X85078255Y-65680316D01*
X85129385Y-65816705D01*
X85216739Y-65933261D01*
X85333295Y-66020615D01*
X85469684Y-66071745D01*
X85531866Y-66078500D01*
X87228134Y-66078500D01*
X87290316Y-66071745D01*
X87426705Y-66020615D01*
X87543261Y-65933261D01*
X87630615Y-65816705D01*
X87681745Y-65680316D01*
X87682917Y-65669526D01*
X87683803Y-65667394D01*
X87684425Y-65664778D01*
X87684848Y-65664879D01*
X87710155Y-65603965D01*
X87768517Y-65563537D01*
X87839471Y-65561078D01*
X87900490Y-65597371D01*
X87907489Y-65606031D01*
X87910643Y-65609789D01*
X87913802Y-65614300D01*
X88075700Y-65776198D01*
X88080208Y-65779355D01*
X88080211Y-65779357D01*
X88121542Y-65808297D01*
X88263251Y-65907523D01*
X88268233Y-65909846D01*
X88268238Y-65909849D01*
X88465775Y-66001961D01*
X88470757Y-66004284D01*
X88476065Y-66005706D01*
X88476067Y-66005707D01*
X88686598Y-66062119D01*
X88686600Y-66062119D01*
X88691913Y-66063543D01*
X88920000Y-66083498D01*
X89148087Y-66063543D01*
X89153400Y-66062119D01*
X89153402Y-66062119D01*
X89363933Y-66005707D01*
X89363935Y-66005706D01*
X89369243Y-66004284D01*
X89374225Y-66001961D01*
X89571762Y-65909849D01*
X89571767Y-65909846D01*
X89576749Y-65907523D01*
X89718458Y-65808297D01*
X89759789Y-65779357D01*
X89759792Y-65779355D01*
X89764300Y-65776198D01*
X89926198Y-65614300D01*
X89939763Y-65594928D01*
X89984098Y-65531611D01*
X90057523Y-65426749D01*
X90059846Y-65421767D01*
X90059849Y-65421762D01*
X90151961Y-65224225D01*
X90151961Y-65224224D01*
X90154284Y-65219243D01*
X90176785Y-65135271D01*
X90212119Y-65003402D01*
X90212119Y-65003400D01*
X90213543Y-64998087D01*
X90233498Y-64770000D01*
X90213543Y-64541913D01*
X90201375Y-64496500D01*
X90155707Y-64326067D01*
X90155706Y-64326065D01*
X90154284Y-64320757D01*
X90111100Y-64228148D01*
X90059849Y-64118238D01*
X90059846Y-64118233D01*
X90057523Y-64113251D01*
X89963437Y-63978882D01*
X89929357Y-63930211D01*
X89929355Y-63930208D01*
X89926198Y-63925700D01*
X89764300Y-63763802D01*
X89759792Y-63760645D01*
X89759789Y-63760643D01*
X89681611Y-63705902D01*
X89576749Y-63632477D01*
X89571767Y-63630154D01*
X89571762Y-63630151D01*
X89374225Y-63538039D01*
X89374224Y-63538039D01*
X89369243Y-63535716D01*
X89363935Y-63534294D01*
X89363933Y-63534293D01*
X89153402Y-63477881D01*
X89153400Y-63477881D01*
X89148087Y-63476457D01*
X88920000Y-63456502D01*
X88691913Y-63476457D01*
X88686600Y-63477881D01*
X88686598Y-63477881D01*
X88476067Y-63534293D01*
X88476065Y-63534294D01*
X88470757Y-63535716D01*
X88465776Y-63538039D01*
X88465775Y-63538039D01*
X88268238Y-63630151D01*
X88268233Y-63630154D01*
X88263251Y-63632477D01*
X88158389Y-63705902D01*
X88080211Y-63760643D01*
X88080208Y-63760645D01*
X88075700Y-63763802D01*
X87913802Y-63925700D01*
X87910643Y-63930211D01*
X87907108Y-63934424D01*
X87905974Y-63933473D01*
X87855929Y-63973471D01*
X87785310Y-63980776D01*
X87721951Y-63948742D01*
X87685970Y-63887538D01*
X87682918Y-63870483D01*
X87681745Y-63859684D01*
X87630615Y-63723295D01*
X87543261Y-63606739D01*
X87426705Y-63519385D01*
X87290316Y-63468255D01*
X87228134Y-63461500D01*
X85531866Y-63461500D01*
X85469684Y-63468255D01*
X85333295Y-63519385D01*
X85216739Y-63606739D01*
X85129385Y-63723295D01*
X85078255Y-63859684D01*
X85071500Y-63921866D01*
X85071500Y-65618134D01*
X77628692Y-65618134D01*
X77750722Y-65563803D01*
X77750724Y-65563802D01*
X77756752Y-65561118D01*
X77911253Y-65448866D01*
X78039040Y-65306944D01*
X78134527Y-65141556D01*
X78193542Y-64959928D01*
X78213504Y-64770000D01*
X78201536Y-64656127D01*
X78194232Y-64586635D01*
X78194232Y-64586633D01*
X78193542Y-64580072D01*
X78134527Y-64398444D01*
X78039040Y-64233056D01*
X77911253Y-64091134D01*
X77756752Y-63978882D01*
X77750724Y-63976198D01*
X77750722Y-63976197D01*
X77588319Y-63903891D01*
X77588318Y-63903891D01*
X77582288Y-63901206D01*
X77488888Y-63881353D01*
X77401944Y-63862872D01*
X77401939Y-63862872D01*
X77395487Y-63861500D01*
X77204513Y-63861500D01*
X77198061Y-63862872D01*
X77198056Y-63862872D01*
X77111112Y-63881353D01*
X77017712Y-63901206D01*
X77011682Y-63903891D01*
X77011681Y-63903891D01*
X76849278Y-63976197D01*
X76849276Y-63976198D01*
X76843248Y-63978882D01*
X76688747Y-64091134D01*
X76560960Y-64233056D01*
X76465473Y-64398444D01*
X76406458Y-64580072D01*
X76405768Y-64586633D01*
X76405768Y-64586635D01*
X76398464Y-64656127D01*
X76386496Y-64770000D01*
X68223504Y-64770000D01*
X68211536Y-64656127D01*
X68204232Y-64586635D01*
X68204232Y-64586633D01*
X68203542Y-64580072D01*
X68144527Y-64398444D01*
X68049040Y-64233056D01*
X67921253Y-64091134D01*
X67766752Y-63978882D01*
X67760724Y-63976198D01*
X67760722Y-63976197D01*
X67598319Y-63903891D01*
X67598318Y-63903891D01*
X67592288Y-63901206D01*
X67498888Y-63881353D01*
X67411944Y-63862872D01*
X67411939Y-63862872D01*
X67405487Y-63861500D01*
X67214513Y-63861500D01*
X67208061Y-63862872D01*
X67208056Y-63862872D01*
X67121112Y-63881353D01*
X67027712Y-63901206D01*
X67021682Y-63903891D01*
X67021681Y-63903891D01*
X66859278Y-63976197D01*
X66859276Y-63976198D01*
X66853248Y-63978882D01*
X66698747Y-64091134D01*
X66570960Y-64233056D01*
X66475473Y-64398444D01*
X66416458Y-64580072D01*
X66415768Y-64586633D01*
X66415768Y-64586635D01*
X66408464Y-64656127D01*
X66396496Y-64770000D01*
X61468500Y-64770000D01*
X61468500Y-60380000D01*
X61986835Y-60380000D01*
X62005465Y-60616711D01*
X62060895Y-60847594D01*
X62062788Y-60852165D01*
X62062789Y-60852167D01*
X62148071Y-61058056D01*
X62151760Y-61066963D01*
X62154346Y-61071183D01*
X62273241Y-61265202D01*
X62273245Y-61265208D01*
X62275824Y-61269416D01*
X62430031Y-61449969D01*
X62610584Y-61604176D01*
X62614792Y-61606755D01*
X62614798Y-61606759D01*
X62808817Y-61725654D01*
X62813037Y-61728240D01*
X62817607Y-61730133D01*
X62817611Y-61730135D01*
X62965051Y-61791206D01*
X63032406Y-61819105D01*
X63112609Y-61838360D01*
X63258476Y-61873380D01*
X63258482Y-61873381D01*
X63263289Y-61874535D01*
X63500000Y-61893165D01*
X63736711Y-61874535D01*
X63741518Y-61873381D01*
X63741524Y-61873380D01*
X63887391Y-61838360D01*
X63967594Y-61819105D01*
X64034949Y-61791206D01*
X64182389Y-61730135D01*
X64182393Y-61730133D01*
X64186963Y-61728240D01*
X64191183Y-61725654D01*
X64385202Y-61606759D01*
X64385208Y-61606755D01*
X64389416Y-61604176D01*
X64569969Y-61449969D01*
X64724176Y-61269416D01*
X64726755Y-61265208D01*
X64726759Y-61265202D01*
X64845654Y-61071183D01*
X64848240Y-61066963D01*
X64851930Y-61058056D01*
X64937211Y-60852167D01*
X64937212Y-60852165D01*
X64939105Y-60847594D01*
X64994535Y-60616711D01*
X65013165Y-60380000D01*
X68486835Y-60380000D01*
X68505465Y-60616711D01*
X68560895Y-60847594D01*
X68562788Y-60852165D01*
X68562789Y-60852167D01*
X68648071Y-61058056D01*
X68651760Y-61066963D01*
X68654346Y-61071183D01*
X68773241Y-61265202D01*
X68773245Y-61265208D01*
X68775824Y-61269416D01*
X68930031Y-61449969D01*
X69110584Y-61604176D01*
X69114792Y-61606755D01*
X69114798Y-61606759D01*
X69308817Y-61725654D01*
X69313037Y-61728240D01*
X69317607Y-61730133D01*
X69317611Y-61730135D01*
X69465051Y-61791206D01*
X69532406Y-61819105D01*
X69612609Y-61838360D01*
X69758476Y-61873380D01*
X69758482Y-61873381D01*
X69763289Y-61874535D01*
X70000000Y-61893165D01*
X70236711Y-61874535D01*
X70241518Y-61873381D01*
X70241524Y-61873380D01*
X70387391Y-61838360D01*
X70467594Y-61819105D01*
X70534949Y-61791206D01*
X70682389Y-61730135D01*
X70682393Y-61730133D01*
X70686963Y-61728240D01*
X70691183Y-61725654D01*
X70885202Y-61606759D01*
X70885208Y-61606755D01*
X70889416Y-61604176D01*
X71069969Y-61449969D01*
X71224176Y-61269416D01*
X71226755Y-61265208D01*
X71226759Y-61265202D01*
X71345654Y-61071183D01*
X71348240Y-61066963D01*
X71351930Y-61058056D01*
X71437211Y-60852167D01*
X71437212Y-60852165D01*
X71439105Y-60847594D01*
X71494535Y-60616711D01*
X71513165Y-60380000D01*
X72536835Y-60380000D01*
X72555465Y-60616711D01*
X72610895Y-60847594D01*
X72612788Y-60852165D01*
X72612789Y-60852167D01*
X72698071Y-61058056D01*
X72701760Y-61066963D01*
X72704346Y-61071183D01*
X72823241Y-61265202D01*
X72823245Y-61265208D01*
X72825824Y-61269416D01*
X72980031Y-61449969D01*
X73160584Y-61604176D01*
X73164792Y-61606755D01*
X73164798Y-61606759D01*
X73358817Y-61725654D01*
X73363037Y-61728240D01*
X73367607Y-61730133D01*
X73367611Y-61730135D01*
X73515051Y-61791206D01*
X73582406Y-61819105D01*
X73662609Y-61838360D01*
X73808476Y-61873380D01*
X73808482Y-61873381D01*
X73813289Y-61874535D01*
X74050000Y-61893165D01*
X74286711Y-61874535D01*
X74291518Y-61873381D01*
X74291524Y-61873380D01*
X74437391Y-61838360D01*
X74517594Y-61819105D01*
X74584949Y-61791206D01*
X74732389Y-61730135D01*
X74732393Y-61730133D01*
X74736963Y-61728240D01*
X74741183Y-61725654D01*
X74935202Y-61606759D01*
X74935208Y-61606755D01*
X74939416Y-61604176D01*
X75119969Y-61449969D01*
X75274176Y-61269416D01*
X75276755Y-61265208D01*
X75276759Y-61265202D01*
X75395654Y-61071183D01*
X75398240Y-61066963D01*
X75401930Y-61058056D01*
X75487211Y-60852167D01*
X75487212Y-60852165D01*
X75489105Y-60847594D01*
X75544535Y-60616711D01*
X75563165Y-60380000D01*
X79036835Y-60380000D01*
X79055465Y-60616711D01*
X79110895Y-60847594D01*
X79112788Y-60852165D01*
X79112789Y-60852167D01*
X79198071Y-61058056D01*
X79201760Y-61066963D01*
X79204346Y-61071183D01*
X79323241Y-61265202D01*
X79323245Y-61265208D01*
X79325824Y-61269416D01*
X79480031Y-61449969D01*
X79660584Y-61604176D01*
X79664792Y-61606755D01*
X79664798Y-61606759D01*
X79858817Y-61725654D01*
X79863037Y-61728240D01*
X79867607Y-61730133D01*
X79867611Y-61730135D01*
X80015051Y-61791206D01*
X80082406Y-61819105D01*
X80162609Y-61838360D01*
X80308476Y-61873380D01*
X80308482Y-61873381D01*
X80313289Y-61874535D01*
X80550000Y-61893165D01*
X80786711Y-61874535D01*
X80791518Y-61873381D01*
X80791524Y-61873380D01*
X80937391Y-61838360D01*
X81017594Y-61819105D01*
X81084949Y-61791206D01*
X81232389Y-61730135D01*
X81232393Y-61730133D01*
X81236963Y-61728240D01*
X81241183Y-61725654D01*
X81435202Y-61606759D01*
X81435208Y-61606755D01*
X81439416Y-61604176D01*
X81619969Y-61449969D01*
X81774176Y-61269416D01*
X81776755Y-61265208D01*
X81776759Y-61265202D01*
X81895654Y-61071183D01*
X81898240Y-61066963D01*
X81901930Y-61058056D01*
X81987211Y-60852167D01*
X81987212Y-60852165D01*
X81989105Y-60847594D01*
X82044535Y-60616711D01*
X82063165Y-60380000D01*
X82058836Y-60325000D01*
X86716496Y-60325000D01*
X86717186Y-60331565D01*
X86721759Y-60375070D01*
X86736458Y-60514928D01*
X86795473Y-60696556D01*
X86890960Y-60861944D01*
X86895378Y-60866851D01*
X86895379Y-60866852D01*
X86939753Y-60916134D01*
X87018747Y-61003866D01*
X87086578Y-61053148D01*
X87146877Y-61096958D01*
X87173248Y-61116118D01*
X87179276Y-61118802D01*
X87179278Y-61118803D01*
X87341681Y-61191109D01*
X87347712Y-61193794D01*
X87441113Y-61213647D01*
X87528056Y-61232128D01*
X87528061Y-61232128D01*
X87534513Y-61233500D01*
X87725487Y-61233500D01*
X87731939Y-61232128D01*
X87731944Y-61232128D01*
X87818887Y-61213647D01*
X87912288Y-61193794D01*
X87918319Y-61191109D01*
X88080722Y-61118803D01*
X88080724Y-61118802D01*
X88086752Y-61116118D01*
X88113124Y-61096958D01*
X88173422Y-61053148D01*
X88241253Y-61003866D01*
X88320247Y-60916134D01*
X88364621Y-60866852D01*
X88364622Y-60866851D01*
X88369040Y-60861944D01*
X88464527Y-60696556D01*
X88523542Y-60514928D01*
X88538242Y-60375070D01*
X88542814Y-60331565D01*
X88543504Y-60325000D01*
X88523542Y-60135072D01*
X88464527Y-59953444D01*
X88369040Y-59788056D01*
X88323744Y-59737749D01*
X88245675Y-59651045D01*
X88245674Y-59651044D01*
X88241253Y-59646134D01*
X88086752Y-59533882D01*
X88080724Y-59531198D01*
X88080722Y-59531197D01*
X87918319Y-59458891D01*
X87918318Y-59458891D01*
X87912288Y-59456206D01*
X87799721Y-59432279D01*
X87731944Y-59417872D01*
X87731939Y-59417872D01*
X87725487Y-59416500D01*
X87534513Y-59416500D01*
X87528061Y-59417872D01*
X87528056Y-59417872D01*
X87460279Y-59432279D01*
X87347712Y-59456206D01*
X87341682Y-59458891D01*
X87341681Y-59458891D01*
X87179278Y-59531197D01*
X87179276Y-59531198D01*
X87173248Y-59533882D01*
X87018747Y-59646134D01*
X87014326Y-59651044D01*
X87014325Y-59651045D01*
X86936257Y-59737749D01*
X86890960Y-59788056D01*
X86795473Y-59953444D01*
X86736458Y-60135072D01*
X86716496Y-60325000D01*
X82058836Y-60325000D01*
X82044535Y-60143289D01*
X82042563Y-60135072D01*
X82008360Y-59992609D01*
X81989105Y-59912406D01*
X81960040Y-59842237D01*
X81900135Y-59697611D01*
X81900133Y-59697607D01*
X81898240Y-59693037D01*
X81867118Y-59642251D01*
X81776759Y-59494798D01*
X81776755Y-59494792D01*
X81774176Y-59490584D01*
X81619969Y-59310031D01*
X81439416Y-59155824D01*
X81435208Y-59153245D01*
X81435202Y-59153241D01*
X81241183Y-59034346D01*
X81236963Y-59031760D01*
X81232393Y-59029867D01*
X81232389Y-59029865D01*
X81022167Y-58942789D01*
X81022165Y-58942788D01*
X81017594Y-58940895D01*
X80937391Y-58921640D01*
X80791524Y-58886620D01*
X80791518Y-58886619D01*
X80786711Y-58885465D01*
X80550000Y-58866835D01*
X80313289Y-58885465D01*
X80308482Y-58886619D01*
X80308476Y-58886620D01*
X80162609Y-58921640D01*
X80082406Y-58940895D01*
X80077835Y-58942788D01*
X80077833Y-58942789D01*
X79867611Y-59029865D01*
X79867607Y-59029867D01*
X79863037Y-59031760D01*
X79858817Y-59034346D01*
X79664798Y-59153241D01*
X79664792Y-59153245D01*
X79660584Y-59155824D01*
X79480031Y-59310031D01*
X79325824Y-59490584D01*
X79323245Y-59494792D01*
X79323241Y-59494798D01*
X79232882Y-59642251D01*
X79201760Y-59693037D01*
X79199867Y-59697607D01*
X79199865Y-59697611D01*
X79139960Y-59842237D01*
X79110895Y-59912406D01*
X79091640Y-59992609D01*
X79057438Y-60135072D01*
X79055465Y-60143289D01*
X79036835Y-60380000D01*
X75563165Y-60380000D01*
X75544535Y-60143289D01*
X75542563Y-60135072D01*
X75508360Y-59992609D01*
X75489105Y-59912406D01*
X75460040Y-59842237D01*
X75400135Y-59697611D01*
X75400133Y-59697607D01*
X75398240Y-59693037D01*
X75367118Y-59642251D01*
X75276759Y-59494798D01*
X75276755Y-59494792D01*
X75274176Y-59490584D01*
X75119969Y-59310031D01*
X74939416Y-59155824D01*
X74935208Y-59153245D01*
X74935202Y-59153241D01*
X74741183Y-59034346D01*
X74736963Y-59031760D01*
X74732393Y-59029867D01*
X74732389Y-59029865D01*
X74522167Y-58942789D01*
X74522165Y-58942788D01*
X74517594Y-58940895D01*
X74437391Y-58921640D01*
X74291524Y-58886620D01*
X74291518Y-58886619D01*
X74286711Y-58885465D01*
X74050000Y-58866835D01*
X73813289Y-58885465D01*
X73808482Y-58886619D01*
X73808476Y-58886620D01*
X73662609Y-58921640D01*
X73582406Y-58940895D01*
X73577835Y-58942788D01*
X73577833Y-58942789D01*
X73367611Y-59029865D01*
X73367607Y-59029867D01*
X73363037Y-59031760D01*
X73358817Y-59034346D01*
X73164798Y-59153241D01*
X73164792Y-59153245D01*
X73160584Y-59155824D01*
X72980031Y-59310031D01*
X72825824Y-59490584D01*
X72823245Y-59494792D01*
X72823241Y-59494798D01*
X72732882Y-59642251D01*
X72701760Y-59693037D01*
X72699867Y-59697607D01*
X72699865Y-59697611D01*
X72639960Y-59842237D01*
X72610895Y-59912406D01*
X72591640Y-59992609D01*
X72557438Y-60135072D01*
X72555465Y-60143289D01*
X72536835Y-60380000D01*
X71513165Y-60380000D01*
X71494535Y-60143289D01*
X71492563Y-60135072D01*
X71458360Y-59992609D01*
X71439105Y-59912406D01*
X71410040Y-59842237D01*
X71350135Y-59697611D01*
X71350133Y-59697607D01*
X71348240Y-59693037D01*
X71317118Y-59642251D01*
X71226759Y-59494798D01*
X71226755Y-59494792D01*
X71224176Y-59490584D01*
X71069969Y-59310031D01*
X70889416Y-59155824D01*
X70885208Y-59153245D01*
X70885202Y-59153241D01*
X70691183Y-59034346D01*
X70686963Y-59031760D01*
X70682393Y-59029867D01*
X70682389Y-59029865D01*
X70472167Y-58942789D01*
X70472165Y-58942788D01*
X70467594Y-58940895D01*
X70387391Y-58921640D01*
X70241524Y-58886620D01*
X70241518Y-58886619D01*
X70236711Y-58885465D01*
X70000000Y-58866835D01*
X69763289Y-58885465D01*
X69758482Y-58886619D01*
X69758476Y-58886620D01*
X69612609Y-58921640D01*
X69532406Y-58940895D01*
X69527835Y-58942788D01*
X69527833Y-58942789D01*
X69317611Y-59029865D01*
X69317607Y-59029867D01*
X69313037Y-59031760D01*
X69308817Y-59034346D01*
X69114798Y-59153241D01*
X69114792Y-59153245D01*
X69110584Y-59155824D01*
X68930031Y-59310031D01*
X68775824Y-59490584D01*
X68773245Y-59494792D01*
X68773241Y-59494798D01*
X68682882Y-59642251D01*
X68651760Y-59693037D01*
X68649867Y-59697607D01*
X68649865Y-59697611D01*
X68589960Y-59842237D01*
X68560895Y-59912406D01*
X68541640Y-59992609D01*
X68507438Y-60135072D01*
X68505465Y-60143289D01*
X68486835Y-60380000D01*
X65013165Y-60380000D01*
X64994535Y-60143289D01*
X64992563Y-60135072D01*
X64958360Y-59992609D01*
X64939105Y-59912406D01*
X64910040Y-59842237D01*
X64850135Y-59697611D01*
X64850133Y-59697607D01*
X64848240Y-59693037D01*
X64817118Y-59642251D01*
X64726759Y-59494798D01*
X64726755Y-59494792D01*
X64724176Y-59490584D01*
X64569969Y-59310031D01*
X64389416Y-59155824D01*
X64385208Y-59153245D01*
X64385202Y-59153241D01*
X64224887Y-59055000D01*
X66396496Y-59055000D01*
X66416458Y-59244928D01*
X66475473Y-59426556D01*
X66570960Y-59591944D01*
X66575378Y-59596851D01*
X66575379Y-59596852D01*
X66619753Y-59646134D01*
X66698747Y-59733866D01*
X66853248Y-59846118D01*
X66859276Y-59848802D01*
X66859278Y-59848803D01*
X67002134Y-59912406D01*
X67027712Y-59923794D01*
X67121112Y-59943647D01*
X67208056Y-59962128D01*
X67208061Y-59962128D01*
X67214513Y-59963500D01*
X67405487Y-59963500D01*
X67411939Y-59962128D01*
X67411944Y-59962128D01*
X67498888Y-59943647D01*
X67592288Y-59923794D01*
X67617866Y-59912406D01*
X67760722Y-59848803D01*
X67760724Y-59848802D01*
X67766752Y-59846118D01*
X67921253Y-59733866D01*
X68000247Y-59646134D01*
X68044621Y-59596852D01*
X68044622Y-59596851D01*
X68049040Y-59591944D01*
X68144527Y-59426556D01*
X68203542Y-59244928D01*
X68223504Y-59055000D01*
X68205807Y-58886620D01*
X68204232Y-58871635D01*
X68204232Y-58871633D01*
X68203542Y-58865072D01*
X68144527Y-58683444D01*
X68049040Y-58518056D01*
X68003744Y-58467749D01*
X67925675Y-58381045D01*
X67925674Y-58381044D01*
X67921253Y-58376134D01*
X67794946Y-58284366D01*
X67772094Y-58267763D01*
X67772093Y-58267762D01*
X67766752Y-58263882D01*
X67760724Y-58261198D01*
X67760722Y-58261197D01*
X67598319Y-58188891D01*
X67598318Y-58188891D01*
X67592288Y-58186206D01*
X67479721Y-58162279D01*
X67411944Y-58147872D01*
X67411939Y-58147872D01*
X67405487Y-58146500D01*
X67214513Y-58146500D01*
X67208061Y-58147872D01*
X67208056Y-58147872D01*
X67140279Y-58162279D01*
X67027712Y-58186206D01*
X67021682Y-58188891D01*
X67021681Y-58188891D01*
X66859278Y-58261197D01*
X66859276Y-58261198D01*
X66853248Y-58263882D01*
X66847907Y-58267762D01*
X66847906Y-58267763D01*
X66825054Y-58284366D01*
X66698747Y-58376134D01*
X66694326Y-58381044D01*
X66694325Y-58381045D01*
X66616257Y-58467749D01*
X66570960Y-58518056D01*
X66475473Y-58683444D01*
X66416458Y-58865072D01*
X66415768Y-58871633D01*
X66415768Y-58871635D01*
X66414193Y-58886620D01*
X66396496Y-59055000D01*
X64224887Y-59055000D01*
X64191183Y-59034346D01*
X64186963Y-59031760D01*
X64182393Y-59029867D01*
X64182389Y-59029865D01*
X63972167Y-58942789D01*
X63972165Y-58942788D01*
X63967594Y-58940895D01*
X63887391Y-58921640D01*
X63741524Y-58886620D01*
X63741518Y-58886619D01*
X63736711Y-58885465D01*
X63500000Y-58866835D01*
X63263289Y-58885465D01*
X63258482Y-58886619D01*
X63258476Y-58886620D01*
X63112609Y-58921640D01*
X63032406Y-58940895D01*
X63027835Y-58942788D01*
X63027833Y-58942789D01*
X62817611Y-59029865D01*
X62817607Y-59029867D01*
X62813037Y-59031760D01*
X62808817Y-59034346D01*
X62614798Y-59153241D01*
X62614792Y-59153245D01*
X62610584Y-59155824D01*
X62430031Y-59310031D01*
X62275824Y-59490584D01*
X62273245Y-59494792D01*
X62273241Y-59494798D01*
X62182882Y-59642251D01*
X62151760Y-59693037D01*
X62149867Y-59697607D01*
X62149865Y-59697611D01*
X62089960Y-59842237D01*
X62060895Y-59912406D01*
X62041640Y-59992609D01*
X62007438Y-60135072D01*
X62005465Y-60143289D01*
X61986835Y-60380000D01*
X61468500Y-60380000D01*
X61468500Y-57785000D01*
X63856496Y-57785000D01*
X63876458Y-57974928D01*
X63935473Y-58156556D01*
X64030960Y-58321944D01*
X64035378Y-58326851D01*
X64035379Y-58326852D01*
X64079753Y-58376134D01*
X64158747Y-58463866D01*
X64313248Y-58576118D01*
X64319276Y-58578802D01*
X64319278Y-58578803D01*
X64481681Y-58651109D01*
X64487712Y-58653794D01*
X64581113Y-58673647D01*
X64668056Y-58692128D01*
X64668061Y-58692128D01*
X64674513Y-58693500D01*
X64865487Y-58693500D01*
X64871939Y-58692128D01*
X64871944Y-58692128D01*
X64958887Y-58673647D01*
X65052288Y-58653794D01*
X65058319Y-58651109D01*
X65220722Y-58578803D01*
X65220724Y-58578802D01*
X65226752Y-58576118D01*
X65381253Y-58463866D01*
X65460247Y-58376134D01*
X65504621Y-58326852D01*
X65504622Y-58326851D01*
X65509040Y-58321944D01*
X65604527Y-58156556D01*
X65663542Y-57974928D01*
X65683504Y-57785000D01*
X65663542Y-57595072D01*
X65604527Y-57413444D01*
X65509040Y-57248056D01*
X65420751Y-57150000D01*
X85066502Y-57150000D01*
X85086457Y-57378087D01*
X85145716Y-57599243D01*
X85148039Y-57604224D01*
X85148039Y-57604225D01*
X85240151Y-57801762D01*
X85240154Y-57801767D01*
X85242477Y-57806749D01*
X85245634Y-57811257D01*
X85360238Y-57974928D01*
X85373802Y-57994300D01*
X85535700Y-58156198D01*
X85540208Y-58159355D01*
X85540211Y-58159357D01*
X85582390Y-58188891D01*
X85723251Y-58287523D01*
X85728233Y-58289846D01*
X85728238Y-58289849D01*
X85904952Y-58372251D01*
X85930757Y-58384284D01*
X85936065Y-58385706D01*
X85936067Y-58385707D01*
X86146598Y-58442119D01*
X86146600Y-58442119D01*
X86151913Y-58443543D01*
X86380000Y-58463498D01*
X86608087Y-58443543D01*
X86613400Y-58442119D01*
X86613402Y-58442119D01*
X86823933Y-58385707D01*
X86823935Y-58385706D01*
X86829243Y-58384284D01*
X86855048Y-58372251D01*
X87031762Y-58289849D01*
X87031767Y-58289846D01*
X87036749Y-58287523D01*
X87177610Y-58188891D01*
X87219789Y-58159357D01*
X87219792Y-58159355D01*
X87224300Y-58156198D01*
X87386198Y-57994300D01*
X87399763Y-57974928D01*
X87514366Y-57811257D01*
X87517523Y-57806749D01*
X87519846Y-57801767D01*
X87519849Y-57801762D01*
X87535805Y-57767543D01*
X87582722Y-57714258D01*
X87650999Y-57694797D01*
X87718959Y-57715339D01*
X87764195Y-57767543D01*
X87780151Y-57801762D01*
X87780154Y-57801767D01*
X87782477Y-57806749D01*
X87785634Y-57811257D01*
X87900238Y-57974928D01*
X87913802Y-57994300D01*
X88075700Y-58156198D01*
X88080208Y-58159355D01*
X88080211Y-58159357D01*
X88122390Y-58188891D01*
X88263251Y-58287523D01*
X88268233Y-58289846D01*
X88268238Y-58289849D01*
X88444952Y-58372251D01*
X88470757Y-58384284D01*
X88476065Y-58385706D01*
X88476067Y-58385707D01*
X88686598Y-58442119D01*
X88686600Y-58442119D01*
X88691913Y-58443543D01*
X88920000Y-58463498D01*
X89148087Y-58443543D01*
X89153400Y-58442119D01*
X89153402Y-58442119D01*
X89363933Y-58385707D01*
X89363935Y-58385706D01*
X89369243Y-58384284D01*
X89395048Y-58372251D01*
X89571762Y-58289849D01*
X89571767Y-58289846D01*
X89576749Y-58287523D01*
X89717610Y-58188891D01*
X89759789Y-58159357D01*
X89759792Y-58159355D01*
X89764300Y-58156198D01*
X89926198Y-57994300D01*
X89939763Y-57974928D01*
X90054366Y-57811257D01*
X90057523Y-57806749D01*
X90059846Y-57801767D01*
X90059849Y-57801762D01*
X90151961Y-57604225D01*
X90151961Y-57604224D01*
X90154284Y-57599243D01*
X90213543Y-57378087D01*
X90233498Y-57150000D01*
X90213543Y-56921913D01*
X90154284Y-56700757D01*
X90140463Y-56671118D01*
X90059849Y-56498238D01*
X90059846Y-56498233D01*
X90057523Y-56493251D01*
X89926198Y-56305700D01*
X89764300Y-56143802D01*
X89759792Y-56140645D01*
X89759789Y-56140643D01*
X89649424Y-56063365D01*
X89576749Y-56012477D01*
X89571767Y-56010154D01*
X89571762Y-56010151D01*
X89374225Y-55918039D01*
X89374224Y-55918039D01*
X89369243Y-55915716D01*
X89363935Y-55914294D01*
X89363933Y-55914293D01*
X89153402Y-55857881D01*
X89153400Y-55857881D01*
X89148087Y-55856457D01*
X88920000Y-55836502D01*
X88691913Y-55856457D01*
X88686600Y-55857881D01*
X88686598Y-55857881D01*
X88476067Y-55914293D01*
X88476065Y-55914294D01*
X88470757Y-55915716D01*
X88465776Y-55918039D01*
X88465775Y-55918039D01*
X88268238Y-56010151D01*
X88268233Y-56010154D01*
X88263251Y-56012477D01*
X88190576Y-56063365D01*
X88080211Y-56140643D01*
X88080208Y-56140645D01*
X88075700Y-56143802D01*
X87913802Y-56305700D01*
X87782477Y-56493251D01*
X87780154Y-56498233D01*
X87780151Y-56498238D01*
X87764195Y-56532457D01*
X87717278Y-56585742D01*
X87649001Y-56605203D01*
X87581041Y-56584661D01*
X87535805Y-56532457D01*
X87519849Y-56498238D01*
X87519846Y-56498233D01*
X87517523Y-56493251D01*
X87386198Y-56305700D01*
X87224300Y-56143802D01*
X87219792Y-56140645D01*
X87219789Y-56140643D01*
X87109424Y-56063365D01*
X87036749Y-56012477D01*
X87031767Y-56010154D01*
X87031762Y-56010151D01*
X86834225Y-55918039D01*
X86834224Y-55918039D01*
X86829243Y-55915716D01*
X86823935Y-55914294D01*
X86823933Y-55914293D01*
X86613402Y-55857881D01*
X86613400Y-55857881D01*
X86608087Y-55856457D01*
X86380000Y-55836502D01*
X86151913Y-55856457D01*
X86146600Y-55857881D01*
X86146598Y-55857881D01*
X85936067Y-55914293D01*
X85936065Y-55914294D01*
X85930757Y-55915716D01*
X85925776Y-55918039D01*
X85925775Y-55918039D01*
X85728238Y-56010151D01*
X85728233Y-56010154D01*
X85723251Y-56012477D01*
X85650576Y-56063365D01*
X85540211Y-56140643D01*
X85540208Y-56140645D01*
X85535700Y-56143802D01*
X85373802Y-56305700D01*
X85242477Y-56493251D01*
X85240154Y-56498233D01*
X85240151Y-56498238D01*
X85159537Y-56671118D01*
X85145716Y-56700757D01*
X85086457Y-56921913D01*
X85066502Y-57150000D01*
X65420751Y-57150000D01*
X65415821Y-57144525D01*
X65385675Y-57111045D01*
X65385674Y-57111044D01*
X65381253Y-57106134D01*
X65226752Y-56993882D01*
X65220724Y-56991198D01*
X65220722Y-56991197D01*
X65058319Y-56918891D01*
X65058318Y-56918891D01*
X65052288Y-56916206D01*
X64958888Y-56896353D01*
X64871944Y-56877872D01*
X64871939Y-56877872D01*
X64865487Y-56876500D01*
X64674513Y-56876500D01*
X64668061Y-56877872D01*
X64668056Y-56877872D01*
X64581112Y-56896353D01*
X64487712Y-56916206D01*
X64481682Y-56918891D01*
X64481681Y-56918891D01*
X64319278Y-56991197D01*
X64319276Y-56991198D01*
X64313248Y-56993882D01*
X64158747Y-57106134D01*
X64154326Y-57111044D01*
X64154325Y-57111045D01*
X64124180Y-57144525D01*
X64030960Y-57248056D01*
X63935473Y-57413444D01*
X63876458Y-57595072D01*
X63856496Y-57785000D01*
X61468500Y-57785000D01*
X61468500Y-55880000D01*
X76556496Y-55880000D01*
X76557186Y-55886565D01*
X76570752Y-56015634D01*
X76576458Y-56069928D01*
X76635473Y-56251556D01*
X76730960Y-56416944D01*
X76858747Y-56558866D01*
X77013248Y-56671118D01*
X77019276Y-56673802D01*
X77019278Y-56673803D01*
X77091745Y-56706067D01*
X77187712Y-56748794D01*
X77281112Y-56768647D01*
X77368056Y-56787128D01*
X77368061Y-56787128D01*
X77374513Y-56788500D01*
X77565487Y-56788500D01*
X77571939Y-56787128D01*
X77571944Y-56787128D01*
X77658887Y-56768647D01*
X77752288Y-56748794D01*
X77848255Y-56706067D01*
X77920722Y-56673803D01*
X77920724Y-56673802D01*
X77926752Y-56671118D01*
X78081253Y-56558866D01*
X78209040Y-56416944D01*
X78304527Y-56251556D01*
X78363542Y-56069928D01*
X78369249Y-56015634D01*
X78382814Y-55886565D01*
X78383504Y-55880000D01*
X78363542Y-55690072D01*
X78304527Y-55508444D01*
X78209040Y-55343056D01*
X78163744Y-55292749D01*
X78085675Y-55206045D01*
X78085674Y-55206044D01*
X78081253Y-55201134D01*
X77982157Y-55129136D01*
X77932094Y-55092763D01*
X77932093Y-55092762D01*
X77926752Y-55088882D01*
X77920724Y-55086198D01*
X77920722Y-55086197D01*
X77758319Y-55013891D01*
X77758318Y-55013891D01*
X77752288Y-55011206D01*
X77639721Y-54987279D01*
X77571944Y-54972872D01*
X77571939Y-54972872D01*
X77565487Y-54971500D01*
X77374513Y-54971500D01*
X77368061Y-54972872D01*
X77368056Y-54972872D01*
X77300279Y-54987279D01*
X77187712Y-55011206D01*
X77181682Y-55013891D01*
X77181681Y-55013891D01*
X77019278Y-55086197D01*
X77019276Y-55086198D01*
X77013248Y-55088882D01*
X77007907Y-55092762D01*
X77007906Y-55092763D01*
X76957843Y-55129136D01*
X76858747Y-55201134D01*
X76854326Y-55206044D01*
X76854325Y-55206045D01*
X76776257Y-55292749D01*
X76730960Y-55343056D01*
X76635473Y-55508444D01*
X76576458Y-55690072D01*
X76556496Y-55880000D01*
X61468500Y-55880000D01*
X61468500Y-54610000D01*
X84176496Y-54610000D01*
X84177186Y-54616565D01*
X84193187Y-54768803D01*
X84196458Y-54799928D01*
X84255473Y-54981556D01*
X84350960Y-55146944D01*
X84355378Y-55151851D01*
X84355379Y-55151852D01*
X84399753Y-55201134D01*
X84478747Y-55288866D01*
X84633248Y-55401118D01*
X84639276Y-55403802D01*
X84639278Y-55403803D01*
X84801681Y-55476109D01*
X84807712Y-55478794D01*
X84901113Y-55498647D01*
X84988056Y-55517128D01*
X84988061Y-55517128D01*
X84994513Y-55518500D01*
X85185487Y-55518500D01*
X85191939Y-55517128D01*
X85191944Y-55517128D01*
X85278888Y-55498647D01*
X85372288Y-55478794D01*
X85378319Y-55476109D01*
X85540722Y-55403803D01*
X85540724Y-55403802D01*
X85546752Y-55401118D01*
X85701253Y-55288866D01*
X85780247Y-55201134D01*
X85824621Y-55151852D01*
X85824622Y-55151851D01*
X85829040Y-55146944D01*
X85924527Y-54981556D01*
X85983542Y-54799928D01*
X85986814Y-54768803D01*
X86002814Y-54616565D01*
X86003504Y-54610000D01*
X85983542Y-54420072D01*
X85924527Y-54238444D01*
X85829040Y-54073056D01*
X85740750Y-53975000D01*
X87986496Y-53975000D01*
X88006458Y-54164928D01*
X88065473Y-54346556D01*
X88160960Y-54511944D01*
X88288747Y-54653866D01*
X88443248Y-54766118D01*
X88449276Y-54768802D01*
X88449278Y-54768803D01*
X88611681Y-54841109D01*
X88617712Y-54843794D01*
X88711112Y-54863647D01*
X88798056Y-54882128D01*
X88798061Y-54882128D01*
X88804513Y-54883500D01*
X88995487Y-54883500D01*
X89001939Y-54882128D01*
X89001944Y-54882128D01*
X89088887Y-54863647D01*
X89182288Y-54843794D01*
X89188319Y-54841109D01*
X89350722Y-54768803D01*
X89350724Y-54768802D01*
X89356752Y-54766118D01*
X89511253Y-54653866D01*
X89639040Y-54511944D01*
X89734527Y-54346556D01*
X89793542Y-54164928D01*
X89813504Y-53975000D01*
X89801536Y-53861127D01*
X89794232Y-53791635D01*
X89794232Y-53791633D01*
X89793542Y-53785072D01*
X89734527Y-53603444D01*
X89639040Y-53438056D01*
X89511253Y-53296134D01*
X89356752Y-53183882D01*
X89350724Y-53181198D01*
X89350722Y-53181197D01*
X89188319Y-53108891D01*
X89188318Y-53108891D01*
X89182288Y-53106206D01*
X89088887Y-53086353D01*
X89001944Y-53067872D01*
X89001939Y-53067872D01*
X88995487Y-53066500D01*
X88804513Y-53066500D01*
X88798061Y-53067872D01*
X88798056Y-53067872D01*
X88711112Y-53086353D01*
X88617712Y-53106206D01*
X88611682Y-53108891D01*
X88611681Y-53108891D01*
X88449278Y-53181197D01*
X88449276Y-53181198D01*
X88443248Y-53183882D01*
X88288747Y-53296134D01*
X88160960Y-53438056D01*
X88065473Y-53603444D01*
X88006458Y-53785072D01*
X88005768Y-53791633D01*
X88005768Y-53791635D01*
X87998464Y-53861127D01*
X87986496Y-53975000D01*
X85740750Y-53975000D01*
X85701253Y-53931134D01*
X85546752Y-53818882D01*
X85540724Y-53816198D01*
X85540722Y-53816197D01*
X85378319Y-53743891D01*
X85378318Y-53743891D01*
X85372288Y-53741206D01*
X85278888Y-53721353D01*
X85191944Y-53702872D01*
X85191939Y-53702872D01*
X85185487Y-53701500D01*
X84994513Y-53701500D01*
X84988061Y-53702872D01*
X84988056Y-53702872D01*
X84901113Y-53721353D01*
X84807712Y-53741206D01*
X84801682Y-53743891D01*
X84801681Y-53743891D01*
X84639278Y-53816197D01*
X84639276Y-53816198D01*
X84633248Y-53818882D01*
X84478747Y-53931134D01*
X84350960Y-54073056D01*
X84255473Y-54238444D01*
X84196458Y-54420072D01*
X84176496Y-54610000D01*
X61468500Y-54610000D01*
X61468500Y-52263134D01*
X62136500Y-52263134D01*
X62143255Y-52325316D01*
X62194385Y-52461705D01*
X62281739Y-52578261D01*
X62398295Y-52665615D01*
X62534684Y-52716745D01*
X62596866Y-52723500D01*
X64393134Y-52723500D01*
X64455316Y-52716745D01*
X64591705Y-52665615D01*
X64708261Y-52578261D01*
X64795615Y-52461705D01*
X64817799Y-52402529D01*
X64839598Y-52344382D01*
X64882240Y-52287618D01*
X64948802Y-52262918D01*
X65018150Y-52278126D01*
X65052817Y-52306114D01*
X65081250Y-52338938D01*
X65253126Y-52481632D01*
X65446000Y-52594338D01*
X65654692Y-52674030D01*
X65659760Y-52675061D01*
X65659763Y-52675062D01*
X65767017Y-52696883D01*
X65873597Y-52718567D01*
X65878772Y-52718757D01*
X65878774Y-52718757D01*
X66091673Y-52726564D01*
X66091677Y-52726564D01*
X66096837Y-52726753D01*
X66101957Y-52726097D01*
X66101959Y-52726097D01*
X66313288Y-52699025D01*
X66313289Y-52699025D01*
X66318416Y-52698368D01*
X66323366Y-52696883D01*
X66527429Y-52635661D01*
X66527434Y-52635659D01*
X66532384Y-52634174D01*
X66732994Y-52535896D01*
X66914860Y-52406173D01*
X67073096Y-52248489D01*
X67132594Y-52165689D01*
X67203453Y-52067077D01*
X67204776Y-52068028D01*
X67251645Y-52024857D01*
X67321580Y-52012625D01*
X67387026Y-52040144D01*
X67414875Y-52071994D01*
X67474987Y-52170088D01*
X67621250Y-52338938D01*
X67793126Y-52481632D01*
X67986000Y-52594338D01*
X68194692Y-52674030D01*
X68199760Y-52675061D01*
X68199763Y-52675062D01*
X68307017Y-52696883D01*
X68413597Y-52718567D01*
X68418772Y-52718757D01*
X68418774Y-52718757D01*
X68631673Y-52726564D01*
X68631677Y-52726564D01*
X68636837Y-52726753D01*
X68641957Y-52726097D01*
X68641959Y-52726097D01*
X68853288Y-52699025D01*
X68853289Y-52699025D01*
X68858416Y-52698368D01*
X68863366Y-52696883D01*
X69067429Y-52635661D01*
X69067434Y-52635659D01*
X69072384Y-52634174D01*
X69272994Y-52535896D01*
X69454860Y-52406173D01*
X69613096Y-52248489D01*
X69672594Y-52165689D01*
X69743453Y-52067077D01*
X69744776Y-52068028D01*
X69791645Y-52024857D01*
X69861580Y-52012625D01*
X69927026Y-52040144D01*
X69954875Y-52071994D01*
X70014987Y-52170088D01*
X70161250Y-52338938D01*
X70333126Y-52481632D01*
X70526000Y-52594338D01*
X70734692Y-52674030D01*
X70739760Y-52675061D01*
X70739763Y-52675062D01*
X70847017Y-52696883D01*
X70953597Y-52718567D01*
X70958772Y-52718757D01*
X70958774Y-52718757D01*
X71171673Y-52726564D01*
X71171677Y-52726564D01*
X71176837Y-52726753D01*
X71181957Y-52726097D01*
X71181959Y-52726097D01*
X71393288Y-52699025D01*
X71393289Y-52699025D01*
X71398416Y-52698368D01*
X71403366Y-52696883D01*
X71607429Y-52635661D01*
X71607434Y-52635659D01*
X71612384Y-52634174D01*
X71812994Y-52535896D01*
X71994860Y-52406173D01*
X72153096Y-52248489D01*
X72212594Y-52165689D01*
X72283453Y-52067077D01*
X72284776Y-52068028D01*
X72331645Y-52024857D01*
X72401580Y-52012625D01*
X72467026Y-52040144D01*
X72494875Y-52071994D01*
X72554987Y-52170088D01*
X72701250Y-52338938D01*
X72873126Y-52481632D01*
X73066000Y-52594338D01*
X73274692Y-52674030D01*
X73279760Y-52675061D01*
X73279763Y-52675062D01*
X73387017Y-52696883D01*
X73493597Y-52718567D01*
X73498772Y-52718757D01*
X73498774Y-52718757D01*
X73711673Y-52726564D01*
X73711677Y-52726564D01*
X73716837Y-52726753D01*
X73721957Y-52726097D01*
X73721959Y-52726097D01*
X73933288Y-52699025D01*
X73933289Y-52699025D01*
X73938416Y-52698368D01*
X73943366Y-52696883D01*
X74147429Y-52635661D01*
X74147434Y-52635659D01*
X74152384Y-52634174D01*
X74352994Y-52535896D01*
X74534860Y-52406173D01*
X74693096Y-52248489D01*
X74752594Y-52165689D01*
X74823453Y-52067077D01*
X74824776Y-52068028D01*
X74871645Y-52024857D01*
X74941580Y-52012625D01*
X75007026Y-52040144D01*
X75034875Y-52071994D01*
X75094987Y-52170088D01*
X75241250Y-52338938D01*
X75413126Y-52481632D01*
X75606000Y-52594338D01*
X75814692Y-52674030D01*
X75819760Y-52675061D01*
X75819763Y-52675062D01*
X75927017Y-52696883D01*
X76033597Y-52718567D01*
X76038772Y-52718757D01*
X76038774Y-52718757D01*
X76251673Y-52726564D01*
X76251677Y-52726564D01*
X76256837Y-52726753D01*
X76261957Y-52726097D01*
X76261959Y-52726097D01*
X76473288Y-52699025D01*
X76473289Y-52699025D01*
X76478416Y-52698368D01*
X76483366Y-52696883D01*
X76687429Y-52635661D01*
X76687434Y-52635659D01*
X76692384Y-52634174D01*
X76892994Y-52535896D01*
X77074860Y-52406173D01*
X77233096Y-52248489D01*
X77292594Y-52165689D01*
X77363453Y-52067077D01*
X77364776Y-52068028D01*
X77411645Y-52024857D01*
X77481580Y-52012625D01*
X77547026Y-52040144D01*
X77574875Y-52071994D01*
X77634987Y-52170088D01*
X77781250Y-52338938D01*
X77953126Y-52481632D01*
X78146000Y-52594338D01*
X78354692Y-52674030D01*
X78359760Y-52675061D01*
X78359763Y-52675062D01*
X78467017Y-52696883D01*
X78573597Y-52718567D01*
X78578772Y-52718757D01*
X78578774Y-52718757D01*
X78791673Y-52726564D01*
X78791677Y-52726564D01*
X78796837Y-52726753D01*
X78801957Y-52726097D01*
X78801959Y-52726097D01*
X79013288Y-52699025D01*
X79013289Y-52699025D01*
X79018416Y-52698368D01*
X79023366Y-52696883D01*
X79227429Y-52635661D01*
X79227434Y-52635659D01*
X79232384Y-52634174D01*
X79432994Y-52535896D01*
X79614860Y-52406173D01*
X79773096Y-52248489D01*
X79832594Y-52165689D01*
X79903453Y-52067077D01*
X79904776Y-52068028D01*
X79951645Y-52024857D01*
X80021580Y-52012625D01*
X80087026Y-52040144D01*
X80114875Y-52071994D01*
X80174987Y-52170088D01*
X80321250Y-52338938D01*
X80493126Y-52481632D01*
X80686000Y-52594338D01*
X80894692Y-52674030D01*
X80899760Y-52675061D01*
X80899763Y-52675062D01*
X81007017Y-52696883D01*
X81113597Y-52718567D01*
X81118772Y-52718757D01*
X81118774Y-52718757D01*
X81331673Y-52726564D01*
X81331677Y-52726564D01*
X81336837Y-52726753D01*
X81341957Y-52726097D01*
X81341959Y-52726097D01*
X81553288Y-52699025D01*
X81553289Y-52699025D01*
X81558416Y-52698368D01*
X81563366Y-52696883D01*
X81767429Y-52635661D01*
X81767434Y-52635659D01*
X81772384Y-52634174D01*
X81972994Y-52535896D01*
X82154860Y-52406173D01*
X82313096Y-52248489D01*
X82372594Y-52165689D01*
X82443453Y-52067077D01*
X82444776Y-52068028D01*
X82491645Y-52024857D01*
X82561580Y-52012625D01*
X82627026Y-52040144D01*
X82654875Y-52071994D01*
X82714987Y-52170088D01*
X82861250Y-52338938D01*
X83033126Y-52481632D01*
X83226000Y-52594338D01*
X83434692Y-52674030D01*
X83439760Y-52675061D01*
X83439763Y-52675062D01*
X83547017Y-52696883D01*
X83653597Y-52718567D01*
X83658772Y-52718757D01*
X83658774Y-52718757D01*
X83871673Y-52726564D01*
X83871677Y-52726564D01*
X83876837Y-52726753D01*
X83881957Y-52726097D01*
X83881959Y-52726097D01*
X84093288Y-52699025D01*
X84093289Y-52699025D01*
X84098416Y-52698368D01*
X84103366Y-52696883D01*
X84307429Y-52635661D01*
X84307434Y-52635659D01*
X84312384Y-52634174D01*
X84512994Y-52535896D01*
X84694860Y-52406173D01*
X84853096Y-52248489D01*
X84912594Y-52165689D01*
X84983453Y-52067077D01*
X84984776Y-52068028D01*
X85031645Y-52024857D01*
X85101580Y-52012625D01*
X85167026Y-52040144D01*
X85194875Y-52071994D01*
X85254987Y-52170088D01*
X85401250Y-52338938D01*
X85573126Y-52481632D01*
X85766000Y-52594338D01*
X85974692Y-52674030D01*
X85979760Y-52675061D01*
X85979763Y-52675062D01*
X86087017Y-52696883D01*
X86193597Y-52718567D01*
X86198772Y-52718757D01*
X86198774Y-52718757D01*
X86411673Y-52726564D01*
X86411677Y-52726564D01*
X86416837Y-52726753D01*
X86421957Y-52726097D01*
X86421959Y-52726097D01*
X86633288Y-52699025D01*
X86633289Y-52699025D01*
X86638416Y-52698368D01*
X86643366Y-52696883D01*
X86847429Y-52635661D01*
X86847434Y-52635659D01*
X86852384Y-52634174D01*
X87052994Y-52535896D01*
X87234860Y-52406173D01*
X87393096Y-52248489D01*
X87452594Y-52165689D01*
X87520435Y-52071277D01*
X87523453Y-52067077D01*
X87544320Y-52024857D01*
X87620136Y-51871453D01*
X87620137Y-51871451D01*
X87622430Y-51866811D01*
X87687370Y-51653069D01*
X87716529Y-51431590D01*
X87718156Y-51365000D01*
X87715418Y-51331695D01*
X90072251Y-51331695D01*
X90072548Y-51336848D01*
X90072548Y-51336851D01*
X90078011Y-51431590D01*
X90085110Y-51554715D01*
X90086247Y-51559761D01*
X90086248Y-51559767D01*
X90106119Y-51647939D01*
X90134222Y-51772639D01*
X90218266Y-51979616D01*
X90269019Y-52062438D01*
X90332291Y-52165688D01*
X90334987Y-52170088D01*
X90481250Y-52338938D01*
X90653126Y-52481632D01*
X90846000Y-52594338D01*
X91054692Y-52674030D01*
X91059760Y-52675061D01*
X91059763Y-52675062D01*
X91167017Y-52696883D01*
X91273597Y-52718567D01*
X91278772Y-52718757D01*
X91278774Y-52718757D01*
X91491673Y-52726564D01*
X91491677Y-52726564D01*
X91496837Y-52726753D01*
X91501957Y-52726097D01*
X91501959Y-52726097D01*
X91713288Y-52699025D01*
X91713289Y-52699025D01*
X91718416Y-52698368D01*
X91723366Y-52696883D01*
X91927429Y-52635661D01*
X91927434Y-52635659D01*
X91932384Y-52634174D01*
X92132994Y-52535896D01*
X92314860Y-52406173D01*
X92473096Y-52248489D01*
X92532594Y-52165689D01*
X92600435Y-52071277D01*
X92603453Y-52067077D01*
X92624320Y-52024857D01*
X92700136Y-51871453D01*
X92700137Y-51871451D01*
X92702430Y-51866811D01*
X92767370Y-51653069D01*
X92796529Y-51431590D01*
X92798156Y-51365000D01*
X92779852Y-51142361D01*
X92725431Y-50925702D01*
X92636354Y-50720840D01*
X92515014Y-50533277D01*
X92364670Y-50368051D01*
X92360619Y-50364852D01*
X92360615Y-50364848D01*
X92193414Y-50232800D01*
X92193410Y-50232798D01*
X92189359Y-50229598D01*
X91993789Y-50121638D01*
X91988920Y-50119914D01*
X91988916Y-50119912D01*
X91788087Y-50048795D01*
X91788083Y-50048794D01*
X91783212Y-50047069D01*
X91778119Y-50046162D01*
X91778116Y-50046161D01*
X91568373Y-50008800D01*
X91568367Y-50008799D01*
X91563284Y-50007894D01*
X91489452Y-50006992D01*
X91345081Y-50005228D01*
X91345079Y-50005228D01*
X91339911Y-50005165D01*
X91119091Y-50038955D01*
X90906756Y-50108357D01*
X90708607Y-50211507D01*
X90704474Y-50214610D01*
X90704471Y-50214612D01*
X90534100Y-50342530D01*
X90529965Y-50345635D01*
X90526393Y-50349373D01*
X90418729Y-50462037D01*
X90375629Y-50507138D01*
X90249743Y-50691680D01*
X90155688Y-50894305D01*
X90095989Y-51109570D01*
X90072251Y-51331695D01*
X87715418Y-51331695D01*
X87699852Y-51142361D01*
X87645431Y-50925702D01*
X87556354Y-50720840D01*
X87435014Y-50533277D01*
X87284670Y-50368051D01*
X87280619Y-50364852D01*
X87280615Y-50364848D01*
X87113414Y-50232800D01*
X87113410Y-50232798D01*
X87109359Y-50229598D01*
X86913789Y-50121638D01*
X86908920Y-50119914D01*
X86908916Y-50119912D01*
X86708087Y-50048795D01*
X86708083Y-50048794D01*
X86703212Y-50047069D01*
X86698119Y-50046162D01*
X86698116Y-50046161D01*
X86488373Y-50008800D01*
X86488367Y-50008799D01*
X86483284Y-50007894D01*
X86409452Y-50006992D01*
X86265081Y-50005228D01*
X86265079Y-50005228D01*
X86259911Y-50005165D01*
X86039091Y-50038955D01*
X85826756Y-50108357D01*
X85628607Y-50211507D01*
X85624474Y-50214610D01*
X85624471Y-50214612D01*
X85454100Y-50342530D01*
X85449965Y-50345635D01*
X85446393Y-50349373D01*
X85338729Y-50462037D01*
X85295629Y-50507138D01*
X85188201Y-50664621D01*
X85133293Y-50709621D01*
X85062768Y-50717792D01*
X84999021Y-50686538D01*
X84978324Y-50662054D01*
X84897822Y-50537617D01*
X84897820Y-50537614D01*
X84895014Y-50533277D01*
X84744670Y-50368051D01*
X84740619Y-50364852D01*
X84740615Y-50364848D01*
X84573414Y-50232800D01*
X84573410Y-50232798D01*
X84569359Y-50229598D01*
X84373789Y-50121638D01*
X84368920Y-50119914D01*
X84368916Y-50119912D01*
X84168087Y-50048795D01*
X84168083Y-50048794D01*
X84163212Y-50047069D01*
X84158119Y-50046162D01*
X84158116Y-50046161D01*
X83948373Y-50008800D01*
X83948367Y-50008799D01*
X83943284Y-50007894D01*
X83869452Y-50006992D01*
X83725081Y-50005228D01*
X83725079Y-50005228D01*
X83719911Y-50005165D01*
X83499091Y-50038955D01*
X83286756Y-50108357D01*
X83088607Y-50211507D01*
X83084474Y-50214610D01*
X83084471Y-50214612D01*
X82914100Y-50342530D01*
X82909965Y-50345635D01*
X82906393Y-50349373D01*
X82798729Y-50462037D01*
X82755629Y-50507138D01*
X82648201Y-50664621D01*
X82593293Y-50709621D01*
X82522768Y-50717792D01*
X82459021Y-50686538D01*
X82438324Y-50662054D01*
X82357822Y-50537617D01*
X82357820Y-50537614D01*
X82355014Y-50533277D01*
X82204670Y-50368051D01*
X82200619Y-50364852D01*
X82200615Y-50364848D01*
X82033414Y-50232800D01*
X82033410Y-50232798D01*
X82029359Y-50229598D01*
X81833789Y-50121638D01*
X81828920Y-50119914D01*
X81828916Y-50119912D01*
X81628087Y-50048795D01*
X81628083Y-50048794D01*
X81623212Y-50047069D01*
X81618119Y-50046162D01*
X81618116Y-50046161D01*
X81408373Y-50008800D01*
X81408367Y-50008799D01*
X81403284Y-50007894D01*
X81329452Y-50006992D01*
X81185081Y-50005228D01*
X81185079Y-50005228D01*
X81179911Y-50005165D01*
X80959091Y-50038955D01*
X80746756Y-50108357D01*
X80548607Y-50211507D01*
X80544474Y-50214610D01*
X80544471Y-50214612D01*
X80374100Y-50342530D01*
X80369965Y-50345635D01*
X80366393Y-50349373D01*
X80258729Y-50462037D01*
X80215629Y-50507138D01*
X80108201Y-50664621D01*
X80053293Y-50709621D01*
X79982768Y-50717792D01*
X79919021Y-50686538D01*
X79898324Y-50662054D01*
X79817822Y-50537617D01*
X79817820Y-50537614D01*
X79815014Y-50533277D01*
X79664670Y-50368051D01*
X79660619Y-50364852D01*
X79660615Y-50364848D01*
X79493414Y-50232800D01*
X79493410Y-50232798D01*
X79489359Y-50229598D01*
X79293789Y-50121638D01*
X79288920Y-50119914D01*
X79288916Y-50119912D01*
X79088087Y-50048795D01*
X79088083Y-50048794D01*
X79083212Y-50047069D01*
X79078119Y-50046162D01*
X79078116Y-50046161D01*
X78868373Y-50008800D01*
X78868367Y-50008799D01*
X78863284Y-50007894D01*
X78789452Y-50006992D01*
X78645081Y-50005228D01*
X78645079Y-50005228D01*
X78639911Y-50005165D01*
X78419091Y-50038955D01*
X78206756Y-50108357D01*
X78008607Y-50211507D01*
X78004474Y-50214610D01*
X78004471Y-50214612D01*
X77834100Y-50342530D01*
X77829965Y-50345635D01*
X77826393Y-50349373D01*
X77718729Y-50462037D01*
X77675629Y-50507138D01*
X77568201Y-50664621D01*
X77513293Y-50709621D01*
X77442768Y-50717792D01*
X77379021Y-50686538D01*
X77358324Y-50662054D01*
X77277822Y-50537617D01*
X77277820Y-50537614D01*
X77275014Y-50533277D01*
X77124670Y-50368051D01*
X77120619Y-50364852D01*
X77120615Y-50364848D01*
X76953414Y-50232800D01*
X76953410Y-50232798D01*
X76949359Y-50229598D01*
X76753789Y-50121638D01*
X76748920Y-50119914D01*
X76748916Y-50119912D01*
X76548087Y-50048795D01*
X76548083Y-50048794D01*
X76543212Y-50047069D01*
X76538119Y-50046162D01*
X76538116Y-50046161D01*
X76328373Y-50008800D01*
X76328367Y-50008799D01*
X76323284Y-50007894D01*
X76249452Y-50006992D01*
X76105081Y-50005228D01*
X76105079Y-50005228D01*
X76099911Y-50005165D01*
X75879091Y-50038955D01*
X75666756Y-50108357D01*
X75468607Y-50211507D01*
X75464474Y-50214610D01*
X75464471Y-50214612D01*
X75294100Y-50342530D01*
X75289965Y-50345635D01*
X75286393Y-50349373D01*
X75178729Y-50462037D01*
X75135629Y-50507138D01*
X75028201Y-50664621D01*
X74973293Y-50709621D01*
X74902768Y-50717792D01*
X74839021Y-50686538D01*
X74818324Y-50662054D01*
X74737822Y-50537617D01*
X74737820Y-50537614D01*
X74735014Y-50533277D01*
X74584670Y-50368051D01*
X74580619Y-50364852D01*
X74580615Y-50364848D01*
X74413414Y-50232800D01*
X74413410Y-50232798D01*
X74409359Y-50229598D01*
X74213789Y-50121638D01*
X74208920Y-50119914D01*
X74208916Y-50119912D01*
X74008087Y-50048795D01*
X74008083Y-50048794D01*
X74003212Y-50047069D01*
X73998119Y-50046162D01*
X73998116Y-50046161D01*
X73788373Y-50008800D01*
X73788367Y-50008799D01*
X73783284Y-50007894D01*
X73709452Y-50006992D01*
X73565081Y-50005228D01*
X73565079Y-50005228D01*
X73559911Y-50005165D01*
X73339091Y-50038955D01*
X73126756Y-50108357D01*
X72928607Y-50211507D01*
X72924474Y-50214610D01*
X72924471Y-50214612D01*
X72754100Y-50342530D01*
X72749965Y-50345635D01*
X72746393Y-50349373D01*
X72638729Y-50462037D01*
X72595629Y-50507138D01*
X72488201Y-50664621D01*
X72433293Y-50709621D01*
X72362768Y-50717792D01*
X72299021Y-50686538D01*
X72278324Y-50662054D01*
X72197822Y-50537617D01*
X72197820Y-50537614D01*
X72195014Y-50533277D01*
X72044670Y-50368051D01*
X72040619Y-50364852D01*
X72040615Y-50364848D01*
X71873414Y-50232800D01*
X71873410Y-50232798D01*
X71869359Y-50229598D01*
X71673789Y-50121638D01*
X71668920Y-50119914D01*
X71668916Y-50119912D01*
X71468087Y-50048795D01*
X71468083Y-50048794D01*
X71463212Y-50047069D01*
X71458119Y-50046162D01*
X71458116Y-50046161D01*
X71248373Y-50008800D01*
X71248367Y-50008799D01*
X71243284Y-50007894D01*
X71169452Y-50006992D01*
X71025081Y-50005228D01*
X71025079Y-50005228D01*
X71019911Y-50005165D01*
X70799091Y-50038955D01*
X70586756Y-50108357D01*
X70388607Y-50211507D01*
X70384474Y-50214610D01*
X70384471Y-50214612D01*
X70214100Y-50342530D01*
X70209965Y-50345635D01*
X70206393Y-50349373D01*
X70098729Y-50462037D01*
X70055629Y-50507138D01*
X69948201Y-50664621D01*
X69893293Y-50709621D01*
X69822768Y-50717792D01*
X69759021Y-50686538D01*
X69738324Y-50662054D01*
X69657822Y-50537617D01*
X69657820Y-50537614D01*
X69655014Y-50533277D01*
X69504670Y-50368051D01*
X69500619Y-50364852D01*
X69500615Y-50364848D01*
X69333414Y-50232800D01*
X69333410Y-50232798D01*
X69329359Y-50229598D01*
X69133789Y-50121638D01*
X69128920Y-50119914D01*
X69128916Y-50119912D01*
X68928087Y-50048795D01*
X68928083Y-50048794D01*
X68923212Y-50047069D01*
X68918119Y-50046162D01*
X68918116Y-50046161D01*
X68708373Y-50008800D01*
X68708367Y-50008799D01*
X68703284Y-50007894D01*
X68629452Y-50006992D01*
X68485081Y-50005228D01*
X68485079Y-50005228D01*
X68479911Y-50005165D01*
X68259091Y-50038955D01*
X68046756Y-50108357D01*
X67848607Y-50211507D01*
X67844474Y-50214610D01*
X67844471Y-50214612D01*
X67674100Y-50342530D01*
X67669965Y-50345635D01*
X67666393Y-50349373D01*
X67558729Y-50462037D01*
X67515629Y-50507138D01*
X67408201Y-50664621D01*
X67353293Y-50709621D01*
X67282768Y-50717792D01*
X67219021Y-50686538D01*
X67198324Y-50662054D01*
X67117822Y-50537617D01*
X67117820Y-50537614D01*
X67115014Y-50533277D01*
X66964670Y-50368051D01*
X66960619Y-50364852D01*
X66960615Y-50364848D01*
X66793414Y-50232800D01*
X66793410Y-50232798D01*
X66789359Y-50229598D01*
X66593789Y-50121638D01*
X66588920Y-50119914D01*
X66588916Y-50119912D01*
X66388087Y-50048795D01*
X66388083Y-50048794D01*
X66383212Y-50047069D01*
X66378119Y-50046162D01*
X66378116Y-50046161D01*
X66168373Y-50008800D01*
X66168367Y-50008799D01*
X66163284Y-50007894D01*
X66089452Y-50006992D01*
X65945081Y-50005228D01*
X65945079Y-50005228D01*
X65939911Y-50005165D01*
X65719091Y-50038955D01*
X65506756Y-50108357D01*
X65308607Y-50211507D01*
X65304474Y-50214610D01*
X65304471Y-50214612D01*
X65134100Y-50342530D01*
X65129965Y-50345635D01*
X65073537Y-50404684D01*
X65049283Y-50430064D01*
X64987759Y-50465494D01*
X64916846Y-50462037D01*
X64859060Y-50420791D01*
X64840207Y-50387243D01*
X64798767Y-50276703D01*
X64795615Y-50268295D01*
X64708261Y-50151739D01*
X64591705Y-50064385D01*
X64455316Y-50013255D01*
X64393134Y-50006500D01*
X62596866Y-50006500D01*
X62534684Y-50013255D01*
X62398295Y-50064385D01*
X62281739Y-50151739D01*
X62194385Y-50268295D01*
X62143255Y-50404684D01*
X62136500Y-50466866D01*
X62136500Y-52263134D01*
X61468500Y-52263134D01*
X61468500Y-47624500D01*
X61488502Y-47556379D01*
X61542158Y-47509886D01*
X61594500Y-47498500D01*
X93345500Y-47498500D01*
X93413621Y-47518502D01*
G37*
%TD.AperFunction*%
%TD*%
M02*
