%TF.GenerationSoftware,KiCad,Pcbnew,(6.0.9-0)*%
%TF.CreationDate,2022-11-13T08:04:19-06:00*%
%TF.ProjectId,ProgramingAddOn,50726f67-7261-46d6-996e-674164644f6e,rev?*%
%TF.SameCoordinates,Original*%
%TF.FileFunction,Copper,L5,Inr*%
%TF.FilePolarity,Positive*%
%FSLAX46Y46*%
G04 Gerber Fmt 4.6, Leading zero omitted, Abs format (unit mm)*
G04 Created by KiCad (PCBNEW (6.0.9-0)) date 2022-11-13 08:04:19*
%MOMM*%
%LPD*%
G01*
G04 APERTURE LIST*
%TA.AperFunction,ComponentPad*%
%ADD10C,2.000000*%
%TD*%
%TA.AperFunction,ComponentPad*%
%ADD11R,1.600000X1.600000*%
%TD*%
%TA.AperFunction,ComponentPad*%
%ADD12O,1.600000X1.600000*%
%TD*%
%TA.AperFunction,ComponentPad*%
%ADD13O,1.550000X0.890000*%
%TD*%
%TA.AperFunction,ComponentPad*%
%ADD14O,0.950000X1.250000*%
%TD*%
%TA.AperFunction,ComponentPad*%
%ADD15R,1.700000X1.700000*%
%TD*%
%TA.AperFunction,ComponentPad*%
%ADD16O,1.700000X1.700000*%
%TD*%
%TA.AperFunction,ViaPad*%
%ADD17C,0.800000*%
%TD*%
G04 APERTURE END LIST*
D10*
%TO.N,+3.3V*%
%TO.C,SW2*%
X74050000Y-55880000D03*
X80550000Y-55880000D03*
%TO.N,Net-(SW2-Pad2)*%
X80550000Y-60380000D03*
X74050000Y-60380000D03*
%TD*%
D11*
%TO.N,Net-(SW4-Pad2)*%
%TO.C,SW7*%
X82560000Y-80010000D03*
D12*
%TO.N,Net-(SW2-Pad2)*%
X85100000Y-80010000D03*
%TO.N,Net-(SW6-Pad2)*%
X87640000Y-80010000D03*
%TO.N,Net-(SW3-Pad2)*%
X90180000Y-80010000D03*
%TO.N,/In-0*%
X90180000Y-72390000D03*
%TO.N,/In-1*%
X87640000Y-72390000D03*
%TO.N,/In-2 {slash} RX*%
X85100000Y-72390000D03*
%TO.N,/In-3 {slash} TX*%
X82560000Y-72390000D03*
%TD*%
D13*
%TO.N,GND*%
%TO.C,J1*%
X96550000Y-86581298D03*
D14*
X93850000Y-92581298D03*
X93850000Y-87581298D03*
D13*
X96550000Y-93581298D03*
%TD*%
D11*
%TO.N,/TXD*%
%TO.C,SW1*%
X86380000Y-64770000D03*
D12*
%TO.N,/RXD*%
X88920000Y-64770000D03*
%TO.N,/In-3 {slash} TX*%
X88920000Y-57150000D03*
%TO.N,/In-2 {slash} RX*%
X86380000Y-57150000D03*
%TD*%
D10*
%TO.N,+3.3V*%
%TO.C,SW4*%
X70000000Y-64430000D03*
X63500000Y-64430000D03*
%TO.N,Net-(SW4-Pad2)*%
X63500000Y-68930000D03*
X70000000Y-68930000D03*
%TD*%
%TO.N,+3.3V*%
%TO.C,SW3*%
X70000000Y-55880000D03*
X63500000Y-55880000D03*
%TO.N,Net-(SW3-Pad2)*%
X63500000Y-60380000D03*
X70000000Y-60380000D03*
%TD*%
%TO.N,+3.3V*%
%TO.C,SW6*%
X74050000Y-64430000D03*
X80550000Y-64430000D03*
%TO.N,Net-(SW6-Pad2)*%
X80550000Y-68930000D03*
X74050000Y-68930000D03*
%TD*%
D11*
%TO.N,Net-(D5-Pad1)*%
%TO.C,SW5*%
X72390000Y-72400000D03*
D12*
%TO.N,Net-(D4-Pad1)*%
X69850000Y-72400000D03*
%TO.N,Net-(D2-Pad1)*%
X67310000Y-72400000D03*
%TO.N,Net-(D3-Pad1)*%
X64770000Y-72400000D03*
%TO.N,/Out-0*%
X64770000Y-80020000D03*
%TO.N,/Out-1*%
X67310000Y-80020000D03*
%TO.N,/Out-2*%
X69850000Y-80020000D03*
%TO.N,/Out-3*%
X72390000Y-80020000D03*
%TD*%
D15*
%TO.N,GND*%
%TO.C,J4*%
X63495000Y-51365000D03*
D16*
%TO.N,/In-3 {slash} TX*%
X66035000Y-51365000D03*
%TO.N,/In-2 {slash} RX*%
X68575000Y-51365000D03*
%TO.N,/In-1*%
X71115000Y-51365000D03*
%TO.N,/In-0*%
X73655000Y-51365000D03*
%TO.N,/Out-3*%
X76195000Y-51365000D03*
%TO.N,/Out-2*%
X78735000Y-51365000D03*
%TO.N,/Out-1*%
X81275000Y-51365000D03*
%TO.N,/Out-0*%
X83815000Y-51365000D03*
%TO.N,GND*%
X86355000Y-51365000D03*
%TO.N,+3.3V*%
X88895000Y-51365000D03*
%TO.N,/Reset*%
X91435000Y-51365000D03*
%TD*%
D15*
%TO.N,GND*%
%TO.C,J5*%
X63500000Y-83830000D03*
D16*
%TO.N,/In-3 {slash} TX*%
X66040000Y-83830000D03*
%TO.N,/In-2 {slash} RX*%
X68580000Y-83830000D03*
%TO.N,/In-1*%
X71120000Y-83830000D03*
%TO.N,/In-0*%
X73660000Y-83830000D03*
%TO.N,/Out-3*%
X76200000Y-83830000D03*
%TO.N,/Out-2*%
X78740000Y-83830000D03*
%TO.N,/Out-1*%
X81280000Y-83830000D03*
%TO.N,/Out-0*%
X83820000Y-83830000D03*
%TO.N,GND*%
X86360000Y-83830000D03*
%TO.N,+3.3V*%
X88900000Y-83830000D03*
%TO.N,/Reset*%
X91440000Y-83830000D03*
%TD*%
D17*
%TO.N,VBUS*%
X87630000Y-89535000D03*
X78740000Y-86449500D03*
X88175000Y-92075000D03*
%TO.N,GND*%
X83820000Y-94615000D03*
X72390000Y-92710000D03*
X87630000Y-60325000D03*
X88900000Y-53975000D03*
X64770000Y-57785000D03*
X67310000Y-64770000D03*
X83185000Y-87630000D03*
X92710000Y-54610000D03*
X82550000Y-74930000D03*
X85090000Y-54610000D03*
X86360000Y-92075000D03*
X76200000Y-90170000D03*
X76835000Y-93980000D03*
X87630000Y-75565000D03*
X64770000Y-76835000D03*
X77470000Y-69850000D03*
X81280000Y-86995000D03*
X86360000Y-69850000D03*
X77300000Y-64770000D03*
X77470000Y-55880000D03*
X92710000Y-57785000D03*
X74930000Y-87630000D03*
X92710000Y-61595000D03*
X81695602Y-92254846D03*
X92710000Y-65405000D03*
X67310000Y-59055000D03*
X86360000Y-86995000D03*
X90170000Y-69850000D03*
X78740000Y-91440000D03*
%TO.N,+3.3V*%
X81575767Y-89990500D03*
X74930000Y-92075000D03*
%TO.N,/TXD*%
X78730837Y-94029479D03*
%TO.N,/RXD*%
X82550000Y-93980000D03*
%TO.N,Net-(SW4-Pad2)*%
X77470000Y-71755000D03*
X77470000Y-80010000D03*
%TD*%
%TA.AperFunction,Conductor*%
%TO.N,GND*%
G36*
X93413621Y-47518502D02*
G01*
X93460114Y-47572158D01*
X93471500Y-47624500D01*
X93471500Y-85081377D01*
X93471498Y-85082147D01*
X93471024Y-85159721D01*
X93473491Y-85168352D01*
X93479150Y-85188153D01*
X93482728Y-85204915D01*
X93486920Y-85234187D01*
X93490634Y-85242355D01*
X93490634Y-85242356D01*
X93497548Y-85257562D01*
X93503996Y-85275086D01*
X93511051Y-85299771D01*
X93515843Y-85307365D01*
X93515844Y-85307368D01*
X93526830Y-85324780D01*
X93534969Y-85339863D01*
X93547208Y-85366782D01*
X93553069Y-85373584D01*
X93563970Y-85386235D01*
X93575073Y-85401239D01*
X93588776Y-85422958D01*
X93595501Y-85428897D01*
X93595504Y-85428901D01*
X93610938Y-85442532D01*
X93622982Y-85454724D01*
X93636427Y-85470327D01*
X93636430Y-85470329D01*
X93642287Y-85477127D01*
X93649816Y-85482007D01*
X93649817Y-85482008D01*
X93663835Y-85491094D01*
X93678709Y-85502385D01*
X93691217Y-85513431D01*
X93697951Y-85519378D01*
X93724711Y-85531942D01*
X93739691Y-85540263D01*
X93756983Y-85551471D01*
X93756988Y-85551473D01*
X93764515Y-85556352D01*
X93773108Y-85558922D01*
X93773113Y-85558924D01*
X93789120Y-85563711D01*
X93806564Y-85570372D01*
X93821676Y-85577467D01*
X93821678Y-85577468D01*
X93829800Y-85581281D01*
X93838667Y-85582662D01*
X93838668Y-85582662D01*
X93848310Y-85584163D01*
X93859017Y-85585830D01*
X93875732Y-85589613D01*
X93895466Y-85595515D01*
X93895472Y-85595516D01*
X93904066Y-85598086D01*
X93913037Y-85598141D01*
X93913038Y-85598141D01*
X93923097Y-85598202D01*
X93938506Y-85598296D01*
X93939289Y-85598329D01*
X93940386Y-85598500D01*
X93971377Y-85598500D01*
X93972147Y-85598502D01*
X94045785Y-85598952D01*
X94045786Y-85598952D01*
X94049721Y-85598976D01*
X94051065Y-85598592D01*
X94052410Y-85598500D01*
X97790500Y-85598500D01*
X97858621Y-85618502D01*
X97905114Y-85672158D01*
X97916500Y-85724500D01*
X97916500Y-94615500D01*
X97896498Y-94683621D01*
X97842842Y-94730114D01*
X97790500Y-94741500D01*
X83369849Y-94741500D01*
X83301728Y-94721498D01*
X83255235Y-94667842D01*
X83245131Y-94597568D01*
X83276211Y-94531192D01*
X83289040Y-94516944D01*
X83384527Y-94351556D01*
X83443542Y-94169928D01*
X83463504Y-93980000D01*
X83449432Y-93846114D01*
X83444232Y-93796635D01*
X83444232Y-93796633D01*
X83443542Y-93790072D01*
X83384527Y-93608444D01*
X83289040Y-93443056D01*
X83161253Y-93301134D01*
X83006752Y-93188882D01*
X83000724Y-93186198D01*
X83000722Y-93186197D01*
X82838319Y-93113891D01*
X82838318Y-93113891D01*
X82832288Y-93111206D01*
X82738887Y-93091353D01*
X82651944Y-93072872D01*
X82651939Y-93072872D01*
X82645487Y-93071500D01*
X82454513Y-93071500D01*
X82448061Y-93072872D01*
X82448056Y-93072872D01*
X82361113Y-93091353D01*
X82267712Y-93111206D01*
X82261682Y-93113891D01*
X82261681Y-93113891D01*
X82099278Y-93186197D01*
X82099276Y-93186198D01*
X82093248Y-93188882D01*
X81938747Y-93301134D01*
X81810960Y-93443056D01*
X81715473Y-93608444D01*
X81656458Y-93790072D01*
X81655768Y-93796633D01*
X81655768Y-93796635D01*
X81650568Y-93846114D01*
X81636496Y-93980000D01*
X81656458Y-94169928D01*
X81715473Y-94351556D01*
X81810960Y-94516944D01*
X81823789Y-94531192D01*
X81854505Y-94595198D01*
X81845740Y-94665651D01*
X81800277Y-94720182D01*
X81730151Y-94741500D01*
X79587034Y-94741500D01*
X79518913Y-94721498D01*
X79472420Y-94667842D01*
X79462316Y-94597568D01*
X79477915Y-94552500D01*
X79490219Y-94531190D01*
X79565364Y-94401035D01*
X79624379Y-94219407D01*
X79629580Y-94169928D01*
X79643651Y-94036044D01*
X79644341Y-94029479D01*
X79624379Y-93839551D01*
X79565364Y-93657923D01*
X79469877Y-93492535D01*
X79430475Y-93448774D01*
X79346512Y-93355524D01*
X79346511Y-93355523D01*
X79342090Y-93350613D01*
X79187589Y-93238361D01*
X79181561Y-93235677D01*
X79181559Y-93235676D01*
X79019156Y-93163370D01*
X79019155Y-93163370D01*
X79013125Y-93160685D01*
X78919724Y-93140832D01*
X78832781Y-93122351D01*
X78832776Y-93122351D01*
X78826324Y-93120979D01*
X78635350Y-93120979D01*
X78628898Y-93122351D01*
X78628893Y-93122351D01*
X78541950Y-93140832D01*
X78448549Y-93160685D01*
X78442519Y-93163370D01*
X78442518Y-93163370D01*
X78280115Y-93235676D01*
X78280113Y-93235677D01*
X78274085Y-93238361D01*
X78119584Y-93350613D01*
X78115163Y-93355523D01*
X78115162Y-93355524D01*
X78031200Y-93448774D01*
X77991797Y-93492535D01*
X77896310Y-93657923D01*
X77837295Y-93839551D01*
X77817333Y-94029479D01*
X77818023Y-94036044D01*
X77832095Y-94169928D01*
X77837295Y-94219407D01*
X77896310Y-94401035D01*
X77971456Y-94531190D01*
X77983759Y-94552500D01*
X78000497Y-94621495D01*
X77977277Y-94688587D01*
X77921470Y-94732474D01*
X77874640Y-94741500D01*
X61594500Y-94741500D01*
X61526379Y-94721498D01*
X61479886Y-94667842D01*
X61468500Y-94615500D01*
X61468500Y-92075000D01*
X74016496Y-92075000D01*
X74036458Y-92264928D01*
X74095473Y-92446556D01*
X74190960Y-92611944D01*
X74318747Y-92753866D01*
X74473248Y-92866118D01*
X74479276Y-92868802D01*
X74479278Y-92868803D01*
X74641681Y-92941109D01*
X74647712Y-92943794D01*
X74741113Y-92963647D01*
X74828056Y-92982128D01*
X74828061Y-92982128D01*
X74834513Y-92983500D01*
X75025487Y-92983500D01*
X75031939Y-92982128D01*
X75031944Y-92982128D01*
X75118887Y-92963647D01*
X75212288Y-92943794D01*
X75218319Y-92941109D01*
X75380722Y-92868803D01*
X75380724Y-92868802D01*
X75386752Y-92866118D01*
X75541253Y-92753866D01*
X75669040Y-92611944D01*
X75764527Y-92446556D01*
X75823542Y-92264928D01*
X75843504Y-92075000D01*
X87261496Y-92075000D01*
X87281458Y-92264928D01*
X87340473Y-92446556D01*
X87435960Y-92611944D01*
X87563747Y-92753866D01*
X87718248Y-92866118D01*
X87724276Y-92868802D01*
X87724278Y-92868803D01*
X87886681Y-92941109D01*
X87892712Y-92943794D01*
X87986113Y-92963647D01*
X88073056Y-92982128D01*
X88073061Y-92982128D01*
X88079513Y-92983500D01*
X88270487Y-92983500D01*
X88276939Y-92982128D01*
X88276944Y-92982128D01*
X88363887Y-92963647D01*
X88457288Y-92943794D01*
X88463319Y-92941109D01*
X88625722Y-92868803D01*
X88625724Y-92868802D01*
X88631752Y-92866118D01*
X88786253Y-92753866D01*
X88914040Y-92611944D01*
X89009527Y-92446556D01*
X89068542Y-92264928D01*
X89088504Y-92075000D01*
X89068542Y-91885072D01*
X89009527Y-91703444D01*
X88914040Y-91538056D01*
X88786253Y-91396134D01*
X88631752Y-91283882D01*
X88625724Y-91281198D01*
X88625722Y-91281197D01*
X88463319Y-91208891D01*
X88463318Y-91208891D01*
X88457288Y-91206206D01*
X88363887Y-91186353D01*
X88276944Y-91167872D01*
X88276939Y-91167872D01*
X88270487Y-91166500D01*
X88079513Y-91166500D01*
X88073061Y-91167872D01*
X88073056Y-91167872D01*
X87986113Y-91186353D01*
X87892712Y-91206206D01*
X87886682Y-91208891D01*
X87886681Y-91208891D01*
X87724278Y-91281197D01*
X87724276Y-91281198D01*
X87718248Y-91283882D01*
X87563747Y-91396134D01*
X87435960Y-91538056D01*
X87340473Y-91703444D01*
X87281458Y-91885072D01*
X87261496Y-92075000D01*
X75843504Y-92075000D01*
X75823542Y-91885072D01*
X75764527Y-91703444D01*
X75669040Y-91538056D01*
X75541253Y-91396134D01*
X75386752Y-91283882D01*
X75380724Y-91281198D01*
X75380722Y-91281197D01*
X75218319Y-91208891D01*
X75218318Y-91208891D01*
X75212288Y-91206206D01*
X75118887Y-91186353D01*
X75031944Y-91167872D01*
X75031939Y-91167872D01*
X75025487Y-91166500D01*
X74834513Y-91166500D01*
X74828061Y-91167872D01*
X74828056Y-91167872D01*
X74741113Y-91186353D01*
X74647712Y-91206206D01*
X74641682Y-91208891D01*
X74641681Y-91208891D01*
X74479278Y-91281197D01*
X74479276Y-91281198D01*
X74473248Y-91283882D01*
X74318747Y-91396134D01*
X74190960Y-91538056D01*
X74095473Y-91703444D01*
X74036458Y-91885072D01*
X74016496Y-92075000D01*
X61468500Y-92075000D01*
X61468500Y-89990500D01*
X80662263Y-89990500D01*
X80682225Y-90180428D01*
X80741240Y-90362056D01*
X80836727Y-90527444D01*
X80964514Y-90669366D01*
X81119015Y-90781618D01*
X81125043Y-90784302D01*
X81125045Y-90784303D01*
X81287448Y-90856609D01*
X81293479Y-90859294D01*
X81386879Y-90879147D01*
X81473823Y-90897628D01*
X81473828Y-90897628D01*
X81480280Y-90899000D01*
X81671254Y-90899000D01*
X81677706Y-90897628D01*
X81677711Y-90897628D01*
X81764655Y-90879147D01*
X81858055Y-90859294D01*
X81864086Y-90856609D01*
X82026489Y-90784303D01*
X82026491Y-90784302D01*
X82032519Y-90781618D01*
X82187020Y-90669366D01*
X82314807Y-90527444D01*
X82410294Y-90362056D01*
X82469309Y-90180428D01*
X82489271Y-89990500D01*
X82469309Y-89800572D01*
X82410294Y-89618944D01*
X82361829Y-89535000D01*
X86716496Y-89535000D01*
X86736458Y-89724928D01*
X86795473Y-89906556D01*
X86890960Y-90071944D01*
X87018747Y-90213866D01*
X87173248Y-90326118D01*
X87179276Y-90328802D01*
X87179278Y-90328803D01*
X87341681Y-90401109D01*
X87347712Y-90403794D01*
X87441113Y-90423647D01*
X87528056Y-90442128D01*
X87528061Y-90442128D01*
X87534513Y-90443500D01*
X87725487Y-90443500D01*
X87731939Y-90442128D01*
X87731944Y-90442128D01*
X87818887Y-90423647D01*
X87912288Y-90403794D01*
X87918319Y-90401109D01*
X88080722Y-90328803D01*
X88080724Y-90328802D01*
X88086752Y-90326118D01*
X88241253Y-90213866D01*
X88369040Y-90071944D01*
X88464527Y-89906556D01*
X88523542Y-89724928D01*
X88543504Y-89535000D01*
X88523542Y-89345072D01*
X88464527Y-89163444D01*
X88369040Y-88998056D01*
X88241253Y-88856134D01*
X88086752Y-88743882D01*
X88080724Y-88741198D01*
X88080722Y-88741197D01*
X87918319Y-88668891D01*
X87918318Y-88668891D01*
X87912288Y-88666206D01*
X87818887Y-88646353D01*
X87731944Y-88627872D01*
X87731939Y-88627872D01*
X87725487Y-88626500D01*
X87534513Y-88626500D01*
X87528061Y-88627872D01*
X87528056Y-88627872D01*
X87441113Y-88646353D01*
X87347712Y-88666206D01*
X87341682Y-88668891D01*
X87341681Y-88668891D01*
X87179278Y-88741197D01*
X87179276Y-88741198D01*
X87173248Y-88743882D01*
X87018747Y-88856134D01*
X86890960Y-88998056D01*
X86795473Y-89163444D01*
X86736458Y-89345072D01*
X86716496Y-89535000D01*
X82361829Y-89535000D01*
X82314807Y-89453556D01*
X82187020Y-89311634D01*
X82032519Y-89199382D01*
X82026491Y-89196698D01*
X82026489Y-89196697D01*
X81864086Y-89124391D01*
X81864085Y-89124391D01*
X81858055Y-89121706D01*
X81764655Y-89101853D01*
X81677711Y-89083372D01*
X81677706Y-89083372D01*
X81671254Y-89082000D01*
X81480280Y-89082000D01*
X81473828Y-89083372D01*
X81473823Y-89083372D01*
X81386879Y-89101853D01*
X81293479Y-89121706D01*
X81287449Y-89124391D01*
X81287448Y-89124391D01*
X81125045Y-89196697D01*
X81125043Y-89196698D01*
X81119015Y-89199382D01*
X80964514Y-89311634D01*
X80836727Y-89453556D01*
X80741240Y-89618944D01*
X80682225Y-89800572D01*
X80662263Y-89990500D01*
X61468500Y-89990500D01*
X61468500Y-86449500D01*
X77826496Y-86449500D01*
X77846458Y-86639428D01*
X77905473Y-86821056D01*
X78000960Y-86986444D01*
X78128747Y-87128366D01*
X78283248Y-87240618D01*
X78289276Y-87243302D01*
X78289278Y-87243303D01*
X78451681Y-87315609D01*
X78457712Y-87318294D01*
X78551112Y-87338147D01*
X78638056Y-87356628D01*
X78638061Y-87356628D01*
X78644513Y-87358000D01*
X78835487Y-87358000D01*
X78841939Y-87356628D01*
X78841944Y-87356628D01*
X78928888Y-87338147D01*
X79022288Y-87318294D01*
X79028319Y-87315609D01*
X79190722Y-87243303D01*
X79190724Y-87243302D01*
X79196752Y-87240618D01*
X79351253Y-87128366D01*
X79479040Y-86986444D01*
X79574527Y-86821056D01*
X79633542Y-86639428D01*
X79653504Y-86449500D01*
X79633542Y-86259572D01*
X79574527Y-86077944D01*
X79479040Y-85912556D01*
X79351253Y-85770634D01*
X79196752Y-85658382D01*
X79190724Y-85655698D01*
X79190722Y-85655697D01*
X79028319Y-85583391D01*
X79028318Y-85583391D01*
X79022288Y-85580706D01*
X78928888Y-85560853D01*
X78841944Y-85542372D01*
X78841939Y-85542372D01*
X78835487Y-85541000D01*
X78644513Y-85541000D01*
X78638061Y-85542372D01*
X78638056Y-85542372D01*
X78551112Y-85560853D01*
X78457712Y-85580706D01*
X78451682Y-85583391D01*
X78451681Y-85583391D01*
X78289278Y-85655697D01*
X78289276Y-85655698D01*
X78283248Y-85658382D01*
X78128747Y-85770634D01*
X78000960Y-85912556D01*
X77905473Y-86077944D01*
X77846458Y-86259572D01*
X77826496Y-86449500D01*
X61468500Y-86449500D01*
X61468500Y-83796695D01*
X64677251Y-83796695D01*
X64677548Y-83801848D01*
X64677548Y-83801851D01*
X64683011Y-83896590D01*
X64690110Y-84019715D01*
X64691247Y-84024761D01*
X64691248Y-84024767D01*
X64711119Y-84112939D01*
X64739222Y-84237639D01*
X64823266Y-84444616D01*
X64874019Y-84527438D01*
X64937291Y-84630688D01*
X64939987Y-84635088D01*
X65086250Y-84803938D01*
X65258126Y-84946632D01*
X65451000Y-85059338D01*
X65659692Y-85139030D01*
X65664760Y-85140061D01*
X65664763Y-85140062D01*
X65761391Y-85159721D01*
X65878597Y-85183567D01*
X65883772Y-85183757D01*
X65883774Y-85183757D01*
X66096673Y-85191564D01*
X66096677Y-85191564D01*
X66101837Y-85191753D01*
X66106957Y-85191097D01*
X66106959Y-85191097D01*
X66318288Y-85164025D01*
X66318289Y-85164025D01*
X66323416Y-85163368D01*
X66365487Y-85150746D01*
X66532429Y-85100661D01*
X66532434Y-85100659D01*
X66537384Y-85099174D01*
X66737994Y-85000896D01*
X66919860Y-84871173D01*
X67078096Y-84713489D01*
X67137594Y-84630689D01*
X67208453Y-84532077D01*
X67209776Y-84533028D01*
X67256645Y-84489857D01*
X67326580Y-84477625D01*
X67392026Y-84505144D01*
X67419875Y-84536994D01*
X67479987Y-84635088D01*
X67626250Y-84803938D01*
X67798126Y-84946632D01*
X67991000Y-85059338D01*
X68199692Y-85139030D01*
X68204760Y-85140061D01*
X68204763Y-85140062D01*
X68301391Y-85159721D01*
X68418597Y-85183567D01*
X68423772Y-85183757D01*
X68423774Y-85183757D01*
X68636673Y-85191564D01*
X68636677Y-85191564D01*
X68641837Y-85191753D01*
X68646957Y-85191097D01*
X68646959Y-85191097D01*
X68858288Y-85164025D01*
X68858289Y-85164025D01*
X68863416Y-85163368D01*
X68905487Y-85150746D01*
X69072429Y-85100661D01*
X69072434Y-85100659D01*
X69077384Y-85099174D01*
X69277994Y-85000896D01*
X69459860Y-84871173D01*
X69618096Y-84713489D01*
X69677594Y-84630689D01*
X69748453Y-84532077D01*
X69749776Y-84533028D01*
X69796645Y-84489857D01*
X69866580Y-84477625D01*
X69932026Y-84505144D01*
X69959875Y-84536994D01*
X70019987Y-84635088D01*
X70166250Y-84803938D01*
X70338126Y-84946632D01*
X70531000Y-85059338D01*
X70739692Y-85139030D01*
X70744760Y-85140061D01*
X70744763Y-85140062D01*
X70841391Y-85159721D01*
X70958597Y-85183567D01*
X70963772Y-85183757D01*
X70963774Y-85183757D01*
X71176673Y-85191564D01*
X71176677Y-85191564D01*
X71181837Y-85191753D01*
X71186957Y-85191097D01*
X71186959Y-85191097D01*
X71398288Y-85164025D01*
X71398289Y-85164025D01*
X71403416Y-85163368D01*
X71445487Y-85150746D01*
X71612429Y-85100661D01*
X71612434Y-85100659D01*
X71617384Y-85099174D01*
X71817994Y-85000896D01*
X71999860Y-84871173D01*
X72158096Y-84713489D01*
X72217594Y-84630689D01*
X72288453Y-84532077D01*
X72289776Y-84533028D01*
X72336645Y-84489857D01*
X72406580Y-84477625D01*
X72472026Y-84505144D01*
X72499875Y-84536994D01*
X72559987Y-84635088D01*
X72706250Y-84803938D01*
X72878126Y-84946632D01*
X73071000Y-85059338D01*
X73279692Y-85139030D01*
X73284760Y-85140061D01*
X73284763Y-85140062D01*
X73381391Y-85159721D01*
X73498597Y-85183567D01*
X73503772Y-85183757D01*
X73503774Y-85183757D01*
X73716673Y-85191564D01*
X73716677Y-85191564D01*
X73721837Y-85191753D01*
X73726957Y-85191097D01*
X73726959Y-85191097D01*
X73938288Y-85164025D01*
X73938289Y-85164025D01*
X73943416Y-85163368D01*
X73985487Y-85150746D01*
X74152429Y-85100661D01*
X74152434Y-85100659D01*
X74157384Y-85099174D01*
X74357994Y-85000896D01*
X74539860Y-84871173D01*
X74698096Y-84713489D01*
X74757594Y-84630689D01*
X74828453Y-84532077D01*
X74829776Y-84533028D01*
X74876645Y-84489857D01*
X74946580Y-84477625D01*
X75012026Y-84505144D01*
X75039875Y-84536994D01*
X75099987Y-84635088D01*
X75246250Y-84803938D01*
X75418126Y-84946632D01*
X75611000Y-85059338D01*
X75819692Y-85139030D01*
X75824760Y-85140061D01*
X75824763Y-85140062D01*
X75921391Y-85159721D01*
X76038597Y-85183567D01*
X76043772Y-85183757D01*
X76043774Y-85183757D01*
X76256673Y-85191564D01*
X76256677Y-85191564D01*
X76261837Y-85191753D01*
X76266957Y-85191097D01*
X76266959Y-85191097D01*
X76478288Y-85164025D01*
X76478289Y-85164025D01*
X76483416Y-85163368D01*
X76525487Y-85150746D01*
X76692429Y-85100661D01*
X76692434Y-85100659D01*
X76697384Y-85099174D01*
X76897994Y-85000896D01*
X77079860Y-84871173D01*
X77238096Y-84713489D01*
X77297594Y-84630689D01*
X77368453Y-84532077D01*
X77369776Y-84533028D01*
X77416645Y-84489857D01*
X77486580Y-84477625D01*
X77552026Y-84505144D01*
X77579875Y-84536994D01*
X77639987Y-84635088D01*
X77786250Y-84803938D01*
X77958126Y-84946632D01*
X78151000Y-85059338D01*
X78359692Y-85139030D01*
X78364760Y-85140061D01*
X78364763Y-85140062D01*
X78461391Y-85159721D01*
X78578597Y-85183567D01*
X78583772Y-85183757D01*
X78583774Y-85183757D01*
X78796673Y-85191564D01*
X78796677Y-85191564D01*
X78801837Y-85191753D01*
X78806957Y-85191097D01*
X78806959Y-85191097D01*
X79018288Y-85164025D01*
X79018289Y-85164025D01*
X79023416Y-85163368D01*
X79065487Y-85150746D01*
X79232429Y-85100661D01*
X79232434Y-85100659D01*
X79237384Y-85099174D01*
X79437994Y-85000896D01*
X79619860Y-84871173D01*
X79778096Y-84713489D01*
X79837594Y-84630689D01*
X79908453Y-84532077D01*
X79909776Y-84533028D01*
X79956645Y-84489857D01*
X80026580Y-84477625D01*
X80092026Y-84505144D01*
X80119875Y-84536994D01*
X80179987Y-84635088D01*
X80326250Y-84803938D01*
X80498126Y-84946632D01*
X80691000Y-85059338D01*
X80899692Y-85139030D01*
X80904760Y-85140061D01*
X80904763Y-85140062D01*
X81001391Y-85159721D01*
X81118597Y-85183567D01*
X81123772Y-85183757D01*
X81123774Y-85183757D01*
X81336673Y-85191564D01*
X81336677Y-85191564D01*
X81341837Y-85191753D01*
X81346957Y-85191097D01*
X81346959Y-85191097D01*
X81558288Y-85164025D01*
X81558289Y-85164025D01*
X81563416Y-85163368D01*
X81605487Y-85150746D01*
X81772429Y-85100661D01*
X81772434Y-85100659D01*
X81777384Y-85099174D01*
X81977994Y-85000896D01*
X82159860Y-84871173D01*
X82318096Y-84713489D01*
X82377594Y-84630689D01*
X82448453Y-84532077D01*
X82449776Y-84533028D01*
X82496645Y-84489857D01*
X82566580Y-84477625D01*
X82632026Y-84505144D01*
X82659875Y-84536994D01*
X82719987Y-84635088D01*
X82866250Y-84803938D01*
X83038126Y-84946632D01*
X83231000Y-85059338D01*
X83439692Y-85139030D01*
X83444760Y-85140061D01*
X83444763Y-85140062D01*
X83541391Y-85159721D01*
X83658597Y-85183567D01*
X83663772Y-85183757D01*
X83663774Y-85183757D01*
X83876673Y-85191564D01*
X83876677Y-85191564D01*
X83881837Y-85191753D01*
X83886957Y-85191097D01*
X83886959Y-85191097D01*
X84098288Y-85164025D01*
X84098289Y-85164025D01*
X84103416Y-85163368D01*
X84145487Y-85150746D01*
X84312429Y-85100661D01*
X84312434Y-85100659D01*
X84317384Y-85099174D01*
X84517994Y-85000896D01*
X84699860Y-84871173D01*
X84858096Y-84713489D01*
X84917594Y-84630689D01*
X84985435Y-84536277D01*
X84988453Y-84532077D01*
X85009320Y-84489857D01*
X85085136Y-84336453D01*
X85085137Y-84336451D01*
X85087430Y-84331811D01*
X85152370Y-84118069D01*
X85181529Y-83896590D01*
X85183156Y-83830000D01*
X85180418Y-83796695D01*
X87537251Y-83796695D01*
X87537548Y-83801848D01*
X87537548Y-83801851D01*
X87543011Y-83896590D01*
X87550110Y-84019715D01*
X87551247Y-84024761D01*
X87551248Y-84024767D01*
X87571119Y-84112939D01*
X87599222Y-84237639D01*
X87683266Y-84444616D01*
X87734019Y-84527438D01*
X87797291Y-84630688D01*
X87799987Y-84635088D01*
X87946250Y-84803938D01*
X88118126Y-84946632D01*
X88311000Y-85059338D01*
X88519692Y-85139030D01*
X88524760Y-85140061D01*
X88524763Y-85140062D01*
X88621391Y-85159721D01*
X88738597Y-85183567D01*
X88743772Y-85183757D01*
X88743774Y-85183757D01*
X88956673Y-85191564D01*
X88956677Y-85191564D01*
X88961837Y-85191753D01*
X88966957Y-85191097D01*
X88966959Y-85191097D01*
X89178288Y-85164025D01*
X89178289Y-85164025D01*
X89183416Y-85163368D01*
X89225487Y-85150746D01*
X89392429Y-85100661D01*
X89392434Y-85100659D01*
X89397384Y-85099174D01*
X89597994Y-85000896D01*
X89779860Y-84871173D01*
X89938096Y-84713489D01*
X89997594Y-84630689D01*
X90068453Y-84532077D01*
X90069776Y-84533028D01*
X90116645Y-84489857D01*
X90186580Y-84477625D01*
X90252026Y-84505144D01*
X90279875Y-84536994D01*
X90339987Y-84635088D01*
X90486250Y-84803938D01*
X90658126Y-84946632D01*
X90851000Y-85059338D01*
X91059692Y-85139030D01*
X91064760Y-85140061D01*
X91064763Y-85140062D01*
X91161391Y-85159721D01*
X91278597Y-85183567D01*
X91283772Y-85183757D01*
X91283774Y-85183757D01*
X91496673Y-85191564D01*
X91496677Y-85191564D01*
X91501837Y-85191753D01*
X91506957Y-85191097D01*
X91506959Y-85191097D01*
X91718288Y-85164025D01*
X91718289Y-85164025D01*
X91723416Y-85163368D01*
X91765487Y-85150746D01*
X91932429Y-85100661D01*
X91932434Y-85100659D01*
X91937384Y-85099174D01*
X92137994Y-85000896D01*
X92319860Y-84871173D01*
X92478096Y-84713489D01*
X92537594Y-84630689D01*
X92605435Y-84536277D01*
X92608453Y-84532077D01*
X92629320Y-84489857D01*
X92705136Y-84336453D01*
X92705137Y-84336451D01*
X92707430Y-84331811D01*
X92772370Y-84118069D01*
X92801529Y-83896590D01*
X92803156Y-83830000D01*
X92784852Y-83607361D01*
X92730431Y-83390702D01*
X92641354Y-83185840D01*
X92520014Y-82998277D01*
X92369670Y-82833051D01*
X92365619Y-82829852D01*
X92365615Y-82829848D01*
X92198414Y-82697800D01*
X92198410Y-82697798D01*
X92194359Y-82694598D01*
X91998789Y-82586638D01*
X91993920Y-82584914D01*
X91993916Y-82584912D01*
X91793087Y-82513795D01*
X91793083Y-82513794D01*
X91788212Y-82512069D01*
X91783119Y-82511162D01*
X91783116Y-82511161D01*
X91573373Y-82473800D01*
X91573367Y-82473799D01*
X91568284Y-82472894D01*
X91494452Y-82471992D01*
X91350081Y-82470228D01*
X91350079Y-82470228D01*
X91344911Y-82470165D01*
X91124091Y-82503955D01*
X90911756Y-82573357D01*
X90713607Y-82676507D01*
X90709474Y-82679610D01*
X90709471Y-82679612D01*
X90685247Y-82697800D01*
X90534965Y-82810635D01*
X90380629Y-82972138D01*
X90273201Y-83129621D01*
X90218293Y-83174621D01*
X90147768Y-83182792D01*
X90084021Y-83151538D01*
X90063324Y-83127054D01*
X89982822Y-83002617D01*
X89982820Y-83002614D01*
X89980014Y-82998277D01*
X89829670Y-82833051D01*
X89825619Y-82829852D01*
X89825615Y-82829848D01*
X89658414Y-82697800D01*
X89658410Y-82697798D01*
X89654359Y-82694598D01*
X89458789Y-82586638D01*
X89453920Y-82584914D01*
X89453916Y-82584912D01*
X89253087Y-82513795D01*
X89253083Y-82513794D01*
X89248212Y-82512069D01*
X89243119Y-82511162D01*
X89243116Y-82511161D01*
X89033373Y-82473800D01*
X89033367Y-82473799D01*
X89028284Y-82472894D01*
X88954452Y-82471992D01*
X88810081Y-82470228D01*
X88810079Y-82470228D01*
X88804911Y-82470165D01*
X88584091Y-82503955D01*
X88371756Y-82573357D01*
X88173607Y-82676507D01*
X88169474Y-82679610D01*
X88169471Y-82679612D01*
X88145247Y-82697800D01*
X87994965Y-82810635D01*
X87840629Y-82972138D01*
X87714743Y-83156680D01*
X87620688Y-83359305D01*
X87560989Y-83574570D01*
X87537251Y-83796695D01*
X85180418Y-83796695D01*
X85164852Y-83607361D01*
X85110431Y-83390702D01*
X85021354Y-83185840D01*
X84900014Y-82998277D01*
X84749670Y-82833051D01*
X84745619Y-82829852D01*
X84745615Y-82829848D01*
X84578414Y-82697800D01*
X84578410Y-82697798D01*
X84574359Y-82694598D01*
X84378789Y-82586638D01*
X84373920Y-82584914D01*
X84373916Y-82584912D01*
X84173087Y-82513795D01*
X84173083Y-82513794D01*
X84168212Y-82512069D01*
X84163119Y-82511162D01*
X84163116Y-82511161D01*
X83953373Y-82473800D01*
X83953367Y-82473799D01*
X83948284Y-82472894D01*
X83874452Y-82471992D01*
X83730081Y-82470228D01*
X83730079Y-82470228D01*
X83724911Y-82470165D01*
X83504091Y-82503955D01*
X83291756Y-82573357D01*
X83093607Y-82676507D01*
X83089474Y-82679610D01*
X83089471Y-82679612D01*
X83065247Y-82697800D01*
X82914965Y-82810635D01*
X82760629Y-82972138D01*
X82653201Y-83129621D01*
X82598293Y-83174621D01*
X82527768Y-83182792D01*
X82464021Y-83151538D01*
X82443324Y-83127054D01*
X82362822Y-83002617D01*
X82362820Y-83002614D01*
X82360014Y-82998277D01*
X82209670Y-82833051D01*
X82205619Y-82829852D01*
X82205615Y-82829848D01*
X82038414Y-82697800D01*
X82038410Y-82697798D01*
X82034359Y-82694598D01*
X81838789Y-82586638D01*
X81833920Y-82584914D01*
X81833916Y-82584912D01*
X81633087Y-82513795D01*
X81633083Y-82513794D01*
X81628212Y-82512069D01*
X81623119Y-82511162D01*
X81623116Y-82511161D01*
X81413373Y-82473800D01*
X81413367Y-82473799D01*
X81408284Y-82472894D01*
X81334452Y-82471992D01*
X81190081Y-82470228D01*
X81190079Y-82470228D01*
X81184911Y-82470165D01*
X80964091Y-82503955D01*
X80751756Y-82573357D01*
X80553607Y-82676507D01*
X80549474Y-82679610D01*
X80549471Y-82679612D01*
X80525247Y-82697800D01*
X80374965Y-82810635D01*
X80220629Y-82972138D01*
X80113201Y-83129621D01*
X80058293Y-83174621D01*
X79987768Y-83182792D01*
X79924021Y-83151538D01*
X79903324Y-83127054D01*
X79822822Y-83002617D01*
X79822820Y-83002614D01*
X79820014Y-82998277D01*
X79669670Y-82833051D01*
X79665619Y-82829852D01*
X79665615Y-82829848D01*
X79498414Y-82697800D01*
X79498410Y-82697798D01*
X79494359Y-82694598D01*
X79298789Y-82586638D01*
X79293920Y-82584914D01*
X79293916Y-82584912D01*
X79093087Y-82513795D01*
X79093083Y-82513794D01*
X79088212Y-82512069D01*
X79083119Y-82511162D01*
X79083116Y-82511161D01*
X78873373Y-82473800D01*
X78873367Y-82473799D01*
X78868284Y-82472894D01*
X78794452Y-82471992D01*
X78650081Y-82470228D01*
X78650079Y-82470228D01*
X78644911Y-82470165D01*
X78424091Y-82503955D01*
X78211756Y-82573357D01*
X78013607Y-82676507D01*
X78009474Y-82679610D01*
X78009471Y-82679612D01*
X77985247Y-82697800D01*
X77834965Y-82810635D01*
X77680629Y-82972138D01*
X77573201Y-83129621D01*
X77518293Y-83174621D01*
X77447768Y-83182792D01*
X77384021Y-83151538D01*
X77363324Y-83127054D01*
X77282822Y-83002617D01*
X77282820Y-83002614D01*
X77280014Y-82998277D01*
X77129670Y-82833051D01*
X77125619Y-82829852D01*
X77125615Y-82829848D01*
X76958414Y-82697800D01*
X76958410Y-82697798D01*
X76954359Y-82694598D01*
X76758789Y-82586638D01*
X76753920Y-82584914D01*
X76753916Y-82584912D01*
X76553087Y-82513795D01*
X76553083Y-82513794D01*
X76548212Y-82512069D01*
X76543119Y-82511162D01*
X76543116Y-82511161D01*
X76333373Y-82473800D01*
X76333367Y-82473799D01*
X76328284Y-82472894D01*
X76254452Y-82471992D01*
X76110081Y-82470228D01*
X76110079Y-82470228D01*
X76104911Y-82470165D01*
X75884091Y-82503955D01*
X75671756Y-82573357D01*
X75473607Y-82676507D01*
X75469474Y-82679610D01*
X75469471Y-82679612D01*
X75445247Y-82697800D01*
X75294965Y-82810635D01*
X75140629Y-82972138D01*
X75033201Y-83129621D01*
X74978293Y-83174621D01*
X74907768Y-83182792D01*
X74844021Y-83151538D01*
X74823324Y-83127054D01*
X74742822Y-83002617D01*
X74742820Y-83002614D01*
X74740014Y-82998277D01*
X74589670Y-82833051D01*
X74585619Y-82829852D01*
X74585615Y-82829848D01*
X74418414Y-82697800D01*
X74418410Y-82697798D01*
X74414359Y-82694598D01*
X74218789Y-82586638D01*
X74213920Y-82584914D01*
X74213916Y-82584912D01*
X74013087Y-82513795D01*
X74013083Y-82513794D01*
X74008212Y-82512069D01*
X74003119Y-82511162D01*
X74003116Y-82511161D01*
X73793373Y-82473800D01*
X73793367Y-82473799D01*
X73788284Y-82472894D01*
X73714452Y-82471992D01*
X73570081Y-82470228D01*
X73570079Y-82470228D01*
X73564911Y-82470165D01*
X73344091Y-82503955D01*
X73131756Y-82573357D01*
X72933607Y-82676507D01*
X72929474Y-82679610D01*
X72929471Y-82679612D01*
X72905247Y-82697800D01*
X72754965Y-82810635D01*
X72600629Y-82972138D01*
X72493201Y-83129621D01*
X72438293Y-83174621D01*
X72367768Y-83182792D01*
X72304021Y-83151538D01*
X72283324Y-83127054D01*
X72202822Y-83002617D01*
X72202820Y-83002614D01*
X72200014Y-82998277D01*
X72049670Y-82833051D01*
X72045619Y-82829852D01*
X72045615Y-82829848D01*
X71878414Y-82697800D01*
X71878410Y-82697798D01*
X71874359Y-82694598D01*
X71678789Y-82586638D01*
X71673920Y-82584914D01*
X71673916Y-82584912D01*
X71473087Y-82513795D01*
X71473083Y-82513794D01*
X71468212Y-82512069D01*
X71463119Y-82511162D01*
X71463116Y-82511161D01*
X71253373Y-82473800D01*
X71253367Y-82473799D01*
X71248284Y-82472894D01*
X71174452Y-82471992D01*
X71030081Y-82470228D01*
X71030079Y-82470228D01*
X71024911Y-82470165D01*
X70804091Y-82503955D01*
X70591756Y-82573357D01*
X70393607Y-82676507D01*
X70389474Y-82679610D01*
X70389471Y-82679612D01*
X70365247Y-82697800D01*
X70214965Y-82810635D01*
X70060629Y-82972138D01*
X69953201Y-83129621D01*
X69898293Y-83174621D01*
X69827768Y-83182792D01*
X69764021Y-83151538D01*
X69743324Y-83127054D01*
X69662822Y-83002617D01*
X69662820Y-83002614D01*
X69660014Y-82998277D01*
X69509670Y-82833051D01*
X69505619Y-82829852D01*
X69505615Y-82829848D01*
X69338414Y-82697800D01*
X69338410Y-82697798D01*
X69334359Y-82694598D01*
X69138789Y-82586638D01*
X69133920Y-82584914D01*
X69133916Y-82584912D01*
X68933087Y-82513795D01*
X68933083Y-82513794D01*
X68928212Y-82512069D01*
X68923119Y-82511162D01*
X68923116Y-82511161D01*
X68713373Y-82473800D01*
X68713367Y-82473799D01*
X68708284Y-82472894D01*
X68634452Y-82471992D01*
X68490081Y-82470228D01*
X68490079Y-82470228D01*
X68484911Y-82470165D01*
X68264091Y-82503955D01*
X68051756Y-82573357D01*
X67853607Y-82676507D01*
X67849474Y-82679610D01*
X67849471Y-82679612D01*
X67825247Y-82697800D01*
X67674965Y-82810635D01*
X67520629Y-82972138D01*
X67413201Y-83129621D01*
X67358293Y-83174621D01*
X67287768Y-83182792D01*
X67224021Y-83151538D01*
X67203324Y-83127054D01*
X67122822Y-83002617D01*
X67122820Y-83002614D01*
X67120014Y-82998277D01*
X66969670Y-82833051D01*
X66965619Y-82829852D01*
X66965615Y-82829848D01*
X66798414Y-82697800D01*
X66798410Y-82697798D01*
X66794359Y-82694598D01*
X66598789Y-82586638D01*
X66593920Y-82584914D01*
X66593916Y-82584912D01*
X66393087Y-82513795D01*
X66393083Y-82513794D01*
X66388212Y-82512069D01*
X66383119Y-82511162D01*
X66383116Y-82511161D01*
X66173373Y-82473800D01*
X66173367Y-82473799D01*
X66168284Y-82472894D01*
X66094452Y-82471992D01*
X65950081Y-82470228D01*
X65950079Y-82470228D01*
X65944911Y-82470165D01*
X65724091Y-82503955D01*
X65511756Y-82573357D01*
X65313607Y-82676507D01*
X65309474Y-82679610D01*
X65309471Y-82679612D01*
X65285247Y-82697800D01*
X65134965Y-82810635D01*
X64980629Y-82972138D01*
X64854743Y-83156680D01*
X64760688Y-83359305D01*
X64700989Y-83574570D01*
X64677251Y-83796695D01*
X61468500Y-83796695D01*
X61468500Y-80020000D01*
X63456502Y-80020000D01*
X63476457Y-80248087D01*
X63477881Y-80253400D01*
X63477881Y-80253402D01*
X63531614Y-80453933D01*
X63535716Y-80469243D01*
X63538039Y-80474224D01*
X63538039Y-80474225D01*
X63630151Y-80671762D01*
X63630154Y-80671767D01*
X63632477Y-80676749D01*
X63705902Y-80781611D01*
X63759529Y-80858197D01*
X63763802Y-80864300D01*
X63925700Y-81026198D01*
X63930208Y-81029355D01*
X63930211Y-81029357D01*
X63969268Y-81056705D01*
X64113251Y-81157523D01*
X64118233Y-81159846D01*
X64118238Y-81159849D01*
X64302363Y-81245707D01*
X64320757Y-81254284D01*
X64326065Y-81255706D01*
X64326067Y-81255707D01*
X64536598Y-81312119D01*
X64536600Y-81312119D01*
X64541913Y-81313543D01*
X64770000Y-81333498D01*
X64998087Y-81313543D01*
X65003400Y-81312119D01*
X65003402Y-81312119D01*
X65213933Y-81255707D01*
X65213935Y-81255706D01*
X65219243Y-81254284D01*
X65237637Y-81245707D01*
X65421762Y-81159849D01*
X65421767Y-81159846D01*
X65426749Y-81157523D01*
X65570732Y-81056705D01*
X65609789Y-81029357D01*
X65609792Y-81029355D01*
X65614300Y-81026198D01*
X65776198Y-80864300D01*
X65780472Y-80858197D01*
X65834098Y-80781611D01*
X65907523Y-80676749D01*
X65909846Y-80671767D01*
X65909849Y-80671762D01*
X65925805Y-80637543D01*
X65972722Y-80584258D01*
X66040999Y-80564797D01*
X66108959Y-80585339D01*
X66154195Y-80637543D01*
X66170151Y-80671762D01*
X66170154Y-80671767D01*
X66172477Y-80676749D01*
X66245902Y-80781611D01*
X66299529Y-80858197D01*
X66303802Y-80864300D01*
X66465700Y-81026198D01*
X66470208Y-81029355D01*
X66470211Y-81029357D01*
X66509268Y-81056705D01*
X66653251Y-81157523D01*
X66658233Y-81159846D01*
X66658238Y-81159849D01*
X66842363Y-81245707D01*
X66860757Y-81254284D01*
X66866065Y-81255706D01*
X66866067Y-81255707D01*
X67076598Y-81312119D01*
X67076600Y-81312119D01*
X67081913Y-81313543D01*
X67310000Y-81333498D01*
X67538087Y-81313543D01*
X67543400Y-81312119D01*
X67543402Y-81312119D01*
X67753933Y-81255707D01*
X67753935Y-81255706D01*
X67759243Y-81254284D01*
X67777637Y-81245707D01*
X67961762Y-81159849D01*
X67961767Y-81159846D01*
X67966749Y-81157523D01*
X68110732Y-81056705D01*
X68149789Y-81029357D01*
X68149792Y-81029355D01*
X68154300Y-81026198D01*
X68316198Y-80864300D01*
X68320472Y-80858197D01*
X68374098Y-80781611D01*
X68447523Y-80676749D01*
X68449846Y-80671767D01*
X68449849Y-80671762D01*
X68465805Y-80637543D01*
X68512722Y-80584258D01*
X68580999Y-80564797D01*
X68648959Y-80585339D01*
X68694195Y-80637543D01*
X68710151Y-80671762D01*
X68710154Y-80671767D01*
X68712477Y-80676749D01*
X68785902Y-80781611D01*
X68839529Y-80858197D01*
X68843802Y-80864300D01*
X69005700Y-81026198D01*
X69010208Y-81029355D01*
X69010211Y-81029357D01*
X69049268Y-81056705D01*
X69193251Y-81157523D01*
X69198233Y-81159846D01*
X69198238Y-81159849D01*
X69382363Y-81245707D01*
X69400757Y-81254284D01*
X69406065Y-81255706D01*
X69406067Y-81255707D01*
X69616598Y-81312119D01*
X69616600Y-81312119D01*
X69621913Y-81313543D01*
X69850000Y-81333498D01*
X70078087Y-81313543D01*
X70083400Y-81312119D01*
X70083402Y-81312119D01*
X70293933Y-81255707D01*
X70293935Y-81255706D01*
X70299243Y-81254284D01*
X70317637Y-81245707D01*
X70501762Y-81159849D01*
X70501767Y-81159846D01*
X70506749Y-81157523D01*
X70650732Y-81056705D01*
X70689789Y-81029357D01*
X70689792Y-81029355D01*
X70694300Y-81026198D01*
X70856198Y-80864300D01*
X70860472Y-80858197D01*
X70914098Y-80781611D01*
X70987523Y-80676749D01*
X70989846Y-80671767D01*
X70989849Y-80671762D01*
X71005805Y-80637543D01*
X71052722Y-80584258D01*
X71120999Y-80564797D01*
X71188959Y-80585339D01*
X71234195Y-80637543D01*
X71250151Y-80671762D01*
X71250154Y-80671767D01*
X71252477Y-80676749D01*
X71325902Y-80781611D01*
X71379529Y-80858197D01*
X71383802Y-80864300D01*
X71545700Y-81026198D01*
X71550208Y-81029355D01*
X71550211Y-81029357D01*
X71589268Y-81056705D01*
X71733251Y-81157523D01*
X71738233Y-81159846D01*
X71738238Y-81159849D01*
X71922363Y-81245707D01*
X71940757Y-81254284D01*
X71946065Y-81255706D01*
X71946067Y-81255707D01*
X72156598Y-81312119D01*
X72156600Y-81312119D01*
X72161913Y-81313543D01*
X72390000Y-81333498D01*
X72618087Y-81313543D01*
X72623400Y-81312119D01*
X72623402Y-81312119D01*
X72833933Y-81255707D01*
X72833935Y-81255706D01*
X72839243Y-81254284D01*
X72857637Y-81245707D01*
X73041762Y-81159849D01*
X73041767Y-81159846D01*
X73046749Y-81157523D01*
X73190732Y-81056705D01*
X73229789Y-81029357D01*
X73229792Y-81029355D01*
X73234300Y-81026198D01*
X73396198Y-80864300D01*
X73400472Y-80858197D01*
X73454098Y-80781611D01*
X73527523Y-80676749D01*
X73529846Y-80671767D01*
X73529849Y-80671762D01*
X73621961Y-80474225D01*
X73621961Y-80474224D01*
X73624284Y-80469243D01*
X73628387Y-80453933D01*
X73682119Y-80253402D01*
X73682119Y-80253400D01*
X73683543Y-80248087D01*
X73703498Y-80020000D01*
X73702623Y-80010000D01*
X76556496Y-80010000D01*
X76576458Y-80199928D01*
X76635473Y-80381556D01*
X76730960Y-80546944D01*
X76735378Y-80551851D01*
X76735379Y-80551852D01*
X76847837Y-80676749D01*
X76858747Y-80688866D01*
X77013248Y-80801118D01*
X77019276Y-80803802D01*
X77019278Y-80803803D01*
X77181681Y-80876109D01*
X77187712Y-80878794D01*
X77281112Y-80898647D01*
X77368056Y-80917128D01*
X77368061Y-80917128D01*
X77374513Y-80918500D01*
X77565487Y-80918500D01*
X77571939Y-80917128D01*
X77571944Y-80917128D01*
X77658888Y-80898647D01*
X77752288Y-80878794D01*
X77758319Y-80876109D01*
X77798692Y-80858134D01*
X81251500Y-80858134D01*
X81258255Y-80920316D01*
X81309385Y-81056705D01*
X81396739Y-81173261D01*
X81513295Y-81260615D01*
X81649684Y-81311745D01*
X81711866Y-81318500D01*
X83408134Y-81318500D01*
X83470316Y-81311745D01*
X83606705Y-81260615D01*
X83723261Y-81173261D01*
X83810615Y-81056705D01*
X83861745Y-80920316D01*
X83862917Y-80909526D01*
X83863803Y-80907394D01*
X83864425Y-80904778D01*
X83864848Y-80904879D01*
X83890155Y-80843965D01*
X83948517Y-80803537D01*
X84019471Y-80801078D01*
X84080490Y-80837371D01*
X84087489Y-80846031D01*
X84090643Y-80849789D01*
X84093802Y-80854300D01*
X84255700Y-81016198D01*
X84260208Y-81019355D01*
X84260211Y-81019357D01*
X84269981Y-81026198D01*
X84443251Y-81147523D01*
X84448233Y-81149846D01*
X84448238Y-81149849D01*
X84645775Y-81241961D01*
X84650757Y-81244284D01*
X84656065Y-81245706D01*
X84656067Y-81245707D01*
X84866598Y-81302119D01*
X84866600Y-81302119D01*
X84871913Y-81303543D01*
X85100000Y-81323498D01*
X85328087Y-81303543D01*
X85333400Y-81302119D01*
X85333402Y-81302119D01*
X85543933Y-81245707D01*
X85543935Y-81245706D01*
X85549243Y-81244284D01*
X85554225Y-81241961D01*
X85751762Y-81149849D01*
X85751767Y-81149846D01*
X85756749Y-81147523D01*
X85930019Y-81026198D01*
X85939789Y-81019357D01*
X85939792Y-81019355D01*
X85944300Y-81016198D01*
X86106198Y-80854300D01*
X86141557Y-80803803D01*
X86164098Y-80771611D01*
X86237523Y-80666749D01*
X86239846Y-80661767D01*
X86239849Y-80661762D01*
X86255805Y-80627543D01*
X86302722Y-80574258D01*
X86370999Y-80554797D01*
X86438959Y-80575339D01*
X86484195Y-80627543D01*
X86500151Y-80661762D01*
X86500154Y-80661767D01*
X86502477Y-80666749D01*
X86575902Y-80771611D01*
X86598444Y-80803803D01*
X86633802Y-80854300D01*
X86795700Y-81016198D01*
X86800208Y-81019355D01*
X86800211Y-81019357D01*
X86809981Y-81026198D01*
X86983251Y-81147523D01*
X86988233Y-81149846D01*
X86988238Y-81149849D01*
X87185775Y-81241961D01*
X87190757Y-81244284D01*
X87196065Y-81245706D01*
X87196067Y-81245707D01*
X87406598Y-81302119D01*
X87406600Y-81302119D01*
X87411913Y-81303543D01*
X87640000Y-81323498D01*
X87868087Y-81303543D01*
X87873400Y-81302119D01*
X87873402Y-81302119D01*
X88083933Y-81245707D01*
X88083935Y-81245706D01*
X88089243Y-81244284D01*
X88094225Y-81241961D01*
X88291762Y-81149849D01*
X88291767Y-81149846D01*
X88296749Y-81147523D01*
X88470019Y-81026198D01*
X88479789Y-81019357D01*
X88479792Y-81019355D01*
X88484300Y-81016198D01*
X88646198Y-80854300D01*
X88681557Y-80803803D01*
X88704098Y-80771611D01*
X88777523Y-80666749D01*
X88779846Y-80661767D01*
X88779849Y-80661762D01*
X88795805Y-80627543D01*
X88842722Y-80574258D01*
X88910999Y-80554797D01*
X88978959Y-80575339D01*
X89024195Y-80627543D01*
X89040151Y-80661762D01*
X89040154Y-80661767D01*
X89042477Y-80666749D01*
X89115902Y-80771611D01*
X89138444Y-80803803D01*
X89173802Y-80854300D01*
X89335700Y-81016198D01*
X89340208Y-81019355D01*
X89340211Y-81019357D01*
X89349981Y-81026198D01*
X89523251Y-81147523D01*
X89528233Y-81149846D01*
X89528238Y-81149849D01*
X89725775Y-81241961D01*
X89730757Y-81244284D01*
X89736065Y-81245706D01*
X89736067Y-81245707D01*
X89946598Y-81302119D01*
X89946600Y-81302119D01*
X89951913Y-81303543D01*
X90180000Y-81323498D01*
X90408087Y-81303543D01*
X90413400Y-81302119D01*
X90413402Y-81302119D01*
X90623933Y-81245707D01*
X90623935Y-81245706D01*
X90629243Y-81244284D01*
X90634225Y-81241961D01*
X90831762Y-81149849D01*
X90831767Y-81149846D01*
X90836749Y-81147523D01*
X91010019Y-81026198D01*
X91019789Y-81019357D01*
X91019792Y-81019355D01*
X91024300Y-81016198D01*
X91186198Y-80854300D01*
X91221557Y-80803803D01*
X91244098Y-80771611D01*
X91317523Y-80666749D01*
X91319846Y-80661767D01*
X91319849Y-80661762D01*
X91411961Y-80464225D01*
X91411961Y-80464224D01*
X91414284Y-80459243D01*
X91436785Y-80375271D01*
X91472119Y-80243402D01*
X91472119Y-80243400D01*
X91473543Y-80238087D01*
X91493498Y-80010000D01*
X91473543Y-79781913D01*
X91450000Y-79694050D01*
X91415707Y-79566067D01*
X91415706Y-79566065D01*
X91414284Y-79560757D01*
X91324512Y-79368238D01*
X91319849Y-79358238D01*
X91319846Y-79358233D01*
X91317523Y-79353251D01*
X91223437Y-79218882D01*
X91189357Y-79170211D01*
X91189355Y-79170208D01*
X91186198Y-79165700D01*
X91024300Y-79003802D01*
X91019792Y-79000645D01*
X91019789Y-79000643D01*
X90851030Y-78882477D01*
X90836749Y-78872477D01*
X90831767Y-78870154D01*
X90831762Y-78870151D01*
X90634225Y-78778039D01*
X90634224Y-78778039D01*
X90629243Y-78775716D01*
X90623935Y-78774294D01*
X90623933Y-78774293D01*
X90413402Y-78717881D01*
X90413400Y-78717881D01*
X90408087Y-78716457D01*
X90180000Y-78696502D01*
X89951913Y-78716457D01*
X89946600Y-78717881D01*
X89946598Y-78717881D01*
X89736067Y-78774293D01*
X89736065Y-78774294D01*
X89730757Y-78775716D01*
X89725776Y-78778039D01*
X89725775Y-78778039D01*
X89528238Y-78870151D01*
X89528233Y-78870154D01*
X89523251Y-78872477D01*
X89508970Y-78882477D01*
X89340211Y-79000643D01*
X89340208Y-79000645D01*
X89335700Y-79003802D01*
X89173802Y-79165700D01*
X89170645Y-79170208D01*
X89170643Y-79170211D01*
X89136563Y-79218882D01*
X89042477Y-79353251D01*
X89040154Y-79358233D01*
X89040151Y-79358238D01*
X89024195Y-79392457D01*
X88977278Y-79445742D01*
X88909001Y-79465203D01*
X88841041Y-79444661D01*
X88795805Y-79392457D01*
X88779849Y-79358238D01*
X88779846Y-79358233D01*
X88777523Y-79353251D01*
X88683437Y-79218882D01*
X88649357Y-79170211D01*
X88649355Y-79170208D01*
X88646198Y-79165700D01*
X88484300Y-79003802D01*
X88479792Y-79000645D01*
X88479789Y-79000643D01*
X88311030Y-78882477D01*
X88296749Y-78872477D01*
X88291767Y-78870154D01*
X88291762Y-78870151D01*
X88094225Y-78778039D01*
X88094224Y-78778039D01*
X88089243Y-78775716D01*
X88083935Y-78774294D01*
X88083933Y-78774293D01*
X87873402Y-78717881D01*
X87873400Y-78717881D01*
X87868087Y-78716457D01*
X87640000Y-78696502D01*
X87411913Y-78716457D01*
X87406600Y-78717881D01*
X87406598Y-78717881D01*
X87196067Y-78774293D01*
X87196065Y-78774294D01*
X87190757Y-78775716D01*
X87185776Y-78778039D01*
X87185775Y-78778039D01*
X86988238Y-78870151D01*
X86988233Y-78870154D01*
X86983251Y-78872477D01*
X86968970Y-78882477D01*
X86800211Y-79000643D01*
X86800208Y-79000645D01*
X86795700Y-79003802D01*
X86633802Y-79165700D01*
X86630645Y-79170208D01*
X86630643Y-79170211D01*
X86596563Y-79218882D01*
X86502477Y-79353251D01*
X86500154Y-79358233D01*
X86500151Y-79358238D01*
X86484195Y-79392457D01*
X86437278Y-79445742D01*
X86369001Y-79465203D01*
X86301041Y-79444661D01*
X86255805Y-79392457D01*
X86239849Y-79358238D01*
X86239846Y-79358233D01*
X86237523Y-79353251D01*
X86143437Y-79218882D01*
X86109357Y-79170211D01*
X86109355Y-79170208D01*
X86106198Y-79165700D01*
X85944300Y-79003802D01*
X85939792Y-79000645D01*
X85939789Y-79000643D01*
X85771030Y-78882477D01*
X85756749Y-78872477D01*
X85751767Y-78870154D01*
X85751762Y-78870151D01*
X85554225Y-78778039D01*
X85554224Y-78778039D01*
X85549243Y-78775716D01*
X85543935Y-78774294D01*
X85543933Y-78774293D01*
X85333402Y-78717881D01*
X85333400Y-78717881D01*
X85328087Y-78716457D01*
X85100000Y-78696502D01*
X84871913Y-78716457D01*
X84866600Y-78717881D01*
X84866598Y-78717881D01*
X84656067Y-78774293D01*
X84656065Y-78774294D01*
X84650757Y-78775716D01*
X84645776Y-78778039D01*
X84645775Y-78778039D01*
X84448238Y-78870151D01*
X84448233Y-78870154D01*
X84443251Y-78872477D01*
X84428970Y-78882477D01*
X84260211Y-79000643D01*
X84260208Y-79000645D01*
X84255700Y-79003802D01*
X84093802Y-79165700D01*
X84090643Y-79170211D01*
X84087108Y-79174424D01*
X84085974Y-79173473D01*
X84035929Y-79213471D01*
X83965310Y-79220776D01*
X83901951Y-79188742D01*
X83865970Y-79127538D01*
X83862918Y-79110483D01*
X83861745Y-79099684D01*
X83810615Y-78963295D01*
X83723261Y-78846739D01*
X83606705Y-78759385D01*
X83470316Y-78708255D01*
X83408134Y-78701500D01*
X81711866Y-78701500D01*
X81649684Y-78708255D01*
X81513295Y-78759385D01*
X81396739Y-78846739D01*
X81309385Y-78963295D01*
X81258255Y-79099684D01*
X81251500Y-79161866D01*
X81251500Y-80858134D01*
X77798692Y-80858134D01*
X77920722Y-80803803D01*
X77920724Y-80803802D01*
X77926752Y-80801118D01*
X78081253Y-80688866D01*
X78092163Y-80676749D01*
X78204621Y-80551852D01*
X78204622Y-80551851D01*
X78209040Y-80546944D01*
X78304527Y-80381556D01*
X78363542Y-80199928D01*
X78383504Y-80010000D01*
X78363542Y-79820072D01*
X78304527Y-79638444D01*
X78209040Y-79473056D01*
X78193451Y-79455742D01*
X78085675Y-79336045D01*
X78085674Y-79336044D01*
X78081253Y-79331134D01*
X77926752Y-79218882D01*
X77920724Y-79216198D01*
X77920722Y-79216197D01*
X77758319Y-79143891D01*
X77758318Y-79143891D01*
X77752288Y-79141206D01*
X77658887Y-79121353D01*
X77571944Y-79102872D01*
X77571939Y-79102872D01*
X77565487Y-79101500D01*
X77374513Y-79101500D01*
X77368061Y-79102872D01*
X77368056Y-79102872D01*
X77281113Y-79121353D01*
X77187712Y-79141206D01*
X77181682Y-79143891D01*
X77181681Y-79143891D01*
X77019278Y-79216197D01*
X77019276Y-79216198D01*
X77013248Y-79218882D01*
X76858747Y-79331134D01*
X76854326Y-79336044D01*
X76854325Y-79336045D01*
X76746550Y-79455742D01*
X76730960Y-79473056D01*
X76635473Y-79638444D01*
X76576458Y-79820072D01*
X76556496Y-80010000D01*
X73702623Y-80010000D01*
X73683543Y-79791913D01*
X73682119Y-79786598D01*
X73625707Y-79576067D01*
X73625706Y-79576065D01*
X73624284Y-79570757D01*
X73541142Y-79392457D01*
X73529849Y-79368238D01*
X73529846Y-79368233D01*
X73527523Y-79363251D01*
X73427761Y-79220776D01*
X73399357Y-79180211D01*
X73399355Y-79180208D01*
X73396198Y-79175700D01*
X73234300Y-79013802D01*
X73229792Y-79010645D01*
X73229789Y-79010643D01*
X73151611Y-78955902D01*
X73046749Y-78882477D01*
X73041767Y-78880154D01*
X73041762Y-78880151D01*
X72844225Y-78788039D01*
X72844224Y-78788039D01*
X72839243Y-78785716D01*
X72833935Y-78784294D01*
X72833933Y-78784293D01*
X72623402Y-78727881D01*
X72623400Y-78727881D01*
X72618087Y-78726457D01*
X72390000Y-78706502D01*
X72161913Y-78726457D01*
X72156600Y-78727881D01*
X72156598Y-78727881D01*
X71946067Y-78784293D01*
X71946065Y-78784294D01*
X71940757Y-78785716D01*
X71935776Y-78788039D01*
X71935775Y-78788039D01*
X71738238Y-78880151D01*
X71738233Y-78880154D01*
X71733251Y-78882477D01*
X71628389Y-78955902D01*
X71550211Y-79010643D01*
X71550208Y-79010645D01*
X71545700Y-79013802D01*
X71383802Y-79175700D01*
X71380645Y-79180208D01*
X71380643Y-79180211D01*
X71352239Y-79220776D01*
X71252477Y-79363251D01*
X71250154Y-79368233D01*
X71250151Y-79368238D01*
X71234195Y-79402457D01*
X71187278Y-79455742D01*
X71119001Y-79475203D01*
X71051041Y-79454661D01*
X71005805Y-79402457D01*
X70989849Y-79368238D01*
X70989846Y-79368233D01*
X70987523Y-79363251D01*
X70887761Y-79220776D01*
X70859357Y-79180211D01*
X70859355Y-79180208D01*
X70856198Y-79175700D01*
X70694300Y-79013802D01*
X70689792Y-79010645D01*
X70689789Y-79010643D01*
X70611611Y-78955902D01*
X70506749Y-78882477D01*
X70501767Y-78880154D01*
X70501762Y-78880151D01*
X70304225Y-78788039D01*
X70304224Y-78788039D01*
X70299243Y-78785716D01*
X70293935Y-78784294D01*
X70293933Y-78784293D01*
X70083402Y-78727881D01*
X70083400Y-78727881D01*
X70078087Y-78726457D01*
X69850000Y-78706502D01*
X69621913Y-78726457D01*
X69616600Y-78727881D01*
X69616598Y-78727881D01*
X69406067Y-78784293D01*
X69406065Y-78784294D01*
X69400757Y-78785716D01*
X69395776Y-78788039D01*
X69395775Y-78788039D01*
X69198238Y-78880151D01*
X69198233Y-78880154D01*
X69193251Y-78882477D01*
X69088389Y-78955902D01*
X69010211Y-79010643D01*
X69010208Y-79010645D01*
X69005700Y-79013802D01*
X68843802Y-79175700D01*
X68840645Y-79180208D01*
X68840643Y-79180211D01*
X68812239Y-79220776D01*
X68712477Y-79363251D01*
X68710154Y-79368233D01*
X68710151Y-79368238D01*
X68694195Y-79402457D01*
X68647278Y-79455742D01*
X68579001Y-79475203D01*
X68511041Y-79454661D01*
X68465805Y-79402457D01*
X68449849Y-79368238D01*
X68449846Y-79368233D01*
X68447523Y-79363251D01*
X68347761Y-79220776D01*
X68319357Y-79180211D01*
X68319355Y-79180208D01*
X68316198Y-79175700D01*
X68154300Y-79013802D01*
X68149792Y-79010645D01*
X68149789Y-79010643D01*
X68071611Y-78955902D01*
X67966749Y-78882477D01*
X67961767Y-78880154D01*
X67961762Y-78880151D01*
X67764225Y-78788039D01*
X67764224Y-78788039D01*
X67759243Y-78785716D01*
X67753935Y-78784294D01*
X67753933Y-78784293D01*
X67543402Y-78727881D01*
X67543400Y-78727881D01*
X67538087Y-78726457D01*
X67310000Y-78706502D01*
X67081913Y-78726457D01*
X67076600Y-78727881D01*
X67076598Y-78727881D01*
X66866067Y-78784293D01*
X66866065Y-78784294D01*
X66860757Y-78785716D01*
X66855776Y-78788039D01*
X66855775Y-78788039D01*
X66658238Y-78880151D01*
X66658233Y-78880154D01*
X66653251Y-78882477D01*
X66548389Y-78955902D01*
X66470211Y-79010643D01*
X66470208Y-79010645D01*
X66465700Y-79013802D01*
X66303802Y-79175700D01*
X66300645Y-79180208D01*
X66300643Y-79180211D01*
X66272239Y-79220776D01*
X66172477Y-79363251D01*
X66170154Y-79368233D01*
X66170151Y-79368238D01*
X66154195Y-79402457D01*
X66107278Y-79455742D01*
X66039001Y-79475203D01*
X65971041Y-79454661D01*
X65925805Y-79402457D01*
X65909849Y-79368238D01*
X65909846Y-79368233D01*
X65907523Y-79363251D01*
X65807761Y-79220776D01*
X65779357Y-79180211D01*
X65779355Y-79180208D01*
X65776198Y-79175700D01*
X65614300Y-79013802D01*
X65609792Y-79010645D01*
X65609789Y-79010643D01*
X65531611Y-78955902D01*
X65426749Y-78882477D01*
X65421767Y-78880154D01*
X65421762Y-78880151D01*
X65224225Y-78788039D01*
X65224224Y-78788039D01*
X65219243Y-78785716D01*
X65213935Y-78784294D01*
X65213933Y-78784293D01*
X65003402Y-78727881D01*
X65003400Y-78727881D01*
X64998087Y-78726457D01*
X64770000Y-78706502D01*
X64541913Y-78726457D01*
X64536600Y-78727881D01*
X64536598Y-78727881D01*
X64326067Y-78784293D01*
X64326065Y-78784294D01*
X64320757Y-78785716D01*
X64315776Y-78788039D01*
X64315775Y-78788039D01*
X64118238Y-78880151D01*
X64118233Y-78880154D01*
X64113251Y-78882477D01*
X64008389Y-78955902D01*
X63930211Y-79010643D01*
X63930208Y-79010645D01*
X63925700Y-79013802D01*
X63763802Y-79175700D01*
X63760645Y-79180208D01*
X63760643Y-79180211D01*
X63732239Y-79220776D01*
X63632477Y-79363251D01*
X63630154Y-79368233D01*
X63630151Y-79368238D01*
X63618858Y-79392457D01*
X63535716Y-79570757D01*
X63534294Y-79576065D01*
X63534293Y-79576067D01*
X63477881Y-79786598D01*
X63476457Y-79791913D01*
X63456502Y-80020000D01*
X61468500Y-80020000D01*
X61468500Y-72400000D01*
X63456502Y-72400000D01*
X63476457Y-72628087D01*
X63477881Y-72633400D01*
X63477881Y-72633402D01*
X63531614Y-72833933D01*
X63535716Y-72849243D01*
X63538039Y-72854224D01*
X63538039Y-72854225D01*
X63630151Y-73051762D01*
X63630154Y-73051767D01*
X63632477Y-73056749D01*
X63635634Y-73061257D01*
X63759529Y-73238197D01*
X63763802Y-73244300D01*
X63925700Y-73406198D01*
X63930208Y-73409355D01*
X63930211Y-73409357D01*
X63971542Y-73438297D01*
X64113251Y-73537523D01*
X64118233Y-73539846D01*
X64118238Y-73539849D01*
X64302363Y-73625707D01*
X64320757Y-73634284D01*
X64326065Y-73635706D01*
X64326067Y-73635707D01*
X64536598Y-73692119D01*
X64536600Y-73692119D01*
X64541913Y-73693543D01*
X64770000Y-73713498D01*
X64998087Y-73693543D01*
X65003400Y-73692119D01*
X65003402Y-73692119D01*
X65213933Y-73635707D01*
X65213935Y-73635706D01*
X65219243Y-73634284D01*
X65237637Y-73625707D01*
X65421762Y-73539849D01*
X65421767Y-73539846D01*
X65426749Y-73537523D01*
X65568458Y-73438297D01*
X65609789Y-73409357D01*
X65609792Y-73409355D01*
X65614300Y-73406198D01*
X65776198Y-73244300D01*
X65780472Y-73238197D01*
X65904366Y-73061257D01*
X65907523Y-73056749D01*
X65909846Y-73051767D01*
X65909849Y-73051762D01*
X65925805Y-73017543D01*
X65972722Y-72964258D01*
X66040999Y-72944797D01*
X66108959Y-72965339D01*
X66154195Y-73017543D01*
X66170151Y-73051762D01*
X66170154Y-73051767D01*
X66172477Y-73056749D01*
X66175634Y-73061257D01*
X66299529Y-73238197D01*
X66303802Y-73244300D01*
X66465700Y-73406198D01*
X66470208Y-73409355D01*
X66470211Y-73409357D01*
X66511542Y-73438297D01*
X66653251Y-73537523D01*
X66658233Y-73539846D01*
X66658238Y-73539849D01*
X66842363Y-73625707D01*
X66860757Y-73634284D01*
X66866065Y-73635706D01*
X66866067Y-73635707D01*
X67076598Y-73692119D01*
X67076600Y-73692119D01*
X67081913Y-73693543D01*
X67310000Y-73713498D01*
X67538087Y-73693543D01*
X67543400Y-73692119D01*
X67543402Y-73692119D01*
X67753933Y-73635707D01*
X67753935Y-73635706D01*
X67759243Y-73634284D01*
X67777637Y-73625707D01*
X67961762Y-73539849D01*
X67961767Y-73539846D01*
X67966749Y-73537523D01*
X68108458Y-73438297D01*
X68149789Y-73409357D01*
X68149792Y-73409355D01*
X68154300Y-73406198D01*
X68316198Y-73244300D01*
X68320472Y-73238197D01*
X68444366Y-73061257D01*
X68447523Y-73056749D01*
X68449846Y-73051767D01*
X68449849Y-73051762D01*
X68465805Y-73017543D01*
X68512722Y-72964258D01*
X68580999Y-72944797D01*
X68648959Y-72965339D01*
X68694195Y-73017543D01*
X68710151Y-73051762D01*
X68710154Y-73051767D01*
X68712477Y-73056749D01*
X68715634Y-73061257D01*
X68839529Y-73238197D01*
X68843802Y-73244300D01*
X69005700Y-73406198D01*
X69010208Y-73409355D01*
X69010211Y-73409357D01*
X69051542Y-73438297D01*
X69193251Y-73537523D01*
X69198233Y-73539846D01*
X69198238Y-73539849D01*
X69382363Y-73625707D01*
X69400757Y-73634284D01*
X69406065Y-73635706D01*
X69406067Y-73635707D01*
X69616598Y-73692119D01*
X69616600Y-73692119D01*
X69621913Y-73693543D01*
X69850000Y-73713498D01*
X70078087Y-73693543D01*
X70083400Y-73692119D01*
X70083402Y-73692119D01*
X70293933Y-73635707D01*
X70293935Y-73635706D01*
X70299243Y-73634284D01*
X70317637Y-73625707D01*
X70501762Y-73539849D01*
X70501767Y-73539846D01*
X70506749Y-73537523D01*
X70648458Y-73438297D01*
X70689789Y-73409357D01*
X70689792Y-73409355D01*
X70694300Y-73406198D01*
X70856198Y-73244300D01*
X70859357Y-73239789D01*
X70862892Y-73235576D01*
X70864026Y-73236527D01*
X70914071Y-73196529D01*
X70984690Y-73189224D01*
X71048049Y-73221258D01*
X71084030Y-73282462D01*
X71087082Y-73299517D01*
X71088255Y-73310316D01*
X71139385Y-73446705D01*
X71226739Y-73563261D01*
X71343295Y-73650615D01*
X71479684Y-73701745D01*
X71541866Y-73708500D01*
X73238134Y-73708500D01*
X73300316Y-73701745D01*
X73436705Y-73650615D01*
X73553261Y-73563261D01*
X73640615Y-73446705D01*
X73691745Y-73310316D01*
X73698500Y-73248134D01*
X73698500Y-71755000D01*
X76556496Y-71755000D01*
X76576458Y-71944928D01*
X76635473Y-72126556D01*
X76730960Y-72291944D01*
X76735378Y-72296851D01*
X76735379Y-72296852D01*
X76828254Y-72400000D01*
X76858747Y-72433866D01*
X77013248Y-72546118D01*
X77019276Y-72548802D01*
X77019278Y-72548803D01*
X77181681Y-72621109D01*
X77187712Y-72623794D01*
X77281113Y-72643647D01*
X77368056Y-72662128D01*
X77368061Y-72662128D01*
X77374513Y-72663500D01*
X77565487Y-72663500D01*
X77571939Y-72662128D01*
X77571944Y-72662128D01*
X77658887Y-72643647D01*
X77752288Y-72623794D01*
X77758319Y-72621109D01*
X77920722Y-72548803D01*
X77920724Y-72548802D01*
X77926752Y-72546118D01*
X78081253Y-72433866D01*
X78111746Y-72400000D01*
X78120750Y-72390000D01*
X81246502Y-72390000D01*
X81266457Y-72618087D01*
X81267881Y-72623400D01*
X81267881Y-72623402D01*
X81292680Y-72715950D01*
X81325716Y-72839243D01*
X81328039Y-72844224D01*
X81328039Y-72844225D01*
X81420151Y-73041762D01*
X81420154Y-73041767D01*
X81422477Y-73046749D01*
X81553802Y-73234300D01*
X81715700Y-73396198D01*
X81720208Y-73399355D01*
X81720211Y-73399357D01*
X81729981Y-73406198D01*
X81903251Y-73527523D01*
X81908233Y-73529846D01*
X81908238Y-73529849D01*
X82105775Y-73621961D01*
X82110757Y-73624284D01*
X82116065Y-73625706D01*
X82116067Y-73625707D01*
X82326598Y-73682119D01*
X82326600Y-73682119D01*
X82331913Y-73683543D01*
X82560000Y-73703498D01*
X82788087Y-73683543D01*
X82793400Y-73682119D01*
X82793402Y-73682119D01*
X83003933Y-73625707D01*
X83003935Y-73625706D01*
X83009243Y-73624284D01*
X83014225Y-73621961D01*
X83211762Y-73529849D01*
X83211767Y-73529846D01*
X83216749Y-73527523D01*
X83390019Y-73406198D01*
X83399789Y-73399357D01*
X83399792Y-73399355D01*
X83404300Y-73396198D01*
X83566198Y-73234300D01*
X83697523Y-73046749D01*
X83699846Y-73041767D01*
X83699849Y-73041762D01*
X83715805Y-73007543D01*
X83762722Y-72954258D01*
X83830999Y-72934797D01*
X83898959Y-72955339D01*
X83944195Y-73007543D01*
X83960151Y-73041762D01*
X83960154Y-73041767D01*
X83962477Y-73046749D01*
X84093802Y-73234300D01*
X84255700Y-73396198D01*
X84260208Y-73399355D01*
X84260211Y-73399357D01*
X84269981Y-73406198D01*
X84443251Y-73527523D01*
X84448233Y-73529846D01*
X84448238Y-73529849D01*
X84645775Y-73621961D01*
X84650757Y-73624284D01*
X84656065Y-73625706D01*
X84656067Y-73625707D01*
X84866598Y-73682119D01*
X84866600Y-73682119D01*
X84871913Y-73683543D01*
X85100000Y-73703498D01*
X85328087Y-73683543D01*
X85333400Y-73682119D01*
X85333402Y-73682119D01*
X85543933Y-73625707D01*
X85543935Y-73625706D01*
X85549243Y-73624284D01*
X85554225Y-73621961D01*
X85751762Y-73529849D01*
X85751767Y-73529846D01*
X85756749Y-73527523D01*
X85930019Y-73406198D01*
X85939789Y-73399357D01*
X85939792Y-73399355D01*
X85944300Y-73396198D01*
X86106198Y-73234300D01*
X86237523Y-73046749D01*
X86239846Y-73041767D01*
X86239849Y-73041762D01*
X86255805Y-73007543D01*
X86302722Y-72954258D01*
X86370999Y-72934797D01*
X86438959Y-72955339D01*
X86484195Y-73007543D01*
X86500151Y-73041762D01*
X86500154Y-73041767D01*
X86502477Y-73046749D01*
X86633802Y-73234300D01*
X86795700Y-73396198D01*
X86800208Y-73399355D01*
X86800211Y-73399357D01*
X86809981Y-73406198D01*
X86983251Y-73527523D01*
X86988233Y-73529846D01*
X86988238Y-73529849D01*
X87185775Y-73621961D01*
X87190757Y-73624284D01*
X87196065Y-73625706D01*
X87196067Y-73625707D01*
X87406598Y-73682119D01*
X87406600Y-73682119D01*
X87411913Y-73683543D01*
X87640000Y-73703498D01*
X87868087Y-73683543D01*
X87873400Y-73682119D01*
X87873402Y-73682119D01*
X88083933Y-73625707D01*
X88083935Y-73625706D01*
X88089243Y-73624284D01*
X88094225Y-73621961D01*
X88291762Y-73529849D01*
X88291767Y-73529846D01*
X88296749Y-73527523D01*
X88470019Y-73406198D01*
X88479789Y-73399357D01*
X88479792Y-73399355D01*
X88484300Y-73396198D01*
X88646198Y-73234300D01*
X88777523Y-73046749D01*
X88779846Y-73041767D01*
X88779849Y-73041762D01*
X88795805Y-73007543D01*
X88842722Y-72954258D01*
X88910999Y-72934797D01*
X88978959Y-72955339D01*
X89024195Y-73007543D01*
X89040151Y-73041762D01*
X89040154Y-73041767D01*
X89042477Y-73046749D01*
X89173802Y-73234300D01*
X89335700Y-73396198D01*
X89340208Y-73399355D01*
X89340211Y-73399357D01*
X89349981Y-73406198D01*
X89523251Y-73527523D01*
X89528233Y-73529846D01*
X89528238Y-73529849D01*
X89725775Y-73621961D01*
X89730757Y-73624284D01*
X89736065Y-73625706D01*
X89736067Y-73625707D01*
X89946598Y-73682119D01*
X89946600Y-73682119D01*
X89951913Y-73683543D01*
X90180000Y-73703498D01*
X90408087Y-73683543D01*
X90413400Y-73682119D01*
X90413402Y-73682119D01*
X90623933Y-73625707D01*
X90623935Y-73625706D01*
X90629243Y-73624284D01*
X90634225Y-73621961D01*
X90831762Y-73529849D01*
X90831767Y-73529846D01*
X90836749Y-73527523D01*
X91010019Y-73406198D01*
X91019789Y-73399357D01*
X91019792Y-73399355D01*
X91024300Y-73396198D01*
X91186198Y-73234300D01*
X91317523Y-73046749D01*
X91319846Y-73041767D01*
X91319849Y-73041762D01*
X91411961Y-72844225D01*
X91411961Y-72844224D01*
X91414284Y-72839243D01*
X91447321Y-72715950D01*
X91472119Y-72623402D01*
X91472119Y-72623400D01*
X91473543Y-72618087D01*
X91493498Y-72390000D01*
X91473543Y-72161913D01*
X91450000Y-72074050D01*
X91415707Y-71946067D01*
X91415706Y-71946065D01*
X91414284Y-71940757D01*
X91327665Y-71755000D01*
X91319849Y-71738238D01*
X91319846Y-71738233D01*
X91317523Y-71733251D01*
X91200437Y-71566035D01*
X91189357Y-71550211D01*
X91189355Y-71550208D01*
X91186198Y-71545700D01*
X91024300Y-71383802D01*
X91019792Y-71380645D01*
X91019789Y-71380643D01*
X90851030Y-71262477D01*
X90836749Y-71252477D01*
X90831767Y-71250154D01*
X90831762Y-71250151D01*
X90634225Y-71158039D01*
X90634224Y-71158039D01*
X90629243Y-71155716D01*
X90623935Y-71154294D01*
X90623933Y-71154293D01*
X90413402Y-71097881D01*
X90413400Y-71097881D01*
X90408087Y-71096457D01*
X90180000Y-71076502D01*
X89951913Y-71096457D01*
X89946600Y-71097881D01*
X89946598Y-71097881D01*
X89736067Y-71154293D01*
X89736065Y-71154294D01*
X89730757Y-71155716D01*
X89725776Y-71158039D01*
X89725775Y-71158039D01*
X89528238Y-71250151D01*
X89528233Y-71250154D01*
X89523251Y-71252477D01*
X89508970Y-71262477D01*
X89340211Y-71380643D01*
X89340208Y-71380645D01*
X89335700Y-71383802D01*
X89173802Y-71545700D01*
X89170645Y-71550208D01*
X89170643Y-71550211D01*
X89159563Y-71566035D01*
X89042477Y-71733251D01*
X89040154Y-71738233D01*
X89040151Y-71738238D01*
X89024195Y-71772457D01*
X88977278Y-71825742D01*
X88909001Y-71845203D01*
X88841041Y-71824661D01*
X88795805Y-71772457D01*
X88779849Y-71738238D01*
X88779846Y-71738233D01*
X88777523Y-71733251D01*
X88660437Y-71566035D01*
X88649357Y-71550211D01*
X88649355Y-71550208D01*
X88646198Y-71545700D01*
X88484300Y-71383802D01*
X88479792Y-71380645D01*
X88479789Y-71380643D01*
X88311030Y-71262477D01*
X88296749Y-71252477D01*
X88291767Y-71250154D01*
X88291762Y-71250151D01*
X88094225Y-71158039D01*
X88094224Y-71158039D01*
X88089243Y-71155716D01*
X88083935Y-71154294D01*
X88083933Y-71154293D01*
X87873402Y-71097881D01*
X87873400Y-71097881D01*
X87868087Y-71096457D01*
X87640000Y-71076502D01*
X87411913Y-71096457D01*
X87406600Y-71097881D01*
X87406598Y-71097881D01*
X87196067Y-71154293D01*
X87196065Y-71154294D01*
X87190757Y-71155716D01*
X87185776Y-71158039D01*
X87185775Y-71158039D01*
X86988238Y-71250151D01*
X86988233Y-71250154D01*
X86983251Y-71252477D01*
X86968970Y-71262477D01*
X86800211Y-71380643D01*
X86800208Y-71380645D01*
X86795700Y-71383802D01*
X86633802Y-71545700D01*
X86630645Y-71550208D01*
X86630643Y-71550211D01*
X86619563Y-71566035D01*
X86502477Y-71733251D01*
X86500154Y-71738233D01*
X86500151Y-71738238D01*
X86484195Y-71772457D01*
X86437278Y-71825742D01*
X86369001Y-71845203D01*
X86301041Y-71824661D01*
X86255805Y-71772457D01*
X86239849Y-71738238D01*
X86239846Y-71738233D01*
X86237523Y-71733251D01*
X86120437Y-71566035D01*
X86109357Y-71550211D01*
X86109355Y-71550208D01*
X86106198Y-71545700D01*
X85944300Y-71383802D01*
X85939792Y-71380645D01*
X85939789Y-71380643D01*
X85771030Y-71262477D01*
X85756749Y-71252477D01*
X85751767Y-71250154D01*
X85751762Y-71250151D01*
X85554225Y-71158039D01*
X85554224Y-71158039D01*
X85549243Y-71155716D01*
X85543935Y-71154294D01*
X85543933Y-71154293D01*
X85333402Y-71097881D01*
X85333400Y-71097881D01*
X85328087Y-71096457D01*
X85100000Y-71076502D01*
X84871913Y-71096457D01*
X84866600Y-71097881D01*
X84866598Y-71097881D01*
X84656067Y-71154293D01*
X84656065Y-71154294D01*
X84650757Y-71155716D01*
X84645776Y-71158039D01*
X84645775Y-71158039D01*
X84448238Y-71250151D01*
X84448233Y-71250154D01*
X84443251Y-71252477D01*
X84428970Y-71262477D01*
X84260211Y-71380643D01*
X84260208Y-71380645D01*
X84255700Y-71383802D01*
X84093802Y-71545700D01*
X84090645Y-71550208D01*
X84090643Y-71550211D01*
X84079563Y-71566035D01*
X83962477Y-71733251D01*
X83960154Y-71738233D01*
X83960151Y-71738238D01*
X83944195Y-71772457D01*
X83897278Y-71825742D01*
X83829001Y-71845203D01*
X83761041Y-71824661D01*
X83715805Y-71772457D01*
X83699849Y-71738238D01*
X83699846Y-71738233D01*
X83697523Y-71733251D01*
X83580437Y-71566035D01*
X83569357Y-71550211D01*
X83569355Y-71550208D01*
X83566198Y-71545700D01*
X83404300Y-71383802D01*
X83399792Y-71380645D01*
X83399789Y-71380643D01*
X83231030Y-71262477D01*
X83216749Y-71252477D01*
X83211767Y-71250154D01*
X83211762Y-71250151D01*
X83014225Y-71158039D01*
X83014224Y-71158039D01*
X83009243Y-71155716D01*
X83003935Y-71154294D01*
X83003933Y-71154293D01*
X82793402Y-71097881D01*
X82793400Y-71097881D01*
X82788087Y-71096457D01*
X82560000Y-71076502D01*
X82331913Y-71096457D01*
X82326600Y-71097881D01*
X82326598Y-71097881D01*
X82116067Y-71154293D01*
X82116065Y-71154294D01*
X82110757Y-71155716D01*
X82105776Y-71158039D01*
X82105775Y-71158039D01*
X81908238Y-71250151D01*
X81908233Y-71250154D01*
X81903251Y-71252477D01*
X81888970Y-71262477D01*
X81720211Y-71380643D01*
X81720208Y-71380645D01*
X81715700Y-71383802D01*
X81553802Y-71545700D01*
X81550645Y-71550208D01*
X81550643Y-71550211D01*
X81539563Y-71566035D01*
X81422477Y-71733251D01*
X81420154Y-71738233D01*
X81420151Y-71738238D01*
X81412335Y-71755000D01*
X81325716Y-71940757D01*
X81324294Y-71946065D01*
X81324293Y-71946067D01*
X81290000Y-72074050D01*
X81266457Y-72161913D01*
X81246502Y-72390000D01*
X78120750Y-72390000D01*
X78204621Y-72296852D01*
X78204622Y-72296851D01*
X78209040Y-72291944D01*
X78304527Y-72126556D01*
X78363542Y-71944928D01*
X78383504Y-71755000D01*
X78363542Y-71565072D01*
X78304527Y-71383444D01*
X78287121Y-71353295D01*
X78236509Y-71265634D01*
X78209040Y-71218056D01*
X78147209Y-71149385D01*
X78085675Y-71081045D01*
X78085674Y-71081044D01*
X78081253Y-71076134D01*
X77926752Y-70963882D01*
X77920724Y-70961198D01*
X77920722Y-70961197D01*
X77758319Y-70888891D01*
X77758318Y-70888891D01*
X77752288Y-70886206D01*
X77658888Y-70866353D01*
X77571944Y-70847872D01*
X77571939Y-70847872D01*
X77565487Y-70846500D01*
X77374513Y-70846500D01*
X77368061Y-70847872D01*
X77368056Y-70847872D01*
X77281112Y-70866353D01*
X77187712Y-70886206D01*
X77181682Y-70888891D01*
X77181681Y-70888891D01*
X77019278Y-70961197D01*
X77019276Y-70961198D01*
X77013248Y-70963882D01*
X76858747Y-71076134D01*
X76854326Y-71081044D01*
X76854325Y-71081045D01*
X76792792Y-71149385D01*
X76730960Y-71218056D01*
X76703491Y-71265634D01*
X76652880Y-71353295D01*
X76635473Y-71383444D01*
X76576458Y-71565072D01*
X76556496Y-71755000D01*
X73698500Y-71755000D01*
X73698500Y-71551866D01*
X73691745Y-71489684D01*
X73640615Y-71353295D01*
X73553261Y-71236739D01*
X73436705Y-71149385D01*
X73300316Y-71098255D01*
X73238134Y-71091500D01*
X71541866Y-71091500D01*
X71479684Y-71098255D01*
X71343295Y-71149385D01*
X71226739Y-71236739D01*
X71139385Y-71353295D01*
X71088255Y-71489684D01*
X71087083Y-71500474D01*
X71086197Y-71502606D01*
X71085575Y-71505222D01*
X71085152Y-71505121D01*
X71059845Y-71566035D01*
X71001483Y-71606463D01*
X70930529Y-71608922D01*
X70869510Y-71572629D01*
X70862511Y-71563969D01*
X70859354Y-71560207D01*
X70856198Y-71555700D01*
X70694300Y-71393802D01*
X70689792Y-71390645D01*
X70689789Y-71390643D01*
X70611611Y-71335902D01*
X70506749Y-71262477D01*
X70501767Y-71260154D01*
X70501762Y-71260151D01*
X70304225Y-71168039D01*
X70304224Y-71168039D01*
X70299243Y-71165716D01*
X70293935Y-71164294D01*
X70293933Y-71164293D01*
X70083402Y-71107881D01*
X70083400Y-71107881D01*
X70078087Y-71106457D01*
X69850000Y-71086502D01*
X69621913Y-71106457D01*
X69616600Y-71107881D01*
X69616598Y-71107881D01*
X69406067Y-71164293D01*
X69406065Y-71164294D01*
X69400757Y-71165716D01*
X69395776Y-71168039D01*
X69395775Y-71168039D01*
X69198238Y-71260151D01*
X69198233Y-71260154D01*
X69193251Y-71262477D01*
X69088389Y-71335902D01*
X69010211Y-71390643D01*
X69010208Y-71390645D01*
X69005700Y-71393802D01*
X68843802Y-71555700D01*
X68840645Y-71560208D01*
X68840643Y-71560211D01*
X68836565Y-71566035D01*
X68712477Y-71743251D01*
X68710154Y-71748233D01*
X68710151Y-71748238D01*
X68694195Y-71782457D01*
X68647278Y-71835742D01*
X68579001Y-71855203D01*
X68511041Y-71834661D01*
X68465805Y-71782457D01*
X68449849Y-71748238D01*
X68449846Y-71748233D01*
X68447523Y-71743251D01*
X68323435Y-71566035D01*
X68319357Y-71560211D01*
X68319355Y-71560208D01*
X68316198Y-71555700D01*
X68154300Y-71393802D01*
X68149792Y-71390645D01*
X68149789Y-71390643D01*
X68071611Y-71335902D01*
X67966749Y-71262477D01*
X67961767Y-71260154D01*
X67961762Y-71260151D01*
X67764225Y-71168039D01*
X67764224Y-71168039D01*
X67759243Y-71165716D01*
X67753935Y-71164294D01*
X67753933Y-71164293D01*
X67543402Y-71107881D01*
X67543400Y-71107881D01*
X67538087Y-71106457D01*
X67310000Y-71086502D01*
X67081913Y-71106457D01*
X67076600Y-71107881D01*
X67076598Y-71107881D01*
X66866067Y-71164293D01*
X66866065Y-71164294D01*
X66860757Y-71165716D01*
X66855776Y-71168039D01*
X66855775Y-71168039D01*
X66658238Y-71260151D01*
X66658233Y-71260154D01*
X66653251Y-71262477D01*
X66548389Y-71335902D01*
X66470211Y-71390643D01*
X66470208Y-71390645D01*
X66465700Y-71393802D01*
X66303802Y-71555700D01*
X66300645Y-71560208D01*
X66300643Y-71560211D01*
X66296565Y-71566035D01*
X66172477Y-71743251D01*
X66170154Y-71748233D01*
X66170151Y-71748238D01*
X66154195Y-71782457D01*
X66107278Y-71835742D01*
X66039001Y-71855203D01*
X65971041Y-71834661D01*
X65925805Y-71782457D01*
X65909849Y-71748238D01*
X65909846Y-71748233D01*
X65907523Y-71743251D01*
X65783435Y-71566035D01*
X65779357Y-71560211D01*
X65779355Y-71560208D01*
X65776198Y-71555700D01*
X65614300Y-71393802D01*
X65609792Y-71390645D01*
X65609789Y-71390643D01*
X65531611Y-71335902D01*
X65426749Y-71262477D01*
X65421767Y-71260154D01*
X65421762Y-71260151D01*
X65224225Y-71168039D01*
X65224224Y-71168039D01*
X65219243Y-71165716D01*
X65213935Y-71164294D01*
X65213933Y-71164293D01*
X65003402Y-71107881D01*
X65003400Y-71107881D01*
X64998087Y-71106457D01*
X64770000Y-71086502D01*
X64541913Y-71106457D01*
X64536600Y-71107881D01*
X64536598Y-71107881D01*
X64326067Y-71164293D01*
X64326065Y-71164294D01*
X64320757Y-71165716D01*
X64315776Y-71168039D01*
X64315775Y-71168039D01*
X64118238Y-71260151D01*
X64118233Y-71260154D01*
X64113251Y-71262477D01*
X64008389Y-71335902D01*
X63930211Y-71390643D01*
X63930208Y-71390645D01*
X63925700Y-71393802D01*
X63763802Y-71555700D01*
X63760645Y-71560208D01*
X63760643Y-71560211D01*
X63756565Y-71566035D01*
X63632477Y-71743251D01*
X63630154Y-71748233D01*
X63630151Y-71748238D01*
X63626998Y-71755000D01*
X63535716Y-71950757D01*
X63534294Y-71956065D01*
X63534293Y-71956067D01*
X63477881Y-72166598D01*
X63476457Y-72171913D01*
X63456502Y-72400000D01*
X61468500Y-72400000D01*
X61468500Y-68930000D01*
X61986835Y-68930000D01*
X62005465Y-69166711D01*
X62060895Y-69397594D01*
X62151760Y-69616963D01*
X62154346Y-69621183D01*
X62273241Y-69815202D01*
X62273245Y-69815208D01*
X62275824Y-69819416D01*
X62430031Y-69999969D01*
X62610584Y-70154176D01*
X62614792Y-70156755D01*
X62614798Y-70156759D01*
X62808817Y-70275654D01*
X62813037Y-70278240D01*
X62817607Y-70280133D01*
X62817611Y-70280135D01*
X63027833Y-70367211D01*
X63032406Y-70369105D01*
X63112609Y-70388360D01*
X63258476Y-70423380D01*
X63258482Y-70423381D01*
X63263289Y-70424535D01*
X63500000Y-70443165D01*
X63736711Y-70424535D01*
X63741518Y-70423381D01*
X63741524Y-70423380D01*
X63887391Y-70388360D01*
X63967594Y-70369105D01*
X63972167Y-70367211D01*
X64182389Y-70280135D01*
X64182393Y-70280133D01*
X64186963Y-70278240D01*
X64191183Y-70275654D01*
X64385202Y-70156759D01*
X64385208Y-70156755D01*
X64389416Y-70154176D01*
X64569969Y-69999969D01*
X64724176Y-69819416D01*
X64726755Y-69815208D01*
X64726759Y-69815202D01*
X64845654Y-69621183D01*
X64848240Y-69616963D01*
X64939105Y-69397594D01*
X64994535Y-69166711D01*
X65013165Y-68930000D01*
X68486835Y-68930000D01*
X68505465Y-69166711D01*
X68560895Y-69397594D01*
X68651760Y-69616963D01*
X68654346Y-69621183D01*
X68773241Y-69815202D01*
X68773245Y-69815208D01*
X68775824Y-69819416D01*
X68930031Y-69999969D01*
X69110584Y-70154176D01*
X69114792Y-70156755D01*
X69114798Y-70156759D01*
X69308817Y-70275654D01*
X69313037Y-70278240D01*
X69317607Y-70280133D01*
X69317611Y-70280135D01*
X69527833Y-70367211D01*
X69532406Y-70369105D01*
X69612609Y-70388360D01*
X69758476Y-70423380D01*
X69758482Y-70423381D01*
X69763289Y-70424535D01*
X70000000Y-70443165D01*
X70236711Y-70424535D01*
X70241518Y-70423381D01*
X70241524Y-70423380D01*
X70387391Y-70388360D01*
X70467594Y-70369105D01*
X70472167Y-70367211D01*
X70682389Y-70280135D01*
X70682393Y-70280133D01*
X70686963Y-70278240D01*
X70691183Y-70275654D01*
X70885202Y-70156759D01*
X70885208Y-70156755D01*
X70889416Y-70154176D01*
X71069969Y-69999969D01*
X71224176Y-69819416D01*
X71226755Y-69815208D01*
X71226759Y-69815202D01*
X71345654Y-69621183D01*
X71348240Y-69616963D01*
X71439105Y-69397594D01*
X71494535Y-69166711D01*
X71513165Y-68930000D01*
X72536835Y-68930000D01*
X72555465Y-69166711D01*
X72610895Y-69397594D01*
X72701760Y-69616963D01*
X72704346Y-69621183D01*
X72823241Y-69815202D01*
X72823245Y-69815208D01*
X72825824Y-69819416D01*
X72980031Y-69999969D01*
X73160584Y-70154176D01*
X73164792Y-70156755D01*
X73164798Y-70156759D01*
X73358817Y-70275654D01*
X73363037Y-70278240D01*
X73367607Y-70280133D01*
X73367611Y-70280135D01*
X73577833Y-70367211D01*
X73582406Y-70369105D01*
X73662609Y-70388360D01*
X73808476Y-70423380D01*
X73808482Y-70423381D01*
X73813289Y-70424535D01*
X74050000Y-70443165D01*
X74286711Y-70424535D01*
X74291518Y-70423381D01*
X74291524Y-70423380D01*
X74437391Y-70388360D01*
X74517594Y-70369105D01*
X74522167Y-70367211D01*
X74732389Y-70280135D01*
X74732393Y-70280133D01*
X74736963Y-70278240D01*
X74741183Y-70275654D01*
X74935202Y-70156759D01*
X74935208Y-70156755D01*
X74939416Y-70154176D01*
X75119969Y-69999969D01*
X75274176Y-69819416D01*
X75276755Y-69815208D01*
X75276759Y-69815202D01*
X75395654Y-69621183D01*
X75398240Y-69616963D01*
X75489105Y-69397594D01*
X75544535Y-69166711D01*
X75563165Y-68930000D01*
X79036835Y-68930000D01*
X79055465Y-69166711D01*
X79110895Y-69397594D01*
X79201760Y-69616963D01*
X79204346Y-69621183D01*
X79323241Y-69815202D01*
X79323245Y-69815208D01*
X79325824Y-69819416D01*
X79480031Y-69999969D01*
X79660584Y-70154176D01*
X79664792Y-70156755D01*
X79664798Y-70156759D01*
X79858817Y-70275654D01*
X79863037Y-70278240D01*
X79867607Y-70280133D01*
X79867611Y-70280135D01*
X80077833Y-70367211D01*
X80082406Y-70369105D01*
X80162609Y-70388360D01*
X80308476Y-70423380D01*
X80308482Y-70423381D01*
X80313289Y-70424535D01*
X80550000Y-70443165D01*
X80786711Y-70424535D01*
X80791518Y-70423381D01*
X80791524Y-70423380D01*
X80937391Y-70388360D01*
X81017594Y-70369105D01*
X81022167Y-70367211D01*
X81232389Y-70280135D01*
X81232393Y-70280133D01*
X81236963Y-70278240D01*
X81241183Y-70275654D01*
X81435202Y-70156759D01*
X81435208Y-70156755D01*
X81439416Y-70154176D01*
X81619969Y-69999969D01*
X81774176Y-69819416D01*
X81776755Y-69815208D01*
X81776759Y-69815202D01*
X81895654Y-69621183D01*
X81898240Y-69616963D01*
X81989105Y-69397594D01*
X82044535Y-69166711D01*
X82063165Y-68930000D01*
X82044535Y-68693289D01*
X81989105Y-68462406D01*
X81898240Y-68243037D01*
X81895654Y-68238817D01*
X81776759Y-68044798D01*
X81776755Y-68044792D01*
X81774176Y-68040584D01*
X81619969Y-67860031D01*
X81439416Y-67705824D01*
X81435208Y-67703245D01*
X81435202Y-67703241D01*
X81241183Y-67584346D01*
X81236963Y-67581760D01*
X81232393Y-67579867D01*
X81232389Y-67579865D01*
X81022167Y-67492789D01*
X81022165Y-67492788D01*
X81017594Y-67490895D01*
X80937391Y-67471640D01*
X80791524Y-67436620D01*
X80791518Y-67436619D01*
X80786711Y-67435465D01*
X80550000Y-67416835D01*
X80313289Y-67435465D01*
X80308482Y-67436619D01*
X80308476Y-67436620D01*
X80162609Y-67471640D01*
X80082406Y-67490895D01*
X80077835Y-67492788D01*
X80077833Y-67492789D01*
X79867611Y-67579865D01*
X79867607Y-67579867D01*
X79863037Y-67581760D01*
X79858817Y-67584346D01*
X79664798Y-67703241D01*
X79664792Y-67703245D01*
X79660584Y-67705824D01*
X79480031Y-67860031D01*
X79325824Y-68040584D01*
X79323245Y-68044792D01*
X79323241Y-68044798D01*
X79204346Y-68238817D01*
X79201760Y-68243037D01*
X79110895Y-68462406D01*
X79055465Y-68693289D01*
X79036835Y-68930000D01*
X75563165Y-68930000D01*
X75544535Y-68693289D01*
X75489105Y-68462406D01*
X75398240Y-68243037D01*
X75395654Y-68238817D01*
X75276759Y-68044798D01*
X75276755Y-68044792D01*
X75274176Y-68040584D01*
X75119969Y-67860031D01*
X74939416Y-67705824D01*
X74935208Y-67703245D01*
X74935202Y-67703241D01*
X74741183Y-67584346D01*
X74736963Y-67581760D01*
X74732393Y-67579867D01*
X74732389Y-67579865D01*
X74522167Y-67492789D01*
X74522165Y-67492788D01*
X74517594Y-67490895D01*
X74437391Y-67471640D01*
X74291524Y-67436620D01*
X74291518Y-67436619D01*
X74286711Y-67435465D01*
X74050000Y-67416835D01*
X73813289Y-67435465D01*
X73808482Y-67436619D01*
X73808476Y-67436620D01*
X73662609Y-67471640D01*
X73582406Y-67490895D01*
X73577835Y-67492788D01*
X73577833Y-67492789D01*
X73367611Y-67579865D01*
X73367607Y-67579867D01*
X73363037Y-67581760D01*
X73358817Y-67584346D01*
X73164798Y-67703241D01*
X73164792Y-67703245D01*
X73160584Y-67705824D01*
X72980031Y-67860031D01*
X72825824Y-68040584D01*
X72823245Y-68044792D01*
X72823241Y-68044798D01*
X72704346Y-68238817D01*
X72701760Y-68243037D01*
X72610895Y-68462406D01*
X72555465Y-68693289D01*
X72536835Y-68930000D01*
X71513165Y-68930000D01*
X71494535Y-68693289D01*
X71439105Y-68462406D01*
X71348240Y-68243037D01*
X71345654Y-68238817D01*
X71226759Y-68044798D01*
X71226755Y-68044792D01*
X71224176Y-68040584D01*
X71069969Y-67860031D01*
X70889416Y-67705824D01*
X70885208Y-67703245D01*
X70885202Y-67703241D01*
X70691183Y-67584346D01*
X70686963Y-67581760D01*
X70682393Y-67579867D01*
X70682389Y-67579865D01*
X70472167Y-67492789D01*
X70472165Y-67492788D01*
X70467594Y-67490895D01*
X70387391Y-67471640D01*
X70241524Y-67436620D01*
X70241518Y-67436619D01*
X70236711Y-67435465D01*
X70000000Y-67416835D01*
X69763289Y-67435465D01*
X69758482Y-67436619D01*
X69758476Y-67436620D01*
X69612609Y-67471640D01*
X69532406Y-67490895D01*
X69527835Y-67492788D01*
X69527833Y-67492789D01*
X69317611Y-67579865D01*
X69317607Y-67579867D01*
X69313037Y-67581760D01*
X69308817Y-67584346D01*
X69114798Y-67703241D01*
X69114792Y-67703245D01*
X69110584Y-67705824D01*
X68930031Y-67860031D01*
X68775824Y-68040584D01*
X68773245Y-68044792D01*
X68773241Y-68044798D01*
X68654346Y-68238817D01*
X68651760Y-68243037D01*
X68560895Y-68462406D01*
X68505465Y-68693289D01*
X68486835Y-68930000D01*
X65013165Y-68930000D01*
X64994535Y-68693289D01*
X64939105Y-68462406D01*
X64848240Y-68243037D01*
X64845654Y-68238817D01*
X64726759Y-68044798D01*
X64726755Y-68044792D01*
X64724176Y-68040584D01*
X64569969Y-67860031D01*
X64389416Y-67705824D01*
X64385208Y-67703245D01*
X64385202Y-67703241D01*
X64191183Y-67584346D01*
X64186963Y-67581760D01*
X64182393Y-67579867D01*
X64182389Y-67579865D01*
X63972167Y-67492789D01*
X63972165Y-67492788D01*
X63967594Y-67490895D01*
X63887391Y-67471640D01*
X63741524Y-67436620D01*
X63741518Y-67436619D01*
X63736711Y-67435465D01*
X63500000Y-67416835D01*
X63263289Y-67435465D01*
X63258482Y-67436619D01*
X63258476Y-67436620D01*
X63112609Y-67471640D01*
X63032406Y-67490895D01*
X63027835Y-67492788D01*
X63027833Y-67492789D01*
X62817611Y-67579865D01*
X62817607Y-67579867D01*
X62813037Y-67581760D01*
X62808817Y-67584346D01*
X62614798Y-67703241D01*
X62614792Y-67703245D01*
X62610584Y-67705824D01*
X62430031Y-67860031D01*
X62275824Y-68040584D01*
X62273245Y-68044792D01*
X62273241Y-68044798D01*
X62154346Y-68238817D01*
X62151760Y-68243037D01*
X62060895Y-68462406D01*
X62005465Y-68693289D01*
X61986835Y-68930000D01*
X61468500Y-68930000D01*
X61468500Y-64430000D01*
X61986835Y-64430000D01*
X62005465Y-64666711D01*
X62060895Y-64897594D01*
X62151760Y-65116963D01*
X62154346Y-65121183D01*
X62273241Y-65315202D01*
X62273245Y-65315208D01*
X62275824Y-65319416D01*
X62430031Y-65499969D01*
X62610584Y-65654176D01*
X62614792Y-65656755D01*
X62614798Y-65656759D01*
X62653240Y-65680316D01*
X62813037Y-65778240D01*
X62817607Y-65780133D01*
X62817611Y-65780135D01*
X63027833Y-65867211D01*
X63032406Y-65869105D01*
X63112609Y-65888360D01*
X63258476Y-65923380D01*
X63258482Y-65923381D01*
X63263289Y-65924535D01*
X63500000Y-65943165D01*
X63736711Y-65924535D01*
X63741518Y-65923381D01*
X63741524Y-65923380D01*
X63887391Y-65888360D01*
X63967594Y-65869105D01*
X63972167Y-65867211D01*
X64182389Y-65780135D01*
X64182393Y-65780133D01*
X64186963Y-65778240D01*
X64346760Y-65680316D01*
X64385202Y-65656759D01*
X64385208Y-65656755D01*
X64389416Y-65654176D01*
X64569969Y-65499969D01*
X64724176Y-65319416D01*
X64726755Y-65315208D01*
X64726759Y-65315202D01*
X64845654Y-65121183D01*
X64848240Y-65116963D01*
X64939105Y-64897594D01*
X64994535Y-64666711D01*
X65013165Y-64430000D01*
X68486835Y-64430000D01*
X68505465Y-64666711D01*
X68560895Y-64897594D01*
X68651760Y-65116963D01*
X68654346Y-65121183D01*
X68773241Y-65315202D01*
X68773245Y-65315208D01*
X68775824Y-65319416D01*
X68930031Y-65499969D01*
X69110584Y-65654176D01*
X69114792Y-65656755D01*
X69114798Y-65656759D01*
X69153240Y-65680316D01*
X69313037Y-65778240D01*
X69317607Y-65780133D01*
X69317611Y-65780135D01*
X69527833Y-65867211D01*
X69532406Y-65869105D01*
X69612609Y-65888360D01*
X69758476Y-65923380D01*
X69758482Y-65923381D01*
X69763289Y-65924535D01*
X70000000Y-65943165D01*
X70236711Y-65924535D01*
X70241518Y-65923381D01*
X70241524Y-65923380D01*
X70387391Y-65888360D01*
X70467594Y-65869105D01*
X70472167Y-65867211D01*
X70682389Y-65780135D01*
X70682393Y-65780133D01*
X70686963Y-65778240D01*
X70846760Y-65680316D01*
X70885202Y-65656759D01*
X70885208Y-65656755D01*
X70889416Y-65654176D01*
X71069969Y-65499969D01*
X71224176Y-65319416D01*
X71226755Y-65315208D01*
X71226759Y-65315202D01*
X71345654Y-65121183D01*
X71348240Y-65116963D01*
X71439105Y-64897594D01*
X71494535Y-64666711D01*
X71513165Y-64430000D01*
X72536835Y-64430000D01*
X72555465Y-64666711D01*
X72610895Y-64897594D01*
X72701760Y-65116963D01*
X72704346Y-65121183D01*
X72823241Y-65315202D01*
X72823245Y-65315208D01*
X72825824Y-65319416D01*
X72980031Y-65499969D01*
X73160584Y-65654176D01*
X73164792Y-65656755D01*
X73164798Y-65656759D01*
X73203240Y-65680316D01*
X73363037Y-65778240D01*
X73367607Y-65780133D01*
X73367611Y-65780135D01*
X73577833Y-65867211D01*
X73582406Y-65869105D01*
X73662609Y-65888360D01*
X73808476Y-65923380D01*
X73808482Y-65923381D01*
X73813289Y-65924535D01*
X74050000Y-65943165D01*
X74286711Y-65924535D01*
X74291518Y-65923381D01*
X74291524Y-65923380D01*
X74437391Y-65888360D01*
X74517594Y-65869105D01*
X74522167Y-65867211D01*
X74732389Y-65780135D01*
X74732393Y-65780133D01*
X74736963Y-65778240D01*
X74896760Y-65680316D01*
X74935202Y-65656759D01*
X74935208Y-65656755D01*
X74939416Y-65654176D01*
X75119969Y-65499969D01*
X75274176Y-65319416D01*
X75276755Y-65315208D01*
X75276759Y-65315202D01*
X75395654Y-65121183D01*
X75398240Y-65116963D01*
X75489105Y-64897594D01*
X75544535Y-64666711D01*
X75563165Y-64430000D01*
X79036835Y-64430000D01*
X79055465Y-64666711D01*
X79110895Y-64897594D01*
X79201760Y-65116963D01*
X79204346Y-65121183D01*
X79323241Y-65315202D01*
X79323245Y-65315208D01*
X79325824Y-65319416D01*
X79480031Y-65499969D01*
X79660584Y-65654176D01*
X79664792Y-65656755D01*
X79664798Y-65656759D01*
X79703240Y-65680316D01*
X79863037Y-65778240D01*
X79867607Y-65780133D01*
X79867611Y-65780135D01*
X80077833Y-65867211D01*
X80082406Y-65869105D01*
X80162609Y-65888360D01*
X80308476Y-65923380D01*
X80308482Y-65923381D01*
X80313289Y-65924535D01*
X80550000Y-65943165D01*
X80786711Y-65924535D01*
X80791518Y-65923381D01*
X80791524Y-65923380D01*
X80937391Y-65888360D01*
X81017594Y-65869105D01*
X81022167Y-65867211D01*
X81232389Y-65780135D01*
X81232393Y-65780133D01*
X81236963Y-65778240D01*
X81396760Y-65680316D01*
X81435202Y-65656759D01*
X81435208Y-65656755D01*
X81439416Y-65654176D01*
X81481616Y-65618134D01*
X85071500Y-65618134D01*
X85078255Y-65680316D01*
X85129385Y-65816705D01*
X85216739Y-65933261D01*
X85333295Y-66020615D01*
X85469684Y-66071745D01*
X85531866Y-66078500D01*
X87228134Y-66078500D01*
X87290316Y-66071745D01*
X87426705Y-66020615D01*
X87543261Y-65933261D01*
X87630615Y-65816705D01*
X87681745Y-65680316D01*
X87682917Y-65669526D01*
X87683803Y-65667394D01*
X87684425Y-65664778D01*
X87684848Y-65664879D01*
X87710155Y-65603965D01*
X87768517Y-65563537D01*
X87839471Y-65561078D01*
X87900490Y-65597371D01*
X87907489Y-65606031D01*
X87910643Y-65609789D01*
X87913802Y-65614300D01*
X88075700Y-65776198D01*
X88080208Y-65779355D01*
X88080211Y-65779357D01*
X88121542Y-65808297D01*
X88263251Y-65907523D01*
X88268233Y-65909846D01*
X88268238Y-65909849D01*
X88465775Y-66001961D01*
X88470757Y-66004284D01*
X88476065Y-66005706D01*
X88476067Y-66005707D01*
X88686598Y-66062119D01*
X88686600Y-66062119D01*
X88691913Y-66063543D01*
X88920000Y-66083498D01*
X89148087Y-66063543D01*
X89153400Y-66062119D01*
X89153402Y-66062119D01*
X89363933Y-66005707D01*
X89363935Y-66005706D01*
X89369243Y-66004284D01*
X89374225Y-66001961D01*
X89571762Y-65909849D01*
X89571767Y-65909846D01*
X89576749Y-65907523D01*
X89718458Y-65808297D01*
X89759789Y-65779357D01*
X89759792Y-65779355D01*
X89764300Y-65776198D01*
X89926198Y-65614300D01*
X90057523Y-65426749D01*
X90059846Y-65421767D01*
X90059849Y-65421762D01*
X90151961Y-65224225D01*
X90151961Y-65224224D01*
X90154284Y-65219243D01*
X90213543Y-64998087D01*
X90233498Y-64770000D01*
X90213543Y-64541913D01*
X90154284Y-64320757D01*
X90092601Y-64188476D01*
X90059849Y-64118238D01*
X90059846Y-64118233D01*
X90057523Y-64113251D01*
X89926198Y-63925700D01*
X89764300Y-63763802D01*
X89759792Y-63760645D01*
X89759789Y-63760643D01*
X89681611Y-63705902D01*
X89576749Y-63632477D01*
X89571767Y-63630154D01*
X89571762Y-63630151D01*
X89374225Y-63538039D01*
X89374224Y-63538039D01*
X89369243Y-63535716D01*
X89363935Y-63534294D01*
X89363933Y-63534293D01*
X89153402Y-63477881D01*
X89153400Y-63477881D01*
X89148087Y-63476457D01*
X88920000Y-63456502D01*
X88691913Y-63476457D01*
X88686600Y-63477881D01*
X88686598Y-63477881D01*
X88476067Y-63534293D01*
X88476065Y-63534294D01*
X88470757Y-63535716D01*
X88465776Y-63538039D01*
X88465775Y-63538039D01*
X88268238Y-63630151D01*
X88268233Y-63630154D01*
X88263251Y-63632477D01*
X88158389Y-63705902D01*
X88080211Y-63760643D01*
X88080208Y-63760645D01*
X88075700Y-63763802D01*
X87913802Y-63925700D01*
X87910643Y-63930211D01*
X87907108Y-63934424D01*
X87905974Y-63933473D01*
X87855929Y-63973471D01*
X87785310Y-63980776D01*
X87721951Y-63948742D01*
X87685970Y-63887538D01*
X87682918Y-63870483D01*
X87681745Y-63859684D01*
X87630615Y-63723295D01*
X87543261Y-63606739D01*
X87426705Y-63519385D01*
X87290316Y-63468255D01*
X87228134Y-63461500D01*
X85531866Y-63461500D01*
X85469684Y-63468255D01*
X85333295Y-63519385D01*
X85216739Y-63606739D01*
X85129385Y-63723295D01*
X85078255Y-63859684D01*
X85071500Y-63921866D01*
X85071500Y-65618134D01*
X81481616Y-65618134D01*
X81619969Y-65499969D01*
X81774176Y-65319416D01*
X81776755Y-65315208D01*
X81776759Y-65315202D01*
X81895654Y-65121183D01*
X81898240Y-65116963D01*
X81989105Y-64897594D01*
X82044535Y-64666711D01*
X82063165Y-64430000D01*
X82044535Y-64193289D01*
X82024238Y-64108743D01*
X81990260Y-63967218D01*
X81989105Y-63962406D01*
X81977121Y-63933473D01*
X81900135Y-63747611D01*
X81900133Y-63747607D01*
X81898240Y-63743037D01*
X81895654Y-63738817D01*
X81776759Y-63544798D01*
X81776755Y-63544792D01*
X81774176Y-63540584D01*
X81619969Y-63360031D01*
X81439416Y-63205824D01*
X81435208Y-63203245D01*
X81435202Y-63203241D01*
X81241183Y-63084346D01*
X81236963Y-63081760D01*
X81232393Y-63079867D01*
X81232389Y-63079865D01*
X81022167Y-62992789D01*
X81022165Y-62992788D01*
X81017594Y-62990895D01*
X80937391Y-62971640D01*
X80791524Y-62936620D01*
X80791518Y-62936619D01*
X80786711Y-62935465D01*
X80550000Y-62916835D01*
X80313289Y-62935465D01*
X80308482Y-62936619D01*
X80308476Y-62936620D01*
X80162609Y-62971640D01*
X80082406Y-62990895D01*
X80077835Y-62992788D01*
X80077833Y-62992789D01*
X79867611Y-63079865D01*
X79867607Y-63079867D01*
X79863037Y-63081760D01*
X79858817Y-63084346D01*
X79664798Y-63203241D01*
X79664792Y-63203245D01*
X79660584Y-63205824D01*
X79480031Y-63360031D01*
X79325824Y-63540584D01*
X79323245Y-63544792D01*
X79323241Y-63544798D01*
X79204346Y-63738817D01*
X79201760Y-63743037D01*
X79199867Y-63747607D01*
X79199865Y-63747611D01*
X79122879Y-63933473D01*
X79110895Y-63962406D01*
X79109740Y-63967218D01*
X79075763Y-64108743D01*
X79055465Y-64193289D01*
X79036835Y-64430000D01*
X75563165Y-64430000D01*
X75544535Y-64193289D01*
X75524238Y-64108743D01*
X75490260Y-63967218D01*
X75489105Y-63962406D01*
X75477121Y-63933473D01*
X75400135Y-63747611D01*
X75400133Y-63747607D01*
X75398240Y-63743037D01*
X75395654Y-63738817D01*
X75276759Y-63544798D01*
X75276755Y-63544792D01*
X75274176Y-63540584D01*
X75119969Y-63360031D01*
X74939416Y-63205824D01*
X74935208Y-63203245D01*
X74935202Y-63203241D01*
X74741183Y-63084346D01*
X74736963Y-63081760D01*
X74732393Y-63079867D01*
X74732389Y-63079865D01*
X74522167Y-62992789D01*
X74522165Y-62992788D01*
X74517594Y-62990895D01*
X74437391Y-62971640D01*
X74291524Y-62936620D01*
X74291518Y-62936619D01*
X74286711Y-62935465D01*
X74050000Y-62916835D01*
X73813289Y-62935465D01*
X73808482Y-62936619D01*
X73808476Y-62936620D01*
X73662609Y-62971640D01*
X73582406Y-62990895D01*
X73577835Y-62992788D01*
X73577833Y-62992789D01*
X73367611Y-63079865D01*
X73367607Y-63079867D01*
X73363037Y-63081760D01*
X73358817Y-63084346D01*
X73164798Y-63203241D01*
X73164792Y-63203245D01*
X73160584Y-63205824D01*
X72980031Y-63360031D01*
X72825824Y-63540584D01*
X72823245Y-63544792D01*
X72823241Y-63544798D01*
X72704346Y-63738817D01*
X72701760Y-63743037D01*
X72699867Y-63747607D01*
X72699865Y-63747611D01*
X72622879Y-63933473D01*
X72610895Y-63962406D01*
X72609740Y-63967218D01*
X72575763Y-64108743D01*
X72555465Y-64193289D01*
X72536835Y-64430000D01*
X71513165Y-64430000D01*
X71494535Y-64193289D01*
X71474238Y-64108743D01*
X71440260Y-63967218D01*
X71439105Y-63962406D01*
X71427121Y-63933473D01*
X71350135Y-63747611D01*
X71350133Y-63747607D01*
X71348240Y-63743037D01*
X71345654Y-63738817D01*
X71226759Y-63544798D01*
X71226755Y-63544792D01*
X71224176Y-63540584D01*
X71069969Y-63360031D01*
X70889416Y-63205824D01*
X70885208Y-63203245D01*
X70885202Y-63203241D01*
X70691183Y-63084346D01*
X70686963Y-63081760D01*
X70682393Y-63079867D01*
X70682389Y-63079865D01*
X70472167Y-62992789D01*
X70472165Y-62992788D01*
X70467594Y-62990895D01*
X70387391Y-62971640D01*
X70241524Y-62936620D01*
X70241518Y-62936619D01*
X70236711Y-62935465D01*
X70000000Y-62916835D01*
X69763289Y-62935465D01*
X69758482Y-62936619D01*
X69758476Y-62936620D01*
X69612609Y-62971640D01*
X69532406Y-62990895D01*
X69527835Y-62992788D01*
X69527833Y-62992789D01*
X69317611Y-63079865D01*
X69317607Y-63079867D01*
X69313037Y-63081760D01*
X69308817Y-63084346D01*
X69114798Y-63203241D01*
X69114792Y-63203245D01*
X69110584Y-63205824D01*
X68930031Y-63360031D01*
X68775824Y-63540584D01*
X68773245Y-63544792D01*
X68773241Y-63544798D01*
X68654346Y-63738817D01*
X68651760Y-63743037D01*
X68649867Y-63747607D01*
X68649865Y-63747611D01*
X68572879Y-63933473D01*
X68560895Y-63962406D01*
X68559740Y-63967218D01*
X68525763Y-64108743D01*
X68505465Y-64193289D01*
X68486835Y-64430000D01*
X65013165Y-64430000D01*
X64994535Y-64193289D01*
X64974238Y-64108743D01*
X64940260Y-63967218D01*
X64939105Y-63962406D01*
X64927121Y-63933473D01*
X64850135Y-63747611D01*
X64850133Y-63747607D01*
X64848240Y-63743037D01*
X64845654Y-63738817D01*
X64726759Y-63544798D01*
X64726755Y-63544792D01*
X64724176Y-63540584D01*
X64569969Y-63360031D01*
X64389416Y-63205824D01*
X64385208Y-63203245D01*
X64385202Y-63203241D01*
X64191183Y-63084346D01*
X64186963Y-63081760D01*
X64182393Y-63079867D01*
X64182389Y-63079865D01*
X63972167Y-62992789D01*
X63972165Y-62992788D01*
X63967594Y-62990895D01*
X63887391Y-62971640D01*
X63741524Y-62936620D01*
X63741518Y-62936619D01*
X63736711Y-62935465D01*
X63500000Y-62916835D01*
X63263289Y-62935465D01*
X63258482Y-62936619D01*
X63258476Y-62936620D01*
X63112609Y-62971640D01*
X63032406Y-62990895D01*
X63027835Y-62992788D01*
X63027833Y-62992789D01*
X62817611Y-63079865D01*
X62817607Y-63079867D01*
X62813037Y-63081760D01*
X62808817Y-63084346D01*
X62614798Y-63203241D01*
X62614792Y-63203245D01*
X62610584Y-63205824D01*
X62430031Y-63360031D01*
X62275824Y-63540584D01*
X62273245Y-63544792D01*
X62273241Y-63544798D01*
X62154346Y-63738817D01*
X62151760Y-63743037D01*
X62149867Y-63747607D01*
X62149865Y-63747611D01*
X62072879Y-63933473D01*
X62060895Y-63962406D01*
X62059740Y-63967218D01*
X62025763Y-64108743D01*
X62005465Y-64193289D01*
X61986835Y-64430000D01*
X61468500Y-64430000D01*
X61468500Y-60380000D01*
X61986835Y-60380000D01*
X62005465Y-60616711D01*
X62060895Y-60847594D01*
X62151760Y-61066963D01*
X62154346Y-61071183D01*
X62273241Y-61265202D01*
X62273245Y-61265208D01*
X62275824Y-61269416D01*
X62430031Y-61449969D01*
X62610584Y-61604176D01*
X62614792Y-61606755D01*
X62614798Y-61606759D01*
X62808817Y-61725654D01*
X62813037Y-61728240D01*
X62817607Y-61730133D01*
X62817611Y-61730135D01*
X63027833Y-61817211D01*
X63032406Y-61819105D01*
X63112609Y-61838360D01*
X63258476Y-61873380D01*
X63258482Y-61873381D01*
X63263289Y-61874535D01*
X63500000Y-61893165D01*
X63736711Y-61874535D01*
X63741518Y-61873381D01*
X63741524Y-61873380D01*
X63887391Y-61838360D01*
X63967594Y-61819105D01*
X63972167Y-61817211D01*
X64182389Y-61730135D01*
X64182393Y-61730133D01*
X64186963Y-61728240D01*
X64191183Y-61725654D01*
X64385202Y-61606759D01*
X64385208Y-61606755D01*
X64389416Y-61604176D01*
X64569969Y-61449969D01*
X64724176Y-61269416D01*
X64726755Y-61265208D01*
X64726759Y-61265202D01*
X64845654Y-61071183D01*
X64848240Y-61066963D01*
X64939105Y-60847594D01*
X64994535Y-60616711D01*
X65013165Y-60380000D01*
X68486835Y-60380000D01*
X68505465Y-60616711D01*
X68560895Y-60847594D01*
X68651760Y-61066963D01*
X68654346Y-61071183D01*
X68773241Y-61265202D01*
X68773245Y-61265208D01*
X68775824Y-61269416D01*
X68930031Y-61449969D01*
X69110584Y-61604176D01*
X69114792Y-61606755D01*
X69114798Y-61606759D01*
X69308817Y-61725654D01*
X69313037Y-61728240D01*
X69317607Y-61730133D01*
X69317611Y-61730135D01*
X69527833Y-61817211D01*
X69532406Y-61819105D01*
X69612609Y-61838360D01*
X69758476Y-61873380D01*
X69758482Y-61873381D01*
X69763289Y-61874535D01*
X70000000Y-61893165D01*
X70236711Y-61874535D01*
X70241518Y-61873381D01*
X70241524Y-61873380D01*
X70387391Y-61838360D01*
X70467594Y-61819105D01*
X70472167Y-61817211D01*
X70682389Y-61730135D01*
X70682393Y-61730133D01*
X70686963Y-61728240D01*
X70691183Y-61725654D01*
X70885202Y-61606759D01*
X70885208Y-61606755D01*
X70889416Y-61604176D01*
X71069969Y-61449969D01*
X71224176Y-61269416D01*
X71226755Y-61265208D01*
X71226759Y-61265202D01*
X71345654Y-61071183D01*
X71348240Y-61066963D01*
X71439105Y-60847594D01*
X71494535Y-60616711D01*
X71513165Y-60380000D01*
X72536835Y-60380000D01*
X72555465Y-60616711D01*
X72610895Y-60847594D01*
X72701760Y-61066963D01*
X72704346Y-61071183D01*
X72823241Y-61265202D01*
X72823245Y-61265208D01*
X72825824Y-61269416D01*
X72980031Y-61449969D01*
X73160584Y-61604176D01*
X73164792Y-61606755D01*
X73164798Y-61606759D01*
X73358817Y-61725654D01*
X73363037Y-61728240D01*
X73367607Y-61730133D01*
X73367611Y-61730135D01*
X73577833Y-61817211D01*
X73582406Y-61819105D01*
X73662609Y-61838360D01*
X73808476Y-61873380D01*
X73808482Y-61873381D01*
X73813289Y-61874535D01*
X74050000Y-61893165D01*
X74286711Y-61874535D01*
X74291518Y-61873381D01*
X74291524Y-61873380D01*
X74437391Y-61838360D01*
X74517594Y-61819105D01*
X74522167Y-61817211D01*
X74732389Y-61730135D01*
X74732393Y-61730133D01*
X74736963Y-61728240D01*
X74741183Y-61725654D01*
X74935202Y-61606759D01*
X74935208Y-61606755D01*
X74939416Y-61604176D01*
X75119969Y-61449969D01*
X75274176Y-61269416D01*
X75276755Y-61265208D01*
X75276759Y-61265202D01*
X75395654Y-61071183D01*
X75398240Y-61066963D01*
X75489105Y-60847594D01*
X75544535Y-60616711D01*
X75563165Y-60380000D01*
X79036835Y-60380000D01*
X79055465Y-60616711D01*
X79110895Y-60847594D01*
X79201760Y-61066963D01*
X79204346Y-61071183D01*
X79323241Y-61265202D01*
X79323245Y-61265208D01*
X79325824Y-61269416D01*
X79480031Y-61449969D01*
X79660584Y-61604176D01*
X79664792Y-61606755D01*
X79664798Y-61606759D01*
X79858817Y-61725654D01*
X79863037Y-61728240D01*
X79867607Y-61730133D01*
X79867611Y-61730135D01*
X80077833Y-61817211D01*
X80082406Y-61819105D01*
X80162609Y-61838360D01*
X80308476Y-61873380D01*
X80308482Y-61873381D01*
X80313289Y-61874535D01*
X80550000Y-61893165D01*
X80786711Y-61874535D01*
X80791518Y-61873381D01*
X80791524Y-61873380D01*
X80937391Y-61838360D01*
X81017594Y-61819105D01*
X81022167Y-61817211D01*
X81232389Y-61730135D01*
X81232393Y-61730133D01*
X81236963Y-61728240D01*
X81241183Y-61725654D01*
X81435202Y-61606759D01*
X81435208Y-61606755D01*
X81439416Y-61604176D01*
X81619969Y-61449969D01*
X81774176Y-61269416D01*
X81776755Y-61265208D01*
X81776759Y-61265202D01*
X81895654Y-61071183D01*
X81898240Y-61066963D01*
X81989105Y-60847594D01*
X82044535Y-60616711D01*
X82063165Y-60380000D01*
X82044535Y-60143289D01*
X81989105Y-59912406D01*
X81898240Y-59693037D01*
X81895654Y-59688817D01*
X81776759Y-59494798D01*
X81776755Y-59494792D01*
X81774176Y-59490584D01*
X81619969Y-59310031D01*
X81439416Y-59155824D01*
X81435208Y-59153245D01*
X81435202Y-59153241D01*
X81241183Y-59034346D01*
X81236963Y-59031760D01*
X81232393Y-59029867D01*
X81232389Y-59029865D01*
X81022167Y-58942789D01*
X81022165Y-58942788D01*
X81017594Y-58940895D01*
X80937391Y-58921640D01*
X80791524Y-58886620D01*
X80791518Y-58886619D01*
X80786711Y-58885465D01*
X80550000Y-58866835D01*
X80313289Y-58885465D01*
X80308482Y-58886619D01*
X80308476Y-58886620D01*
X80162609Y-58921640D01*
X80082406Y-58940895D01*
X80077835Y-58942788D01*
X80077833Y-58942789D01*
X79867611Y-59029865D01*
X79867607Y-59029867D01*
X79863037Y-59031760D01*
X79858817Y-59034346D01*
X79664798Y-59153241D01*
X79664792Y-59153245D01*
X79660584Y-59155824D01*
X79480031Y-59310031D01*
X79325824Y-59490584D01*
X79323245Y-59494792D01*
X79323241Y-59494798D01*
X79204346Y-59688817D01*
X79201760Y-59693037D01*
X79110895Y-59912406D01*
X79055465Y-60143289D01*
X79036835Y-60380000D01*
X75563165Y-60380000D01*
X75544535Y-60143289D01*
X75489105Y-59912406D01*
X75398240Y-59693037D01*
X75395654Y-59688817D01*
X75276759Y-59494798D01*
X75276755Y-59494792D01*
X75274176Y-59490584D01*
X75119969Y-59310031D01*
X74939416Y-59155824D01*
X74935208Y-59153245D01*
X74935202Y-59153241D01*
X74741183Y-59034346D01*
X74736963Y-59031760D01*
X74732393Y-59029867D01*
X74732389Y-59029865D01*
X74522167Y-58942789D01*
X74522165Y-58942788D01*
X74517594Y-58940895D01*
X74437391Y-58921640D01*
X74291524Y-58886620D01*
X74291518Y-58886619D01*
X74286711Y-58885465D01*
X74050000Y-58866835D01*
X73813289Y-58885465D01*
X73808482Y-58886619D01*
X73808476Y-58886620D01*
X73662609Y-58921640D01*
X73582406Y-58940895D01*
X73577835Y-58942788D01*
X73577833Y-58942789D01*
X73367611Y-59029865D01*
X73367607Y-59029867D01*
X73363037Y-59031760D01*
X73358817Y-59034346D01*
X73164798Y-59153241D01*
X73164792Y-59153245D01*
X73160584Y-59155824D01*
X72980031Y-59310031D01*
X72825824Y-59490584D01*
X72823245Y-59494792D01*
X72823241Y-59494798D01*
X72704346Y-59688817D01*
X72701760Y-59693037D01*
X72610895Y-59912406D01*
X72555465Y-60143289D01*
X72536835Y-60380000D01*
X71513165Y-60380000D01*
X71494535Y-60143289D01*
X71439105Y-59912406D01*
X71348240Y-59693037D01*
X71345654Y-59688817D01*
X71226759Y-59494798D01*
X71226755Y-59494792D01*
X71224176Y-59490584D01*
X71069969Y-59310031D01*
X70889416Y-59155824D01*
X70885208Y-59153245D01*
X70885202Y-59153241D01*
X70691183Y-59034346D01*
X70686963Y-59031760D01*
X70682393Y-59029867D01*
X70682389Y-59029865D01*
X70472167Y-58942789D01*
X70472165Y-58942788D01*
X70467594Y-58940895D01*
X70387391Y-58921640D01*
X70241524Y-58886620D01*
X70241518Y-58886619D01*
X70236711Y-58885465D01*
X70000000Y-58866835D01*
X69763289Y-58885465D01*
X69758482Y-58886619D01*
X69758476Y-58886620D01*
X69612609Y-58921640D01*
X69532406Y-58940895D01*
X69527835Y-58942788D01*
X69527833Y-58942789D01*
X69317611Y-59029865D01*
X69317607Y-59029867D01*
X69313037Y-59031760D01*
X69308817Y-59034346D01*
X69114798Y-59153241D01*
X69114792Y-59153245D01*
X69110584Y-59155824D01*
X68930031Y-59310031D01*
X68775824Y-59490584D01*
X68773245Y-59494792D01*
X68773241Y-59494798D01*
X68654346Y-59688817D01*
X68651760Y-59693037D01*
X68560895Y-59912406D01*
X68505465Y-60143289D01*
X68486835Y-60380000D01*
X65013165Y-60380000D01*
X64994535Y-60143289D01*
X64939105Y-59912406D01*
X64848240Y-59693037D01*
X64845654Y-59688817D01*
X64726759Y-59494798D01*
X64726755Y-59494792D01*
X64724176Y-59490584D01*
X64569969Y-59310031D01*
X64389416Y-59155824D01*
X64385208Y-59153245D01*
X64385202Y-59153241D01*
X64191183Y-59034346D01*
X64186963Y-59031760D01*
X64182393Y-59029867D01*
X64182389Y-59029865D01*
X63972167Y-58942789D01*
X63972165Y-58942788D01*
X63967594Y-58940895D01*
X63887391Y-58921640D01*
X63741524Y-58886620D01*
X63741518Y-58886619D01*
X63736711Y-58885465D01*
X63500000Y-58866835D01*
X63263289Y-58885465D01*
X63258482Y-58886619D01*
X63258476Y-58886620D01*
X63112609Y-58921640D01*
X63032406Y-58940895D01*
X63027835Y-58942788D01*
X63027833Y-58942789D01*
X62817611Y-59029865D01*
X62817607Y-59029867D01*
X62813037Y-59031760D01*
X62808817Y-59034346D01*
X62614798Y-59153241D01*
X62614792Y-59153245D01*
X62610584Y-59155824D01*
X62430031Y-59310031D01*
X62275824Y-59490584D01*
X62273245Y-59494792D01*
X62273241Y-59494798D01*
X62154346Y-59688817D01*
X62151760Y-59693037D01*
X62060895Y-59912406D01*
X62005465Y-60143289D01*
X61986835Y-60380000D01*
X61468500Y-60380000D01*
X61468500Y-55880000D01*
X61986835Y-55880000D01*
X62005465Y-56116711D01*
X62006619Y-56121518D01*
X62006620Y-56121524D01*
X62041640Y-56267391D01*
X62060895Y-56347594D01*
X62062788Y-56352165D01*
X62062789Y-56352167D01*
X62121228Y-56493251D01*
X62151760Y-56566963D01*
X62154346Y-56571183D01*
X62273241Y-56765202D01*
X62273245Y-56765208D01*
X62275824Y-56769416D01*
X62430031Y-56949969D01*
X62610584Y-57104176D01*
X62614792Y-57106755D01*
X62614798Y-57106759D01*
X62808817Y-57225654D01*
X62813037Y-57228240D01*
X62817607Y-57230133D01*
X62817611Y-57230135D01*
X63027833Y-57317211D01*
X63032406Y-57319105D01*
X63112609Y-57338360D01*
X63258476Y-57373380D01*
X63258482Y-57373381D01*
X63263289Y-57374535D01*
X63500000Y-57393165D01*
X63736711Y-57374535D01*
X63741518Y-57373381D01*
X63741524Y-57373380D01*
X63887391Y-57338360D01*
X63967594Y-57319105D01*
X63972167Y-57317211D01*
X64182389Y-57230135D01*
X64182393Y-57230133D01*
X64186963Y-57228240D01*
X64191183Y-57225654D01*
X64385202Y-57106759D01*
X64385208Y-57106755D01*
X64389416Y-57104176D01*
X64569969Y-56949969D01*
X64724176Y-56769416D01*
X64726755Y-56765208D01*
X64726759Y-56765202D01*
X64845654Y-56571183D01*
X64848240Y-56566963D01*
X64878773Y-56493251D01*
X64937211Y-56352167D01*
X64937212Y-56352165D01*
X64939105Y-56347594D01*
X64958360Y-56267391D01*
X64993380Y-56121524D01*
X64993381Y-56121518D01*
X64994535Y-56116711D01*
X65013165Y-55880000D01*
X68486835Y-55880000D01*
X68505465Y-56116711D01*
X68506619Y-56121518D01*
X68506620Y-56121524D01*
X68541640Y-56267391D01*
X68560895Y-56347594D01*
X68562788Y-56352165D01*
X68562789Y-56352167D01*
X68621228Y-56493251D01*
X68651760Y-56566963D01*
X68654346Y-56571183D01*
X68773241Y-56765202D01*
X68773245Y-56765208D01*
X68775824Y-56769416D01*
X68930031Y-56949969D01*
X69110584Y-57104176D01*
X69114792Y-57106755D01*
X69114798Y-57106759D01*
X69308817Y-57225654D01*
X69313037Y-57228240D01*
X69317607Y-57230133D01*
X69317611Y-57230135D01*
X69527833Y-57317211D01*
X69532406Y-57319105D01*
X69612609Y-57338360D01*
X69758476Y-57373380D01*
X69758482Y-57373381D01*
X69763289Y-57374535D01*
X70000000Y-57393165D01*
X70236711Y-57374535D01*
X70241518Y-57373381D01*
X70241524Y-57373380D01*
X70387391Y-57338360D01*
X70467594Y-57319105D01*
X70472167Y-57317211D01*
X70682389Y-57230135D01*
X70682393Y-57230133D01*
X70686963Y-57228240D01*
X70691183Y-57225654D01*
X70885202Y-57106759D01*
X70885208Y-57106755D01*
X70889416Y-57104176D01*
X71069969Y-56949969D01*
X71224176Y-56769416D01*
X71226755Y-56765208D01*
X71226759Y-56765202D01*
X71345654Y-56571183D01*
X71348240Y-56566963D01*
X71378773Y-56493251D01*
X71437211Y-56352167D01*
X71437212Y-56352165D01*
X71439105Y-56347594D01*
X71458360Y-56267391D01*
X71493380Y-56121524D01*
X71493381Y-56121518D01*
X71494535Y-56116711D01*
X71513165Y-55880000D01*
X72536835Y-55880000D01*
X72555465Y-56116711D01*
X72556619Y-56121518D01*
X72556620Y-56121524D01*
X72591640Y-56267391D01*
X72610895Y-56347594D01*
X72612788Y-56352165D01*
X72612789Y-56352167D01*
X72671228Y-56493251D01*
X72701760Y-56566963D01*
X72704346Y-56571183D01*
X72823241Y-56765202D01*
X72823245Y-56765208D01*
X72825824Y-56769416D01*
X72980031Y-56949969D01*
X73160584Y-57104176D01*
X73164792Y-57106755D01*
X73164798Y-57106759D01*
X73358817Y-57225654D01*
X73363037Y-57228240D01*
X73367607Y-57230133D01*
X73367611Y-57230135D01*
X73577833Y-57317211D01*
X73582406Y-57319105D01*
X73662609Y-57338360D01*
X73808476Y-57373380D01*
X73808482Y-57373381D01*
X73813289Y-57374535D01*
X74050000Y-57393165D01*
X74286711Y-57374535D01*
X74291518Y-57373381D01*
X74291524Y-57373380D01*
X74437391Y-57338360D01*
X74517594Y-57319105D01*
X74522167Y-57317211D01*
X74732389Y-57230135D01*
X74732393Y-57230133D01*
X74736963Y-57228240D01*
X74741183Y-57225654D01*
X74935202Y-57106759D01*
X74935208Y-57106755D01*
X74939416Y-57104176D01*
X75119969Y-56949969D01*
X75274176Y-56769416D01*
X75276755Y-56765208D01*
X75276759Y-56765202D01*
X75395654Y-56571183D01*
X75398240Y-56566963D01*
X75428773Y-56493251D01*
X75487211Y-56352167D01*
X75487212Y-56352165D01*
X75489105Y-56347594D01*
X75508360Y-56267391D01*
X75543380Y-56121524D01*
X75543381Y-56121518D01*
X75544535Y-56116711D01*
X75563165Y-55880000D01*
X79036835Y-55880000D01*
X79055465Y-56116711D01*
X79056619Y-56121518D01*
X79056620Y-56121524D01*
X79091640Y-56267391D01*
X79110895Y-56347594D01*
X79112788Y-56352165D01*
X79112789Y-56352167D01*
X79171228Y-56493251D01*
X79201760Y-56566963D01*
X79204346Y-56571183D01*
X79323241Y-56765202D01*
X79323245Y-56765208D01*
X79325824Y-56769416D01*
X79480031Y-56949969D01*
X79660584Y-57104176D01*
X79664792Y-57106755D01*
X79664798Y-57106759D01*
X79858817Y-57225654D01*
X79863037Y-57228240D01*
X79867607Y-57230133D01*
X79867611Y-57230135D01*
X80077833Y-57317211D01*
X80082406Y-57319105D01*
X80162609Y-57338360D01*
X80308476Y-57373380D01*
X80308482Y-57373381D01*
X80313289Y-57374535D01*
X80550000Y-57393165D01*
X80786711Y-57374535D01*
X80791518Y-57373381D01*
X80791524Y-57373380D01*
X80937391Y-57338360D01*
X81017594Y-57319105D01*
X81022167Y-57317211D01*
X81232389Y-57230135D01*
X81232393Y-57230133D01*
X81236963Y-57228240D01*
X81241183Y-57225654D01*
X81364639Y-57150000D01*
X85066502Y-57150000D01*
X85066981Y-57155475D01*
X85081297Y-57319105D01*
X85086457Y-57378087D01*
X85145716Y-57599243D01*
X85148039Y-57604224D01*
X85148039Y-57604225D01*
X85240151Y-57801762D01*
X85240154Y-57801767D01*
X85242477Y-57806749D01*
X85373802Y-57994300D01*
X85535700Y-58156198D01*
X85540208Y-58159355D01*
X85540211Y-58159357D01*
X85618389Y-58214098D01*
X85723251Y-58287523D01*
X85728233Y-58289846D01*
X85728238Y-58289849D01*
X85925775Y-58381961D01*
X85930757Y-58384284D01*
X85936065Y-58385706D01*
X85936067Y-58385707D01*
X86146598Y-58442119D01*
X86146600Y-58442119D01*
X86151913Y-58443543D01*
X86380000Y-58463498D01*
X86608087Y-58443543D01*
X86613400Y-58442119D01*
X86613402Y-58442119D01*
X86823933Y-58385707D01*
X86823935Y-58385706D01*
X86829243Y-58384284D01*
X86834225Y-58381961D01*
X87031762Y-58289849D01*
X87031767Y-58289846D01*
X87036749Y-58287523D01*
X87141611Y-58214098D01*
X87219789Y-58159357D01*
X87219792Y-58159355D01*
X87224300Y-58156198D01*
X87386198Y-57994300D01*
X87517523Y-57806749D01*
X87519846Y-57801767D01*
X87519849Y-57801762D01*
X87535805Y-57767543D01*
X87582722Y-57714258D01*
X87650999Y-57694797D01*
X87718959Y-57715339D01*
X87764195Y-57767543D01*
X87780151Y-57801762D01*
X87780154Y-57801767D01*
X87782477Y-57806749D01*
X87913802Y-57994300D01*
X88075700Y-58156198D01*
X88080208Y-58159355D01*
X88080211Y-58159357D01*
X88158389Y-58214098D01*
X88263251Y-58287523D01*
X88268233Y-58289846D01*
X88268238Y-58289849D01*
X88465775Y-58381961D01*
X88470757Y-58384284D01*
X88476065Y-58385706D01*
X88476067Y-58385707D01*
X88686598Y-58442119D01*
X88686600Y-58442119D01*
X88691913Y-58443543D01*
X88920000Y-58463498D01*
X89148087Y-58443543D01*
X89153400Y-58442119D01*
X89153402Y-58442119D01*
X89363933Y-58385707D01*
X89363935Y-58385706D01*
X89369243Y-58384284D01*
X89374225Y-58381961D01*
X89571762Y-58289849D01*
X89571767Y-58289846D01*
X89576749Y-58287523D01*
X89681611Y-58214098D01*
X89759789Y-58159357D01*
X89759792Y-58159355D01*
X89764300Y-58156198D01*
X89926198Y-57994300D01*
X90057523Y-57806749D01*
X90059846Y-57801767D01*
X90059849Y-57801762D01*
X90151961Y-57604225D01*
X90151961Y-57604224D01*
X90154284Y-57599243D01*
X90213543Y-57378087D01*
X90218704Y-57319105D01*
X90233019Y-57155475D01*
X90233498Y-57150000D01*
X90213543Y-56921913D01*
X90190000Y-56834050D01*
X90155707Y-56706067D01*
X90155706Y-56706065D01*
X90154284Y-56700757D01*
X90093863Y-56571183D01*
X90059849Y-56498238D01*
X90059846Y-56498233D01*
X90057523Y-56493251D01*
X89926198Y-56305700D01*
X89764300Y-56143802D01*
X89759792Y-56140645D01*
X89759789Y-56140643D01*
X89681611Y-56085902D01*
X89576749Y-56012477D01*
X89571767Y-56010154D01*
X89571762Y-56010151D01*
X89374225Y-55918039D01*
X89374224Y-55918039D01*
X89369243Y-55915716D01*
X89363935Y-55914294D01*
X89363933Y-55914293D01*
X89153402Y-55857881D01*
X89153400Y-55857881D01*
X89148087Y-55856457D01*
X88920000Y-55836502D01*
X88691913Y-55856457D01*
X88686600Y-55857881D01*
X88686598Y-55857881D01*
X88476067Y-55914293D01*
X88476065Y-55914294D01*
X88470757Y-55915716D01*
X88465776Y-55918039D01*
X88465775Y-55918039D01*
X88268238Y-56010151D01*
X88268233Y-56010154D01*
X88263251Y-56012477D01*
X88158389Y-56085902D01*
X88080211Y-56140643D01*
X88080208Y-56140645D01*
X88075700Y-56143802D01*
X87913802Y-56305700D01*
X87782477Y-56493251D01*
X87780154Y-56498233D01*
X87780151Y-56498238D01*
X87764195Y-56532457D01*
X87717278Y-56585742D01*
X87649001Y-56605203D01*
X87581041Y-56584661D01*
X87535805Y-56532457D01*
X87519849Y-56498238D01*
X87519846Y-56498233D01*
X87517523Y-56493251D01*
X87386198Y-56305700D01*
X87224300Y-56143802D01*
X87219792Y-56140645D01*
X87219789Y-56140643D01*
X87141611Y-56085902D01*
X87036749Y-56012477D01*
X87031767Y-56010154D01*
X87031762Y-56010151D01*
X86834225Y-55918039D01*
X86834224Y-55918039D01*
X86829243Y-55915716D01*
X86823935Y-55914294D01*
X86823933Y-55914293D01*
X86613402Y-55857881D01*
X86613400Y-55857881D01*
X86608087Y-55856457D01*
X86380000Y-55836502D01*
X86151913Y-55856457D01*
X86146600Y-55857881D01*
X86146598Y-55857881D01*
X85936067Y-55914293D01*
X85936065Y-55914294D01*
X85930757Y-55915716D01*
X85925776Y-55918039D01*
X85925775Y-55918039D01*
X85728238Y-56010151D01*
X85728233Y-56010154D01*
X85723251Y-56012477D01*
X85618389Y-56085902D01*
X85540211Y-56140643D01*
X85540208Y-56140645D01*
X85535700Y-56143802D01*
X85373802Y-56305700D01*
X85242477Y-56493251D01*
X85240154Y-56498233D01*
X85240151Y-56498238D01*
X85206137Y-56571183D01*
X85145716Y-56700757D01*
X85144294Y-56706065D01*
X85144293Y-56706067D01*
X85110000Y-56834050D01*
X85086457Y-56921913D01*
X85066502Y-57150000D01*
X81364639Y-57150000D01*
X81435202Y-57106759D01*
X81435208Y-57106755D01*
X81439416Y-57104176D01*
X81619969Y-56949969D01*
X81774176Y-56769416D01*
X81776755Y-56765208D01*
X81776759Y-56765202D01*
X81895654Y-56571183D01*
X81898240Y-56566963D01*
X81928773Y-56493251D01*
X81987211Y-56352167D01*
X81987212Y-56352165D01*
X81989105Y-56347594D01*
X82008360Y-56267391D01*
X82043380Y-56121524D01*
X82043381Y-56121518D01*
X82044535Y-56116711D01*
X82063165Y-55880000D01*
X82044535Y-55643289D01*
X81989105Y-55412406D01*
X81898240Y-55193037D01*
X81895654Y-55188817D01*
X81776759Y-54994798D01*
X81776755Y-54994792D01*
X81774176Y-54990584D01*
X81619969Y-54810031D01*
X81439416Y-54655824D01*
X81435208Y-54653245D01*
X81435202Y-54653241D01*
X81241183Y-54534346D01*
X81236963Y-54531760D01*
X81232393Y-54529867D01*
X81232389Y-54529865D01*
X81022167Y-54442789D01*
X81022165Y-54442788D01*
X81017594Y-54440895D01*
X80937391Y-54421640D01*
X80791524Y-54386620D01*
X80791518Y-54386619D01*
X80786711Y-54385465D01*
X80550000Y-54366835D01*
X80313289Y-54385465D01*
X80308482Y-54386619D01*
X80308476Y-54386620D01*
X80162609Y-54421640D01*
X80082406Y-54440895D01*
X80077835Y-54442788D01*
X80077833Y-54442789D01*
X79867611Y-54529865D01*
X79867607Y-54529867D01*
X79863037Y-54531760D01*
X79858817Y-54534346D01*
X79664798Y-54653241D01*
X79664792Y-54653245D01*
X79660584Y-54655824D01*
X79480031Y-54810031D01*
X79325824Y-54990584D01*
X79323245Y-54994792D01*
X79323241Y-54994798D01*
X79204346Y-55188817D01*
X79201760Y-55193037D01*
X79110895Y-55412406D01*
X79055465Y-55643289D01*
X79036835Y-55880000D01*
X75563165Y-55880000D01*
X75544535Y-55643289D01*
X75489105Y-55412406D01*
X75398240Y-55193037D01*
X75395654Y-55188817D01*
X75276759Y-54994798D01*
X75276755Y-54994792D01*
X75274176Y-54990584D01*
X75119969Y-54810031D01*
X74939416Y-54655824D01*
X74935208Y-54653245D01*
X74935202Y-54653241D01*
X74741183Y-54534346D01*
X74736963Y-54531760D01*
X74732393Y-54529867D01*
X74732389Y-54529865D01*
X74522167Y-54442789D01*
X74522165Y-54442788D01*
X74517594Y-54440895D01*
X74437391Y-54421640D01*
X74291524Y-54386620D01*
X74291518Y-54386619D01*
X74286711Y-54385465D01*
X74050000Y-54366835D01*
X73813289Y-54385465D01*
X73808482Y-54386619D01*
X73808476Y-54386620D01*
X73662609Y-54421640D01*
X73582406Y-54440895D01*
X73577835Y-54442788D01*
X73577833Y-54442789D01*
X73367611Y-54529865D01*
X73367607Y-54529867D01*
X73363037Y-54531760D01*
X73358817Y-54534346D01*
X73164798Y-54653241D01*
X73164792Y-54653245D01*
X73160584Y-54655824D01*
X72980031Y-54810031D01*
X72825824Y-54990584D01*
X72823245Y-54994792D01*
X72823241Y-54994798D01*
X72704346Y-55188817D01*
X72701760Y-55193037D01*
X72610895Y-55412406D01*
X72555465Y-55643289D01*
X72536835Y-55880000D01*
X71513165Y-55880000D01*
X71494535Y-55643289D01*
X71439105Y-55412406D01*
X71348240Y-55193037D01*
X71345654Y-55188817D01*
X71226759Y-54994798D01*
X71226755Y-54994792D01*
X71224176Y-54990584D01*
X71069969Y-54810031D01*
X70889416Y-54655824D01*
X70885208Y-54653245D01*
X70885202Y-54653241D01*
X70691183Y-54534346D01*
X70686963Y-54531760D01*
X70682393Y-54529867D01*
X70682389Y-54529865D01*
X70472167Y-54442789D01*
X70472165Y-54442788D01*
X70467594Y-54440895D01*
X70387391Y-54421640D01*
X70241524Y-54386620D01*
X70241518Y-54386619D01*
X70236711Y-54385465D01*
X70000000Y-54366835D01*
X69763289Y-54385465D01*
X69758482Y-54386619D01*
X69758476Y-54386620D01*
X69612609Y-54421640D01*
X69532406Y-54440895D01*
X69527835Y-54442788D01*
X69527833Y-54442789D01*
X69317611Y-54529865D01*
X69317607Y-54529867D01*
X69313037Y-54531760D01*
X69308817Y-54534346D01*
X69114798Y-54653241D01*
X69114792Y-54653245D01*
X69110584Y-54655824D01*
X68930031Y-54810031D01*
X68775824Y-54990584D01*
X68773245Y-54994792D01*
X68773241Y-54994798D01*
X68654346Y-55188817D01*
X68651760Y-55193037D01*
X68560895Y-55412406D01*
X68505465Y-55643289D01*
X68486835Y-55880000D01*
X65013165Y-55880000D01*
X64994535Y-55643289D01*
X64939105Y-55412406D01*
X64848240Y-55193037D01*
X64845654Y-55188817D01*
X64726759Y-54994798D01*
X64726755Y-54994792D01*
X64724176Y-54990584D01*
X64569969Y-54810031D01*
X64389416Y-54655824D01*
X64385208Y-54653245D01*
X64385202Y-54653241D01*
X64191183Y-54534346D01*
X64186963Y-54531760D01*
X64182393Y-54529867D01*
X64182389Y-54529865D01*
X63972167Y-54442789D01*
X63972165Y-54442788D01*
X63967594Y-54440895D01*
X63887391Y-54421640D01*
X63741524Y-54386620D01*
X63741518Y-54386619D01*
X63736711Y-54385465D01*
X63500000Y-54366835D01*
X63263289Y-54385465D01*
X63258482Y-54386619D01*
X63258476Y-54386620D01*
X63112609Y-54421640D01*
X63032406Y-54440895D01*
X63027835Y-54442788D01*
X63027833Y-54442789D01*
X62817611Y-54529865D01*
X62817607Y-54529867D01*
X62813037Y-54531760D01*
X62808817Y-54534346D01*
X62614798Y-54653241D01*
X62614792Y-54653245D01*
X62610584Y-54655824D01*
X62430031Y-54810031D01*
X62275824Y-54990584D01*
X62273245Y-54994792D01*
X62273241Y-54994798D01*
X62154346Y-55188817D01*
X62151760Y-55193037D01*
X62060895Y-55412406D01*
X62005465Y-55643289D01*
X61986835Y-55880000D01*
X61468500Y-55880000D01*
X61468500Y-51331695D01*
X64672251Y-51331695D01*
X64672548Y-51336848D01*
X64672548Y-51336851D01*
X64678011Y-51431590D01*
X64685110Y-51554715D01*
X64686247Y-51559761D01*
X64686248Y-51559767D01*
X64706119Y-51647939D01*
X64734222Y-51772639D01*
X64818266Y-51979616D01*
X64869019Y-52062438D01*
X64932291Y-52165688D01*
X64934987Y-52170088D01*
X65081250Y-52338938D01*
X65253126Y-52481632D01*
X65446000Y-52594338D01*
X65654692Y-52674030D01*
X65659760Y-52675061D01*
X65659763Y-52675062D01*
X65767017Y-52696883D01*
X65873597Y-52718567D01*
X65878772Y-52718757D01*
X65878774Y-52718757D01*
X66091673Y-52726564D01*
X66091677Y-52726564D01*
X66096837Y-52726753D01*
X66101957Y-52726097D01*
X66101959Y-52726097D01*
X66313288Y-52699025D01*
X66313289Y-52699025D01*
X66318416Y-52698368D01*
X66323366Y-52696883D01*
X66527429Y-52635661D01*
X66527434Y-52635659D01*
X66532384Y-52634174D01*
X66732994Y-52535896D01*
X66914860Y-52406173D01*
X67073096Y-52248489D01*
X67132594Y-52165689D01*
X67203453Y-52067077D01*
X67204776Y-52068028D01*
X67251645Y-52024857D01*
X67321580Y-52012625D01*
X67387026Y-52040144D01*
X67414875Y-52071994D01*
X67474987Y-52170088D01*
X67621250Y-52338938D01*
X67793126Y-52481632D01*
X67986000Y-52594338D01*
X68194692Y-52674030D01*
X68199760Y-52675061D01*
X68199763Y-52675062D01*
X68307017Y-52696883D01*
X68413597Y-52718567D01*
X68418772Y-52718757D01*
X68418774Y-52718757D01*
X68631673Y-52726564D01*
X68631677Y-52726564D01*
X68636837Y-52726753D01*
X68641957Y-52726097D01*
X68641959Y-52726097D01*
X68853288Y-52699025D01*
X68853289Y-52699025D01*
X68858416Y-52698368D01*
X68863366Y-52696883D01*
X69067429Y-52635661D01*
X69067434Y-52635659D01*
X69072384Y-52634174D01*
X69272994Y-52535896D01*
X69454860Y-52406173D01*
X69613096Y-52248489D01*
X69672594Y-52165689D01*
X69743453Y-52067077D01*
X69744776Y-52068028D01*
X69791645Y-52024857D01*
X69861580Y-52012625D01*
X69927026Y-52040144D01*
X69954875Y-52071994D01*
X70014987Y-52170088D01*
X70161250Y-52338938D01*
X70333126Y-52481632D01*
X70526000Y-52594338D01*
X70734692Y-52674030D01*
X70739760Y-52675061D01*
X70739763Y-52675062D01*
X70847017Y-52696883D01*
X70953597Y-52718567D01*
X70958772Y-52718757D01*
X70958774Y-52718757D01*
X71171673Y-52726564D01*
X71171677Y-52726564D01*
X71176837Y-52726753D01*
X71181957Y-52726097D01*
X71181959Y-52726097D01*
X71393288Y-52699025D01*
X71393289Y-52699025D01*
X71398416Y-52698368D01*
X71403366Y-52696883D01*
X71607429Y-52635661D01*
X71607434Y-52635659D01*
X71612384Y-52634174D01*
X71812994Y-52535896D01*
X71994860Y-52406173D01*
X72153096Y-52248489D01*
X72212594Y-52165689D01*
X72283453Y-52067077D01*
X72284776Y-52068028D01*
X72331645Y-52024857D01*
X72401580Y-52012625D01*
X72467026Y-52040144D01*
X72494875Y-52071994D01*
X72554987Y-52170088D01*
X72701250Y-52338938D01*
X72873126Y-52481632D01*
X73066000Y-52594338D01*
X73274692Y-52674030D01*
X73279760Y-52675061D01*
X73279763Y-52675062D01*
X73387017Y-52696883D01*
X73493597Y-52718567D01*
X73498772Y-52718757D01*
X73498774Y-52718757D01*
X73711673Y-52726564D01*
X73711677Y-52726564D01*
X73716837Y-52726753D01*
X73721957Y-52726097D01*
X73721959Y-52726097D01*
X73933288Y-52699025D01*
X73933289Y-52699025D01*
X73938416Y-52698368D01*
X73943366Y-52696883D01*
X74147429Y-52635661D01*
X74147434Y-52635659D01*
X74152384Y-52634174D01*
X74352994Y-52535896D01*
X74534860Y-52406173D01*
X74693096Y-52248489D01*
X74752594Y-52165689D01*
X74823453Y-52067077D01*
X74824776Y-52068028D01*
X74871645Y-52024857D01*
X74941580Y-52012625D01*
X75007026Y-52040144D01*
X75034875Y-52071994D01*
X75094987Y-52170088D01*
X75241250Y-52338938D01*
X75413126Y-52481632D01*
X75606000Y-52594338D01*
X75814692Y-52674030D01*
X75819760Y-52675061D01*
X75819763Y-52675062D01*
X75927017Y-52696883D01*
X76033597Y-52718567D01*
X76038772Y-52718757D01*
X76038774Y-52718757D01*
X76251673Y-52726564D01*
X76251677Y-52726564D01*
X76256837Y-52726753D01*
X76261957Y-52726097D01*
X76261959Y-52726097D01*
X76473288Y-52699025D01*
X76473289Y-52699025D01*
X76478416Y-52698368D01*
X76483366Y-52696883D01*
X76687429Y-52635661D01*
X76687434Y-52635659D01*
X76692384Y-52634174D01*
X76892994Y-52535896D01*
X77074860Y-52406173D01*
X77233096Y-52248489D01*
X77292594Y-52165689D01*
X77363453Y-52067077D01*
X77364776Y-52068028D01*
X77411645Y-52024857D01*
X77481580Y-52012625D01*
X77547026Y-52040144D01*
X77574875Y-52071994D01*
X77634987Y-52170088D01*
X77781250Y-52338938D01*
X77953126Y-52481632D01*
X78146000Y-52594338D01*
X78354692Y-52674030D01*
X78359760Y-52675061D01*
X78359763Y-52675062D01*
X78467017Y-52696883D01*
X78573597Y-52718567D01*
X78578772Y-52718757D01*
X78578774Y-52718757D01*
X78791673Y-52726564D01*
X78791677Y-52726564D01*
X78796837Y-52726753D01*
X78801957Y-52726097D01*
X78801959Y-52726097D01*
X79013288Y-52699025D01*
X79013289Y-52699025D01*
X79018416Y-52698368D01*
X79023366Y-52696883D01*
X79227429Y-52635661D01*
X79227434Y-52635659D01*
X79232384Y-52634174D01*
X79432994Y-52535896D01*
X79614860Y-52406173D01*
X79773096Y-52248489D01*
X79832594Y-52165689D01*
X79903453Y-52067077D01*
X79904776Y-52068028D01*
X79951645Y-52024857D01*
X80021580Y-52012625D01*
X80087026Y-52040144D01*
X80114875Y-52071994D01*
X80174987Y-52170088D01*
X80321250Y-52338938D01*
X80493126Y-52481632D01*
X80686000Y-52594338D01*
X80894692Y-52674030D01*
X80899760Y-52675061D01*
X80899763Y-52675062D01*
X81007017Y-52696883D01*
X81113597Y-52718567D01*
X81118772Y-52718757D01*
X81118774Y-52718757D01*
X81331673Y-52726564D01*
X81331677Y-52726564D01*
X81336837Y-52726753D01*
X81341957Y-52726097D01*
X81341959Y-52726097D01*
X81553288Y-52699025D01*
X81553289Y-52699025D01*
X81558416Y-52698368D01*
X81563366Y-52696883D01*
X81767429Y-52635661D01*
X81767434Y-52635659D01*
X81772384Y-52634174D01*
X81972994Y-52535896D01*
X82154860Y-52406173D01*
X82313096Y-52248489D01*
X82372594Y-52165689D01*
X82443453Y-52067077D01*
X82444776Y-52068028D01*
X82491645Y-52024857D01*
X82561580Y-52012625D01*
X82627026Y-52040144D01*
X82654875Y-52071994D01*
X82714987Y-52170088D01*
X82861250Y-52338938D01*
X83033126Y-52481632D01*
X83226000Y-52594338D01*
X83434692Y-52674030D01*
X83439760Y-52675061D01*
X83439763Y-52675062D01*
X83547017Y-52696883D01*
X83653597Y-52718567D01*
X83658772Y-52718757D01*
X83658774Y-52718757D01*
X83871673Y-52726564D01*
X83871677Y-52726564D01*
X83876837Y-52726753D01*
X83881957Y-52726097D01*
X83881959Y-52726097D01*
X84093288Y-52699025D01*
X84093289Y-52699025D01*
X84098416Y-52698368D01*
X84103366Y-52696883D01*
X84307429Y-52635661D01*
X84307434Y-52635659D01*
X84312384Y-52634174D01*
X84512994Y-52535896D01*
X84694860Y-52406173D01*
X84853096Y-52248489D01*
X84912594Y-52165689D01*
X84980435Y-52071277D01*
X84983453Y-52067077D01*
X85004320Y-52024857D01*
X85080136Y-51871453D01*
X85080137Y-51871451D01*
X85082430Y-51866811D01*
X85147370Y-51653069D01*
X85176529Y-51431590D01*
X85178156Y-51365000D01*
X85175418Y-51331695D01*
X87532251Y-51331695D01*
X87532548Y-51336848D01*
X87532548Y-51336851D01*
X87538011Y-51431590D01*
X87545110Y-51554715D01*
X87546247Y-51559761D01*
X87546248Y-51559767D01*
X87566119Y-51647939D01*
X87594222Y-51772639D01*
X87678266Y-51979616D01*
X87729019Y-52062438D01*
X87792291Y-52165688D01*
X87794987Y-52170088D01*
X87941250Y-52338938D01*
X88113126Y-52481632D01*
X88306000Y-52594338D01*
X88514692Y-52674030D01*
X88519760Y-52675061D01*
X88519763Y-52675062D01*
X88627017Y-52696883D01*
X88733597Y-52718567D01*
X88738772Y-52718757D01*
X88738774Y-52718757D01*
X88951673Y-52726564D01*
X88951677Y-52726564D01*
X88956837Y-52726753D01*
X88961957Y-52726097D01*
X88961959Y-52726097D01*
X89173288Y-52699025D01*
X89173289Y-52699025D01*
X89178416Y-52698368D01*
X89183366Y-52696883D01*
X89387429Y-52635661D01*
X89387434Y-52635659D01*
X89392384Y-52634174D01*
X89592994Y-52535896D01*
X89774860Y-52406173D01*
X89933096Y-52248489D01*
X89992594Y-52165689D01*
X90063453Y-52067077D01*
X90064776Y-52068028D01*
X90111645Y-52024857D01*
X90181580Y-52012625D01*
X90247026Y-52040144D01*
X90274875Y-52071994D01*
X90334987Y-52170088D01*
X90481250Y-52338938D01*
X90653126Y-52481632D01*
X90846000Y-52594338D01*
X91054692Y-52674030D01*
X91059760Y-52675061D01*
X91059763Y-52675062D01*
X91167017Y-52696883D01*
X91273597Y-52718567D01*
X91278772Y-52718757D01*
X91278774Y-52718757D01*
X91491673Y-52726564D01*
X91491677Y-52726564D01*
X91496837Y-52726753D01*
X91501957Y-52726097D01*
X91501959Y-52726097D01*
X91713288Y-52699025D01*
X91713289Y-52699025D01*
X91718416Y-52698368D01*
X91723366Y-52696883D01*
X91927429Y-52635661D01*
X91927434Y-52635659D01*
X91932384Y-52634174D01*
X92132994Y-52535896D01*
X92314860Y-52406173D01*
X92473096Y-52248489D01*
X92532594Y-52165689D01*
X92600435Y-52071277D01*
X92603453Y-52067077D01*
X92624320Y-52024857D01*
X92700136Y-51871453D01*
X92700137Y-51871451D01*
X92702430Y-51866811D01*
X92767370Y-51653069D01*
X92796529Y-51431590D01*
X92798156Y-51365000D01*
X92779852Y-51142361D01*
X92725431Y-50925702D01*
X92636354Y-50720840D01*
X92515014Y-50533277D01*
X92364670Y-50368051D01*
X92360619Y-50364852D01*
X92360615Y-50364848D01*
X92193414Y-50232800D01*
X92193410Y-50232798D01*
X92189359Y-50229598D01*
X91993789Y-50121638D01*
X91988920Y-50119914D01*
X91988916Y-50119912D01*
X91788087Y-50048795D01*
X91788083Y-50048794D01*
X91783212Y-50047069D01*
X91778119Y-50046162D01*
X91778116Y-50046161D01*
X91568373Y-50008800D01*
X91568367Y-50008799D01*
X91563284Y-50007894D01*
X91489452Y-50006992D01*
X91345081Y-50005228D01*
X91345079Y-50005228D01*
X91339911Y-50005165D01*
X91119091Y-50038955D01*
X90906756Y-50108357D01*
X90708607Y-50211507D01*
X90704474Y-50214610D01*
X90704471Y-50214612D01*
X90680247Y-50232800D01*
X90529965Y-50345635D01*
X90375629Y-50507138D01*
X90268201Y-50664621D01*
X90213293Y-50709621D01*
X90142768Y-50717792D01*
X90079021Y-50686538D01*
X90058324Y-50662054D01*
X89977822Y-50537617D01*
X89977820Y-50537614D01*
X89975014Y-50533277D01*
X89824670Y-50368051D01*
X89820619Y-50364852D01*
X89820615Y-50364848D01*
X89653414Y-50232800D01*
X89653410Y-50232798D01*
X89649359Y-50229598D01*
X89453789Y-50121638D01*
X89448920Y-50119914D01*
X89448916Y-50119912D01*
X89248087Y-50048795D01*
X89248083Y-50048794D01*
X89243212Y-50047069D01*
X89238119Y-50046162D01*
X89238116Y-50046161D01*
X89028373Y-50008800D01*
X89028367Y-50008799D01*
X89023284Y-50007894D01*
X88949452Y-50006992D01*
X88805081Y-50005228D01*
X88805079Y-50005228D01*
X88799911Y-50005165D01*
X88579091Y-50038955D01*
X88366756Y-50108357D01*
X88168607Y-50211507D01*
X88164474Y-50214610D01*
X88164471Y-50214612D01*
X88140247Y-50232800D01*
X87989965Y-50345635D01*
X87835629Y-50507138D01*
X87709743Y-50691680D01*
X87615688Y-50894305D01*
X87555989Y-51109570D01*
X87532251Y-51331695D01*
X85175418Y-51331695D01*
X85159852Y-51142361D01*
X85105431Y-50925702D01*
X85016354Y-50720840D01*
X84895014Y-50533277D01*
X84744670Y-50368051D01*
X84740619Y-50364852D01*
X84740615Y-50364848D01*
X84573414Y-50232800D01*
X84573410Y-50232798D01*
X84569359Y-50229598D01*
X84373789Y-50121638D01*
X84368920Y-50119914D01*
X84368916Y-50119912D01*
X84168087Y-50048795D01*
X84168083Y-50048794D01*
X84163212Y-50047069D01*
X84158119Y-50046162D01*
X84158116Y-50046161D01*
X83948373Y-50008800D01*
X83948367Y-50008799D01*
X83943284Y-50007894D01*
X83869452Y-50006992D01*
X83725081Y-50005228D01*
X83725079Y-50005228D01*
X83719911Y-50005165D01*
X83499091Y-50038955D01*
X83286756Y-50108357D01*
X83088607Y-50211507D01*
X83084474Y-50214610D01*
X83084471Y-50214612D01*
X83060247Y-50232800D01*
X82909965Y-50345635D01*
X82755629Y-50507138D01*
X82648201Y-50664621D01*
X82593293Y-50709621D01*
X82522768Y-50717792D01*
X82459021Y-50686538D01*
X82438324Y-50662054D01*
X82357822Y-50537617D01*
X82357820Y-50537614D01*
X82355014Y-50533277D01*
X82204670Y-50368051D01*
X82200619Y-50364852D01*
X82200615Y-50364848D01*
X82033414Y-50232800D01*
X82033410Y-50232798D01*
X82029359Y-50229598D01*
X81833789Y-50121638D01*
X81828920Y-50119914D01*
X81828916Y-50119912D01*
X81628087Y-50048795D01*
X81628083Y-50048794D01*
X81623212Y-50047069D01*
X81618119Y-50046162D01*
X81618116Y-50046161D01*
X81408373Y-50008800D01*
X81408367Y-50008799D01*
X81403284Y-50007894D01*
X81329452Y-50006992D01*
X81185081Y-50005228D01*
X81185079Y-50005228D01*
X81179911Y-50005165D01*
X80959091Y-50038955D01*
X80746756Y-50108357D01*
X80548607Y-50211507D01*
X80544474Y-50214610D01*
X80544471Y-50214612D01*
X80520247Y-50232800D01*
X80369965Y-50345635D01*
X80215629Y-50507138D01*
X80108201Y-50664621D01*
X80053293Y-50709621D01*
X79982768Y-50717792D01*
X79919021Y-50686538D01*
X79898324Y-50662054D01*
X79817822Y-50537617D01*
X79817820Y-50537614D01*
X79815014Y-50533277D01*
X79664670Y-50368051D01*
X79660619Y-50364852D01*
X79660615Y-50364848D01*
X79493414Y-50232800D01*
X79493410Y-50232798D01*
X79489359Y-50229598D01*
X79293789Y-50121638D01*
X79288920Y-50119914D01*
X79288916Y-50119912D01*
X79088087Y-50048795D01*
X79088083Y-50048794D01*
X79083212Y-50047069D01*
X79078119Y-50046162D01*
X79078116Y-50046161D01*
X78868373Y-50008800D01*
X78868367Y-50008799D01*
X78863284Y-50007894D01*
X78789452Y-50006992D01*
X78645081Y-50005228D01*
X78645079Y-50005228D01*
X78639911Y-50005165D01*
X78419091Y-50038955D01*
X78206756Y-50108357D01*
X78008607Y-50211507D01*
X78004474Y-50214610D01*
X78004471Y-50214612D01*
X77980247Y-50232800D01*
X77829965Y-50345635D01*
X77675629Y-50507138D01*
X77568201Y-50664621D01*
X77513293Y-50709621D01*
X77442768Y-50717792D01*
X77379021Y-50686538D01*
X77358324Y-50662054D01*
X77277822Y-50537617D01*
X77277820Y-50537614D01*
X77275014Y-50533277D01*
X77124670Y-50368051D01*
X77120619Y-50364852D01*
X77120615Y-50364848D01*
X76953414Y-50232800D01*
X76953410Y-50232798D01*
X76949359Y-50229598D01*
X76753789Y-50121638D01*
X76748920Y-50119914D01*
X76748916Y-50119912D01*
X76548087Y-50048795D01*
X76548083Y-50048794D01*
X76543212Y-50047069D01*
X76538119Y-50046162D01*
X76538116Y-50046161D01*
X76328373Y-50008800D01*
X76328367Y-50008799D01*
X76323284Y-50007894D01*
X76249452Y-50006992D01*
X76105081Y-50005228D01*
X76105079Y-50005228D01*
X76099911Y-50005165D01*
X75879091Y-50038955D01*
X75666756Y-50108357D01*
X75468607Y-50211507D01*
X75464474Y-50214610D01*
X75464471Y-50214612D01*
X75440247Y-50232800D01*
X75289965Y-50345635D01*
X75135629Y-50507138D01*
X75028201Y-50664621D01*
X74973293Y-50709621D01*
X74902768Y-50717792D01*
X74839021Y-50686538D01*
X74818324Y-50662054D01*
X74737822Y-50537617D01*
X74737820Y-50537614D01*
X74735014Y-50533277D01*
X74584670Y-50368051D01*
X74580619Y-50364852D01*
X74580615Y-50364848D01*
X74413414Y-50232800D01*
X74413410Y-50232798D01*
X74409359Y-50229598D01*
X74213789Y-50121638D01*
X74208920Y-50119914D01*
X74208916Y-50119912D01*
X74008087Y-50048795D01*
X74008083Y-50048794D01*
X74003212Y-50047069D01*
X73998119Y-50046162D01*
X73998116Y-50046161D01*
X73788373Y-50008800D01*
X73788367Y-50008799D01*
X73783284Y-50007894D01*
X73709452Y-50006992D01*
X73565081Y-50005228D01*
X73565079Y-50005228D01*
X73559911Y-50005165D01*
X73339091Y-50038955D01*
X73126756Y-50108357D01*
X72928607Y-50211507D01*
X72924474Y-50214610D01*
X72924471Y-50214612D01*
X72900247Y-50232800D01*
X72749965Y-50345635D01*
X72595629Y-50507138D01*
X72488201Y-50664621D01*
X72433293Y-50709621D01*
X72362768Y-50717792D01*
X72299021Y-50686538D01*
X72278324Y-50662054D01*
X72197822Y-50537617D01*
X72197820Y-50537614D01*
X72195014Y-50533277D01*
X72044670Y-50368051D01*
X72040619Y-50364852D01*
X72040615Y-50364848D01*
X71873414Y-50232800D01*
X71873410Y-50232798D01*
X71869359Y-50229598D01*
X71673789Y-50121638D01*
X71668920Y-50119914D01*
X71668916Y-50119912D01*
X71468087Y-50048795D01*
X71468083Y-50048794D01*
X71463212Y-50047069D01*
X71458119Y-50046162D01*
X71458116Y-50046161D01*
X71248373Y-50008800D01*
X71248367Y-50008799D01*
X71243284Y-50007894D01*
X71169452Y-50006992D01*
X71025081Y-50005228D01*
X71025079Y-50005228D01*
X71019911Y-50005165D01*
X70799091Y-50038955D01*
X70586756Y-50108357D01*
X70388607Y-50211507D01*
X70384474Y-50214610D01*
X70384471Y-50214612D01*
X70360247Y-50232800D01*
X70209965Y-50345635D01*
X70055629Y-50507138D01*
X69948201Y-50664621D01*
X69893293Y-50709621D01*
X69822768Y-50717792D01*
X69759021Y-50686538D01*
X69738324Y-50662054D01*
X69657822Y-50537617D01*
X69657820Y-50537614D01*
X69655014Y-50533277D01*
X69504670Y-50368051D01*
X69500619Y-50364852D01*
X69500615Y-50364848D01*
X69333414Y-50232800D01*
X69333410Y-50232798D01*
X69329359Y-50229598D01*
X69133789Y-50121638D01*
X69128920Y-50119914D01*
X69128916Y-50119912D01*
X68928087Y-50048795D01*
X68928083Y-50048794D01*
X68923212Y-50047069D01*
X68918119Y-50046162D01*
X68918116Y-50046161D01*
X68708373Y-50008800D01*
X68708367Y-50008799D01*
X68703284Y-50007894D01*
X68629452Y-50006992D01*
X68485081Y-50005228D01*
X68485079Y-50005228D01*
X68479911Y-50005165D01*
X68259091Y-50038955D01*
X68046756Y-50108357D01*
X67848607Y-50211507D01*
X67844474Y-50214610D01*
X67844471Y-50214612D01*
X67820247Y-50232800D01*
X67669965Y-50345635D01*
X67515629Y-50507138D01*
X67408201Y-50664621D01*
X67353293Y-50709621D01*
X67282768Y-50717792D01*
X67219021Y-50686538D01*
X67198324Y-50662054D01*
X67117822Y-50537617D01*
X67117820Y-50537614D01*
X67115014Y-50533277D01*
X66964670Y-50368051D01*
X66960619Y-50364852D01*
X66960615Y-50364848D01*
X66793414Y-50232800D01*
X66793410Y-50232798D01*
X66789359Y-50229598D01*
X66593789Y-50121638D01*
X66588920Y-50119914D01*
X66588916Y-50119912D01*
X66388087Y-50048795D01*
X66388083Y-50048794D01*
X66383212Y-50047069D01*
X66378119Y-50046162D01*
X66378116Y-50046161D01*
X66168373Y-50008800D01*
X66168367Y-50008799D01*
X66163284Y-50007894D01*
X66089452Y-50006992D01*
X65945081Y-50005228D01*
X65945079Y-50005228D01*
X65939911Y-50005165D01*
X65719091Y-50038955D01*
X65506756Y-50108357D01*
X65308607Y-50211507D01*
X65304474Y-50214610D01*
X65304471Y-50214612D01*
X65280247Y-50232800D01*
X65129965Y-50345635D01*
X64975629Y-50507138D01*
X64849743Y-50691680D01*
X64755688Y-50894305D01*
X64695989Y-51109570D01*
X64672251Y-51331695D01*
X61468500Y-51331695D01*
X61468500Y-47624500D01*
X61488502Y-47556379D01*
X61542158Y-47509886D01*
X61594500Y-47498500D01*
X93345500Y-47498500D01*
X93413621Y-47518502D01*
G37*
%TD.AperFunction*%
%TD*%
M02*
