%TF.GenerationSoftware,KiCad,Pcbnew,(6.0.9-0)*%
%TF.CreationDate,2022-11-13T08:04:19-06:00*%
%TF.ProjectId,ProgramingAddOn,50726f67-7261-46d6-996e-674164644f6e,rev?*%
%TF.SameCoordinates,Original*%
%TF.FileFunction,Legend,Bot*%
%TF.FilePolarity,Positive*%
%FSLAX46Y46*%
G04 Gerber Fmt 4.6, Leading zero omitted, Abs format (unit mm)*
G04 Created by KiCad (PCBNEW (6.0.9-0)) date 2022-11-13 08:04:19*
%MOMM*%
%LPD*%
G01*
G04 APERTURE LIST*
%ADD10C,0.100000*%
%ADD11C,0.150000*%
%ADD12C,0.120000*%
G04 APERTURE END LIST*
D10*
X88201311Y-81603536D02*
X88420177Y-81822402D01*
X88437013Y-81569864D01*
X88487521Y-81620372D01*
X88538028Y-81637208D01*
X88571700Y-81637208D01*
X88622208Y-81620372D01*
X88706387Y-81536192D01*
X88723223Y-81485685D01*
X88723223Y-81452013D01*
X88706387Y-81401505D01*
X88605372Y-81300490D01*
X88554864Y-81283654D01*
X88521192Y-81283654D01*
X88891582Y-81654043D02*
X88925253Y-81654043D01*
X88925253Y-81620372D01*
X88891582Y-81620372D01*
X88891582Y-81654043D01*
X88925253Y-81620372D01*
X88706387Y-82108612D02*
X88925253Y-82327478D01*
X88942089Y-82074940D01*
X88992597Y-82125448D01*
X89043104Y-82142284D01*
X89076776Y-82142284D01*
X89127284Y-82125448D01*
X89211463Y-82041269D01*
X89228299Y-81990761D01*
X89228299Y-81957089D01*
X89211463Y-81906582D01*
X89110448Y-81805566D01*
X89059940Y-81788730D01*
X89026269Y-81788730D01*
X89160956Y-82327478D02*
X89480837Y-82175956D01*
X89329314Y-82495837D01*
X65213794Y-81185349D02*
X64860241Y-81538902D01*
X65146451Y-81589410D02*
X65382153Y-81353707D01*
X65180123Y-81555738D02*
X65180123Y-81589410D01*
X65196958Y-81639917D01*
X65247466Y-81690425D01*
X65297974Y-81707261D01*
X65348481Y-81690425D01*
X65533676Y-81505230D01*
X65567348Y-81808276D02*
X65836722Y-82077650D01*
X65752542Y-82431204D02*
X65971409Y-82650070D01*
X65988245Y-82397532D01*
X66038752Y-82448039D01*
X66089260Y-82464875D01*
X66122932Y-82464875D01*
X66173439Y-82448039D01*
X66257619Y-82363860D01*
X66274455Y-82313352D01*
X66274455Y-82279681D01*
X66257619Y-82229173D01*
X66156603Y-82128158D01*
X66106096Y-82111322D01*
X66072424Y-82111322D01*
X66304928Y-80868666D02*
X66271256Y-80868666D01*
X66187076Y-80885502D01*
X66136569Y-80902338D01*
X66069225Y-80936009D01*
X65968210Y-81003353D01*
X65900866Y-81070696D01*
X65833523Y-81171712D01*
X65799851Y-81239055D01*
X65783015Y-81289563D01*
X65766179Y-81373742D01*
X65766179Y-81407414D01*
X66018718Y-81323234D02*
X66153405Y-81457922D01*
X65951374Y-81491593D02*
X66254420Y-81188547D01*
X66304928Y-81171712D01*
X66355435Y-81188547D01*
X66389107Y-81222219D01*
X66473286Y-81306399D02*
X66422779Y-81727296D01*
X66237584Y-81542101D02*
X66658481Y-81491593D01*
X66894183Y-81457922D02*
X66894183Y-81491593D01*
X66877347Y-81575773D01*
X66860511Y-81626280D01*
X66826840Y-81693624D01*
X66759496Y-81794639D01*
X66692153Y-81861983D01*
X66591137Y-81929326D01*
X66523794Y-81962998D01*
X66473286Y-81979834D01*
X66389107Y-81996670D01*
X66355435Y-81996670D01*
X91406328Y-81561446D02*
X91120118Y-81611954D01*
X91204297Y-81359416D02*
X90850744Y-81712969D01*
X90985431Y-81847656D01*
X91035938Y-81864492D01*
X91069610Y-81864492D01*
X91120118Y-81847656D01*
X91170625Y-81797148D01*
X91187461Y-81746641D01*
X91187461Y-81712969D01*
X91170625Y-81662461D01*
X91035938Y-81527774D01*
X91524179Y-81712969D02*
X91591522Y-81746641D01*
X91675702Y-81830820D01*
X91692538Y-81881328D01*
X91692538Y-81915000D01*
X91675702Y-81965507D01*
X91642030Y-81999179D01*
X91591522Y-82016015D01*
X91557851Y-82016015D01*
X91507343Y-81999179D01*
X91423164Y-81948671D01*
X91372656Y-81931835D01*
X91338984Y-81931835D01*
X91288477Y-81948671D01*
X91254805Y-81982343D01*
X91237969Y-82032851D01*
X91237969Y-82066522D01*
X91254805Y-82117030D01*
X91338984Y-82201209D01*
X91406328Y-82234881D01*
X91490507Y-82352732D02*
X91692538Y-82554763D01*
X91945076Y-82100194D02*
X91591522Y-82453748D01*
X85913849Y-81822402D02*
X85863341Y-81805566D01*
X85812834Y-81755059D01*
X85779162Y-81687715D01*
X85779162Y-81620372D01*
X85795998Y-81569864D01*
X85846505Y-81485685D01*
X85897013Y-81435177D01*
X85981192Y-81384669D01*
X86031700Y-81367834D01*
X86099043Y-81367834D01*
X86166387Y-81401505D01*
X86200059Y-81435177D01*
X86233730Y-81502521D01*
X86233730Y-81536192D01*
X86115879Y-81654043D01*
X86048536Y-81586700D01*
X86418925Y-81654043D02*
X86065372Y-82007597D01*
X86620956Y-81856074D01*
X86267402Y-82209627D01*
X86789314Y-82024433D02*
X86435761Y-82377986D01*
X86519940Y-82462165D01*
X86587284Y-82495837D01*
X86654627Y-82495837D01*
X86705135Y-82479001D01*
X86789314Y-82428494D01*
X86839822Y-82377986D01*
X86890330Y-82293807D01*
X86907165Y-82243299D01*
X86907165Y-82175956D01*
X86873494Y-82108612D01*
X86789314Y-82024433D01*
X63053849Y-48802402D02*
X63003341Y-48785566D01*
X62952834Y-48735059D01*
X62919162Y-48667715D01*
X62919162Y-48600372D01*
X62935998Y-48549864D01*
X62986505Y-48465685D01*
X63037013Y-48415177D01*
X63121192Y-48364669D01*
X63171700Y-48347834D01*
X63239043Y-48347834D01*
X63306387Y-48381505D01*
X63340059Y-48415177D01*
X63373730Y-48482521D01*
X63373730Y-48516192D01*
X63255879Y-48634043D01*
X63188536Y-48566700D01*
X63558925Y-48634043D02*
X63205372Y-48987597D01*
X63760956Y-48836074D01*
X63407402Y-49189627D01*
X63929314Y-49004433D02*
X63575761Y-49357986D01*
X63659940Y-49442165D01*
X63727284Y-49475837D01*
X63794627Y-49475837D01*
X63845135Y-49459001D01*
X63929314Y-49408494D01*
X63979822Y-49357986D01*
X64030330Y-49273807D01*
X64047165Y-49223299D01*
X64047165Y-49155956D01*
X64013494Y-49088612D01*
X63929314Y-49004433D01*
X75214750Y-81112730D02*
X75282093Y-81180074D01*
X75332601Y-81196909D01*
X75399945Y-81196909D01*
X75484124Y-81146402D01*
X75601975Y-81028551D01*
X75652483Y-80944371D01*
X75652483Y-80877028D01*
X75635647Y-80826520D01*
X75568303Y-80759177D01*
X75517796Y-80742341D01*
X75450452Y-80742341D01*
X75366273Y-80792848D01*
X75248422Y-80910700D01*
X75197914Y-80994879D01*
X75197914Y-81062222D01*
X75214750Y-81112730D01*
X75787170Y-81449448D02*
X76022872Y-81213745D01*
X75635647Y-81297925D02*
X75820841Y-81112730D01*
X75871349Y-81095894D01*
X75921857Y-81112730D01*
X75972364Y-81163238D01*
X75989200Y-81213745D01*
X75989200Y-81247417D01*
X75905021Y-81567299D02*
X76039708Y-81701986D01*
X75837677Y-81735658D02*
X76140723Y-81432612D01*
X76191231Y-81415776D01*
X76241738Y-81432612D01*
X76275410Y-81466283D01*
X76258574Y-81718822D02*
X76527948Y-81988196D01*
X76443769Y-82341749D02*
X76662635Y-82560615D01*
X76679471Y-82308077D01*
X76729979Y-82358585D01*
X76780486Y-82375421D01*
X76814158Y-82375421D01*
X76864666Y-82358585D01*
X76948845Y-82274406D01*
X76965681Y-82223898D01*
X76965681Y-82190226D01*
X76948845Y-82139719D01*
X76847830Y-82038703D01*
X76797322Y-82021867D01*
X76763651Y-82021867D01*
X82944534Y-48406759D02*
X83011877Y-48474103D01*
X83062385Y-48490938D01*
X83129729Y-48490938D01*
X83213908Y-48440431D01*
X83331759Y-48322580D01*
X83382267Y-48238400D01*
X83382267Y-48171057D01*
X83365431Y-48120549D01*
X83298087Y-48053206D01*
X83247580Y-48036370D01*
X83180236Y-48036370D01*
X83096057Y-48086877D01*
X82978206Y-48204729D01*
X82927698Y-48288908D01*
X82927698Y-48356251D01*
X82944534Y-48406759D01*
X83516954Y-48743477D02*
X83752656Y-48507774D01*
X83365431Y-48591954D02*
X83550625Y-48406759D01*
X83601133Y-48389923D01*
X83651641Y-48406759D01*
X83702148Y-48457267D01*
X83718984Y-48507774D01*
X83718984Y-48541446D01*
X83634805Y-48861328D02*
X83769492Y-48996015D01*
X83567461Y-49029687D02*
X83870507Y-48726641D01*
X83921015Y-48709805D01*
X83971522Y-48726641D01*
X84005194Y-48760312D01*
X83988358Y-49012851D02*
X84257732Y-49282225D01*
X84274568Y-49736793D02*
X84308240Y-49770465D01*
X84358748Y-49787301D01*
X84392419Y-49787301D01*
X84442927Y-49770465D01*
X84527106Y-49719957D01*
X84611286Y-49635778D01*
X84661793Y-49551599D01*
X84678629Y-49501091D01*
X84678629Y-49467419D01*
X84661793Y-49416912D01*
X84628122Y-49383240D01*
X84577614Y-49366404D01*
X84543942Y-49366404D01*
X84493435Y-49383240D01*
X84409255Y-49433748D01*
X84325076Y-49517927D01*
X84274568Y-49602106D01*
X84257732Y-49652614D01*
X84257732Y-49686286D01*
X84274568Y-49736793D01*
X88201311Y-48583536D02*
X88420177Y-48802402D01*
X88437013Y-48549864D01*
X88487521Y-48600372D01*
X88538028Y-48617208D01*
X88571700Y-48617208D01*
X88622208Y-48600372D01*
X88706387Y-48516192D01*
X88723223Y-48465685D01*
X88723223Y-48432013D01*
X88706387Y-48381505D01*
X88605372Y-48280490D01*
X88554864Y-48263654D01*
X88521192Y-48263654D01*
X88891582Y-48634043D02*
X88925253Y-48634043D01*
X88925253Y-48600372D01*
X88891582Y-48600372D01*
X88891582Y-48634043D01*
X88925253Y-48600372D01*
X88706387Y-49088612D02*
X88925253Y-49307478D01*
X88942089Y-49054940D01*
X88992597Y-49105448D01*
X89043104Y-49122284D01*
X89076776Y-49122284D01*
X89127284Y-49105448D01*
X89211463Y-49021269D01*
X89228299Y-48970761D01*
X89228299Y-48937089D01*
X89211463Y-48886582D01*
X89110448Y-48785566D01*
X89059940Y-48768730D01*
X89026269Y-48768730D01*
X89160956Y-49307478D02*
X89480837Y-49155956D01*
X89329314Y-49475837D01*
D11*
X83993809Y-77239761D02*
X84089047Y-77287380D01*
X84279523Y-77287380D01*
X84374761Y-77239761D01*
X84422380Y-77144523D01*
X84422380Y-76763571D01*
X84374761Y-76668333D01*
X84279523Y-76620714D01*
X84089047Y-76620714D01*
X83993809Y-76668333D01*
X83946190Y-76763571D01*
X83946190Y-76858809D01*
X84422380Y-76954047D01*
X83517619Y-77287380D02*
X83517619Y-76620714D01*
X83517619Y-76811190D02*
X83470000Y-76715952D01*
X83422380Y-76668333D01*
X83327142Y-76620714D01*
X83231904Y-76620714D01*
X82898571Y-77287380D02*
X82898571Y-76620714D01*
X82898571Y-76287380D02*
X82946190Y-76335000D01*
X82898571Y-76382619D01*
X82850952Y-76335000D01*
X82898571Y-76287380D01*
X82898571Y-76382619D01*
X81993809Y-77239761D02*
X82089047Y-77287380D01*
X82279523Y-77287380D01*
X82374761Y-77239761D01*
X82422380Y-77192142D01*
X82470000Y-77096904D01*
X82470000Y-76811190D01*
X82422380Y-76715952D01*
X82374761Y-76668333D01*
X82279523Y-76620714D01*
X82089047Y-76620714D01*
X81993809Y-76668333D01*
X80946190Y-76811190D02*
X80993809Y-76763571D01*
X81089047Y-76715952D01*
X81184285Y-76715952D01*
X81279523Y-76763571D01*
X81327142Y-76811190D01*
X81374761Y-76906428D01*
X81374761Y-77001666D01*
X81327142Y-77096904D01*
X81279523Y-77144523D01*
X81184285Y-77192142D01*
X81089047Y-77192142D01*
X80993809Y-77144523D01*
X80946190Y-77096904D01*
X80946190Y-76715952D02*
X80946190Y-77096904D01*
X80898571Y-77144523D01*
X80850952Y-77144523D01*
X80755714Y-77096904D01*
X80708095Y-77001666D01*
X80708095Y-76763571D01*
X80803333Y-76620714D01*
X80946190Y-76525476D01*
X81136666Y-76477857D01*
X81327142Y-76525476D01*
X81470000Y-76620714D01*
X81565238Y-76763571D01*
X81612857Y-76954047D01*
X81565238Y-77144523D01*
X81470000Y-77287380D01*
X81327142Y-77382619D01*
X81136666Y-77430238D01*
X80946190Y-77382619D01*
X80803333Y-77287380D01*
X79850952Y-77287380D02*
X79850952Y-76287380D01*
X79850952Y-77239761D02*
X79946190Y-77287380D01*
X80136666Y-77287380D01*
X80231904Y-77239761D01*
X80279523Y-77192142D01*
X80327142Y-77096904D01*
X80327142Y-76811190D01*
X80279523Y-76715952D01*
X80231904Y-76668333D01*
X80136666Y-76620714D01*
X79946190Y-76620714D01*
X79850952Y-76668333D01*
X79470000Y-76620714D02*
X79231904Y-77287380D01*
X78993809Y-76620714D02*
X79231904Y-77287380D01*
X79327142Y-77525476D01*
X79374761Y-77573095D01*
X79470000Y-77620714D01*
X78612857Y-76620714D02*
X78612857Y-77287380D01*
X78612857Y-76715952D02*
X78565238Y-76668333D01*
X78470000Y-76620714D01*
X78327142Y-76620714D01*
X78231904Y-76668333D01*
X78184285Y-76763571D01*
X78184285Y-77287380D01*
X77565238Y-77287380D02*
X77660476Y-77239761D01*
X77708095Y-77192142D01*
X77755714Y-77096904D01*
X77755714Y-76811190D01*
X77708095Y-76715952D01*
X77660476Y-76668333D01*
X77565238Y-76620714D01*
X77422380Y-76620714D01*
X77327142Y-76668333D01*
X77279523Y-76715952D01*
X77231904Y-76811190D01*
X77231904Y-77096904D01*
X77279523Y-77192142D01*
X77327142Y-77239761D01*
X77422380Y-77287380D01*
X77565238Y-77287380D01*
X76898571Y-76620714D02*
X76708095Y-77287380D01*
X76517619Y-76811190D01*
X76327142Y-77287380D01*
X76136666Y-76620714D01*
X75803333Y-77239761D02*
X75708095Y-77287380D01*
X75517619Y-77287380D01*
X75422380Y-77239761D01*
X75374761Y-77144523D01*
X75374761Y-77096904D01*
X75422380Y-77001666D01*
X75517619Y-76954047D01*
X75660476Y-76954047D01*
X75755714Y-76906428D01*
X75803333Y-76811190D01*
X75803333Y-76763571D01*
X75755714Y-76668333D01*
X75660476Y-76620714D01*
X75517619Y-76620714D01*
X75422380Y-76668333D01*
X74946190Y-77287380D02*
X74946190Y-76287380D01*
X74850952Y-76906428D02*
X74565238Y-77287380D01*
X74565238Y-76620714D02*
X74946190Y-77001666D01*
X74136666Y-77287380D02*
X74136666Y-76620714D01*
X74136666Y-76287380D02*
X74184285Y-76335000D01*
X74136666Y-76382619D01*
X74089047Y-76335000D01*
X74136666Y-76287380D01*
X74136666Y-76382619D01*
X73660476Y-77192142D02*
X73612857Y-77239761D01*
X73660476Y-77287380D01*
X73708095Y-77239761D01*
X73660476Y-77192142D01*
X73660476Y-77287380D01*
X72755714Y-77239761D02*
X72850952Y-77287380D01*
X73041428Y-77287380D01*
X73136666Y-77239761D01*
X73184285Y-77192142D01*
X73231904Y-77096904D01*
X73231904Y-76811190D01*
X73184285Y-76715952D01*
X73136666Y-76668333D01*
X73041428Y-76620714D01*
X72850952Y-76620714D01*
X72755714Y-76668333D01*
X72184285Y-77287380D02*
X72279523Y-77239761D01*
X72327142Y-77192142D01*
X72374761Y-77096904D01*
X72374761Y-76811190D01*
X72327142Y-76715952D01*
X72279523Y-76668333D01*
X72184285Y-76620714D01*
X72041428Y-76620714D01*
X71946190Y-76668333D01*
X71898571Y-76715952D01*
X71850952Y-76811190D01*
X71850952Y-77096904D01*
X71898571Y-77192142D01*
X71946190Y-77239761D01*
X72041428Y-77287380D01*
X72184285Y-77287380D01*
X71422380Y-77287380D02*
X71422380Y-76620714D01*
X71422380Y-76715952D02*
X71374761Y-76668333D01*
X71279523Y-76620714D01*
X71136666Y-76620714D01*
X71041428Y-76668333D01*
X70993809Y-76763571D01*
X70993809Y-77287380D01*
X70993809Y-76763571D02*
X70946190Y-76668333D01*
X70850952Y-76620714D01*
X70708095Y-76620714D01*
X70612857Y-76668333D01*
X70565238Y-76763571D01*
X70565238Y-77287380D01*
D10*
X80404534Y-81426759D02*
X80471877Y-81494103D01*
X80522385Y-81510938D01*
X80589729Y-81510938D01*
X80673908Y-81460431D01*
X80791759Y-81342580D01*
X80842267Y-81258400D01*
X80842267Y-81191057D01*
X80825431Y-81140549D01*
X80758087Y-81073206D01*
X80707580Y-81056370D01*
X80640236Y-81056370D01*
X80556057Y-81106877D01*
X80438206Y-81224729D01*
X80387698Y-81308908D01*
X80387698Y-81376251D01*
X80404534Y-81426759D01*
X80976954Y-81763477D02*
X81212656Y-81527774D01*
X80825431Y-81611954D02*
X81010625Y-81426759D01*
X81061133Y-81409923D01*
X81111641Y-81426759D01*
X81162148Y-81477267D01*
X81178984Y-81527774D01*
X81178984Y-81561446D01*
X81094805Y-81881328D02*
X81229492Y-82016015D01*
X81027461Y-82049687D02*
X81330507Y-81746641D01*
X81381015Y-81729805D01*
X81431522Y-81746641D01*
X81465194Y-81780312D01*
X81448358Y-82032851D02*
X81717732Y-82302225D01*
X82205973Y-82521091D02*
X82003942Y-82319061D01*
X82104957Y-82420076D02*
X81751404Y-82773629D01*
X81768240Y-82689450D01*
X81768240Y-82622106D01*
X81751404Y-82571599D01*
X67569847Y-47564965D02*
X67216294Y-47918519D01*
X67502503Y-47969026D02*
X67738206Y-47733324D01*
X67536175Y-47935355D02*
X67536175Y-47969026D01*
X67553011Y-48019534D01*
X67603519Y-48070042D01*
X67654026Y-48086877D01*
X67704534Y-48070042D01*
X67889729Y-47884847D01*
X67923400Y-48187893D02*
X68192774Y-48457267D01*
X68159103Y-48793984D02*
X68159103Y-48827656D01*
X68175938Y-48878164D01*
X68260118Y-48962343D01*
X68310625Y-48979179D01*
X68344297Y-48979179D01*
X68394805Y-48962343D01*
X68428477Y-48928671D01*
X68462148Y-48861328D01*
X68462148Y-48457267D01*
X68681015Y-48676133D01*
X69337614Y-49063358D02*
X69303942Y-49063358D01*
X69219763Y-49080194D01*
X69169255Y-49097030D01*
X69101912Y-49130702D01*
X69000896Y-49198045D01*
X68933553Y-49265389D01*
X68866209Y-49366404D01*
X68832538Y-49433748D01*
X68815702Y-49484255D01*
X68798866Y-49568435D01*
X68798866Y-49602106D01*
X69337614Y-49332732D02*
X69101912Y-49568435D01*
X69169255Y-49501091D02*
X69152419Y-49551599D01*
X69152419Y-49585270D01*
X69169255Y-49635778D01*
X69202927Y-49669450D01*
X69522809Y-49517927D02*
X69472301Y-49938824D01*
X69287106Y-49753629D02*
X69708003Y-49703122D01*
X69943705Y-49669450D02*
X69943705Y-49703122D01*
X69926870Y-49787301D01*
X69910034Y-49837809D01*
X69876362Y-49905152D01*
X69809018Y-50006167D01*
X69741675Y-50073511D01*
X69640660Y-50140854D01*
X69573316Y-50174526D01*
X69522809Y-50191362D01*
X69438629Y-50208198D01*
X69404957Y-50208198D01*
X91406328Y-48541446D02*
X91120118Y-48591954D01*
X91204297Y-48339416D02*
X90850744Y-48692969D01*
X90985431Y-48827656D01*
X91035938Y-48844492D01*
X91069610Y-48844492D01*
X91120118Y-48827656D01*
X91170625Y-48777148D01*
X91187461Y-48726641D01*
X91187461Y-48692969D01*
X91170625Y-48642461D01*
X91035938Y-48507774D01*
X91524179Y-48692969D02*
X91591522Y-48726641D01*
X91675702Y-48810820D01*
X91692538Y-48861328D01*
X91692538Y-48895000D01*
X91675702Y-48945507D01*
X91642030Y-48979179D01*
X91591522Y-48996015D01*
X91557851Y-48996015D01*
X91507343Y-48979179D01*
X91423164Y-48928671D01*
X91372656Y-48911835D01*
X91338984Y-48911835D01*
X91288477Y-48928671D01*
X91254805Y-48962343D01*
X91237969Y-49012851D01*
X91237969Y-49046522D01*
X91254805Y-49097030D01*
X91338984Y-49181209D01*
X91406328Y-49214881D01*
X91490507Y-49332732D02*
X91692538Y-49534763D01*
X91945076Y-49080194D02*
X91591522Y-49433748D01*
X77651763Y-81147879D02*
X77719106Y-81215223D01*
X77769614Y-81232058D01*
X77836958Y-81232058D01*
X77921137Y-81181551D01*
X78038988Y-81063700D01*
X78089496Y-80979520D01*
X78089496Y-80912177D01*
X78072660Y-80861669D01*
X78005316Y-80794326D01*
X77954809Y-80777490D01*
X77887465Y-80777490D01*
X77803286Y-80827997D01*
X77685435Y-80945849D01*
X77634927Y-81030028D01*
X77634927Y-81097371D01*
X77651763Y-81147879D01*
X78224183Y-81484597D02*
X78459885Y-81248894D01*
X78072660Y-81333074D02*
X78257854Y-81147879D01*
X78308362Y-81131043D01*
X78358870Y-81147879D01*
X78409377Y-81198387D01*
X78426213Y-81248894D01*
X78426213Y-81282566D01*
X78342034Y-81602448D02*
X78476721Y-81737135D01*
X78274690Y-81770807D02*
X78577736Y-81467761D01*
X78628244Y-81450925D01*
X78678751Y-81467761D01*
X78712423Y-81501432D01*
X78695587Y-81753971D02*
X78964961Y-82023345D01*
X78931290Y-82360062D02*
X78931290Y-82393734D01*
X78948125Y-82444242D01*
X79032305Y-82528421D01*
X79082812Y-82545257D01*
X79116484Y-82545257D01*
X79166992Y-82528421D01*
X79200664Y-82494749D01*
X79234335Y-82427406D01*
X79234335Y-82023345D01*
X79453202Y-82242211D01*
X75324534Y-48406759D02*
X75391877Y-48474103D01*
X75442385Y-48490938D01*
X75509729Y-48490938D01*
X75593908Y-48440431D01*
X75711759Y-48322580D01*
X75762267Y-48238400D01*
X75762267Y-48171057D01*
X75745431Y-48120549D01*
X75678087Y-48053206D01*
X75627580Y-48036370D01*
X75560236Y-48036370D01*
X75476057Y-48086877D01*
X75358206Y-48204729D01*
X75307698Y-48288908D01*
X75307698Y-48356251D01*
X75324534Y-48406759D01*
X75896954Y-48743477D02*
X76132656Y-48507774D01*
X75745431Y-48591954D02*
X75930625Y-48406759D01*
X75981133Y-48389923D01*
X76031641Y-48406759D01*
X76082148Y-48457267D01*
X76098984Y-48507774D01*
X76098984Y-48541446D01*
X76014805Y-48861328D02*
X76149492Y-48996015D01*
X75947461Y-49029687D02*
X76250507Y-48726641D01*
X76301015Y-48709805D01*
X76351522Y-48726641D01*
X76385194Y-48760312D01*
X76368358Y-49012851D02*
X76637732Y-49282225D01*
X76553553Y-49635778D02*
X76772419Y-49854644D01*
X76789255Y-49602106D01*
X76839763Y-49652614D01*
X76890270Y-49669450D01*
X76923942Y-49669450D01*
X76974450Y-49652614D01*
X77058629Y-49568435D01*
X77075465Y-49517927D01*
X77075465Y-49484255D01*
X77058629Y-49433748D01*
X76957614Y-49332732D01*
X76907106Y-49315896D01*
X76873435Y-49315896D01*
X85913849Y-48802402D02*
X85863341Y-48785566D01*
X85812834Y-48735059D01*
X85779162Y-48667715D01*
X85779162Y-48600372D01*
X85795998Y-48549864D01*
X85846505Y-48465685D01*
X85897013Y-48415177D01*
X85981192Y-48364669D01*
X86031700Y-48347834D01*
X86099043Y-48347834D01*
X86166387Y-48381505D01*
X86200059Y-48415177D01*
X86233730Y-48482521D01*
X86233730Y-48516192D01*
X86115879Y-48634043D01*
X86048536Y-48566700D01*
X86418925Y-48634043D02*
X86065372Y-48987597D01*
X86620956Y-48836074D01*
X86267402Y-49189627D01*
X86789314Y-49004433D02*
X86435761Y-49357986D01*
X86519940Y-49442165D01*
X86587284Y-49475837D01*
X86654627Y-49475837D01*
X86705135Y-49459001D01*
X86789314Y-49408494D01*
X86839822Y-49357986D01*
X86890330Y-49273807D01*
X86907165Y-49223299D01*
X86907165Y-49155956D01*
X86873494Y-49088612D01*
X86789314Y-49004433D01*
X73272774Y-48187893D02*
X72919221Y-48541446D01*
X73205431Y-48591954D02*
X73441133Y-48356251D01*
X73239103Y-48558282D02*
X73239103Y-48591954D01*
X73255938Y-48642461D01*
X73306446Y-48692969D01*
X73356954Y-48709805D01*
X73407461Y-48692969D01*
X73592656Y-48507774D01*
X73626328Y-48810820D02*
X73895702Y-49080194D01*
X73912538Y-49534763D02*
X73946209Y-49568435D01*
X73996717Y-49585270D01*
X74030389Y-49585270D01*
X74080896Y-49568435D01*
X74165076Y-49517927D01*
X74249255Y-49433748D01*
X74299763Y-49349568D01*
X74316599Y-49299061D01*
X74316599Y-49265389D01*
X74299763Y-49214881D01*
X74266091Y-49181209D01*
X74215583Y-49164374D01*
X74181912Y-49164374D01*
X74131404Y-49181209D01*
X74047225Y-49231717D01*
X73963045Y-49315896D01*
X73912538Y-49400076D01*
X73895702Y-49450583D01*
X73895702Y-49484255D01*
X73912538Y-49534763D01*
X82944534Y-81426759D02*
X83011877Y-81494103D01*
X83062385Y-81510938D01*
X83129729Y-81510938D01*
X83213908Y-81460431D01*
X83331759Y-81342580D01*
X83382267Y-81258400D01*
X83382267Y-81191057D01*
X83365431Y-81140549D01*
X83298087Y-81073206D01*
X83247580Y-81056370D01*
X83180236Y-81056370D01*
X83096057Y-81106877D01*
X82978206Y-81224729D01*
X82927698Y-81308908D01*
X82927698Y-81376251D01*
X82944534Y-81426759D01*
X83516954Y-81763477D02*
X83752656Y-81527774D01*
X83365431Y-81611954D02*
X83550625Y-81426759D01*
X83601133Y-81409923D01*
X83651641Y-81426759D01*
X83702148Y-81477267D01*
X83718984Y-81527774D01*
X83718984Y-81561446D01*
X83634805Y-81881328D02*
X83769492Y-82016015D01*
X83567461Y-82049687D02*
X83870507Y-81746641D01*
X83921015Y-81729805D01*
X83971522Y-81746641D01*
X84005194Y-81780312D01*
X83988358Y-82032851D02*
X84257732Y-82302225D01*
X84274568Y-82756793D02*
X84308240Y-82790465D01*
X84358748Y-82807301D01*
X84392419Y-82807301D01*
X84442927Y-82790465D01*
X84527106Y-82739957D01*
X84611286Y-82655778D01*
X84661793Y-82571599D01*
X84678629Y-82521091D01*
X84678629Y-82487419D01*
X84661793Y-82436912D01*
X84628122Y-82403240D01*
X84577614Y-82386404D01*
X84543942Y-82386404D01*
X84493435Y-82403240D01*
X84409255Y-82453748D01*
X84325076Y-82537927D01*
X84274568Y-82622106D01*
X84257732Y-82672614D01*
X84257732Y-82706286D01*
X84274568Y-82756793D01*
X70732774Y-48187893D02*
X70379221Y-48541446D01*
X70665431Y-48591954D02*
X70901133Y-48356251D01*
X70699103Y-48558282D02*
X70699103Y-48591954D01*
X70715938Y-48642461D01*
X70766446Y-48692969D01*
X70816954Y-48709805D01*
X70867461Y-48692969D01*
X71052656Y-48507774D01*
X71086328Y-48810820D02*
X71355702Y-49080194D01*
X71843942Y-49299061D02*
X71641912Y-49097030D01*
X71742927Y-49198045D02*
X71389374Y-49551599D01*
X71406209Y-49467419D01*
X71406209Y-49400076D01*
X71389374Y-49349568D01*
X63053849Y-81822402D02*
X63003341Y-81805566D01*
X62952834Y-81755059D01*
X62919162Y-81687715D01*
X62919162Y-81620372D01*
X62935998Y-81569864D01*
X62986505Y-81485685D01*
X63037013Y-81435177D01*
X63121192Y-81384669D01*
X63171700Y-81367834D01*
X63239043Y-81367834D01*
X63306387Y-81401505D01*
X63340059Y-81435177D01*
X63373730Y-81502521D01*
X63373730Y-81536192D01*
X63255879Y-81654043D01*
X63188536Y-81586700D01*
X63558925Y-81654043D02*
X63205372Y-82007597D01*
X63760956Y-81856074D01*
X63407402Y-82209627D01*
X63929314Y-82024433D02*
X63575761Y-82377986D01*
X63659940Y-82462165D01*
X63727284Y-82495837D01*
X63794627Y-82495837D01*
X63845135Y-82479001D01*
X63929314Y-82428494D01*
X63979822Y-82377986D01*
X64030330Y-82293807D01*
X64047165Y-82243299D01*
X64047165Y-82175956D01*
X64013494Y-82108612D01*
X63929314Y-82024433D01*
X70606353Y-81207893D02*
X70252800Y-81561446D01*
X70539010Y-81611954D02*
X70774712Y-81376251D01*
X70572682Y-81578282D02*
X70572682Y-81611954D01*
X70589517Y-81662461D01*
X70640025Y-81712969D01*
X70690533Y-81729805D01*
X70741040Y-81712969D01*
X70926235Y-81527774D01*
X70959907Y-81830820D02*
X71229281Y-82100194D01*
X71717521Y-82319061D02*
X71515491Y-82117030D01*
X71616506Y-82218045D02*
X71262953Y-82571599D01*
X71279788Y-82487419D01*
X71279788Y-82420076D01*
X71262953Y-82369568D01*
X73272774Y-81207893D02*
X72919221Y-81561446D01*
X73205431Y-81611954D02*
X73441133Y-81376251D01*
X73239103Y-81578282D02*
X73239103Y-81611954D01*
X73255938Y-81662461D01*
X73306446Y-81712969D01*
X73356954Y-81729805D01*
X73407461Y-81712969D01*
X73592656Y-81527774D01*
X73626328Y-81830820D02*
X73895702Y-82100194D01*
X73912538Y-82554763D02*
X73946209Y-82588435D01*
X73996717Y-82605270D01*
X74030389Y-82605270D01*
X74080896Y-82588435D01*
X74165076Y-82537927D01*
X74249255Y-82453748D01*
X74299763Y-82369568D01*
X74316599Y-82319061D01*
X74316599Y-82285389D01*
X74299763Y-82234881D01*
X74266091Y-82201209D01*
X74215583Y-82184374D01*
X74181912Y-82184374D01*
X74131404Y-82201209D01*
X74047225Y-82251717D01*
X73963045Y-82335896D01*
X73912538Y-82420076D01*
X73895702Y-82470583D01*
X73895702Y-82504255D01*
X73912538Y-82554763D01*
X65038265Y-47573383D02*
X64684712Y-47926937D01*
X64970921Y-47977444D02*
X65206624Y-47741742D01*
X65004593Y-47943773D02*
X65004593Y-47977444D01*
X65021429Y-48027952D01*
X65071937Y-48078460D01*
X65122444Y-48095295D01*
X65172952Y-48078460D01*
X65358147Y-47893265D01*
X65391818Y-48196311D02*
X65661192Y-48465685D01*
X65577013Y-48819238D02*
X65795879Y-49038104D01*
X65812715Y-48785566D01*
X65863223Y-48836074D01*
X65913730Y-48852910D01*
X65947402Y-48852910D01*
X65997910Y-48836074D01*
X66082089Y-48751895D01*
X66098925Y-48701387D01*
X66098925Y-48667715D01*
X66082089Y-48617208D01*
X65981074Y-48516192D01*
X65930566Y-48499356D01*
X65896895Y-48499356D01*
X66806032Y-49071776D02*
X66772360Y-49071776D01*
X66688181Y-49088612D01*
X66637673Y-49105448D01*
X66570330Y-49139120D01*
X66469314Y-49206463D01*
X66401971Y-49273807D01*
X66334627Y-49374822D01*
X66300956Y-49442165D01*
X66284120Y-49492673D01*
X66267284Y-49576852D01*
X66267284Y-49610524D01*
X66519822Y-49526345D02*
X66654509Y-49661032D01*
X66452478Y-49694704D02*
X66755524Y-49391658D01*
X66806032Y-49374822D01*
X66856539Y-49391658D01*
X66890211Y-49425330D01*
X66974391Y-49509509D02*
X66923883Y-49930406D01*
X66738688Y-49745211D02*
X67159585Y-49694704D01*
X67395287Y-49661032D02*
X67395287Y-49694704D01*
X67378452Y-49778883D01*
X67361616Y-49829391D01*
X67327944Y-49896734D01*
X67260600Y-49997749D01*
X67193257Y-50065093D01*
X67092242Y-50132436D01*
X67024898Y-50166108D01*
X66974391Y-50182944D01*
X66890211Y-50199780D01*
X66856539Y-50199780D01*
X67732417Y-81143324D02*
X67378864Y-81496877D01*
X67665074Y-81547385D02*
X67900776Y-81311682D01*
X67698746Y-81513713D02*
X67698746Y-81547385D01*
X67715581Y-81597892D01*
X67766089Y-81648400D01*
X67816597Y-81665236D01*
X67867104Y-81648400D01*
X68052299Y-81463205D01*
X68085971Y-81766251D02*
X68355345Y-82035625D01*
X68321673Y-82372343D02*
X68321673Y-82406014D01*
X68338509Y-82456522D01*
X68422688Y-82540701D01*
X68473196Y-82557537D01*
X68506868Y-82557537D01*
X68557375Y-82540701D01*
X68591047Y-82507030D01*
X68624719Y-82439686D01*
X68624719Y-82035625D01*
X68843585Y-82254492D01*
X68680446Y-80683536D02*
X68646774Y-80683536D01*
X68562594Y-80700372D01*
X68512087Y-80717208D01*
X68444743Y-80750879D01*
X68343728Y-80818223D01*
X68276385Y-80885566D01*
X68209041Y-80986582D01*
X68175369Y-81053925D01*
X68158533Y-81104433D01*
X68141698Y-81188612D01*
X68141698Y-81222284D01*
X68680446Y-80952910D02*
X68444743Y-81188612D01*
X68512087Y-81121269D02*
X68495251Y-81171776D01*
X68495251Y-81205448D01*
X68512087Y-81255956D01*
X68545759Y-81289627D01*
X68865640Y-81138105D02*
X68815133Y-81559001D01*
X68629938Y-81373807D02*
X69050835Y-81323299D01*
X69286537Y-81289627D02*
X69286537Y-81323299D01*
X69269701Y-81407479D01*
X69252865Y-81457986D01*
X69219194Y-81525330D01*
X69151850Y-81626345D01*
X69084507Y-81693688D01*
X68983491Y-81761032D01*
X68916148Y-81794704D01*
X68865640Y-81811540D01*
X68781461Y-81828375D01*
X68747789Y-81828375D01*
X80404534Y-48406759D02*
X80471877Y-48474103D01*
X80522385Y-48490938D01*
X80589729Y-48490938D01*
X80673908Y-48440431D01*
X80791759Y-48322580D01*
X80842267Y-48238400D01*
X80842267Y-48171057D01*
X80825431Y-48120549D01*
X80758087Y-48053206D01*
X80707580Y-48036370D01*
X80640236Y-48036370D01*
X80556057Y-48086877D01*
X80438206Y-48204729D01*
X80387698Y-48288908D01*
X80387698Y-48356251D01*
X80404534Y-48406759D01*
X80976954Y-48743477D02*
X81212656Y-48507774D01*
X80825431Y-48591954D02*
X81010625Y-48406759D01*
X81061133Y-48389923D01*
X81111641Y-48406759D01*
X81162148Y-48457267D01*
X81178984Y-48507774D01*
X81178984Y-48541446D01*
X81094805Y-48861328D02*
X81229492Y-48996015D01*
X81027461Y-49029687D02*
X81330507Y-48726641D01*
X81381015Y-48709805D01*
X81431522Y-48726641D01*
X81465194Y-48760312D01*
X81448358Y-49012851D02*
X81717732Y-49282225D01*
X82205973Y-49501091D02*
X82003942Y-49299061D01*
X82104957Y-49400076D02*
X81751404Y-49753629D01*
X81768240Y-49669450D01*
X81768240Y-49602106D01*
X81751404Y-49551599D01*
X77864534Y-48406759D02*
X77931877Y-48474103D01*
X77982385Y-48490938D01*
X78049729Y-48490938D01*
X78133908Y-48440431D01*
X78251759Y-48322580D01*
X78302267Y-48238400D01*
X78302267Y-48171057D01*
X78285431Y-48120549D01*
X78218087Y-48053206D01*
X78167580Y-48036370D01*
X78100236Y-48036370D01*
X78016057Y-48086877D01*
X77898206Y-48204729D01*
X77847698Y-48288908D01*
X77847698Y-48356251D01*
X77864534Y-48406759D01*
X78436954Y-48743477D02*
X78672656Y-48507774D01*
X78285431Y-48591954D02*
X78470625Y-48406759D01*
X78521133Y-48389923D01*
X78571641Y-48406759D01*
X78622148Y-48457267D01*
X78638984Y-48507774D01*
X78638984Y-48541446D01*
X78554805Y-48861328D02*
X78689492Y-48996015D01*
X78487461Y-49029687D02*
X78790507Y-48726641D01*
X78841015Y-48709805D01*
X78891522Y-48726641D01*
X78925194Y-48760312D01*
X78908358Y-49012851D02*
X79177732Y-49282225D01*
X79144061Y-49618942D02*
X79144061Y-49652614D01*
X79160896Y-49703122D01*
X79245076Y-49787301D01*
X79295583Y-49804137D01*
X79329255Y-49804137D01*
X79379763Y-49787301D01*
X79413435Y-49753629D01*
X79447106Y-49686286D01*
X79447106Y-49282225D01*
X79665973Y-49501091D01*
D12*
%TO.C,J5*%
X66420000Y-84872929D02*
X66420000Y-85270000D01*
X86740000Y-84872929D02*
X86740000Y-85270000D01*
X63880000Y-84940000D02*
X63880000Y-85270000D01*
X85980000Y-84872929D02*
X85980000Y-85270000D01*
X69850000Y-85270000D02*
X69850000Y-87930000D01*
X62230000Y-82560000D02*
X62230000Y-83830000D01*
X91820000Y-93930000D02*
X91820000Y-87930000D01*
X70740000Y-84872929D02*
X70740000Y-85270000D01*
X82550000Y-85270000D02*
X82550000Y-87930000D01*
X78360000Y-93930000D02*
X79120000Y-93930000D01*
X85980000Y-93930000D02*
X86740000Y-93930000D01*
X63500000Y-82560000D02*
X62230000Y-82560000D01*
X73280000Y-93930000D02*
X74040000Y-93930000D01*
X73280000Y-84872929D02*
X73280000Y-85270000D01*
X63880000Y-93930000D02*
X63880000Y-87930000D01*
X91820000Y-84872929D02*
X91820000Y-85270000D01*
X63300000Y-87930000D02*
X63300000Y-93930000D01*
X76580000Y-84872929D02*
X76580000Y-85270000D01*
X84200000Y-84872929D02*
X84200000Y-85270000D01*
X63540000Y-87930000D02*
X63540000Y-93930000D01*
X80900000Y-93930000D02*
X81660000Y-93930000D01*
X84200000Y-93930000D02*
X84200000Y-87930000D01*
X88520000Y-87930000D02*
X88520000Y-93930000D01*
X80900000Y-84872929D02*
X80900000Y-85270000D01*
X75820000Y-93930000D02*
X76580000Y-93930000D01*
X68200000Y-93930000D02*
X68960000Y-93930000D01*
X88520000Y-93930000D02*
X89280000Y-93930000D01*
X91060000Y-87930000D02*
X91060000Y-93930000D01*
X87630000Y-85270000D02*
X87630000Y-87930000D01*
X78360000Y-87930000D02*
X78360000Y-93930000D01*
X63120000Y-87930000D02*
X63120000Y-93930000D01*
X80900000Y-87930000D02*
X80900000Y-93930000D01*
X72390000Y-85270000D02*
X72390000Y-87930000D01*
X63420000Y-87930000D02*
X63420000Y-93930000D01*
X92770000Y-85270000D02*
X92770000Y-87930000D01*
X68200000Y-84872929D02*
X68200000Y-85270000D01*
X64770000Y-85270000D02*
X64770000Y-87930000D01*
X67310000Y-85270000D02*
X67310000Y-87930000D01*
X89280000Y-93930000D02*
X89280000Y-87930000D01*
X75820000Y-84872929D02*
X75820000Y-85270000D01*
X66420000Y-93930000D02*
X66420000Y-87930000D01*
X73280000Y-87930000D02*
X73280000Y-93930000D01*
X62170000Y-85270000D02*
X92770000Y-85270000D01*
X79120000Y-84872929D02*
X79120000Y-85270000D01*
X81660000Y-93930000D02*
X81660000Y-87930000D01*
X77470000Y-85270000D02*
X77470000Y-87930000D01*
X85980000Y-87930000D02*
X85980000Y-93930000D01*
X76580000Y-93930000D02*
X76580000Y-87930000D01*
X71500000Y-93930000D02*
X71500000Y-87930000D01*
X62170000Y-87930000D02*
X62170000Y-85270000D01*
X85090000Y-85270000D02*
X85090000Y-87930000D01*
X86740000Y-93930000D02*
X86740000Y-87930000D01*
X78360000Y-84872929D02*
X78360000Y-85270000D01*
X74040000Y-93930000D02*
X74040000Y-87930000D01*
X68960000Y-93930000D02*
X68960000Y-87930000D01*
X63180000Y-87930000D02*
X63180000Y-93930000D01*
X68200000Y-87930000D02*
X68200000Y-93930000D01*
X68960000Y-84872929D02*
X68960000Y-85270000D01*
X65660000Y-84872929D02*
X65660000Y-85270000D01*
X81660000Y-84872929D02*
X81660000Y-85270000D01*
X79120000Y-93930000D02*
X79120000Y-87930000D01*
X63120000Y-93930000D02*
X63880000Y-93930000D01*
X74040000Y-84872929D02*
X74040000Y-85270000D01*
X92770000Y-87930000D02*
X62170000Y-87930000D01*
X88520000Y-84872929D02*
X88520000Y-85270000D01*
X70740000Y-87930000D02*
X70740000Y-93930000D01*
X83440000Y-84872929D02*
X83440000Y-85270000D01*
X91060000Y-84872929D02*
X91060000Y-85270000D01*
X90170000Y-85270000D02*
X90170000Y-87930000D01*
X63660000Y-87930000D02*
X63660000Y-93930000D01*
X65660000Y-87930000D02*
X65660000Y-93930000D01*
X65660000Y-93930000D02*
X66420000Y-93930000D01*
X80010000Y-85270000D02*
X80010000Y-87930000D01*
X89280000Y-84872929D02*
X89280000Y-85270000D01*
X74930000Y-85270000D02*
X74930000Y-87930000D01*
X75820000Y-87930000D02*
X75820000Y-93930000D01*
X83440000Y-93930000D02*
X84200000Y-93930000D01*
X71500000Y-84872929D02*
X71500000Y-85270000D01*
X63780000Y-87930000D02*
X63780000Y-93930000D01*
X91060000Y-93930000D02*
X91820000Y-93930000D01*
X70740000Y-93930000D02*
X71500000Y-93930000D01*
X63120000Y-84940000D02*
X63120000Y-85270000D01*
X83440000Y-87930000D02*
X83440000Y-93930000D01*
%TD*%
M02*
